<?xml version="1.0" encoding="UTF-8"?>
<svg version="1.1" xmlns="http://www.w3.org/2000/svg" width="600" height="600">
<path d="M0 0 C198 0 396 0 600 0 C600 198 600 396 600 600 C402 600 204 600 0 600 C0 402 0 204 0 0 Z " fill="#1F1E1F" transform="translate(0,0)"/>
<path d="M0 0 C198 0 396 0 600 0 C600 198 600 396 600 600 C402 600 204 600 0 600 C0 402 0 204 0 0 Z M242.84887695 47.22412109 C241 48 241 48 237.60546875 48.7890625 C231.41774761 50.28502631 225.5532908 52.7106322 219.625 55 C218.3409254 55.49360028 217.05674394 55.98692267 215.77246094 56.47998047 C213.7982767 57.23808417 211.82429163 57.99667664 209.85107422 58.7572937 C205.54992005 60.41344786 201.23658624 62.03300425 196.9140625 63.6328125 C178.85224005 70.35403779 163.12013114 78.29822621 147.21875 89.1484375 C142.61959849 92.28140267 137.9082197 95.18296136 133.1484375 98.06640625 C129.68387912 100.19414372 126.28050725 102.40467945 122.875 104.625 C118.75469484 107.30602823 114.59637754 109.8232564 110.25 112.125 C105.91459689 114.4338688 101.96783993 117.02354515 97.984375 119.890625 C94.1046585 122.632833 90.14749327 125.25060633 86.1875 127.875 C78.72902349 132.83043113 71.32862925 137.85359286 64 143 C63.42797852 143.39928711 62.85595703 143.79857422 62.26660156 144.20996094 C56.1687932 148.47144076 50.19216432 152.76338786 44.5 157.5625 C39.75638035 161.55451474 34.74552973 164.84659262 29.41796875 167.99438477 C27.89645889 168.92038215 26.44065491 169.95263337 25 171 C25 171.99 25 172.98 25 174 C25.928125 174.3403125 25.928125 174.3403125 26.875 174.6875 C29.66921613 176.41333937 29.85567139 177.95559778 31 181 C32.84343171 184.76677466 34.80567674 188.47194568 36.75 192.1875 C37.26304688 193.17814453 37.77609375 194.16878906 38.3046875 195.18945312 C41.20387277 200.74379676 44.25923272 206.14615603 47.51757812 211.49633789 C50.15067852 215.9433808 52.50494022 220.53395795 54.875 225.125 C55.39457275 226.12619873 55.91414551 227.12739746 56.44946289 228.15893555 C61.24394062 237.4207419 65.91068013 246.74234953 70.52734375 256.09375 C70.97207031 256.9909375 71.41679688 257.888125 71.875 258.8125 C72.24367187 259.56144531 72.61234375 260.31039062 72.9921875 261.08203125 C74.07921638 263.23149989 74.07921638 263.23149989 76 266 C78.5799904 266.43460466 78.5799904 266.43460466 81.6171875 266.328125 C82.77234863 266.32377441 83.92750977 266.31942383 85.11767578 266.31494141 C86.35759277 266.29351074 87.59750977 266.27208008 88.875 266.25 C90.13683105 266.23759277 91.39866211 266.22518555 92.69873047 266.21240234 C114.84564123 267.05292078 114.84564123 267.05292078 136 262 C135.85870667 262.7287886 135.71741333 263.45757721 135.57183838 264.20845032 C133.53550543 276.21306621 133.70982067 288.15110017 133.734375 300.29296875 C133.73302187 302.68427062 133.73107601 305.07557222 133.72857666 307.46687317 C133.72563479 312.48909108 133.7298788 317.5112377 133.73925781 322.53344727 C133.75042596 328.80316466 133.74405246 335.07270788 133.73235607 341.34241867 C133.68990496 368.38582152 134.09718728 395.34914487 135.28321838 422.36701965 C136.01687204 439.19421331 136.28640552 455.97973673 136.19703293 472.82113266 C136.18379601 475.67302381 136.1794204 478.52491079 136.17440128 481.37682629 C136.13972722 499.32886151 135.95242958 517.27570179 135.26831055 535.21630859 C135.219729 536.53066895 135.17114746 537.8450293 135.12109375 539.19921875 C135.0739624 540.31127686 135.02683105 541.42333496 134.97827148 542.5690918 C134.71561 544.94919612 134.71561 544.94919612 136 546 C137.37101091 546.11185742 138.74758402 546.15670434 140.12304688 546.17358398 C141.00409592 546.18715942 141.88514496 546.20073486 142.79289246 546.21472168 C144.24119194 546.23025085 144.24119194 546.23025085 145.71875 546.24609375 C147.7758026 546.27758396 149.83284997 546.30941689 151.88989258 546.34155273 C153.51116562 546.3646199 153.51116562 546.3646199 155.16519165 546.38815308 C185.55216457 546.83780519 185.55216457 546.83780519 198.8125 547.9375 C199.72515625 548.01218506 200.6378125 548.08687012 201.578125 548.16381836 C205.80988999 548.55712452 209.94150573 549.1548559 214.11279297 549.96923828 C237.455069 554.24771854 261.74767491 553.37743963 285.38934326 553.54260254 C292.81609782 553.59541358 300.24273379 553.65998889 307.66933632 553.73081779 C310.23675521 553.75341156 312.80415894 553.76981029 315.37162781 553.78553772 C316.94461249 553.79894378 318.51759541 553.81255853 320.09057617 553.82641602 C320.79132263 553.82902939 321.49206909 553.83164276 322.21405029 553.83433533 C326.55714811 553.87959279 330.71213228 554.33180765 335 555 C337.74052876 555.19576419 340.47161949 555.36549919 343.21484375 555.5 C343.988246 555.54060547 344.76164825 555.58121094 345.55848694 555.62304688 C348.01801525 555.75165694 350.4777338 555.87603108 352.9375 556 C359.29202247 556.32662539 365.64628681 556.65797333 372 557 C372.76886536 557.04125 373.53773071 557.0825 374.32989502 557.125 C376.53401998 557.24542921 378.73772805 557.37168138 380.94140625 557.5 C382.20799072 557.5721875 383.4745752 557.644375 384.77954102 557.71875 C387.36542916 557.94458149 389.51059065 558.3685521 392 559 C394.19602115 559.20452877 396.39624182 559.36540653 398.59765625 559.5 C399.25236908 559.54028824 399.90708191 559.58057648 400.58163452 559.62208557 C402.74167195 559.75276472 404.90202512 559.87677877 407.0625 560 C407.80210968 560.04357635 408.54171936 560.08715271 409.30374146 560.13204956 C422.8669981 560.92640161 436.43089048 561.37794031 450.01391602 561.65820312 C450.72947662 561.6744725 451.44503723 561.69074188 452.18228149 561.70750427 C454.11679944 561.75099925 456.05144071 561.78890775 457.98608398 561.82641602 C461 562 461 562 464 563 C465.51861755 563.09203743 467.04110426 563.13001284 468.5625 563.125 C469.74005859 563.12886719 469.74005859 563.12886719 470.94140625 563.1328125 C473.06438977 563.12976366 473.06438977 563.12976366 475 562 C475.05855176 558.47923768 475.0937806 554.9586024 475.125 551.4375 C475.14175781 550.44685547 475.15851563 549.45621094 475.17578125 548.43554688 C475.18222656 547.46552734 475.18867188 546.49550781 475.1953125 545.49609375 C475.20578613 544.61107178 475.21625977 543.7260498 475.22705078 542.81420898 C475.0908536 539.89034557 475.0908536 539.89034557 474.02522278 536.77235413 C472.20533377 530.07598926 472.19387985 523.15273248 471.87890625 516.25 C471.83666994 515.3568811 471.79443363 514.46376221 471.75091743 513.5435791 C470.22956256 479.93466951 470.81850196 446.22512209 470.92095947 412.59155273 C470.96291317 398.68422416 470.99157562 384.77686241 471.01274782 370.86948776 C471.02107219 365.68833805 471.03500019 360.50724451 471.05372036 355.32612228 C471.0644198 352.1156199 471.07096475 348.90511796 471.07652092 345.69460297 C471.07996408 344.21885401 471.08514747 342.74310782 471.09228897 341.26737213 C471.63668462 325.65326405 471.63668462 325.65326405 467.375 310.9375 C464.53586654 304.58637486 464.28369268 299.60088169 466.72558594 293.05493164 C468.90888755 287.15599337 469.40172084 282.07572606 469.25 275.8125 C469.24484375 274.94947266 469.2396875 274.08644531 469.234375 273.19726562 C469.17930431 268.69867897 468.89805512 264.42509416 468 260 C468.52207031 259.82984375 469.04414063 259.6596875 469.58203125 259.484375 C474.88194832 257.73939355 480.11197258 255.85942382 485.32421875 253.8671875 C486.20722656 253.58101562 487.09023438 253.29484375 488 253 C488.93199219 252.69707031 489.86398437 252.39414063 490.82421875 252.08203125 C495.55484674 251.95983791 498.31356533 254.19965193 502.125 256.8125 C503.5225894 257.73696051 504.92100141 258.66017886 506.3203125 259.58203125 C506.93148926 259.99686768 507.54266602 260.4117041 508.17236328 260.83911133 C511.76098764 263.25381431 511.76098764 263.25381431 515.875 263.875 C525.8876989 259.75212398 529.68864717 250.67430708 534.75732422 241.64257812 C537.35721141 237.03629608 540.14950195 232.57934495 543 228.125 C546.73939985 222.24575752 549.98744579 216.2586657 553.0378418 209.99829102 C557.51374434 200.8330284 562.36931586 191.86936511 568.05078125 183.390625 C568.81684692 182.24388306 568.81684692 182.24388306 569.59838867 181.07397461 C570.59592621 179.59625348 571.60731818 178.1277658 572.6340332 176.67016602 C575.31135543 172.78325409 575.31135543 172.78325409 576.078125 168.2265625 C574.69860249 165.37754863 573.26582054 164.29944348 570.625 162.5625 C569.70589844 161.95792969 568.78679688 161.35335937 567.83984375 160.73046875 C564.43085093 158.65318702 560.94587776 156.77611659 557.41796875 154.91015625 C552.85131479 152.35804907 548.43492639 149.58563102 544 146.8125 C537.24788459 142.59765906 530.46423925 138.46546658 523.5625 134.5 C522.79921387 134.06099365 522.03592773 133.6219873 521.24951172 133.16967773 C519.67017185 132.2617298 518.09074315 131.35393634 516.51123047 130.44628906 C482.39373395 110.7970523 482.39373395 110.7970523 475.625 103.625 C473.17914652 100.83065533 473.17914652 100.83065533 469.87109375 99.765625 C465.03049486 97.79423167 461.37557248 94.49248953 457.4375 91.125 C456.70853516 90.51269531 455.97957031 89.90039062 455.22851562 89.26953125 C452.56374702 87.02930274 449.90640787 84.78099375 447.26904297 82.50854492 C439.62757268 75.98857207 430.10365047 73.61533774 420.6953125 70.5625 C417.32777107 69.46067604 413.99749231 68.28104562 410.671875 67.05859375 C404.86456929 64.92853999 399.00193679 62.99027144 393.125 61.0625 C384.64921277 58.25927451 376.28611639 55.32564401 368 52 C365.6898221 51.07749683 363.37729128 50.16086518 361.0625 49.25 C359.53302734 48.63898437 359.53302734 48.63898437 357.97265625 48.015625 C354.85945046 46.95198045 352.29738156 46.12293833 349 46 C346.4885257 47.74813622 346.4885257 47.74813622 344 50 C341.58197309 51.14336567 339.23629686 52.16795294 336.75 53.125 C336.13253906 53.37636719 335.51507813 53.62773438 334.87890625 53.88671875 C316.05876286 61.29836285 293.06989583 59.99011769 274 54 C273.34306152 53.79681152 272.68612305 53.59362305 272.00927734 53.38427734 C266.41171639 51.61201754 260.97080262 49.74420524 255.9375 46.6875 C250.80931204 43.74151968 248.05157895 44.82138606 242.84887695 47.22412109 Z " fill="#FEFEFE" transform="translate(0,0)"/>
<path d="M0 0 C3.3 0 6.6 0 10 0 C11.79515734 3.91916696 12.37657699 7.33473606 12.7109375 11.62109375 C12.82179688 12.88630859 12.93265625 14.15152344 13.046875 15.45507812 C13.2652535 18.10551722 13.47621797 20.75657783 13.6796875 23.40820312 C13.84984375 25.30795898 13.84984375 25.30795898 14.0234375 27.24609375 C14.11544434 28.39779053 14.20745117 29.5494873 14.30224609 30.73608398 C14.78787233 34.10845082 14.78787233 34.10845082 17.02783203 36.74023438 C19.8637366 41.42765673 19.57466629 45.53045096 19.53125 50.91015625 C19.5350769 51.95521835 19.53890381 53.00028046 19.54284668 54.07701111 C19.54556157 56.27994758 19.53823015 58.48291652 19.52148438 60.68579102 C19.50004816 64.05493015 19.52131261 67.42194206 19.546875 70.79101562 C19.54423207 72.93490053 19.53910782 75.07878412 19.53125 77.22265625 C19.53934692 78.2279689 19.54744385 79.23328156 19.55578613 80.26905823 C19.49778024 84.5992771 19.39032336 87.30451967 17.2421875 91.13208008 C14.77167661 93.19021148 13.76202349 93.64022553 10.59375 93.6640625 C9.76746094 93.67050781 8.94117188 93.67695313 8.08984375 93.68359375 C7.23519531 93.66425781 6.38054687 93.64492188 5.5 93.625 C4.64535156 93.64433594 3.79070312 93.66367187 2.91015625 93.68359375 C1.67072266 93.67392578 1.67072266 93.67392578 0.40625 93.6640625 C-0.71813477 93.65560303 -0.71813477 93.65560303 -1.86523438 93.64697266 C-5.33582504 92.59515824 -6.23479202 91.1611933 -8 88 C-8.58519862 84.32124106 -8.56047439 80.68751668 -8.53125 76.96875 C-8.5350769 75.9000769 -8.53890381 74.83140381 -8.54284668 73.73034668 C-8.54556464 71.47435563 -8.53821165 69.21833301 -8.52148438 66.96240234 C-8.50007433 63.51197966 -8.52129128 60.06363927 -8.546875 56.61328125 C-8.5442317 54.41926624 -8.53910669 52.22525253 -8.53125 50.03125 C-8.53934692 49.00092651 -8.54744385 47.97060303 -8.55578613 46.90905762 C-8.47964064 41.08429242 -8.02998695 38.42014203 -4 34 C-3.20243591 30.81411233 -3.20243591 30.81411233 -2.98828125 27.34375 C-2.87033203 26.07402344 -2.75238281 24.80429688 -2.63085938 23.49609375 C-2.52408522 22.16411479 -2.4179714 20.83208275 -2.3125 19.5 C-2.08445471 16.8849534 -1.84818319 14.27069532 -1.61328125 11.65625 C-1.51829346 10.49931641 -1.42330566 9.34238281 -1.32543945 8.15039062 C-1.0387286 5.37490907 -0.60296473 2.72179107 0 0 Z " fill="#F8F8F8" transform="translate(256,194)"/>
<path d="M0 0 C0.75539062 -0.03738281 1.51078125 -0.07476562 2.2890625 -0.11328125 C6.41407155 -0.17818524 8.15712369 0.037294 11.6015625 2.5234375 C13.88013411 5.73455193 14.36959154 7.47640669 14.625 11.375 C14.70363281 12.57253906 14.78226563 13.77007812 14.86328125 15.00390625 C14.98789916 21.60865534 15.02054199 27.06546825 12.625 33.3125 C9.82080122 41.03875398 10.36472453 48.84172413 10.59765625 56.97045898 C10.62472656 58.02563721 10.65179688 59.08081543 10.6796875 60.16796875 C10.71562012 61.1221167 10.75155273 62.07626465 10.78857422 63.05932617 C10.625 65.375 10.625 65.375 8.625 67.375 C5.3247381 68.531565 2.09937799 68.54078514 -1.375 68.5625 C-2.40625 68.57667969 -3.4375 68.59085937 -4.5 68.60546875 C-7.38638299 68.37408751 -8.87570571 67.72822573 -11.375 66.375 C-11.35405273 65.71604736 -11.33310547 65.05709473 -11.31152344 64.37817383 C-10.73991292 48.25640754 -10.73991292 48.25640754 -14.48046875 32.734375 C-16.72326938 24.31163027 -16.74843903 12.82116922 -14.375 4.375 C-10.66508616 -0.34670852 -5.56200524 0.10334807 0 0 Z " fill="#2E2F2C" transform="translate(225.375,218.625)"/>
<path d="M0 0 C2.54257344 0.07783636 5.08526272 0.14516198 7.62817383 0.2109375 C21.07410062 0.58144463 21.07410062 0.58144463 27.0168457 1.24609375 C36.61549712 2.23589386 46.38722409 1.72297255 56.02270508 1.60717773 C58.73299796 1.57677074 61.44315437 1.55915119 64.15356445 1.54296875 C64.96943024 1.52950912 65.78529602 1.5160495 66.62588501 1.50218201 C73.71396354 1.47166092 80.30246103 2.32847074 86.61450195 5.703125 C86.61450195 6.363125 86.61450195 7.023125 86.61450195 7.703125 C91.56450195 8.033125 96.51450195 8.363125 101.61450195 8.703125 C101.61450195 9.033125 101.61450195 9.363125 101.61450195 9.703125 C90.63381425 9.74986824 79.65315097 9.78520427 68.67238331 9.80674934 C63.57126617 9.81710004 58.47021806 9.8310958 53.36914062 9.85400391 C48.42833993 9.87604841 43.4876048 9.88775874 38.54675865 9.89287949 C36.68012144 9.89651948 34.81348701 9.90362327 32.94687843 9.91458511 C20.546703 9.98437944 8.39381973 9.32257799 -3.93303871 7.96828842 C-8.90626219 7.43057637 -13.88621173 6.95194195 -18.86708546 6.49067497 C-24.1586511 5.92997194 -24.1586511 5.92997194 -26.38549805 3.703125 C-26.38549805 2.713125 -26.38549805 1.723125 -26.38549805 0.703125 C-17.55261782 -0.50834476 -8.88431465 -0.27370566 0 0 Z " fill="#151215" transform="translate(220.385498046875,542.296875)"/>
<path d="M0 0 C2.64 0 5.28 0 8 0 C8 0.99 8 1.98 8 3 C6.35 3 4.7 3 3 3 C3 5.31 3 7.62 3 10 C4.65 10 6.3 10 8 10 C8.12375 8.72125 8.2475 7.4425 8.375 6.125 C8.75 2.25 8.75 2.25 11 0 C14.5 -0.3125 14.5 -0.3125 18 0 C18.66 0.99 19.32 1.98 20 3 C20.37125 2.505 20.7425 2.01 21.125 1.5 C23.79160885 -0.63328708 25.67893663 -0.35330461 29 0 C31 2 31 2 31 6 C30.01 6 29.02 6 28 6 C28 5.01 28 4.02 28 3 C27.01 3 26.02 3 25 3 C25 5.31 25 7.62 25 10 C25.804375 10.309375 26.60875 10.61875 27.4375 10.9375 C30 12 30 12 31 13 C31.16796875 14.99609375 31.16796875 14.99609375 31.1875 17.4375 C31.20167969 18.24058594 31.21585937 19.04367188 31.23046875 19.87109375 C31 22 31 22 29 24 C25.875 24.125 25.875 24.125 23 24 C23 23.34 23 22.68 23 22 C22.113125 22.33 21.22625 22.66 20.3125 23 C17.2408841 23.92728027 15.1596765 24.16629876 12 24 C10.68 24 9.36 24 8 24 C5.36 24 2.72 24 0 24 C0 16.08 0 8.16 0 0 Z " fill="#3E3E3F" transform="translate(283,228)"/>
<path d="M0 0 C1.98 0 3.96 0 6 0 C6.66 3.63 7.32 7.26 8 11 C8.33 7.37 8.66 3.74 9 0 C13.29 0 17.58 0 22 0 C20.22711631 11.27047488 20.22711631 11.27047488 18.96875 15.3125 C17.80864401 19.72838733 17.55077102 23.89308674 17.375 28.4375 C17.33632812 29.26443359 17.29765625 30.09136719 17.2578125 30.94335938 C17.16446908 32.96191073 17.08119039 34.98092331 17 37 C13.04 37 9.08 37 5 37 C4.96132812 35.51113281 4.96132812 35.51113281 4.921875 33.9921875 C4.60235153 25.53476799 3.55880385 18.24371391 0.83984375 10.18359375 C-0.08566368 6.67527488 -0.14122914 3.61273239 0 0 Z " fill="#FAFC07" transform="translate(214,239)"/>
<path d="M0 0 C0.66 0 1.32 0 2 0 C2.25 7.625 2.25 7.625 0 11 C-2.5 11.3125 -2.5 11.3125 -5 11 C-5.66 10.34 -6.32 9.68 -7 9 C-7 7.68 -7 6.36 -7 5 C-11.29 5 -15.58 5 -20 5 C-19.98059527 17.78369482 -19.98059527 17.78369482 -16.9375 30.0625 C-13.89444414 37.76351862 -14.67460318 45.86507951 -15 54 C-9.72 54 -4.44 54 1 54 C0.94779297 52.25976562 0.94779297 52.25976562 0.89453125 50.484375 C0.60215545 36.30871694 0.60215545 36.30871694 2.5 30.1875 C5.13988974 21.44983678 4.24750413 12.03199676 4 3 C4.99 3 5.98 3 7 3 C9.57454059 10.72362177 8.89356747 20.42240428 6 27.9375 C3.19580122 35.66375398 3.73972453 43.46672413 3.97265625 51.59545898 C3.99972656 52.65063721 4.02679688 53.70581543 4.0546875 54.79296875 C4.09062012 55.7471167 4.12655273 56.70126465 4.16357422 57.68432617 C4 60 4 60 2 62 C-1.3002619 63.156565 -4.52562201 63.16578514 -8 63.1875 C-9.03125 63.20167969 -10.0625 63.21585937 -11.125 63.23046875 C-14.01138299 62.99908751 -15.50070571 62.35322573 -18 61 C-17.97905273 60.34104736 -17.95810547 59.68209473 -17.93652344 59.00317383 C-17.35720813 42.88737842 -17.35720813 42.88737842 -21.10546875 27.375 C-23.04951303 20.04026524 -22.76546361 11.53849676 -22 4 C-21 3 -21 3 -17.40234375 2.90234375 C-15.91403133 2.9090178 -14.42573568 2.92097817 -12.9375 2.9375 C-12.17888672 2.94201172 -11.42027344 2.94652344 -10.63867188 2.95117188 C-8.75908129 2.9629932 -6.87953101 2.98092922 -5 3 C-4.67 4.65 -4.34 6.3 -4 8 C-3.01 8 -2.02 8 -1 8 C-0.67 5.36 -0.34 2.72 0 0 Z " fill="#E8E7E6" transform="translate(232,224)"/>
<path d="M0 0 C0.33 0 0.66 0 1 0 C1.33 1.65 1.66 3.3 2 5 C5.13349732 6.04449911 5.98968256 5.93423645 9 5 C8.67 5.66 8.34 6.32 8 7 C9.32 7.33 10.64 7.66 12 8 C11.7215625 8.928125 11.7215625 8.928125 11.4375 9.875 C10.76313824 12.04160178 10.76313824 12.04160178 12 14 C11.34 14 10.68 14 10 14 C10 14.66 10 15.32 10 16 C8.68 16 7.36 16 6 16 C6.33 17.65 6.66 19.3 7 21 C6.34 21 5.68 21 5 21 C4.67 20.34 4.34 19.68 4 19 C2.68 19 1.36 19 0 19 C-0.33 20.32 -0.66 21.64 -1 23 C-1.66 23 -2.32 23 -3 23 C-3 21.35 -3 19.7 -3 18 C-6.96 18.495 -6.96 18.495 -11 19 C-10.34 18.01 -9.68 17.02 -9 16 C-9 14.68 -9 13.36 -9 12 C-9.66 12 -10.32 12 -11 12 C-10.67 13.32 -10.34 14.64 -10 16 C-11.32 16 -12.64 16 -14 16 C-14 14.68 -14 13.36 -14 12 C-14.99 12.66 -15.98 13.32 -17 14 C-17 14.66 -17 15.32 -17 16 C-18.32 16 -19.64 16 -21 16 C-21 12.37 -21 8.74 -21 5 C-15.06 4.505 -15.06 4.505 -9 4 C-9 3.34 -9 2.68 -9 2 C-6 3 -6 3 -4 5 C-3.01 4.67 -2.02 4.34 -1 4 C-0.26676204 1.98491642 -0.26676204 1.98491642 0 0 Z " fill="#ADADAD" transform="translate(306,84)"/>
<path d="M0 0 C0 0.66 0 1.32 0 2 C1.11375 1.95875 2.2275 1.9175 3.375 1.875 C7 2 7 2 9 4 C9.22705078 6.24658203 9.22705078 6.24658203 9.1953125 9.0078125 C9.18886719 9.99394531 9.18242187 10.98007812 9.17578125 11.99609375 C9.15902344 13.02863281 9.14226562 14.06117188 9.125 15.125 C9.11597656 16.16527344 9.10695313 17.20554687 9.09765625 18.27734375 C9.07403747 20.85179092 9.04110149 23.42578212 9 26 C8.01 26 7.02 26 6 26 C6 23.03 6 20.06 6 17 C4.68 17 3.36 17 2 17 C2 19.97 2 22.94 2 26 C-1.96 26 -5.92 26 -10 26 C-10 25.01 -10 24.02 -10 23 C-9.01 23 -8.02 23 -7 23 C-7 16.07 -7 9.14 -7 2 C-2 0 -2 0 0 0 Z " fill="#575457" transform="translate(292,261)"/>
<path d="M0 0 C3.5 0.25 3.5 0.25 5.5 2.25 C5.75878906 4.28125 5.75878906 4.28125 5.765625 6.75 C5.76820313 7.636875 5.77078125 8.52375 5.7734375 9.4375 C5.76570313 10.365625 5.75796875 11.29375 5.75 12.25 C5.75773437 13.178125 5.76546875 14.10625 5.7734375 15.0625 C5.77085937 15.949375 5.76828125 16.83625 5.765625 17.75 C5.76336914 18.5646875 5.76111328 19.379375 5.75878906 20.21875 C5.5 22.25 5.5 22.25 3.5 24.25 C0 24.5 0 24.5 -3.5 24.25 C-5.94986932 21.80013068 -5.75631311 21.112922 -5.765625 17.75 C-5.76820313 16.863125 -5.77078125 15.97625 -5.7734375 15.0625 C-5.76183594 13.6703125 -5.76183594 13.6703125 -5.75 12.25 C-5.75773437 11.321875 -5.76546875 10.39375 -5.7734375 9.4375 C-5.77085937 8.550625 -5.76828125 7.66375 -5.765625 6.75 C-5.76336914 5.9353125 -5.76111328 5.120625 -5.75878906 4.28125 C-5.26722958 0.42297183 -3.65513633 0.26108117 0 0 Z " fill="#DDDDDE" transform="translate(367.5,227.75)"/>
<path d="M0 0 C3.0625 0.25 3.0625 0.25 6.0625 2.25 C6.43481445 4.28125 6.43481445 4.28125 6.42578125 6.75 C6.42513672 7.636875 6.42449219 8.52375 6.42382812 9.4375 C6.40771484 10.365625 6.39160156 11.29375 6.375 12.25 C6.37822266 13.178125 6.38144531 14.10625 6.38476562 15.0625 C6.32944139 21.98305861 6.32944139 21.98305861 4.0625 24.25 C0.5625 24.5 0.5625 24.5 -2.9375 24.25 C-5.38736932 21.80013068 -5.19381311 21.112922 -5.203125 17.75 C-5.20570313 16.863125 -5.20828125 15.97625 -5.2109375 15.0625 C-5.19933594 13.6703125 -5.19933594 13.6703125 -5.1875 12.25 C-5.19523437 11.321875 -5.20296875 10.39375 -5.2109375 9.4375 C-5.20835937 8.550625 -5.20578125 7.66375 -5.203125 6.75 C-5.20086914 5.9353125 -5.19861328 5.120625 -5.19628906 4.28125 C-4.74764563 0.75982233 -3.37649328 0.28736113 0 0 Z " fill="#DEDCDE" transform="translate(353.9375,262.75)"/>
<path d="M0 0 C0.99 0 1.98 0 3 0 C2.34 1.65 1.68 3.3 1 5 C1.9590625 5.2165625 1.9590625 5.2165625 2.9375 5.4375 C5 6 5 6 6 7 C6.09899523 8.54955559 6.13079524 10.10353673 6.1328125 11.65625 C6.13474609 13.06583984 6.13474609 13.06583984 6.13671875 14.50390625 C6.13285156 15.49261719 6.12898438 16.48132813 6.125 17.5 C6.12886719 18.48871094 6.13273437 19.47742188 6.13671875 20.49609375 C6.13542969 21.43582031 6.13414062 22.37554687 6.1328125 23.34375 C6.13168457 24.21193359 6.13055664 25.08011719 6.12939453 25.97460938 C6 28 6 28 5 29 C3.1875 29.1328125 3.1875 29.1328125 1 29.125 C0.278125 29.12757813 -0.44375 29.13015625 -1.1875 29.1328125 C-3 29 -3 29 -4 28 C-4.27993994 24.59151912 -4.23184008 21.16860554 -4.25 17.75 C-4.270625 16.79480469 -4.29125 15.83960938 -4.3125 14.85546875 C-4.34107879 9.71843143 -4.31860474 6.1901575 -1 2 C-0.67 1.34 -0.34 0.68 0 0 Z " fill="#EFEFEF" transform="translate(299,187)"/>
<path d="M0 0 C0.84089172 0.02295135 1.68178345 0.04590271 2.54815674 0.06954956 C15.32250229 0.42303028 27.99705623 1.12021498 40.6875 2.6875 C39.6975 3.0175 38.7075 3.3475 37.6875 3.6875 C37.6875 4.3475 37.6875 5.0075 37.6875 5.6875 C36.85605469 5.67589844 36.02460938 5.66429687 35.16796875 5.65234375 C33.53794922 5.63880859 33.53794922 5.63880859 31.875 5.625 C30.25658203 5.60759766 30.25658203 5.60759766 28.60546875 5.58984375 C25.62237831 5.55125234 25.62237831 5.55125234 22.6875 6.6875 C22.130625 6.39875 21.57375 6.11 21 5.8125 C13.16472216 2.00074321 0.96431175 2.8482085 -7.3125 4.6875 C-6.9825 5.3475 -6.6525 6.0075 -6.3125 6.6875 C-9.60487055 6.57790282 -12.89606887 6.44721069 -16.1875 6.3125 C-17.12464844 6.2815625 -18.06179687 6.250625 -19.02734375 6.21875 C-19.92324219 6.18007813 -20.81914062 6.14140625 -21.7421875 6.1015625 C-22.56960449 6.0701416 -23.39702148 6.0387207 -24.24951172 6.00634766 C-26.3125 5.6875 -26.3125 5.6875 -28.3125 3.6875 C-28.3125 2.6975 -28.3125 1.7075 -28.3125 0.6875 C-18.84543042 -0.58820441 -9.52023677 -0.28301406 0 0 Z " fill="#0F0E0F" transform="translate(222.3125,542.3125)"/>
<path d="M0 0 C0.88171875 0.18369141 0.88171875 0.18369141 1.78125 0.37109375 C2.11125 0.04109375 2.44125 -0.28890625 2.78125 -0.62890625 C11.53955127 -1.66163112 20.26140813 0.59524582 28.78125 2.37109375 C28.78125 2.70109375 28.78125 3.03109375 28.78125 3.37109375 C-13.44604715 4.97775683 -13.44604715 4.97775683 -31.21875 2.37109375 C-30.88875 1.05109375 -30.55875 -0.26890625 -30.21875 -1.62890625 C-20.07589871 -3.8828732 -9.89628299 -2.80510838 0 0 Z " fill="#1F1E1E" transform="translate(245.21875,547.62890625)"/>
<path d="M0 0 C1.32 0 2.64 0 4 0 C4.99 3.63 5.98 7.26 7 11 C7.66 7.7 8.32 4.4 9 1 C10.32 0.67 11.64 0.34 13 0 C13 7.92 13 15.84 13 24 C12.01 24 11.02 24 10 24 C9.67 22.68 9.34 21.36 9 20 C7.68 20 6.36 20 5 20 C4.67 21.32 4.34 22.64 4 24 C2.68 24 1.36 24 0 24 C0 16.08 0 8.16 0 0 Z " fill="#DDDADD" transform="translate(333,263)"/>
<path d="M0 0 C2.64 0 5.28 0 8 0 C8 0.99 8 1.98 8 3 C6.35 3 4.7 3 3 3 C3 5.31 3 7.62 3 10 C4.65 10 6.3 10 8 10 C8.33 7.36 8.66 4.72 9 2 C9.33 2 9.66 2 10 2 C10.01417969 2.61488281 10.02835937 3.22976562 10.04296875 3.86328125 C10.1888027 6.33457555 10.38784101 8.59878481 11 11 C12.64142963 12.0409066 14.30712215 13.04504326 16 14 C16.3125 17.6875 16.3125 17.6875 16 21 C15.01 21 14.02 21 13 21 C13 20.01 13 19.02 13 18 C12.01 18 11.02 18 10 18 C9.855625 18.804375 9.71125 19.60875 9.5625 20.4375 C9 23 9 23 8 24 C5.36 24 2.72 24 0 24 C0 16.08 0 8.16 0 0 Z " fill="#2A292C" transform="translate(283,228)"/>
<path d="M0 0 C1.11955078 -0.04253906 1.11955078 -0.04253906 2.26171875 -0.0859375 C6.60817422 -0.10132318 8.05515707 0.12853322 11.53125 3.03125 C12.1809375 3.8459375 12.830625 4.660625 13.5 5.5 C13.17 6.49 12.84 7.48 12.5 8.5 C11.84 8.5 11.18 8.5 10.5 8.5 C10.83 9.49 11.16 10.48 11.5 11.5 C10.51 11.5 9.52 11.5 8.5 11.5 C8.5 9.52 8.5 7.54 8.5 5.5 C7.84 5.5 7.18 5.5 6.5 5.5 C6.5 8.14 6.5 10.78 6.5 13.5 C4.5625 14.0625 4.5625 14.0625 2.5 14.5 C1.5 13.5 1.5 13.5 1.4375 10.9375 C1.458125 10.133125 1.47875 9.32875 1.5 8.5 C0.44039062 8.51160156 -0.61921875 8.52320313 -1.7109375 8.53515625 C-3.09895658 8.54453476 -4.48697755 8.55363489 -5.875 8.5625 C-6.57367188 8.57087891 -7.27234375 8.57925781 -7.9921875 8.58789062 C-13.2734375 8.61328125 -13.2734375 8.61328125 -15.5 7.5 C-12.78013177 0.32943829 -6.75280595 -0.02332575 0 0 Z " fill="#282828" transform="translate(225.5,218.5)"/>
<path d="M0 0 C1.32 0 2.64 0 4 0 C4.99 2.64 5.98 5.28 7 8 C7.66 5.36 8.32 2.72 9 0 C10.32 0 11.64 0 13 0 C13 7.59 13 15.18 13 23 C12.01 23 11.02 23 10 23 C9.67 20.69 9.34 18.38 9 16 C8.67 16.99 8.34 17.98 8 19 C7.01 19 6.02 19 5 19 C4.67 17.35 4.34 15.7 4 14 C3.67 16.97 3.34 19.94 3 23 C2.01 23 1.02 23 0 23 C0 15.41 0 7.82 0 0 Z " fill="#E8E8E8" transform="translate(313,193)"/>
<path d="M0 0 C3.4375 0.1875 3.4375 0.1875 4.4375 1.1875 C4.52463831 2.89522358 4.54450007 4.60648649 4.53515625 6.31640625 C4.53193359 7.35087891 4.52871094 8.38535156 4.52539062 9.45117188 C4.51701172 10.53978516 4.50863281 11.62839844 4.5 12.75 C4.49548828 13.84248047 4.49097656 14.93496094 4.48632812 16.06054688 C4.47449826 18.76958495 4.45801543 21.47851599 4.4375 24.1875 C3.4475 24.1875 2.4575 24.1875 1.4375 24.1875 C1.4375 21.2175 1.4375 18.2475 1.4375 15.1875 C0.4475 15.1875 -0.5425 15.1875 -1.5625 15.1875 C-1.5625 18.1575 -1.5625 21.1275 -1.5625 24.1875 C-2.8825 24.1875 -4.2025 24.1875 -5.5625 24.1875 C-5.62037784 20.56256666 -5.6560542 16.93775143 -5.6875 13.3125 C-5.70425781 12.27996094 -5.72101563 11.24742187 -5.73828125 10.18359375 C-5.74472656 9.19746094 -5.75117188 8.21132812 -5.7578125 7.1953125 C-5.76828613 6.28410645 -5.77875977 5.37290039 -5.78955078 4.43408203 C-5.38047814 0.38646222 -3.86609877 0.20347888 0 0 Z " fill="#EEEEEF" transform="translate(321.5625,227.8125)"/>
<path d="M0 0 C15.78731836 -0.20211361 15.78731836 -0.20211361 23 1 C23.66 1.66 24.32 2.32 25 3 C22.36 3.33 19.72 3.66 17 4 C23.41474501 4.91639214 29.68168414 5.07461293 36.15039062 4.875 C40.87914761 4.79114027 44.56538012 5.53139212 49 7 C49 7.33 49 7.66 49 8 C55.93 8.495 55.93 8.495 63 9 C63 9.33 63 9.66 63 10 C60.41659616 10.02703562 57.83347692 10.04685611 55.25 10.0625 C54.52039063 10.07087891 53.79078125 10.07925781 53.0390625 10.08789062 C47.44368305 10.11332417 47.44368305 10.11332417 45.14086914 9.52514648 C42.37735205 8.84726699 39.6948099 8.68812761 36.85546875 8.5 C35.63102051 8.4179834 34.40657227 8.3359668 33.14501953 8.25146484 C31.18604736 8.12698975 31.18604736 8.12698975 29.1875 8 C27.84228394 7.91229072 26.49706911 7.82456271 25.15185547 7.73681641 C13.44183555 6.98436744 1.72577012 6.43770065 -10 6 C-10 5.67 -10 5.34 -10 5 C-4.06 4.505 -4.06 4.505 2 4 C1.34 2.68 0.68 1.36 0 0 Z " fill="#232023" transform="translate(345,549)"/>
<path d="M0 0 C0.721875 0.00257813 1.44375 0.00515625 2.1875 0.0078125 C2.909375 0.00523437 3.63125 0.00265625 4.375 0 C6.1875 0.1328125 6.1875 0.1328125 7.1875 1.1328125 C7.27450342 2.76754132 7.29451063 4.40595305 7.28515625 6.04296875 C7.28193359 7.03232422 7.27871094 8.02167969 7.27539062 9.04101562 C7.26701172 10.08193359 7.25863281 11.12285156 7.25 12.1953125 C7.24548828 13.24009766 7.24097656 14.28488281 7.23632812 15.36132812 C7.22449913 17.9518791 7.20801689 20.54231809 7.1875 23.1328125 C5.8675 23.1328125 4.5475 23.1328125 3.1875 23.1328125 C3.1875 20.4928125 3.1875 17.8528125 3.1875 15.1328125 C2.1975 15.1328125 1.2075 15.1328125 0.1875 15.1328125 C0.1875 17.7728125 0.1875 20.4128125 0.1875 23.1328125 C-0.8025 23.1328125 -1.7925 23.1328125 -2.8125 23.1328125 C-2.84137512 19.48699563 -2.85925585 15.84120787 -2.875 12.1953125 C-2.88337891 11.15439453 -2.89175781 10.11347656 -2.90039062 9.04101562 C-2.90522461 7.55698242 -2.90522461 7.55698242 -2.91015625 6.04296875 C-2.91539307 5.12652588 -2.92062988 4.21008301 -2.92602539 3.26586914 C-2.78392836 0.59597281 -2.67116786 0.19573213 0 0 Z " fill="#E6E6E6" transform="translate(331.8125,192.8671875)"/>
<path d="M0 0 C1.32 0.33 2.64 0.66 4 1 C4.33 2.32 4.66 3.64 5 5 C5.33 3.35 5.66 1.7 6 0 C7.32 0 8.64 0 10 0 C10 7.92 10 15.84 10 24 C8.68 24 7.36 24 6 24 C5.34 20.7 4.68 17.4 4 14 C3.67 16.97 3.34 19.94 3 23 C2.01 23 1.02 23 0 23 C0 15.41 0 7.82 0 0 Z " fill="#E6E6E7" transform="translate(350,228)"/>
<path d="M0 0 C3.69952355 0.69366067 7.37106718 0.88520577 11.125 1.08984375 C11.86556641 1.13302734 12.60613281 1.17621094 13.36914062 1.22070312 C15.18341464 1.32604807 16.9979355 1.42712691 18.8125 1.52734375 C18.8125 2.18734375 18.8125 2.84734375 18.8125 3.52734375 C19.8025 3.19734375 20.7925 2.86734375 21.8125 2.52734375 C28.76316551 2.12345373 35.24684692 2.08431005 41.8125 4.52734375 C41.8125 5.51734375 41.8125 6.50734375 41.8125 7.52734375 C34.73779758 7.63471697 27.68844373 7.55722169 20.625 7.15234375 C19.37332031 7.08273437 18.12164062 7.013125 16.83203125 6.94140625 C13.8125 6.52734375 13.8125 6.52734375 11.8125 4.52734375 C7.95291991 3.03931287 3.81767432 3.45942257 -0.25 3.52734375 C-6.95487854 3.59054989 -13.52228482 3.33350369 -20.1875 2.52734375 C-14.7608271 -1.09043819 -6.33489978 -1.36879084 0 0 Z " fill="#0E0B0E" transform="translate(379.1875,551.47265625)"/>
<path d="M0 0 C1.98 0 3.96 0 6 0 C7.00496852 3.01490557 7.10335303 5.04181692 7.0625 8.1875 C7.05347656 9.08855469 7.04445312 9.98960937 7.03515625 10.91796875 C7.02355469 11.60503906 7.01195312 12.29210937 7 13 C6.34 13 5.68 13 5 13 C5.18464366 17.34184202 5.18464366 17.34184202 7 21 C7.17765417 26.15197086 6.84634488 30.92193071 6 36 C9.3 36 12.6 36 16 36 C16 31.71 16 27.42 16 23 C16.33 23 16.66 23 17 23 C17 27.62 17 32.24 17 37 C13.04 37 9.08 37 5 37 C4.96132812 35.51113281 4.96132812 35.51113281 4.921875 33.9921875 C4.60235153 25.53476799 3.55880385 18.24371391 0.83984375 10.18359375 C-0.08566368 6.67527488 -0.14122914 3.61273239 0 0 Z " fill="#ECEC26" transform="translate(214,239)"/>
<path d="M0 0 C18.37132353 -0.31433824 18.37132353 -0.31433824 23 2 C23 2.66 23 3.32 23 4 C19.74565066 5.62717467 16.17458203 5.07777214 12.60302734 5.02172852 C11.73466751 5.01212097 10.86630768 5.00251343 9.97163391 4.99261475 C7.09298771 4.95955641 4.21449006 4.91925015 1.3359375 4.87890625 C-0.65660066 4.85461181 -2.64914437 4.83076792 -4.64169312 4.80735779 C-9.8926422 4.74444957 -15.14349351 4.67540204 -20.39434814 4.60510254 C-25.74983253 4.53447988 -31.10538639 4.46962663 -36.4609375 4.40429688 C-46.97403467 4.27519771 -57.48703762 4.13961672 -68 4 C-68 3.67 -68 3.34 -68 3 C-32.855 2.505 -32.855 2.505 3 2 C2.01 1.34 1.02 0.68 0 0 Z " fill="#4B484B" transform="translate(314,549)"/>
<path d="M0 0 C3 0.25 3 0.25 5 2.25 C5 3.57 5 4.89 5 6.25 C4.01 6.25 3.02 6.25 2 6.25 C2 5.26 2 4.27 2 3.25 C1.01 3.25 0.02 3.25 -1 3.25 C-1 5.56 -1 7.87 -1 10.25 C-0.195625 10.559375 0.60875 10.86875 1.4375 11.1875 C4 12.25 4 12.25 5 13.25 C5.16796875 15.24609375 5.16796875 15.24609375 5.1875 17.6875 C5.20167969 18.49058594 5.21585937 19.29367188 5.23046875 20.12109375 C5 22.25 5 22.25 3 24.25 C-0.0625 24.4375 -0.0625 24.4375 -3 24.25 C-4 23.25 -4 23.25 -4.0625 20.6875 C-4.041875 19.883125 -4.02125 19.07875 -4 18.25 C-3.01 18.25 -2.02 18.25 -1 18.25 C-1 19.24 -1 20.23 -1 21.25 C-0.34 20.92 0.32 20.59 1 20.25 C1.65772428 17.22065509 1.65772428 17.22065509 2 14.25 C1.030625 13.940625 0.06125 13.63125 -0.9375 13.3125 C-4 12.25 -4 12.25 -5 11.25 C-5.16796875 9.25390625 -5.16796875 9.25390625 -5.1875 6.8125 C-5.20167969 6.00941406 -5.21585937 5.20632812 -5.23046875 4.37890625 C-4.83791825 0.7528042 -3.47671176 0.28972598 0 0 Z " fill="#DADADA" transform="translate(386,227.75)"/>
<path d="M0 0 C0.721875 0.00257813 1.44375 0.00515625 2.1875 0.0078125 C2.909375 0.00523437 3.63125 0.00265625 4.375 0 C6.1875 0.1328125 6.1875 0.1328125 7.1875 1.1328125 C7.22813832 2.79898365 7.230221 4.46669345 7.1875 6.1328125 C6.1975 6.1328125 5.2075 6.1328125 4.1875 6.1328125 C4.1875 5.1428125 4.1875 4.1528125 4.1875 3.1328125 C3.1975 3.1328125 2.2075 3.1328125 1.1875 3.1328125 C1.29542821 6.0371018 1.29542821 6.0371018 2.1875 9.1328125 C3.4559375 9.7825 3.4559375 9.7825 4.75 10.4453125 C7.1875 12.1328125 7.1875 12.1328125 7.5859375 14.2421875 C7.62377202 16.6181951 7.60932995 18.79276634 7.1875 21.1328125 C5.1875 23.1328125 5.1875 23.1328125 2.1875 23.3828125 C-0.8125 23.1328125 -0.8125 23.1328125 -2.8125 21.1328125 C-2.8125 20.1428125 -2.8125 19.1528125 -2.8125 18.1328125 C-1.8225 18.1328125 -0.8325 18.1328125 0.1875 18.1328125 C0.1875 18.7928125 0.1875 19.4528125 0.1875 20.1328125 C1.5075 20.1328125 2.8275 20.1328125 4.1875 20.1328125 C4.1875 18.1528125 4.1875 16.1728125 4.1875 14.1328125 C3.011875 13.6996875 3.011875 13.6996875 1.8125 13.2578125 C-0.8125 12.1328125 -0.8125 12.1328125 -2.8125 10.1328125 C-3.04296875 8.00390625 -3.04296875 8.00390625 -3 5.5703125 C-2.99355469 4.76464844 -2.98710937 3.95898438 -2.98046875 3.12890625 C-2.76377693 0.55380114 -2.58471861 0.18939748 0 0 Z " fill="#E6E6E6" transform="translate(349.8125,192.8671875)"/>
<path d="M0 0 C1.32 0.33 2.64 0.66 4 1 C4.22786458 3.05078125 4.45572917 5.1015625 4.68359375 7.15234375 C4.81886614 9.01140229 4.81886614 9.01140229 6 10 C6.66 7.03 7.32 4.06 8 1 C8.99 1 9.98 1 11 1 C10.688288 3.52093298 10.37565098 6.0417457 10.0625 8.5625 C9.93198242 9.61920898 9.93198242 9.61920898 9.79882812 10.69726562 C9.24615509 15.13911927 8.64605404 19.57074664 8 24 C6.68 24 5.36 24 4 24 C3.32492934 20.93929066 2.66145078 17.8761791 2 14.8125 C1.80921875 13.94818359 1.6184375 13.08386719 1.421875 12.19335938 C1.24140625 11.35224609 1.0609375 10.51113281 0.875 9.64453125 C0.70742188 8.87471924 0.53984375 8.10490723 0.3671875 7.31176758 C-0.02550915 4.83939753 -0.06185285 2.49924191 0 0 Z " fill="#E5E2E5" transform="translate(308,263)"/>
<path d="M0 0 C2.64 0 5.28 0 8 0 C8 0.99 8 1.98 8 3 C6.68 3 5.36 3 4 3 C4 5.31 4 7.62 4 10 C5.32 10 6.64 10 8 10 C8 10.99 8 11.98 8 13 C6.68 13 5.36 13 4 13 C4 15.64 4 18.28 4 21 C5.32 21 6.64 21 8 21 C8 21.99 8 22.98 8 24 C5.36 24 2.72 24 0 24 C0 16.08 0 8.16 0 0 Z " fill="#D4D3D5" transform="translate(334,228)"/>
<path d="M0 0 C3.5 0.125 3.5 0.125 4.5 1.125 C4.54063832 2.79117115 4.542721 4.45888095 4.5 6.125 C3.51 6.125 2.52 6.125 1.5 6.125 C1.5 5.135 1.5 4.145 1.5 3.125 C0.51 3.125 -0.48 3.125 -1.5 3.125 C-0.79920746 6.57911499 -0.79920746 6.57911499 0.5 10.125 C2.50236953 11.37691349 2.50236953 11.37691349 4.5 12.125 C4.55395478 13.74963842 4.59277195 15.37478541 4.625 17 C4.64820313 17.90492188 4.67140625 18.80984375 4.6953125 19.7421875 C4.5 22.125 4.5 22.125 2.5 24.125 C0 24.375 0 24.375 -2.5 24.125 C-3.16 23.465 -3.82 22.805 -4.5 22.125 C-4.5 20.805 -4.5 19.485 -4.5 18.125 C-3.51 18.125 -2.52 18.125 -1.5 18.125 C-1.5 19.115 -1.5 20.105 -1.5 21.125 C-0.51 21.125 0.48 21.125 1.5 21.125 C1.5 18.815 1.5 16.505 1.5 14.125 C0.695625 13.815625 -0.10875 13.50625 -0.9375 13.1875 C-3.5 12.125 -3.5 12.125 -4.5 11.125 C-4.59823937 9.46070949 -4.62973631 7.79218069 -4.625 6.125 C-4.62757813 5.2175 -4.63015625 4.31 -4.6328125 3.375 C-4.41402887 -0.33145204 -3.860461 0.13787361 0 0 Z " fill="#ECECED" transform="translate(297.5,227.875)"/>
<path d="M0 0 C0.99 0.33 1.98 0.66 3 1 C2.67 4.63 2.34 8.26 2 12 C3.32 12 4.64 12 6 12 C6 9.03 6 6.06 6 3 C6.66 3 7.32 3 8 3 C8 9.6 8 16.2 8 23 C7.01 23 6.02 23 5 23 C5 20.36 5 17.72 5 15 C4.01 15 3.02 15 2 15 C2 17.64 2 20.28 2 23 C1.01 23 0.02 23 -1 23 C-1.02887512 19.35418313 -1.04675585 15.70839537 -1.0625 12.0625 C-1.07087891 11.02158203 -1.07925781 9.98066406 -1.08789062 8.90820312 C-1.09272461 7.42416992 -1.09272461 7.42416992 -1.09765625 5.91015625 C-1.10289307 4.99371338 -1.10812988 4.07727051 -1.11352539 3.13305664 C-1 1 -1 1 0 0 Z " fill="#D8D6D8" transform="translate(322,264)"/>
<path d="M0 0 C3.5 0.125 3.5 0.125 4.5 1.125 C4.54063832 2.79117115 4.542721 4.45888095 4.5 6.125 C3.51 6.125 2.52 6.125 1.5 6.125 C1.5 5.135 1.5 4.145 1.5 3.125 C0.51 3.125 -0.48 3.125 -1.5 3.125 C-1.39207179 6.0292893 -1.39207179 6.0292893 -0.5 9.125 C0.345625 9.5375 1.19125 9.95 2.0625 10.375 C2.866875 10.9525 3.67125 11.53 4.5 12.125 C5.01682447 15.4926949 4.92357702 18.74848606 4.5 22.125 C3.5 23.125 3.5 23.125 -0.0625 23.1875 C-1.196875 23.166875 -2.33125 23.14625 -3.5 23.125 C-3.83 21.475 -4.16 19.825 -4.5 18.125 C-3.51 18.125 -2.52 18.125 -1.5 18.125 C-1.5 18.785 -1.5 19.445 -1.5 20.125 C-0.51 20.125 0.48 20.125 1.5 20.125 C1.39207179 17.2207107 1.39207179 17.2207107 0.5 14.125 C-0.345625 13.7125 -1.19125 13.3 -2.0625 12.875 C-3.2690625 12.00875 -3.2690625 12.00875 -4.5 11.125 C-5.01682447 7.7573051 -4.92357702 4.50151394 -4.5 1.125 C-3.5 0.125 -3.5 0.125 0 0 Z " fill="#F0F0F0" transform="translate(287.5,192.875)"/>
<path d="M0 0 C3.0625 0.1875 3.0625 0.1875 5.0625 2.1875 C5.0625 3.5075 5.0625 4.8275 5.0625 6.1875 C4.0725 6.1875 3.0825 6.1875 2.0625 6.1875 C2.0625 5.1975 2.0625 4.2075 2.0625 3.1875 C1.0725 3.1875 0.0825 3.1875 -0.9375 3.1875 C-0.9375 5.4975 -0.9375 7.8075 -0.9375 10.1875 C-0.133125 10.496875 0.67125 10.80625 1.5 11.125 C4.0625 12.1875 4.0625 12.1875 5.0625 13.1875 C5.23046875 15.18359375 5.23046875 15.18359375 5.25 17.625 C5.26417969 18.42808594 5.27835937 19.23117188 5.29296875 20.05859375 C5.0625 22.1875 5.0625 22.1875 3.0625 24.1875 C-0.0625 24.3125 -0.0625 24.3125 -2.9375 24.1875 C-3.2675 22.2075 -3.5975 20.2275 -3.9375 18.1875 C-2.9475 18.1875 -1.9575 18.1875 -0.9375 18.1875 C-0.9375 19.1775 -0.9375 20.1675 -0.9375 21.1875 C0.0525 21.1875 1.0425 21.1875 2.0625 21.1875 C2.0625 18.8775 2.0625 16.5675 2.0625 14.1875 C1.258125 13.878125 0.45375 13.56875 -0.375 13.25 C-2.9375 12.1875 -2.9375 12.1875 -3.9375 11.1875 C-4.03573937 9.52320949 -4.06723631 7.85468069 -4.0625 6.1875 C-4.06507813 5.28 -4.06765625 4.3725 -4.0703125 3.4375 C-3.86801561 0.01035262 -3.49011104 0.22277304 0 0 Z " fill="#E8E8E9" transform="translate(308.9375,227.8125)"/>
<path d="M0 0 C2.20805524 -0.0544452 4.41650554 -0.09299283 6.625 -0.125 C7.85476563 -0.14820312 9.08453125 -0.17140625 10.3515625 -0.1953125 C13.94316041 -0.0030428 16.66661175 0.69741444 20 2 C20 2.66 20 3.32 20 4 C17.69 4 15.38 4 13 4 C13 5.65 13 7.3 13 9 C12.67 8.34 12.34 7.68 12 7 C11.34 7 10.68 7 10 7 C10.33 8.32 10.66 9.64 11 11 C9.68 11 8.36 11 7 11 C7 9.68 7 8.36 7 7 C6.01 7.66 5.02 8.32 4 9 C4 9.66 4 10.32 4 11 C2.68 11 1.36 11 0 11 C0 7.37 0 3.74 0 0 Z " fill="#575757" transform="translate(285,89)"/>
<path d="M0 0 C3.96 0 7.92 0 12 0 C12.66 1.32 13.32 2.64 14 4 C15.65 4 17.3 4 19 4 C19.66 2.68 20.32 1.36 21 0 C21.99 0 22.98 0 24 0 C24 2.97 24 5.94 24 9 C21.60385874 9.05425226 19.20896147 9.09379027 16.8125 9.125 C15.80219727 9.15013672 15.80219727 9.15013672 14.77148438 9.17578125 C10.71192193 9.21538674 7.65001185 8.80020002 4 7 C4.495 6.566875 4.99 6.13375 5.5 5.6875 C7.33218192 4.00259517 7.33218192 4.00259517 7 1 C4.69 1 2.38 1 0 1 C0 0.67 0 0.34 0 0 Z " fill="#1D1E19" transform="translate(213,230)"/>
<path d="M0 0 C0.66 0.33 1.32 0.66 2 1 C2 8.26 2 15.52 2 23 C1.01 23 0.02 23 -1 23 C-1 20.03 -1 17.06 -1 14 C-2.32 14 -3.64 14 -5 14 C-5 16.97 -5 19.94 -5 23 C-5.66 23 -6.32 23 -7 23 C-7 16.07 -7 9.14 -7 2 C-6.34 1.67 -5.68 1.34 -5 1 C-5 4.63 -5 8.26 -5 12 C-3.68 12 -2.36 12 -1 12 C-1.01160156 11.21753906 -1.02320313 10.43507813 -1.03515625 9.62890625 C-1.04417969 8.61699219 -1.05320312 7.60507812 -1.0625 6.5625 C-1.07410156 5.55316406 -1.08570313 4.54382813 -1.09765625 3.50390625 C-1 1 -1 1 0 0 Z " fill="#F7F5F7" transform="translate(299,264)"/>
<path d="M0 0 C6.15234375 -0.09765625 6.15234375 -0.09765625 8 0 C8.33 0.33 8.66 0.66 9 1 C10.89910433 1.26258015 12.80619529 1.46786446 14.71484375 1.6484375 C15.87564453 1.76703125 17.03644531 1.885625 18.23242188 2.0078125 C20.69784995 2.25214591 23.16401515 2.48915477 25.63085938 2.71875 C27.37399414 2.90050781 27.37399414 2.90050781 29.15234375 3.0859375 C30.22476318 3.1895459 31.29718262 3.2931543 32.40209961 3.39990234 C35 4 35 4 37 7 C40.56769552 7.73606499 40.56769552 7.73606499 44 8 C44 8.33 44 8.66 44 9 C37.73 9 31.46 9 25 9 C25.66 8.67 26.32 8.34 27 8 C27 7.34 27 6.68 27 6 C19.74 5.34 12.48 4.68 5 4 C5 3.01 5 2.02 5 1 C3.35 1 1.7 1 0 1 C0 0.67 0 0.34 0 0 Z " fill="#100D10" transform="translate(310,545)"/>
<path d="M0 0 C2.64 0 5.28 0 8 0 C8 0.99 8 1.98 8 3 C6.35 3 4.7 3 3 3 C3 5.31 3 7.62 3 10 C4.32 10 5.64 10 7 10 C7 10.99 7 11.98 7 13 C5.68 13 4.36 13 3 13 C3 15.64 3 18.28 3 21 C4.65 21 6.3 21 8 21 C8 21.99 8 22.98 8 24 C5.36 24 2.72 24 0 24 C0 16.08 0 8.16 0 0 Z " fill="#EEEEEE" transform="translate(283,228)"/>
<path d="M0 0 C0.33 0 0.66 0 1 0 C1.26001733 5.20034662 1.00210751 9.42682724 -0.4375 14.4375 C-2.65320574 22.4955619 -2.73235277 30.69370661 -3 39 C-8.28 39 -13.56 39 -19 39 C-17 37 -17 37 -14.1796875 36.8046875 C-13.08914062 36.82789063 -11.99859375 36.85109375 -10.875 36.875 C-9.77929688 36.89304687 -8.68359375 36.91109375 -7.5546875 36.9296875 C-6.71164063 36.95289063 -5.86859375 36.97609375 -5 37 C-5.05800781 35.92105469 -5.11601562 34.84210938 -5.17578125 33.73046875 C-5.60854177 21.71865959 -3.55216689 11.44305191 0 0 Z " fill="#36360D" transform="translate(236,239)"/>
<path d="M0 0 C1.670625 0.061875 1.670625 0.061875 3.375 0.125 C3.375 2.75334278 3.17710238 5.20686701 2.875 7.8125 C2.7821875 8.62074219 2.689375 9.42898437 2.59375 10.26171875 C2.5215625 10.87660156 2.449375 11.49148437 2.375 12.125 C0.725 12.125 -0.925 12.125 -2.625 12.125 C-2.625 9.485 -2.625 6.845 -2.625 4.125 C-3.285 4.125 -3.945 4.125 -4.625 4.125 C-4.625 10.395 -4.625 16.665 -4.625 23.125 C-3.965 23.125 -3.305 23.125 -2.625 23.125 C-2.625 20.485 -2.625 17.845 -2.625 15.125 C-2.295 15.125 -1.965 15.125 -1.625 15.125 C-1.625 18.095 -1.625 21.065 -1.625 24.125 C-2.945 24.125 -4.265 24.125 -5.625 24.125 C-5.68287784 20.50006666 -5.7185542 16.87525143 -5.75 13.25 C-5.76675781 12.21746094 -5.78351563 11.18492187 -5.80078125 10.12109375 C-5.80722656 9.13496094 -5.81367188 8.14882812 -5.8203125 7.1328125 C-5.83078613 6.22160645 -5.84125977 5.31040039 -5.85205078 4.37158203 C-5.43817577 0.27644457 -3.90943309 0.13480804 0 0 Z " fill="#BABABA" transform="translate(321.625,227.875)"/>
<path d="M0 0 C1.32 0 2.64 0 4 0 C4 7.92 4 15.84 4 24 C2.68 24 1.36 24 0 24 C0 16.08 0 8.16 0 0 Z " fill="#C8C8C9" transform="translate(375,228)"/>
<path d="M0 0 C1.28648437 -0.01417969 2.57296875 -0.02835938 3.8984375 -0.04296875 C7.83910575 0.20074134 10.89303298 0.96761931 14.625 2.1875 C14.625 2.5175 14.625 2.8475 14.625 3.1875 C21.555 3.6825 21.555 3.6825 28.625 4.1875 C28.625 4.5175 28.625 4.8475 28.625 5.1875 C26.04159616 5.21453562 23.45847692 5.23435611 20.875 5.25 C20.14539063 5.25837891 19.41578125 5.26675781 18.6640625 5.27539062 C13.05880072 5.30086909 13.05880072 5.30086909 10.81640625 4.71484375 C7.7783962 3.98377181 4.78922025 3.8504801 1.671875 3.65234375 C1.01165344 3.60936661 0.35143188 3.56638947 -0.32879639 3.52210999 C-2.42732656 3.38629661 -4.52613819 3.25557768 -6.625 3.125 C-8.05210494 3.03353967 -9.47918859 2.94174648 -10.90625 2.84960938 C-14.39559502 2.62505038 -17.88521066 2.40505765 -21.375 2.1875 C-21.375 1.8575 -21.375 1.5275 -21.375 1.1875 C-14.25411247 0.50467517 -7.15211997 0.06715606 0 0 Z " fill="#3B383B" transform="translate(379.375,553.8125)"/>
<path d="M0 0 C0.99 0 1.98 0 3 0 C3 7.92 3 15.84 3 24 C1.68 24 0.36 24 -1 24 C-1.19397476 22.02145742 -1.38001321 20.0421352 -1.5625 18.0625 C-1.66691406 16.96035156 -1.77132813 15.85820312 -1.87890625 14.72265625 C-1.91886719 13.82417969 -1.95882813 12.92570313 -2 12 C-1.67 11.67 -1.34 11.34 -1 11 C-0.76636119 9.15108054 -0.58696365 7.29511969 -0.4375 5.4375 C-0.35371094 4.42558594 -0.26992188 3.41367188 -0.18359375 2.37109375 C-0.12300781 1.58863281 -0.06242187 0.80617187 0 0 Z " fill="#D6D6D7" transform="translate(357,228)"/>
<path d="M0 0 C1.65 0 3.3 0 5 0 C5 5.61 5 11.22 5 17 C3.68 17.33 2.36 17.66 1 18 C0 17 0 17 -0.09765625 13.18359375 C-0.09098089 11.60153318 -0.07901875 10.01948841 -0.0625 8.4375 C-0.05798828 7.63119141 -0.05347656 6.82488281 -0.04882812 5.99414062 C-0.03700518 3.99606244 -0.01906914 1.99802217 0 0 Z " fill="#3F3F40" transform="translate(365,231)"/>
<path d="M0 0 C0.66 0.33 1.32 0.66 2 1 C1.67 1.33 1.34 1.66 1 2 C2.32 2.33 3.64 2.66 5 3 C4.814375 3.61875 4.62875 4.2375 4.4375 4.875 C3.76313824 7.04160178 3.76313824 7.04160178 5 9 C4.34 9 3.68 9 3 9 C3 9.66 3 10.32 3 11 C-7.15317287 12.61050328 -7.15317287 12.61050328 -10.6875 10.0625 C-11.120625 9.381875 -11.55375 8.70125 -12 8 C-11.01 7.34 -10.02 6.68 -9 6 C-6.3125 6.875 -6.3125 6.875 -4 8 C-4 6.68 -4 5.36 -4 4 C-3.34 4 -2.68 4 -2 4 C-2 3.01 -2 2.02 -2 1 C-1.34 0.67 -0.68 0.34 0 0 Z " fill="#838383" transform="translate(313,89)"/>
<path d="M0 0 C1.32 0 2.64 0 4 0 C4 7.59 4 15.18 4 23 C3.01 23 2.02 23 1 23 C0.67 19.37 0.34 15.74 0 12 C-0.33 12 -0.66 12 -1 12 C-1.08159574 7.83861737 -0.98248524 4.0527516 0 0 Z " fill="#F0F0F0" transform="translate(322,193)"/>
<path d="M0 0 C2.875 -0.1875 2.875 -0.1875 6 0 C8.16926659 3.25389988 8.24080049 4.13395957 8.1953125 7.88671875 C8.18564453 9.2934082 8.18564453 9.2934082 8.17578125 10.72851562 C8.15902344 11.70498047 8.14226562 12.68144531 8.125 13.6875 C8.11597656 14.67556641 8.10695313 15.66363281 8.09765625 16.68164062 C8.0740843 19.12133765 8.04118022 21.56054697 8 24 C7.67 24 7.34 24 7 24 C7 17.4 7 10.8 7 4 C6.34 4 5.68 4 5 4 C5 6.97 5 9.94 5 13 C3.68 13 2.36 13 1 13 C1.01740234 11.84371094 1.01740234 11.84371094 1.03515625 10.6640625 C1.04417969 9.66117187 1.05320312 8.65828125 1.0625 7.625 C1.07410156 6.62726563 1.08570313 5.62953125 1.09765625 4.6015625 C1.18006602 2.01567547 1.18006602 2.01567547 0 0 Z " fill="#B6B3B6" transform="translate(323,263)"/>
<path d="M0 0 C0.99 0 1.98 0 3 0 C3.02887236 3.81248426 3.04675492 7.6249407 3.0625 11.4375 C3.07087891 12.52611328 3.07925781 13.61472656 3.08789062 14.73632812 C3.09111328 15.77080078 3.09433594 16.80527344 3.09765625 17.87109375 C3.10289307 18.82943115 3.10812988 19.78776855 3.11352539 20.77514648 C3 23 3 23 2 24 C0.33382885 24.04063832 -1.33388095 24.042721 -3 24 C-3 23.01 -3 22.02 -3 21 C-2.01 21 -1.02 21 0 21 C0 14.07 0 7.14 0 0 Z " fill="#E6E4E6" transform="translate(285,263)"/>
<path d="M0 0 C0.99 0 1.98 0 3 0 C3 7.92 3 15.84 3 24 C2.01 24 1.02 24 0 24 C0 19.38 0 14.76 0 10 C-0.99 10.495 -0.99 10.495 -2 11 C-1.85957123 9.35369672 -1.71250671 7.70795821 -1.5625 6.0625 C-1.48128906 5.14597656 -1.40007812 4.22945313 -1.31640625 3.28515625 C-1 1 -1 1 0 0 Z " fill="#EFECEF" transform="translate(343,263)"/>
<path d="M0 0 C0.66 0.33 1.32 0.66 2 1 C2 7.93 2 14.86 2 22 C0.68 22.33 -0.64 22.66 -2 23 C-2 22.34 -2 21.68 -2 21 C-2.99 20.67 -3.98 20.34 -5 20 C-3.68 20 -2.36 20 -1 20 C-1 14.39 -1 8.78 -1 3 C-2.32 2.67 -3.64 2.34 -5 2 C-2.625 0.9375 -2.625 0.9375 0 0 Z " fill="#E9E9E9" transform="translate(303,193)"/>
<path d="M0 0 C0.99 0 1.98 0 3 0 C3.33 0.99 3.66 1.98 4 3 C5.32 2.34 6.64 1.68 8 1 C8.25 8.625 8.25 8.625 6 12 C4.68 12 3.36 12 2 12 C1.34 13.32 0.68 14.64 0 16 C0 10.72 0 5.44 0 0 Z " fill="#C2C0C2" transform="translate(336,271)"/>
<path d="M0 0 C0.99 0 1.98 0 3 0 C3 7.92 3 15.84 3 24 C2.01 24 1.02 24 0 24 C0 16.08 0 8.16 0 0 Z " fill="#DADADA" transform="translate(342,192)"/>
<path d="M0 0 C0.99 0 1.98 0 3 0 C3 5.94 3 11.88 3 18 C1.68 18 0.36 18 -1 18 C-1.02684312 15.18743719 -1.04676188 12.37512759 -1.0625 9.5625 C-1.07087891 8.76005859 -1.07925781 7.95761719 -1.08789062 7.13085938 C-1.0965143 5.08704779 -1.0522815 3.04316098 -1 1 C-0.67 0.67 -0.34 0.34 0 0 Z " fill="#29262A" transform="translate(353,266)"/>
<path d="M0 0 C0.99 0 1.98 0 3 0 C4.20256139 3.60768418 4.19093075 6.93082782 4.1875 10.6875 C4.1884668 11.76354492 4.1884668 11.76354492 4.18945312 12.86132812 C4.13896253 17.91497802 3.59217555 22.22347336 2 27 C-0.26598448 23.60102327 -0.23742654 22.43680827 -0.1953125 18.45703125 C-0.18886719 17.38388672 -0.18242187 16.31074219 -0.17578125 15.20507812 C-0.15064453 13.52575195 -0.15064453 13.52575195 -0.125 11.8125 C-0.11597656 10.68134766 -0.10695312 9.55019531 -0.09765625 8.38476562 C-0.07406862 5.58963172 -0.041153 2.79492155 0 0 Z " fill="#D0D1D1" transform="translate(236,227)"/>
<path d="M0 0 C1.32 0 2.64 0 4 0 C4 5.61 4 11.22 4 17 C2.68 17 1.36 17 0 17 C0 11.39 0 5.78 0 0 Z " fill="#242424" transform="translate(298,196)"/>
<path d="M0 0 C1.98 0 3.96 0 6 0 C6 0.66 6 1.32 6 2 C6.66 2 7.32 2 8 2 C6.125 5.875 6.125 5.875 5 7 C3.58429877 7.08651611 2.164405 7.10704904 0.74609375 7.09765625 C-0.10791016 7.09443359 -0.96191406 7.09121094 -1.84179688 7.08789062 C-2.73962891 7.07951172 -3.63746094 7.07113281 -4.5625 7.0625 C-5.46419922 7.05798828 -6.36589844 7.05347656 -7.29492188 7.04882812 C-9.53001314 7.03700225 -11.76497437 7.0205222 -14 7 C-14 6.67 -14 6.34 -14 6 C-8.06 5.505 -8.06 5.505 -2 5 C-1.34 3.35 -0.68 1.7 0 0 Z " fill="#AFADAE" transform="translate(266,280)"/>
<path d="M0 0 C5.52948816 5.52948816 6.21600213 15.54023426 6.27685547 23.06030273 C6.23836792 26.37757977 6.14445614 29.68553422 6 33 C5.34 33 4.68 33 4 33 C3.96261719 31.88882812 3.92523438 30.77765625 3.88671875 29.6328125 C3.57340547 22.08357572 3.1637938 15.2148392 0.6328125 8.02734375 C-0.21368895 5.31540393 -0.22226485 2.81535479 0 0 Z " fill="#3A3A01" transform="translate(213,244)"/>
<path d="M0 0 C1.13888672 -0.03673828 1.13888672 -0.03673828 2.30078125 -0.07421875 C5.96137868 -0.09345131 8.06254289 0.04690717 11.03125 2.2734375 C12.5 4.375 12.5 4.375 12.5 6.375 C11.84 6.375 11.18 6.375 10.5 6.375 C10.04431641 5.88821777 9.58863281 5.40143555 9.11914062 4.89990234 C6.33014721 2.27323575 2.62812276 2.9454873 -1 3 C-1.77214844 2.98839844 -2.54429687 2.97679687 -3.33984375 2.96484375 C-7.6066671 2.8325674 -7.6066671 2.8325674 -11.11914062 4.89990234 C-11.57482422 5.38668457 -12.03050781 5.8734668 -12.5 6.375 C-13.16 6.375 -13.82 6.375 -14.5 6.375 C-13.60803394 4.14508486 -12.92754042 2.6816199 -10.953125 1.265625 C-7.34549239 -0.04415244 -3.78943206 0.00643367 0 0 Z " fill="#E8E8E8" transform="translate(225.5,218.625)"/>
<path d="M0 0 C3.465 1.98 3.465 1.98 7 4 C7 5.98 7 7.96 7 10 C5.68 10 4.36 10 3 10 C3 9.34 3 8.68 3 8 C1.68 8 0.36 8 -1 8 C-1.625 5.125 -1.625 5.125 -2 2 C-1.34 1.34 -0.68 0.68 0 0 Z " fill="#232323" transform="translate(347,203)"/>
<path d="M0 0 C4.75 1.875 4.75 1.875 7 3 C7 5.31 7 7.62 7 10 C6.01 10 5.02 10 4 10 C4 9.01 4 8.02 4 7 C2.68 7 1.36 7 0 7 C-0.33 7.99 -0.66 8.98 -1 10 C-1.125 2.25 -1.125 2.25 0 0 Z " fill="#323234" transform="translate(304,239)"/>
<path d="M0 0 C5.75 1.875 5.75 1.875 8 3 C8 4.98 8 6.96 8 9 C7.01 9.33 6.02 9.66 5 10 C5 9.01 5 8.02 5 7 C4.01 7 3.02 7 2 7 C1.67 8.32 1.34 9.64 1 11 C0.83197949 9.54182203 0.66562857 8.0834516 0.5 6.625 C0.4071875 5.81289062 0.314375 5.00078125 0.21875 4.1640625 C0 2 0 2 0 0 Z " fill="#2F2E31" transform="translate(380,239)"/>
<path d="M0 0 C0.33 0 0.66 0 1 0 C1 6.27 1 12.54 1 19 C0.67 19 0.34 19 0 19 C-0.01417969 18.38511719 -0.02835937 17.77023438 -0.04296875 17.13671875 C-0.18880632 14.66536309 -0.38886399 12.4015063 -1 10 C-3.49759982 8.30117552 -3.49759982 8.30117552 -6 7 C-6.3125 3.8125 -6.3125 3.8125 -6 1 C-5.01 1 -4.02 1 -3 1 C-3 1.99 -3 2.98 -3 4 C-2.01 4 -1.02 4 0 4 C0 2.68 0 1.36 0 0 Z " fill="#373737" transform="translate(292,195)"/>
<path d="M0 0 C2.35926204 2.35926204 2.33157398 3.12400689 2.6328125 6.3515625 C2.71660156 7.20234375 2.80039062 8.053125 2.88671875 8.9296875 C2.96535156 9.81914062 3.04398437 10.70859375 3.125 11.625 C3.21136719 12.5221875 3.29773438 13.419375 3.38671875 14.34375 C3.5990924 16.5618748 3.80317085 18.78045069 4 21 C2.68 21 1.36 21 0 21 C0 14.07 0 7.14 0 0 Z " fill="#454545" transform="translate(263,204)"/>
<path d="M0 0 C13.365 0.495 13.365 0.495 27 1 C27 1.66 27 2.32 27 3 C23.06263877 3.08696177 19.12552372 3.14037835 15.1875 3.1875 C13.50817383 3.22520508 13.50817383 3.22520508 11.79492188 3.26367188 C10.72177734 3.27333984 9.64863281 3.28300781 8.54296875 3.29296875 C7.0583313 3.31653442 7.0583313 3.31653442 5.54370117 3.34057617 C3 3 3 3 0 0 Z " fill="#F2F0F3" transform="translate(331,554)"/>
<path d="M0 0 C0.99 0.33 1.98 0.66 3 1 C2.67 1.66 2.34 2.32 2 3 C2.66 3.33 3.32 3.66 4 4 C1.74849846 6.25150154 0.79300578 6.44665359 -2.25 7.0625 C-3.04792969 7.22621094 -3.84585937 7.38992187 -4.66796875 7.55859375 C-7.43904145 8.08310165 -10.21246688 8.57114875 -13 9 C-12.67 8.01 -12.34 7.02 -12 6 C-10.29922552 5.21502716 -8.591708 4.43901866 -6.84375 3.765625 C-4.77898535 2.97029117 -4.77898535 2.97029117 -2.25 1.25 C-1.5075 0.8375 -0.765 0.425 0 0 Z " fill="#0F0E11" transform="translate(507,242)"/>
<path d="M0 0 C1.98 0 3.96 0 6 0 C6.33 2.31 6.66 4.62 7 7 C6.67 6.34 6.34 5.68 6 5 C5.01 5.495 5.01 5.495 4 6 C3.53476937 7.89533342 3.53476937 7.89533342 3.375 10.0625 C3.25125 11.361875 3.1275 12.66125 3 14 C-0.2102122 10.7897878 0.01025241 7.62539686 -0.0625 3.1875 C-0.041875 2.135625 -0.02125 1.08375 0 0 Z " fill="#E2E425" transform="translate(214,239)"/>
<path d="M0 0 C2.375 -0.125 2.375 -0.125 5 0 C7 2 7 2 7.125 5.625 C7.08375 6.73875 7.0425 7.8525 7 9 C5.02 9 3.04 9 1 9 C0.67 6.03 0.34 3.06 0 0 Z " fill="#393939" transform="translate(265,232)"/>
<path d="M0 0 C0.33 0 0.66 0 1 0 C1.33 6.27 1.66 12.54 2 19 C1.34 19 0.68 19 0 19 C-0.33 20.32 -0.66 21.64 -1 23 C-1.89604368 16.95170514 -2.11269443 11.1105424 -2 5 C-1.34 5 -0.68 5 0 5 C0 3.35 0 1.7 0 0 Z " fill="#D7D7D7" transform="translate(267,199)"/>
<path d="M0 0 C0.33 0 0.66 0 1 0 C1.103125 0.78375 1.20625 1.5675 1.3125 2.375 C1.77595022 5.33045181 1.77595022 5.33045181 5 7 C5 7.66 5 8.32 5 9 C4.34 9 3.68 9 3 9 C3.66 10.98 4.32 12.96 5 15 C4.34 15 3.68 15 3 15 C3 14.34 3 13.68 3 13 C1.68 12.67 0.36 12.34 -1 12 C-0.34 11.34 0.32 10.68 1 10 C1 9.34 1 8.68 1 8 C-0.093125 7.896875 -1.18625 7.79375 -2.3125 7.6875 C-6 7 -6 7 -7.9375 5.5625 C-9 4 -9 4 -9 2 C-6 3 -6 3 -4 5 C-3.01 4.67 -2.02 4.34 -1 4 C-0.26676204 1.98491642 -0.26676204 1.98491642 0 0 Z " fill="#D7D7D7" transform="translate(306,84)"/>
<path d="M0 0 C4.12494151 -0.05784708 8.24977944 -0.09354407 12.375 -0.125 C13.550625 -0.14175781 14.72625 -0.15851562 15.9375 -0.17578125 C17.61972656 -0.18544922 17.61972656 -0.18544922 19.3359375 -0.1953125 C20.37282715 -0.20578613 21.4097168 -0.21625977 22.47802734 -0.22705078 C25 0 25 0 27 2 C17.74247865 3.46944783 9.19896251 2.29126968 0 1 C0 0.67 0 0.34 0 0 Z " fill="#0D0A0D" transform="translate(276,545)"/>
<path d="M0 0 C0.721875 0.00257813 1.44375 0.00515625 2.1875 0.0078125 C2.909375 0.00523437 3.63125 0.00265625 4.375 0 C6.1875 0.1328125 6.1875 0.1328125 7.1875 1.1328125 C7.22813832 2.79898365 7.230221 4.46669345 7.1875 6.1328125 C6.1975 6.1328125 5.2075 6.1328125 4.1875 6.1328125 C4.1875 5.1428125 4.1875 4.1528125 4.1875 3.1328125 C3.1975 3.1328125 2.2075 3.1328125 1.1875 3.1328125 C1.1875 5.1128125 1.1875 7.0928125 1.1875 9.1328125 C0.8575 9.1328125 0.5275 9.1328125 0.1875 9.1328125 C-0.1425 7.4828125 -0.4725 5.8328125 -0.8125 4.1328125 C-1.1425 6.1128125 -1.4725 8.0928125 -1.8125 10.1328125 C-2.1425 10.1328125 -2.4725 10.1328125 -2.8125 10.1328125 C-2.83939216 8.65374358 -2.85884621 7.17453767 -2.875 5.6953125 C-2.88660156 4.87160156 -2.89820313 4.04789063 -2.91015625 3.19921875 C-2.78580037 0.56784823 -2.63135505 0.19281481 0 0 Z " fill="#CFCFCF" transform="translate(349.8125,192.8671875)"/>
<path d="M0 0 C2.125 0.375 2.125 0.375 4 1 C4 1.99 4 2.98 4 4 C-0.27884606 6.1103435 -4.13864142 6.24128739 -8.8125 6.125 C-9.85180664 6.11146484 -9.85180664 6.11146484 -10.91210938 6.09765625 C-12.60822395 6.07426157 -14.30415871 6.03839641 -16 6 C-12.18300908 3.86958647 -8.51302424 3.27219394 -4.2421875 2.5625 C-1.81519705 2.15772553 -1.81519705 2.15772553 0 0 Z " fill="#101010" transform="translate(98,253)"/>
<path d="M0 0 C0.33 0 0.66 0 1 0 C1.03738281 1.0621875 1.07476562 2.124375 1.11328125 3.21875 C1.31963329 12.14836332 1.31963329 12.14836332 3.625 20.6875 C5.05520191 24.13298642 5.1928714 25.52982866 4 29 C-1.12026923 18.89361707 -1.12969083 11.09274728 0 0 Z " fill="#DEDDDC" transform="translate(211,232)"/>
<path d="M0 0 C1.60407328 -0.02708567 3.2082785 -0.04643483 4.8125 -0.0625 C5.70582031 -0.07410156 6.59914063 -0.08570313 7.51953125 -0.09765625 C10 0 10 0 13 1 C14.33363703 1.14403348 15.67218046 1.24590423 17.01171875 1.31640625 C18.14770508 1.37924805 18.14770508 1.37924805 19.30664062 1.44335938 C20.48516602 1.50233398 20.48516602 1.50233398 21.6875 1.5625 C22.88342773 1.62727539 22.88342773 1.62727539 24.10351562 1.69335938 C26.06881447 1.79927368 28.03438496 1.90012551 30 2 C30 2.33 30 2.66 30 3 C26.04907941 3.07409401 22.09842706 3.12857406 18.14697266 3.16479492 C16.14080626 3.18732251 14.13483474 3.2254357 12.12890625 3.26367188 C10.87207031 3.27333984 9.61523438 3.28300781 8.3203125 3.29296875 C6.57645264 3.31653442 6.57645264 3.31653442 4.79736328 3.34057617 C3.8742334 3.22818604 2.95110352 3.1157959 2 3 C1.34 2.01 0.68 1.02 0 0 Z " fill="#060306" transform="translate(424,557)"/>
<path d="M0 0 C0.33 0 0.66 0 1 0 C1 5.28 1 10.56 1 16 C-4.28 16 -9.56 16 -15 16 C-13 14 -13 14 -10.1796875 13.8046875 C-5.58984375 13.90234375 -5.58984375 13.90234375 -1 14 C-0.67 9.38 -0.34 4.76 0 0 Z " fill="#4C4C29" transform="translate(232,262)"/>
<path d="M0 0 C3.0625 0.1875 3.0625 0.1875 5.0625 2.1875 C5.0625 3.5075 5.0625 4.8275 5.0625 6.1875 C4.0725 6.1875 3.0825 6.1875 2.0625 6.1875 C2.0625 5.1975 2.0625 4.2075 2.0625 3.1875 C0.7425 3.1875 -0.5775 3.1875 -1.9375 3.1875 C-1.9375 5.4975 -1.9375 7.8075 -1.9375 10.1875 C-2.9275 10.6825 -2.9275 10.6825 -3.9375 11.1875 C-3.96438151 9.54175434 -3.98384123 7.89588587 -4 6.25 C-4.01160156 5.33347656 -4.02320313 4.41695312 -4.03515625 3.47265625 C-3.88736181 0.01426638 -3.51148462 0.22413732 0 0 Z " fill="#F3F3F3" transform="translate(308.9375,227.8125)"/>
<path d="M0 0 C1.32 0 2.64 0 4 0 C4.98043964 2.94131891 5.11621202 4.82501665 5.09765625 7.88671875 C5.09282227 9.2934082 5.09282227 9.2934082 5.08789062 10.72851562 C5.07951172 11.70498047 5.07113281 12.68144531 5.0625 13.6875 C5.05798828 14.67556641 5.05347656 15.66363281 5.04882812 16.68164062 C5.03704303 19.12115474 5.02059011 21.56054689 5 24 C4.67 24 4.34 24 4 24 C3.67 20.04 3.34 16.08 3 12 C2.34 12.99 1.68 13.98 1 15 C1.14204741 13.41632253 1.28880153 11.83306682 1.4375 10.25 C1.51871094 9.36828125 1.59992188 8.4865625 1.68359375 7.578125 C1.96238465 5.30649548 2.38790577 3.20148177 3 1 C2.01 0.67 1.02 0.34 0 0 Z " fill="#524F53" transform="translate(316,263)"/>
<path d="M0 0 C4.29 0 8.58 0 13 0 C12.34 3.96 11.68 7.92 11 12 C9.99999571 7.99998285 10.19311595 5.94476647 11 2 C7.7 2 4.4 2 1 2 C1 4.64 1 7.28 1 10 C0.67 10 0.34 10 0 10 C0 6.7 0 3.4 0 0 Z " fill="#D2D637" transform="translate(223,239)"/>
<path d="M0 0 C1.32 0.33 2.64 0.66 4 1 C4.33 4.96 4.66 8.92 5 13 C4.01 13.66 3.02 14.32 2 15 C1.66048381 13.43883181 1.32867456 11.87598662 1 10.3125 C0.814375 9.44238281 0.62875 8.57226562 0.4375 7.67578125 C0.01027953 5.06287036 -0.07616201 2.64186962 0 0 Z " fill="#CCC9CC" transform="translate(308,263)"/>
<path d="M0 0 C0.33 0 0.66 0 1 0 C1.8388516 7.51094816 2.0773541 14.50824535 1 22 C0.34 22 -0.32 22 -1 22 C-1.02887814 18.52085059 -1.04675687 15.04173169 -1.0625 11.5625 C-1.07087891 10.56927734 -1.07925781 9.57605469 -1.08789062 8.55273438 C-1.09111328 7.60849609 -1.09433594 6.66425781 -1.09765625 5.69140625 C-1.10289307 4.81685791 -1.10812988 3.94230957 -1.11352539 3.04125977 C-1 1 -1 1 0 0 Z " fill="#FDFBFD" transform="translate(293,265)"/>
<path d="M0 0 C1.65 0 3.3 0 5 0 C5 6.6 5 13.2 5 20 C4.34 20 3.68 20 3 20 C2.95101563 18.72382813 2.90203125 17.44765625 2.8515625 16.1328125 C2.77653809 14.46351928 2.70099012 12.79424954 2.625 11.125 C2.57859375 9.86236328 2.57859375 9.86236328 2.53125 8.57421875 C2.49257813 7.76855469 2.45390625 6.96289062 2.4140625 6.1328125 C2.3826416 5.38918457 2.3512207 4.64555664 2.31884766 3.87939453 C2.14580449 1.75989026 2.14580449 1.75989026 0 0 Z " fill="#FDFDFD" transform="translate(367,229)"/>
<path d="M0 0 C-0.1875 1.8125 -0.1875 1.8125 -1 4 C-4.66125071 6.92900057 -7.3824571 7.32215416 -12 7 C-12.33 6.34 -12.66 5.68 -13 5 C-11.21046815 4.16209211 -9.41830305 3.32980604 -7.625 2.5 C-6.62726563 2.0359375 -5.62953125 1.571875 -4.6015625 1.09375 C-2 0 -2 0 0 0 Z " fill="#373737" transform="translate(187,68)"/>
<path d="M0 0 C0.66 0 1.32 0 2 0 C2 6.6 2 13.2 2 20 C1.34 20 0.68 20 0 20 C-0.06058594 19.37351562 -0.12117188 18.74703125 -0.18359375 18.1015625 C-0.30927734 16.87566406 -0.30927734 16.87566406 -0.4375 15.625 C-0.51871094 14.81289063 -0.59992188 14.00078125 -0.68359375 13.1640625 C-0.89090114 10.95727195 -0.89090114 10.95727195 -2 9 C-1.34 9 -0.68 9 0 9 C0 6.03 0 3.06 0 0 Z " fill="#FDFCFE" transform="translate(328,267)"/>
<path d="M0 0 C0.66 0 1.32 0 2 0 C2.16276042 2.01822917 2.32552083 4.03645833 2.48828125 6.0546875 C2.87393036 8.39519216 2.87393036 8.39519216 6 10 C4.68 10 3.36 10 2 10 C2 12.97 2 15.94 2 19 C1.34 19 0.68 19 0 19 C0 12.73 0 6.46 0 0 Z " fill="#FDFDFE" transform="translate(317,232)"/>
<path d="M0 0 C0.87454834 0.04713135 1.74909668 0.0942627 2.65014648 0.14282227 C4.06650391 0.21533203 4.06650391 0.21533203 5.51147461 0.28930664 C6.50469727 0.34538086 7.49791992 0.40145508 8.52124023 0.45922852 C9.51833008 0.51143555 10.51541992 0.56364258 11.54272461 0.61743164 C14.01501545 0.74755221 16.48694653 0.88253033 18.95874023 1.02172852 C18.95874023 1.35172852 18.95874023 1.68172852 18.95874023 2.02172852 C2.85159738 4.95029994 2.85159738 4.95029994 -3.04125977 1.02172852 C-2.04125977 0.02172852 -2.04125977 0.02172852 0 0 Z " fill="#E2DFE3" transform="translate(407.041259765625,558.978271484375)"/>
<path d="M0 0 C2.97 0 5.94 0 9 0 C9 1.65 9 3.3 9 5 C6.03 5 3.06 5 0 5 C0 3.35 0 1.7 0 0 Z " fill="#ADABAE" transform="translate(367,283)"/>
<path d="M0 0 C0.66 0 1.32 0 2 0 C2.06058594 1.20398438 2.12117188 2.40796875 2.18359375 3.6484375 C2.26799732 5.22397077 2.35264541 6.79949096 2.4375 8.375 C2.47681641 9.1690625 2.51613281 9.963125 2.55664062 10.78125 C2.68893404 15.02601221 2.68893404 15.02601221 4 19 C2.68 19 1.36 19 0 19 C0 12.73 0 6.46 0 0 Z " fill="#FDFBFD" transform="translate(350,267)"/>
<path d="M0 0 C7.875 0.875 7.875 0.875 9 2 C9.07258946 4.18639453 9.08373783 6.37500389 9.0625 8.5625 C9.05347656 9.76003906 9.04445312 10.95757812 9.03515625 12.19140625 C9.02355469 13.11824219 9.01195312 14.04507813 9 15 C6.41073669 12.41073669 6.62601957 10.97294721 6.375 7.375 C6.30023438 6.37210938 6.22546875 5.36921875 6.1484375 4.3359375 C6.09945312 3.56507813 6.05046875 2.79421875 6 2 C3.69 2 1.38 2 -1 2 C-0.67 1.34 -0.34 0.68 0 0 Z " fill="#494A04" transform="translate(214,237)"/>
<path d="M0 0 C0.66 0 1.32 0 2 0 C2.09765625 6.15234375 2.09765625 6.15234375 2 8 C1 9 1 9 -1.9375 9.1875 C-5 9 -5 9 -7 7 C-7 6.01 -7 5.02 -7 4 C-6.01 4 -5.02 4 -4 4 C-4 4.66 -4 5.32 -4 6 C-2.68 6 -1.36 6 0 6 C0 4.02 0 2.04 0 0 Z " fill="#FBFBFB" transform="translate(354,207)"/>
<path d="M0 0 C0.33 0 0.66 0 1 0 C1.05790353 3.29159316 1.09356261 6.58305603 1.125 9.875 C1.14175781 10.81214844 1.15851563 11.74929688 1.17578125 12.71484375 C1.18222656 13.61074219 1.18867188 14.50664062 1.1953125 15.4296875 C1.20578613 16.25710449 1.21625977 17.08452148 1.22705078 17.93701172 C1 20 1 20 -1 22 C-4.625 22.125 -4.625 22.125 -8 22 C-7.01 20.515 -7.01 20.515 -6 19 C-4.02 18.67 -2.04 18.34 0 18 C0 12.06 0 6.12 0 0 Z " fill="#C2BFC2" transform="translate(359,265)"/>
<path d="M0 0 C0.99 0 1.98 0 3 0 C3 3.3 3 6.6 3 10 C1.68 10 0.36 10 -1 10 C-1.02689216 8.52093108 -1.04634621 7.04172517 -1.0625 5.5625 C-1.07410156 4.73878906 -1.08570313 3.91507812 -1.09765625 3.06640625 C-1 1 -1 1 0 0 Z " fill="#484548" transform="translate(295,266)"/>
<path d="M0 0 C1.32 0 2.64 0 4 0 C5.51403812 4.84492197 4.36602172 8.2591011 3 13 C2.67 13 2.34 13 2 13 C1.66127487 11.58461283 1.32925376 10.16762037 1 8.75 C0.814375 7.96109375 0.62875 7.1721875 0.4375 6.359375 C0 4 0 4 0 0 Z " fill="#302D30" transform="translate(337,263)"/>
<path d="M0 0 C1.33333333 0.66666667 2.66666667 1.33333333 4 2 C4 4.31 4 6.62 4 9 C2.0625 9.5625 2.0625 9.5625 0 10 C-0.33 9.67 -0.66 9.34 -1 9 C-0.91062197 7.47480724 -0.75462854 5.95318071 -0.5625 4.4375 C-0.46066406 3.61121094 -0.35882813 2.78492188 -0.25390625 1.93359375 C-0.17011719 1.29550781 -0.08632812 0.65742188 0 0 Z " fill="#313131" transform="translate(228,223)"/>
<path d="M0 0 C1.32 0 2.64 0 4 0 C4 2.97 4 5.94 4 9 C2.68 9 1.36 9 0 9 C0 6.03 0 3.06 0 0 Z " fill="#3E3E3E" transform="translate(332,196)"/>
<path d="M0 0 C1.98 0 3.96 0 6 0 C6 1.65 6 3.3 6 5 C5.01 5.495 5.01 5.495 4 6 C4 6.66 4 7.32 4 8 C2.68 8 1.36 8 0 8 C0 5.36 0 2.72 0 0 Z " fill="#BBBBBB" transform="translate(285,92)"/>
<path d="M0 0 C3.125 0.375 3.125 0.375 6 1 C5.01 1.66 4.02 2.32 3 3 C3 2.34 3 1.68 3 1 C1.68388323 1.95336021 0.37221039 2.91285774 -0.9375 3.875 C-2.03384766 4.67550781 -2.03384766 4.67550781 -3.15234375 5.4921875 C-5.11098235 6.88012104 -5.11098235 6.88012104 -6 9 C-8.0625 9.625 -8.0625 9.625 -10 10 C-10 9.34 -10 8.68 -10 8 C-10.66 7.67 -11.32 7.34 -12 7 C-11.30132812 6.66226563 -10.60265625 6.32453125 -9.8828125 5.9765625 C-8.97273438 5.53054687 -8.06265625 5.08453125 -7.125 4.625 C-6.22007812 4.18414062 -5.31515625 3.74328125 -4.3828125 3.2890625 C-1.90465528 2.09497301 -1.90465528 2.09497301 0 0 Z " fill="#414141" transform="translate(349,46)"/>
<path d="M0 0 C1.65 0 3.3 0 5 0 C5 2.31 5 4.62 5 7 C3.35 7 1.7 7 0 7 C0 4.69 0 2.38 0 0 Z " fill="#262626" transform="translate(286,231)"/>
<path d="M0 0 C1.74965358 -0.05429959 3.49979787 -0.09292823 5.25 -0.125 C6.22453125 -0.14820313 7.1990625 -0.17140625 8.203125 -0.1953125 C11.0196498 0.00137219 12.60949036 0.55431084 15 2 C10.61563621 4.19218189 4.63098598 3.15774649 0 2 C0 1.34 0 0.68 0 0 Z " fill="#DFDCDF" transform="translate(377,557)"/>
<path d="M0 0 C0.33 0.99 0.66 1.98 1 3 C1.99 2.34 2.98 1.68 4 1 C2.79618552 3.49361571 1.54571278 5.68143083 0 8 C-0.66 8 -1.32 8 -2 8 C-2.33 9.32 -2.66 10.64 -3 12 C-4.46911544 8.18029984 -3.52561108 5.69358471 -2 2 C-1.34 1.34 -0.68 0.68 0 0 Z " fill="#151515" transform="translate(145,241)"/>
<path d="M0 0 C2.5 0.125 2.5 0.125 3.5 1.125 C3.54063832 2.79117115 3.542721 4.45888095 3.5 6.125 C2.51 6.125 1.52 6.125 0.5 6.125 C0.5 5.135 0.5 4.145 0.5 3.125 C-0.49 3.125 -1.48 3.125 -2.5 3.125 C-2.5 5.105 -2.5 7.085 -2.5 9.125 C-2.83 9.125 -3.16 9.125 -3.5 9.125 C-3.59765625 2.97265625 -3.59765625 2.97265625 -3.5 1.125 C-2.5 0.125 -2.5 0.125 0 0 Z " fill="#E1E1E1" transform="translate(288.5,192.875)"/>
<path d="M0 0 C-1.32 0.33 -2.64 0.66 -4 1 C-4 1.66 -4 2.32 -4 3 C-7.3111013 4.10370043 -9.24748949 3.92673641 -12.6875 3.5625 C-13.68136719 3.46066406 -14.67523438 3.35882812 -15.69921875 3.25390625 C-16.45847656 3.17011719 -17.21773438 3.08632813 -18 3 C-12.69004185 -0.5399721 -6.21269575 -0.12943116 0 0 Z " fill="#161316" transform="translate(377,551)"/>
<path d="M0 0 C0.99 0.33 1.98 0.66 3 1 C0.64350301 3.68872443 -1.63578765 4.9193851 -4.9375 6.25 C-6.21947266 6.78367187 -6.21947266 6.78367187 -7.52734375 7.328125 C-10.17145366 8.04658772 -11.45868571 7.91982605 -14 7 C-12.96875 6.566875 -11.9375 6.13375 -10.875 5.6875 C-5.02939032 3.4694352 -5.02939032 3.4694352 0 0 Z " fill="#111111" transform="translate(331,118)"/>
<path d="M0 0 C0.99 0 1.98 0 3 0 C3 1.98 3 3.96 3 6 C0.69 6 -1.62 6 -4 6 C-4.33 5.01 -4.66 4.02 -5 3 C-4.360625 2.87625 -3.72125 2.7525 -3.0625 2.625 C-2.0415625 2.315625 -2.0415625 2.315625 -1 2 C-0.67 1.34 -0.34 0.68 0 0 Z " fill="#242520" transform="translate(233,232)"/>
<path d="M0 0 C1.32 0 2.64 0 4 0 C4 7.59 4 15.18 4 23 C3.67 23 3.34 23 3 23 C2.67 16.4 2.34 9.8 2 3 C1.01 3.495 1.01 3.495 0 4 C0 2.68 0 1.36 0 0 Z " fill="#E9E9E9" transform="translate(322,193)"/>
<path d="M0 0 C0.99 0 1.98 0 3 0 C3 0.99 3 1.98 3 3 C3.99 2.67 4.98 2.34 6 2 C6.99 3.485 6.99 3.485 8 5 C7 6 7 6 4 6.125 C1 6 1 6 0 5 C-0.04063832 3.33382885 -0.042721 1.66611905 0 0 Z " fill="#D5D5D7" transform="translate(382,246)"/>
<path d="M0 0 C0.33 0 0.66 0 1 0 C1.22644569 3.24900334 1.42797517 6.49909039 1.625 9.75 C1.68945312 10.67039063 1.75390625 11.59078125 1.8203125 12.5390625 C1.871875 13.42851562 1.9234375 14.31796875 1.9765625 15.234375 C2.02893066 16.05131836 2.08129883 16.86826172 2.13525391 17.70996094 C1.98414765 20.26840268 1.28926961 21.80868168 0 24 C-1.14702282 18.74918443 -0.93088566 13.93483462 -0.5625 8.625 C-0.51029297 7.79355469 -0.45808594 6.96210938 -0.40429688 6.10546875 C-0.27561269 4.06991892 -0.13864593 2.03489559 0 0 Z " fill="#9E9F9C" transform="translate(237,230)"/>
<path d="M0 0 C0 3 0 3 -2.3125 5.5625 C-5 8 -5 8 -8 10 C-8.66 9.34 -9.32 8.68 -10 8 C-6.7 5.36 -3.4 2.72 0 0 Z M-12 9 C-10 10 -10 10 -10 10 Z " fill="#323232" transform="translate(49,154)"/>
<path d="M0 0 C0.99 0 1.98 0 3 0 C3 0.99 3 1.98 3 3 C4.65 2.67 6.3 2.34 8 2 C7.67 3.32 7.34 4.64 7 6 C4.625 6.125 4.625 6.125 2 6 C1.34 5.34 0.68 4.68 0 4 C0 2.68 0 1.36 0 0 Z " fill="#E4E3E5" transform="translate(293,246)"/>
<path d="M0 0 C1.97986082 0.11347619 3.95891598 0.2410935 5.9375 0.375 C7.03964844 0.44460938 8.14179688 0.51421875 9.27734375 0.5859375 C10.62505859 0.79089844 10.62505859 0.79089844 12 1 C12.33 1.66 12.66 2.32 13 3 C8.71 3 4.42 3 0 3 C0 2.01 0 1.02 0 0 Z " fill="#120F12" transform="translate(408,556)"/>
<path d="M0 0 C4.51617599 -0.07654536 8.59085217 -0.10228696 13 1 C13 1.66 13 2.32 13 3 C6.07 2.505 6.07 2.505 -1 2 C-0.67 1.34 -0.34 0.68 0 0 Z " fill="#F3F0F3" transform="translate(364,556)"/>
<path d="M0 0 C0.99 0.33 1.98 0.66 3 1 C2.67 1.66 2.34 2.32 2 3 C1.72975292 5.29924497 1.55502159 7.59801487 1.37890625 9.90625 C1 12 1 12 -1 14 C-1.02685938 11.85423363 -1.04633088 9.70837355 -1.0625 7.5625 C-1.07410156 6.36753906 -1.08570313 5.17257812 -1.09765625 3.94140625 C-1 1 -1 1 0 0 Z " fill="#FDFBFD" transform="translate(322,264)"/>
<path d="M0 0 C0.3403125 0.9590625 0.3403125 0.9590625 0.6875 1.9375 C1.85250896 4.27193661 1.85250896 4.27193661 4.625 4.75 C5.40875 4.8325 6.1925 4.915 7 5 C7 5.99 7 6.98 7 8 C4.36 8 1.72 8 -1 8 C-0.67 5.36 -0.34 2.72 0 0 Z " fill="#DEDDDF" transform="translate(284,244)"/>
<path d="M0 0 C1.25 2.0625 1.25 2.0625 2 4 C1.34 4 0.68 4 0 4 C-0.33 3.34 -0.66 2.68 -1 2 C-2.32 2 -3.64 2 -5 2 C-5.33 3.32 -5.66 4.64 -6 6 C-6.66 6 -7.32 6 -8 6 C-8.33 4.02 -8.66 2.04 -9 0 C-5.69978999 -0.8250525 -3.17546695 -1.42348518 0 0 Z " fill="#D3D3D3" transform="translate(311,101)"/>
<path d="M0 0 C2.67550292 2.67550292 2.83209389 4.94879894 3.625 8.625 C4.01558594 10.40777344 4.01558594 10.40777344 4.4140625 12.2265625 C4.70410156 13.59941406 4.70410156 13.59941406 5 15 C4.01 15.495 4.01 15.495 3 16 C-0.44419134 5.62642369 -0.44419134 5.62642369 0 0 Z " fill="#33350D" transform="translate(213,244)"/>
<path d="M0 0 C2.31 0 4.62 0 7 0 C7 0.99 7 1.98 7 3 C5.68 3 4.36 3 3 3 C3 5.31 3 7.62 3 10 C2.67 10 2.34 10 2 10 C2 7.69 2 5.38 2 3 C1.34 3 0.68 3 0 3 C0 2.01 0 1.02 0 0 Z " fill="#DEDEDE" transform="translate(335,228)"/>
<path d="M0 0 C1.98362069 2.91708924 1.9876191 4.12380904 1.625 7.75 C1.41875 8.8225 1.2125 9.895 1 11 C0.01 11 -0.98 11 -2 11 C-1.125 3.375 -1.125 3.375 0 0 Z " fill="#D7D7D7" transform="translate(320,201)"/>
<path d="M0 0 C6.6 0.33 13.2 0.66 20 1 C20 1.33 20 1.66 20 2 C17.41718562 2.24927162 14.83587772 2.47499275 12.25 2.6875 C11.15558594 2.79674805 11.15558594 2.79674805 10.0390625 2.90820312 C5.11764294 3.28849464 4.15975666 3.11981749 0 0 Z " fill="#C0C0C0" transform="translate(176,546)"/>
<path d="M0 0 C0.99 0 1.98 0 3 0 C3 2.97 3 5.94 3 9 C2.01 9 1.02 9 0 9 C0 6.03 0 3.06 0 0 Z " fill="#252225" transform="translate(324,266)"/>
<path d="M0 0 C0.99 0 1.98 0 3 0 C3 2.97 3 5.94 3 9 C2.01 9 1.02 9 0 9 C0 6.03 0 3.06 0 0 Z " fill="#202020" transform="translate(320,231)"/>
<path d="M0 0 C0.66 0.33 1.32 0.66 2 1 C2 3.97 2 6.94 2 10 C1.01 9.67 0.02 9.34 -1 9 C-1.125 2.25 -1.125 2.25 0 0 Z " fill="#EEEEEF" transform="translate(389,240)"/>
<path d="M0 0 C0.99 0 1.98 0 3 0 C3 0.99 3 1.98 3 3 C3.99 3 4.98 3 6 3 C5.67 3.99 5.34 4.98 5 6 C3.35 6 1.7 6 0 6 C0 4.02 0 2.04 0 0 Z " fill="#242424" transform="translate(286,196)"/>
<path d="M0 0 C1.98 0 3.96 0 6 0 C5.814375 0.61875 5.62875 1.2375 5.4375 1.875 C4.76313824 4.04160178 4.76313824 4.04160178 6 6 C4.68 6.33 3.36 6.66 2 7 C2 6.34 2 5.68 2 5 C1.34 4.67 0.68 4.34 0 4 C0.66 4 1.32 4 2 4 C2 3.01 2 2.02 2 1 C1.34 0.67 0.68 0.34 0 0 Z " fill="#BEBEBE" transform="translate(312,92)"/>
<path d="M0 0 C-0.66 1.32 -1.32 2.64 -2 4 C-3.875 3.75 -3.875 3.75 -6 3 C-7.25 0.9375 -7.25 0.9375 -8 -1 C-4.37673261 -2.2077558 -3.35853631 -1.54311128 0 0 Z " fill="#6D6D6D" transform="translate(309,97)"/>
<path d="M0 0 C2 1 2 1 2.703125 2.99609375 C2.88359375 3.80175781 3.0640625 4.60742188 3.25 5.4375 C3.53617188 6.64212891 3.53617188 6.64212891 3.828125 7.87109375 C3.88484375 8.57363281 3.9415625 9.27617187 4 10 C3.34 10.66 2.68 11.32 2 12 C1.01 8.37 0.02 4.74 -1 1 C-0.67 0.67 -0.34 0.34 0 0 Z " fill="#D4D4D2" transform="translate(212,249)"/>
<path d="M0 0 C0.99 0 1.98 0 3 0 C3 0.99 3 1.98 3 3 C3.99 3.33 4.98 3.66 6 4 C2.25 7 2.25 7 0 7 C0 4.69 0 2.38 0 0 Z " fill="#373737" transform="translate(385,231)"/>
<path d="M0 0 C0.99 0.33 1.98 0.66 3 1 C3 1.66 3 2.32 3 3 C3.99 2.67 4.98 2.34 6 2 C5.67 2.99 5.34 3.98 5 5 C4.34 5 3.68 5 3 5 C3.33 5.99 3.66 6.98 4 8 C3.01 8 2.02 8 1 8 C0.67 5.36 0.34 2.72 0 0 Z " fill="#323232" transform="translate(233,222)"/>
<path d="M0 0 C0.99 0 1.98 0 3 0 C3 1.98 3 3.96 3 6 C1.68 6 0.36 6 -1 6 C-1 5.34 -1 4.68 -1 4 C-1.99 3.67 -2.98 3.34 -4 3 C-2.68 3 -1.36 3 0 3 C0 2.01 0 1.02 0 0 Z " fill="#404040" transform="translate(351,207)"/>
<path d="M0 0 C0.99 0 1.98 0 3 0 C3.66 2.31 4.32 4.62 5 7 C4.01 7.495 4.01 7.495 3 8 C2.01 7.34 1.02 6.68 0 6 C-0.1875 2.875 -0.1875 2.875 0 0 Z " fill="#292929" transform="translate(351,196)"/>
<path d="M0 0 C0.66 0.33 1.32 0.66 2 1 C1.25 7.625 1.25 7.625 -1 11 C-2.0257259 6.58937864 -2.03684712 4.07369424 0 0 Z " fill="#2B2B2B" transform="translate(320,193)"/>
<path d="M0 0 C0.99 0.33 1.98 0.66 3 1 C1.35 2.98 -0.3 4.96 -2 7 C-2.33 6.01 -2.66 5.02 -3 4 C-3.66 3.67 -4.32 3.34 -5 3 C-2.6875 1.4375 -2.6875 1.4375 0 0 Z " fill="#3A3A3A" transform="translate(166,77)"/>
<path d="M0 0 C1.60379341 -0.05416188 3.20811406 -0.09286638 4.8125 -0.125 C5.70582031 -0.14820313 6.59914063 -0.17140625 7.51953125 -0.1953125 C10 0 10 0 13 2 C9.37 2.33 5.74 2.66 2 3 C1.34 2.01 0.68 1.02 0 0 Z " fill="#0E0B0E" transform="translate(424,557)"/>
<path d="M0 0 C0.99 0.33 1.98 0.66 3 1 C2.67 2.32 2.34 3.64 2 5 C1.01 4.67 0.02 4.34 -1 4 C-1.33 4.66 -1.66 5.32 -2 6 C-2.66 5.67 -3.32 5.34 -4 5 C-4 4.01 -4 3.02 -4 2 C-2.68 2 -1.36 2 0 2 C0 1.34 0 0.68 0 0 Z " fill="#9E9E9E" transform="translate(305,91)"/>
<path d="M0 0 C0.99 0 1.98 0 3 0 C3 0.66 3 1.32 3 2 C3.66 2.33 4.32 2.66 5 3 C4.34 3 3.68 3 3 3 C3.33 4.65 3.66 6.3 4 8 C2.68 8 1.36 8 0 8 C0 5.36 0 2.72 0 0 Z " fill="#B8B8B8" transform="translate(292,92)"/>
<path d="M0 0 C0.66 0.33 1.32 0.66 2 1 C0.68 1.33 -0.64 1.66 -2 2 C-2.33 3.32 -2.66 4.64 -3 6 C-5.96175123 5.38722388 -7.38058783 4.74627478 -10 3 C-8.906875 2.690625 -7.81375 2.38125 -6.6875 2.0625 C-4.44592006 1.41662103 -2.2130649 0.7376883 0 0 Z " fill="#484848" transform="translate(245,46)"/>
<path d="M0 0 C1.5625 1.25 1.5625 1.25 3 3 C2.6875 5.1875 2.6875 5.1875 2 7 C1.34 7 0.68 7 0 7 C-0.33 7.99 -0.66 8.98 -1 10 C-1.125 2.25 -1.125 2.25 0 0 Z " fill="#19191B" transform="translate(304,239)"/>
<path d="M0 0 C0.99 0 1.98 0 3 0 C2.4140625 6.15234375 2.4140625 6.15234375 2 8 C1.01 8.495 1.01 8.495 0 9 C0 6.03 0 3.06 0 0 Z " fill="#F5F3F5" transform="translate(316,264)"/>
<path d="M0 0 C0.78375 0.04125 1.5675 0.0825 2.375 0.125 C2.045 1.775 1.715 3.425 1.375 5.125 C-0.605 4.135 -2.585 3.145 -4.625 2.125 C-2.625 0.125 -2.625 0.125 0 0 Z " fill="#313131" transform="translate(312.625,235.875)"/>
<path d="M0 0 C0.66 0 1.32 0 2 0 C2 1.32 2 2.64 2 4 C2.99 4 3.98 4 5 4 C4.67 4.66 4.34 5.32 4 6 C1.03 5.505 1.03 5.505 -2 5 C-1.125 1.125 -1.125 1.125 0 0 Z " fill="#757575" transform="translate(367,223)"/>
<path d="M0 0 C0.99 0 1.98 0 3 0 C3 0.66 3 1.32 3 2 C3.99 2.33 4.98 2.66 6 3 C6 3.66 6 4.32 6 5 C4.35 4.67 2.7 4.34 1 4 C0.67 2.68 0.34 1.36 0 0 Z " fill="#E5E5E5" transform="translate(347,211)"/>
<path d="M0 0 C0.66 0.33 1.32 0.66 2 1 C2 1.66 2 2.32 2 3 C2.66 3.33 3.32 3.66 4 4 C0.7 4.66 -2.6 5.32 -6 6 C-4 4 -2 2 0 0 Z " fill="#BFBFBF" transform="translate(301,97)"/>
<path d="M0 0 C0.66 0 1.32 0 2 0 C3.4606285 2.64738916 4 3.89448334 4 7 C3.34 7 2.68 7 2 7 C2 6.34 2 5.68 2 5 C1.01 5 0.02 5 -1 5 C-1.33 5.66 -1.66 6.32 -2 7 C-1.42415568 4.61435923 -0.77772405 2.33317216 0 0 Z " fill="#D7D7D7" transform="translate(321,92)"/>
<path d="M0 0 C3 1 3 1 5 3 C7.10820797 2.6814823 7.10820797 2.6814823 9 2 C9 2.99 9 3.98 9 5 C3.5 5.36666667 3.5 5.36666667 1.125 3.625 C0 2 0 2 0 0 Z " fill="#C9C9C9" transform="translate(297,86)"/>
<path d="M0 0 C2 1 2 1 3.125 4.0625 C3.41375 5.031875 3.7025 6.00125 4 7 C3.01 7.33 2.02 7.66 1 8 C-0.42944945 5.64561267 -1.08661261 4.51967567 -0.625 1.75 C-0.41875 1.1725 -0.2125 0.595 0 0 Z " fill="#0B0B0B" transform="translate(254,64)"/>
<path d="M0 0 C1.98 0 3.96 0 6 0 C5.67 0.99 5.34 1.98 5 3 C3.0625 3.75 3.0625 3.75 1 4 C0.34 3.67 -0.32 3.34 -1 3 C-0.67 2.01 -0.34 1.02 0 0 Z " fill="#D6D3D6" transform="translate(293,263)"/>
<path d="M0 0 C0.99 0 1.98 0 3 0 C3 1.32 3 2.64 3 4 C4.32 4.66 5.64 5.32 7 6 C5.02 6 3.04 6 1 6 C0.67 4.02 0.34 2.04 0 0 Z " fill="#CBCBCD" transform="translate(305,246)"/>
<path d="M0 0 C1.98 0 3.96 0 6 0 C6.33 1.65 6.66 3.3 7 5 C6.01 5 5.02 5 4 5 C3.67 4.01 3.34 3.02 3 2 C2.01 1.34 1.02 0.68 0 0 Z " fill="#F4F4F4" transform="translate(384,229)"/>
<path d="M0 0 C0.99 0 1.98 0 3 0 C2.34 1.65 1.68 3.3 1 5 C1.99 5.33 2.98 5.66 4 6 C2.02 6 0.04 6 -2 6 C-1.34 4.02 -0.68 2.04 0 0 Z " fill="#9B9B9B" transform="translate(299,187)"/>
<path d="M0 0 C1.08667969 0.29197266 1.08667969 0.29197266 2.1953125 0.58984375 C2.74960937 0.74582031 3.30390625 0.90179688 3.875 1.0625 C3.875 1.7225 3.875 2.3825 3.875 3.0625 C-3.875 2.3125 -3.875 2.3125 -6.125 0.0625 C-3.57797384 -1.21101308 -2.6967055 -0.73941925 0 0 Z " fill="#5E5D5E" transform="translate(301.125,89.9375)"/>
<path d="M0 0 C-0.33 1.32 -0.66 2.64 -1 4 C-3.31 3.67 -5.62 3.34 -8 3 C-5.22569089 1.15046059 -3.35957737 0 0 0 Z " fill="#414141" transform="translate(337,54)"/>
<path d="M0 0 C0.66 0.33 1.32 0.66 2 1 C2.1875 3.375 2.1875 3.375 2 6 C1.01 6.66 0.02 7.32 -1 8 C-1.04241723 5.66705225 -1.04092937 3.33297433 -1 1 C-0.67 0.67 -0.34 0.34 0 0 Z " fill="#252525" transform="translate(137,336)"/>
<path d="M0 0 C0 0.66 0 1.32 0 2 C-0.99 2 -1.98 2 -3 2 C-3.33 2.99 -3.66 3.98 -4 5 C-5.65 4.67 -7.3 4.34 -9 4 C-8.67 3.34 -8.34 2.68 -8 2 C-6.0625 1.4375 -6.0625 1.4375 -4 1 C-2 0 -2 0 0 0 Z " fill="#DAD8DB" transform="translate(522,261)"/>
<path d="M0 0 C0.33 0 0.66 0 1 0 C1.33 3.3 1.66 6.6 2 10 C1.01 10.66 0.02 11.32 -1 12 C-1.33 10.68 -1.66 9.36 -2 8 C-1.67 8 -1.34 8 -1 8 C-0.67 5.36 -0.34 2.72 0 0 Z " fill="#4C4C4D" transform="translate(292,230)"/>
<path d="M0 0 C0.66 0.99 1.32 1.98 2 3 C0.35 3.33 -1.3 3.66 -3 4 C-3.33 4.99 -3.66 5.98 -4 7 C-4.66 6.01 -5.32 5.02 -6 4 C-4.02 2.68 -2.04 1.36 0 0 Z " fill="#373737" transform="translate(35,164)"/>
<path d="M0 0 C0.33 0.66 0.66 1.32 1 2 C-0.32 3.32 -1.64 4.64 -3 6 C-3.99 5.67 -4.98 5.34 -6 5 C-2.25 1.125 -2.25 1.125 0 0 Z " fill="#363636" transform="translate(92,124)"/>
<path d="M0 0 C0.99 0 1.98 0 3 0 C2 3 2 3 -0.9375 4.75 C-2.4534375 5.36875 -2.4534375 5.36875 -4 6 C-4.66 5.67 -5.32 5.34 -6 5 C-5.195625 4.731875 -4.39125 4.46375 -3.5625 4.1875 C-2.716875 3.795625 -1.87125 3.40375 -1 3 C-0.67 2.01 -0.34 1.02 0 0 Z " fill="#131313" transform="translate(326,105)"/>
<path d="M0 0 C0.99 0 1.98 0 3 0 C3 1.98 3 3.96 3 6 C2.01 5.67 1.02 5.34 0 5 C0 3.35 0 1.7 0 0 Z " fill="#D5D3D5" transform="translate(308,263)"/>
<path d="M0 0 C-0.33 0.99 -0.66 1.98 -1 3 C-3.375 3.625 -3.375 3.625 -6 4 C-6.66 3.34 -7.32 2.68 -8 2 C-5.09399739 0.74335022 -3.20395416 0 0 0 Z " fill="#D7D4D7" transform="translate(480,256)"/>
<path d="M0 0 C0.33 0 0.66 0 1 0 C1 2.31 1 4.62 1 7 C-0.98 7 -2.96 7 -5 7 C-4 5 -4 5 -1 4 C-0.26676204 1.98491642 -0.26676204 1.98491642 0 0 Z " fill="#FCFBFC" transform="translate(312,244)"/>
<path d="M0 0 C1.64350079 3.28700157 2.41321669 5.47930015 3 9 C2.01 9 1.02 9 0 9 C0 6.03 0 3.06 0 0 Z " fill="#2B2A2C" transform="translate(353,238)"/>
<path d="M0 0 C0.99 0 1.98 0 3 0 C3 1.98 3 3.96 3 6 C2.01 6.33 1.02 6.66 0 7 C0 4.69 0 2.38 0 0 Z " fill="#373739" transform="translate(385,242)"/>
<path d="M0 0 C0.66 0.33 1.32 0.66 2 1 C1.67 2.32 1.34 3.64 1 5 C0.01 5 -0.98 5 -2 5 C-2 4.34 -2 3.68 -2 3 C-2.99 2.67 -3.98 2.34 -5 2 C-3.35 2 -1.7 2 0 2 C0 1.34 0 0.68 0 0 Z " fill="#E2E2E2" transform="translate(303,211)"/>
<path d="M0 0 C1.32 0.66 2.64 1.32 4 2 C1 4 1 4 -1.1875 3.625 C-1.785625 3.41875 -2.38375 3.2125 -3 3 C-2.01 2.01 -1.02 1.02 0 0 Z " fill="#3F3F3F" transform="translate(133,98)"/>
<path d="M0 0 C1.98 0 3.96 0 6 0 C6 1.65 6 3.3 6 5 C5.01 4.67 4.02 4.34 3 4 C3 3.01 3 2.02 3 1 C2.01 0.67 1.02 0.34 0 0 Z " fill="#9A9A9A" transform="translate(285,92)"/>
<path d="M0 0 C0.66 0.33 1.32 0.66 2 1 C1.01 1.33 0.02 1.66 -1 2 C-1 2.66 -1 3.32 -1 4 C-0.34 4 0.32 4 1 4 C1 4.99 1 5.98 1 7 C0.01 7 -0.98 7 -2 7 C-3 4 -3 4 -2 1 C-1.34 0.67 -0.68 0.34 0 0 Z " fill="#929292" transform="translate(313,89)"/>
<path d="M0 0 C0.99 0 1.98 0 3 0 C3.66 1.65 4.32 3.3 5 5 C3.0625 5.5625 3.0625 5.5625 1 6 C0 5 0 5 -0.0625 2.4375 C-0.041875 1.633125 -0.02125 0.82875 0 0 Z " fill="#2F2F2F" transform="translate(307,84)"/>
</svg>
