<?xml version="1.0" encoding="UTF-8"?>
<svg xmlns="http://www.w3.org/2000/svg" xmlns:xlink="http://www.w3.org/1999/xlink" width="51px" height="48px" viewBox="0 0 51 48" version="1.1">
<g id="surface1">
<path style=" stroke:none;fill-rule:nonzero;fill:rgb(0%,0%,0%);fill-opacity:1;" d="M 24.746094 17.792969 C 23.890625 18.0625 23.28125 18.742188 23.132812 19.582031 L 23.078125 19.910156 L 22.40625 19.910156 C 21.449219 19.910156 21.117188 20.042969 20.851562 20.542969 L 20.730469 20.773438 L 20.730469 28.070312 L 20.851562 28.300781 C 20.996094 28.574219 21.234375 28.765625 21.558594 28.863281 C 21.769531 28.929688 22.195312 28.933594 25.59375 28.925781 L 29.394531 28.910156 L 29.644531 28.78125 C 29.914062 28.640625 30.109375 28.429688 30.203125 28.183594 C 30.285156 27.976562 30.296875 20.964844 30.222656 20.703125 C 30.148438 20.453125 29.894531 20.171875 29.632812 20.050781 C 29.414062 19.941406 29.34375 19.933594 28.65625 19.921875 C 27.933594 19.90625 27.910156 19.902344 27.890625 19.808594 C 27.878906 19.753906 27.847656 19.589844 27.820312 19.445312 C 27.671875 18.6875 27.019531 18.007812 26.222656 17.777344 C 25.789062 17.652344 25.15625 17.65625 24.746094 17.792969 Z M 25.972656 18.894531 C 26.089844 18.941406 26.246094 19.035156 26.320312 19.101562 C 26.480469 19.246094 26.679688 19.617188 26.679688 19.785156 L 26.679688 19.910156 L 24.320312 19.910156 L 24.320312 19.769531 C 24.320312 19.449219 24.726562 18.964844 25.085938 18.859375 C 25.347656 18.777344 25.742188 18.792969 25.972656 18.894531 Z M 23.089844 21.609375 C 23.089844 21.910156 23.117188 22.230469 23.140625 22.320312 C 23.292969 22.84375 24.117188 22.84375 24.273438 22.320312 C 24.296875 22.230469 24.320312 21.910156 24.320312 21.609375 L 24.320312 21.066406 L 26.679688 21.066406 L 26.679688 21.644531 C 26.679688 22.035156 26.699219 22.269531 26.746094 22.375 C 26.960938 22.859375 27.710938 22.820312 27.859375 22.320312 C 27.882812 22.230469 27.910156 21.910156 27.910156 21.609375 L 27.910156 21.066406 L 29.089844 21.066406 L 29.089844 27.777344 L 21.910156 27.777344 L 21.910156 21.066406 L 23.089844 21.066406 Z M 23.089844 21.609375 "/>
</g>
</svg>
