<?xml version="1.0" encoding="UTF-8"?>
<svg xmlns="http://www.w3.org/2000/svg" xmlns:xlink="http://www.w3.org/1999/xlink" width="51px" height="48px" viewBox="0 0 51 48" version="1.1">
<g id="surface1">
<path style=" stroke:none;fill-rule:nonzero;fill:rgb(0%,0%,0%);fill-opacity:1;" d="M 21.710938 18.042969 C 20.839844 18.1875 19.988281 18.644531 19.425781 19.28125 C 19.140625 19.609375 18.792969 20.230469 18.675781 20.644531 C 18.496094 21.277344 18.539062 22.140625 18.78125 22.867188 C 19.296875 24.394531 20.570312 25.808594 24.285156 28.964844 L 25.507812 30 L 25.617188 29.914062 C 26.015625 29.625 28.621094 27.335938 29.449219 26.558594 C 30.449219 25.613281 30.984375 25.03125 31.46875 24.359375 C 32.1875 23.367188 32.535156 22.34375 32.464844 21.425781 C 32.363281 20.027344 31.601562 18.933594 30.339844 18.355469 C 29.832031 18.125 29.496094 18.042969 28.851562 18.011719 C 27.71875 17.960938 26.667969 18.328125 25.808594 19.074219 L 25.523438 19.320312 L 25.199219 19.039062 C 24.617188 18.550781 23.925781 18.21875 23.171875 18.070312 C 22.800781 17.996094 22.09375 17.988281 21.710938 18.042969 Z M 22.863281 19.351562 C 23.605469 19.476562 24.347656 19.960938 24.714844 20.550781 L 24.898438 20.84375 L 25.542969 20.84375 L 26.183594 20.839844 L 26.292969 20.621094 C 26.71875 19.765625 28 19.164062 29.050781 19.328125 C 30.265625 19.515625 31.082031 20.429688 31.085938 21.59375 C 31.085938 22.859375 30.152344 24.179688 27.765625 26.285156 C 25.710938 28.09375 25.550781 28.226562 25.480469 28.191406 C 25.320312 28.105469 23.464844 26.480469 22.636719 25.710938 C 20.683594 23.875 19.976562 22.78125 19.96875 21.601562 C 19.96875 20.929688 20.15625 20.472656 20.617188 20 C 20.820312 19.796875 20.980469 19.683594 21.269531 19.554688 C 21.832031 19.296875 22.238281 19.25 22.863281 19.351562 Z M 22.863281 19.351562 "/>
</g>
</svg>
