<?xml version="1.0" encoding="UTF-8"?>
<svg xmlns="http://www.w3.org/2000/svg" xmlns:xlink="http://www.w3.org/1999/xlink" width="47px" height="47px" viewBox="0 0 47 47" version="1.1">
<g id="surface1">
<path style=" stroke:none;fill-rule:nonzero;fill:rgb(0%,0%,0%);fill-opacity:1;" d="M 20.746094 2.539062 C 17.914062 4.160156 15.457031 5.550781 14.378906 6.140625 L 13.773438 6.476562 L 13.773438 12.328125 C 13.773438 18.144531 13.722656 19.222656 13.433594 20.183594 C 13.148438 21.144531 12.335938 22.378906 11.585938 23.015625 C 11.132812 23.390625 11.066406 23.339844 11.453125 22.921875 C 11.886719 22.445312 12.683594 21.269531 12.894531 20.777344 C 13.378906 19.648438 13.398438 19.457031 13.445312 13.539062 C 13.464844 10.480469 13.503906 7.6875 13.523438 7.328125 C 13.550781 6.570312 13.617188 6.578125 12.511719 7.195312 L 11.730469 7.628906 L 11.757812 14.28125 C 11.769531 17.941406 11.75 21.085938 11.710938 21.269531 C 11.632812 21.621094 11.171875 22.839844 11.125 22.796875 C 11.09375 22.773438 11.183594 22.304688 11.355469 21.5625 C 11.433594 21.242188 11.453125 19.070312 11.441406 14.441406 L 11.414062 7.789062 L 10.132812 8.507812 C 9.4375 8.910156 8.167969 9.628906 7.320312 10.09375 C 5.953125 10.863281 5.59375 11.113281 5.855469 11.113281 C 5.902344 11.113281 6.269531 11.382812 6.675781 11.707031 C 7.917969 12.695312 8.550781 13.605469 9.121094 15.183594 L 9.390625 15.921875 L 9.390625 20.910156 C 9.390625 24.785156 9.363281 25.921875 9.273438 26.007812 C 9.179688 26.089844 9.148438 25.171875 9.148438 21.417969 C 9.148438 16.339844 9.121094 15.929688 8.609375 14.691406 C 8.300781 13.949219 8.023438 13.503906 7.378906 12.753906 C 6.820312 12.101562 5.539062 11.164062 5.316406 11.238281 C 5.085938 11.316406 3.949219 11.96875 3.949219 12.027344 C 3.949219 12.050781 4.199219 12.226562 4.488281 12.410156 C 5.414062 12.976562 6.414062 13.972656 6.839844 14.742188 C 7.542969 16.011719 7.550781 16.105469 7.484375 22.378906 L 7.414062 27.921875 L 7.734375 27.710938 C 7.90625 27.59375 8.175781 27.46875 8.332031 27.417969 C 8.601562 27.335938 8.589844 27.351562 8.1875 27.671875 C 7.609375 28.121094 7.328125 28.28125 7.242188 28.214844 C 7.203125 28.179688 7.175781 25.472656 7.175781 22.203125 L 7.175781 16.253906 L 6.953125 15.667969 C 6.664062 14.933594 6.125 14.132812 5.5 13.523438 C 4.902344 12.953125 3.699219 12.167969 3.503906 12.234375 C 3.429688 12.261719 3.101562 12.433594 2.773438 12.628906 L 2.175781 12.976562 L 2.417969 13.136719 C 2.542969 13.222656 2.957031 13.496094 3.332031 13.746094 C 4.207031 14.324219 4.816406 15.019531 5.164062 15.851562 L 5.441406 16.503906 L 5.441406 23.039062 C 5.441406 28.121094 5.414062 29.601562 5.324219 29.675781 C 5.230469 29.757812 5.199219 28.480469 5.199219 23.433594 C 5.199219 16.496094 5.191406 16.4375 4.632812 15.484375 C 4.257812 14.824219 3.542969 14.164062 2.648438 13.621094 C 2.242188 13.386719 1.898438 13.203125 1.886719 13.210938 C 1.867188 13.230469 1.828125 17.976562 1.8125 23.757812 C 1.761719 35.953125 1.636719 34.722656 2.871094 34.03125 C 5.625 32.484375 11.152344 29.484375 12.578125 28.765625 C 13.589844 28.253906 14.390625 27.703125 15.382812 26.84375 C 17.394531 25.085938 18.53125 23.347656 19.128906 21.101562 C 19.367188 20.164062 19.445312 18.035156 19.453125 12.242188 C 19.464844 8.199219 19.492188 6.753906 19.582031 6.59375 C 19.742188 6.269531 21.179688 5.464844 22.238281 5.089844 C 23.203125 4.746094 23.507812 4.714844 22.804688 5.023438 C 22.335938 5.230469 20.320312 6.285156 19.976562 6.5 L 19.753906 6.644531 L 19.742188 12.6875 C 19.742188 16.003906 19.695312 19.1875 19.648438 19.765625 C 19.378906 22.589844 18.105469 24.878906 15.554688 27.117188 C 14.582031 27.972656 14.011719 28.339844 12.136719 29.332031 C 9.976562 30.476562 9.246094 30.871094 8.089844 31.507812 C 7.484375 31.847656 6.550781 32.351562 6.019531 32.632812 C 3.699219 33.871094 2.503906 34.539062 2.503906 34.605469 C 2.503906 34.691406 3.613281 35.351562 3.757812 35.351562 C 3.8125 35.351562 4.207031 35.15625 4.652344 34.914062 C 5.085938 34.683594 5.703125 34.347656 6.019531 34.179688 C 6.335938 34.003906 7.222656 33.527344 7.992188 33.117188 C 15.34375 29.183594 15.035156 29.367188 16.613281 28.046875 C 17.238281 27.519531 17.777344 27.101562 17.796875 27.117188 C 17.894531 27.203125 17.066406 28.046875 16.199219 28.75 C 15.179688 29.582031 13.859375 30.351562 9.292969 32.757812 C 7.503906 33.710938 4.296875 35.449219 4.199219 35.527344 C 4.152344 35.558594 4.429688 35.769531 4.816406 35.984375 L 5.519531 36.378906 L 5.816406 36.226562 C 5.980469 36.144531 6.308594 35.96875 6.550781 35.828125 C 7.414062 35.324219 12.511719 32.617188 15.46875 31.078125 C 15.632812 30.988281 15.832031 30.921875 15.902344 30.921875 C 16.121094 30.929688 15.324219 31.488281 14.496094 31.925781 C 12.25 33.085938 8.378906 35.148438 6.078125 36.410156 L 5.847656 36.535156 L 6.511719 36.90625 C 6.875 37.105469 7.203125 37.273438 7.234375 37.273438 C 7.261719 37.273438 7.65625 37.070312 8.101562 36.828125 C 8.542969 36.578125 9.6875 35.953125 10.640625 35.441406 C 11.597656 34.925781 12.722656 34.296875 13.136719 34.046875 C 13.847656 33.628906 14.359375 33.417969 13.90625 33.746094 C 13.792969 33.820312 13.378906 34.113281 12.984375 34.390625 C 12.347656 34.839844 11.605469 35.257812 8.40625 36.972656 C 7.964844 37.207031 7.609375 37.421875 7.609375 37.449219 C 7.609375 37.472656 7.839844 37.625 8.109375 37.773438 C 8.949219 38.242188 12.105469 40.011719 13.242188 40.65625 C 13.832031 40.984375 14.785156 41.519531 15.363281 41.851562 C 15.949219 42.179688 16.988281 42.761719 17.671875 43.15625 C 18.367188 43.546875 19.957031 44.441406 21.226562 45.136719 L 23.527344 46.414062 L 23.886719 46.238281 C 24.078125 46.140625 27.199219 44.351562 30.828125 42.269531 C 34.449219 40.179688 37.628906 38.359375 37.878906 38.226562 L 38.339844 37.964844 L 37.636719 37.566406 C 36.65625 37.003906 34.285156 35.515625 34.285156 35.457031 C 34.285156 35.433594 34.382812 35.46875 34.507812 35.535156 C 34.625 35.609375 35.019531 35.816406 35.394531 36.019531 C 35.761719 36.21875 36.433594 36.585938 36.886719 36.855469 C 37.339844 37.113281 37.90625 37.429688 38.160156 37.554688 C 38.660156 37.808594 38.621094 37.816406 39.46875 37.332031 C 39.855469 37.113281 39.941406 37.023438 39.855469 36.953125 C 39.585938 36.761719 36.375 34.972656 34.125 33.761719 C 31.542969 32.367188 30.511719 31.554688 29.546875 30.128906 C 28.664062 28.824219 27.746094 26.566406 27.679688 25.53125 C 27.660156 25.03125 27.671875 24.972656 27.777344 25.097656 C 27.851562 25.171875 27.929688 25.429688 27.96875 25.65625 C 28.054688 26.214844 28.449219 27.09375 28.84375 27.621094 C 29.335938 28.253906 30.90625 29.542969 32.070312 30.253906 C 32.628906 30.59375 33.988281 31.378906 35.105469 32 C 36.214844 32.609375 37.609375 33.378906 38.1875 33.703125 C 41.835938 35.734375 42.089844 35.859375 42.308594 35.742188 C 42.898438 35.457031 43.425781 35.132812 43.4375 35.074219 C 43.4375 35.007812 39.402344 32.675781 37.03125 31.378906 C 33.46875 29.433594 32.640625 28.914062 31.492188 27.914062 C 28.902344 25.65625 27.410156 23.015625 27.0625 20.058594 C 26.949219 19.078125 27.042969 6.269531 27.160156 6.269531 C 27.324219 6.269531 27.363281 7.90625 27.351562 13.789062 C 27.332031 20.105469 27.351562 20.535156 27.699219 21.769531 C 27.871094 22.378906 28.441406 23.691406 28.796875 24.320312 C 29.546875 25.621094 31.128906 27.359375 32.503906 28.40625 C 32.96875 28.75 35.222656 30.070312 37.964844 31.589844 C 38.667969 31.972656 40.191406 32.835938 41.335938 33.488281 C 42.484375 34.148438 43.53125 34.722656 43.667969 34.773438 C 43.878906 34.855469 43.964844 34.839844 44.273438 34.648438 C 44.871094 34.289062 45.015625 34.179688 44.96875 34.15625 C 43.320312 33.019531 41.277344 31.738281 40.066406 31.070312 C 39.363281 30.6875 38.109375 29.96875 34.527344 27.921875 C 34.160156 27.710938 33.402344 27.144531 32.84375 26.660156 C 30.859375 24.929688 29.710938 23.089844 29.210938 20.824219 C 29.078125 20.183594 29.058594 19.304688 29.078125 13.246094 C 29.09375 6.742188 29.113281 5.851562 29.257812 5.976562 C 29.296875 6.007812 29.355469 9.308594 29.382812 13.3125 C 29.453125 21.144531 29.421875 20.785156 29.960938 22.273438 C 30.664062 24.253906 32.71875 26.558594 34.835938 27.769531 C 41.222656 31.398438 41.925781 31.808594 43.523438 32.859375 L 45.027344 33.855469 L 45.054688 23.515625 C 45.0625 17.832031 45.054688 13.152344 45.027344 13.136719 C 44.929688 13.054688 43.339844 14.054688 42.886719 14.492188 C 42.628906 14.734375 42.28125 15.160156 42.117188 15.433594 C 41.53125 16.378906 41.53125 16.378906 41.492188 23.5 C 41.480469 27.078125 41.433594 30 41.40625 30 C 41.105469 30 41.097656 29.769531 41.152344 23.292969 C 41.222656 16.152344 41.203125 16.371094 41.867188 15.277344 C 42.261719 14.625 43.070312 13.882812 43.957031 13.363281 C 44.304688 13.164062 44.574219 12.953125 44.554688 12.910156 C 44.542969 12.863281 44.265625 12.660156 43.925781 12.46875 C 43.503906 12.203125 43.273438 12.117188 43.117188 12.152344 C 42.808594 12.21875 41.316406 13.378906 40.863281 13.898438 C 40.324219 14.507812 39.988281 15.109375 39.757812 15.863281 C 39.574219 16.472656 39.566406 16.8125 39.515625 22.4375 C 39.46875 27.660156 39.441406 28.332031 39.324219 28.039062 C 39.21875 27.761719 39.199219 26.726562 39.226562 22.019531 C 39.265625 15.710938 39.246094 15.863281 39.921875 14.667969 C 40.375 13.882812 41.046875 13.179688 42.039062 12.492188 C 42.492188 12.175781 42.859375 11.910156 42.859375 11.902344 C 42.859375 11.859375 41.511719 11.113281 41.441406 11.113281 C 41.355469 11.113281 40.09375 12.085938 39.699219 12.453125 C 39.160156 12.953125 38.4375 13.964844 38.140625 14.632812 C 37.609375 15.835938 37.5625 16.28125 37.550781 21.210938 C 37.542969 23.675781 37.511719 25.789062 37.476562 25.90625 L 37.40625 26.117188 L 37.273438 25.90625 C 37.167969 25.738281 37.15625 24.84375 37.207031 21.019531 C 37.261719 16.347656 37.261719 16.339844 37.503906 15.511719 C 38.023438 13.753906 39.082031 12.351562 40.652344 11.324219 L 41.230469 10.957031 L 39.277344 9.835938 C 38.195312 9.226562 36.90625 8.5 36.40625 8.214844 L 35.492188 7.707031 L 35.460938 13.90625 C 35.441406 19.097656 35.460938 20.242188 35.585938 20.960938 C 35.730469 21.828125 35.78125 22.464844 35.671875 22.378906 C 35.644531 22.355469 35.5 21.796875 35.335938 21.136719 L 35.058594 19.929688 L 35.066406 13.707031 L 35.078125 7.480469 L 34.460938 7.121094 C 34.132812 6.929688 33.746094 6.71875 33.613281 6.652344 L 33.371094 6.535156 L 33.34375 12.601562 C 33.324219 16.363281 33.351562 18.96875 33.421875 19.445312 C 33.574219 20.660156 34.125 21.8125 35.132812 23.046875 C 35.367188 23.339844 35.539062 23.59375 35.519531 23.609375 C 35.5 23.632812 35.316406 23.507812 35.132812 23.332031 C 34.546875 22.816406 33.757812 21.636719 33.410156 20.757812 L 33.082031 19.929688 L 33.082031 13.582031 C 33.082031 10.085938 33.101562 7.046875 33.132812 6.8125 L 33.167969 6.394531 L 29.132812 4.113281 C 26.910156 2.859375 24.742188 1.636719 24.308594 1.386719 L 23.527344 0.945312 Z M 25.484375 5.515625 C 26.582031 5.984375 27.074219 6.285156 26.9375 6.402344 C 26.910156 6.433594 26.371094 6.183594 25.742188 5.851562 C 23.835938 4.820312 23.816406 4.796875 25.484375 5.515625 Z M 15.8125 13.230469 L 15.726562 19.679688 L 15.476562 20.449219 C 14.746094 22.6875 12.695312 24.960938 9.9375 26.582031 C 9.351562 26.933594 9.246094 26.96875 9.246094 26.800781 C 9.246094 26.75 9.6875 26.410156 10.238281 26.058594 C 12.445312 24.621094 14.023438 22.949219 14.824219 21.210938 C 15.4375 19.847656 15.429688 19.964844 15.515625 12.953125 C 15.554688 9.433594 15.621094 6.335938 15.660156 6.058594 L 15.738281 5.558594 L 15.824219 6.167969 C 15.871094 6.535156 15.871094 9.316406 15.8125 13.230469 Z M 17.789062 13.414062 C 17.742188 20.015625 17.730469 20.082031 17.183594 21.644531 C 16.875 22.515625 16.21875 23.667969 15.621094 24.402344 C 15.074219 25.085938 13.550781 26.449219 12.65625 27.078125 C 12.269531 27.335938 11.578125 27.738281 11.113281 27.953125 C 10.640625 28.179688 9.996094 28.507812 9.679688 28.691406 C 8.050781 29.640625 4.265625 32.03125 3.179688 32.792969 C 2.785156 33.078125 2.371094 33.359375 2.261719 33.429688 L 2.070312 33.546875 L 2.261719 33.378906 C 2.675781 33.011719 5.382812 31.039062 6.210938 30.496094 C 7.558594 29.601562 9.9375 28.195312 10.757812 27.796875 C 12.03125 27.183594 12.730469 26.726562 13.742188 25.839844 C 15.863281 23.992188 16.863281 22.296875 17.269531 19.890625 C 17.394531 19.1875 17.433594 17.734375 17.480469 12.675781 C 17.507812 9.191406 17.566406 6.277344 17.605469 6.199219 C 17.777344 5.832031 17.828125 7.796875 17.789062 13.414062 Z M 31.347656 7.355469 C 31.386719 8.039062 31.40625 11.113281 31.386719 14.183594 C 31.359375 19.328125 31.367188 19.816406 31.523438 20.425781 C 32.234375 23.117188 34.125 25.195312 38.128906 27.695312 C 38.84375 28.136719 39.507812 28.613281 39.613281 28.765625 L 39.796875 29.03125 L 39.515625 28.875 C 39.371094 28.789062 39.074219 28.605469 38.863281 28.464844 C 38.648438 28.3125 38.042969 27.929688 37.511719 27.601562 C 33.785156 25.304688 31.851562 23.074219 31.195312 20.324219 C 31.023438 19.589844 31.011719 19.144531 31.011719 13.582031 C 31.011719 7.839844 31.058594 6.101562 31.203125 6.101562 C 31.242188 6.101562 31.3125 6.660156 31.347656 7.355469 Z M 18.75 25.757812 C 18.636719 27.660156 17.644531 29.953125 16.257812 31.515625 C 15.527344 32.339844 14.765625 33.128906 14.496094 33.34375 C 14.339844 33.460938 14.484375 33.269531 14.804688 32.925781 C 16.410156 31.179688 17.691406 29.015625 18.164062 27.261719 C 18.269531 26.867188 18.589844 25.054688 18.589844 24.84375 C 18.589844 24.828125 18.636719 24.820312 18.695312 24.820312 C 18.78125 24.820312 18.789062 25.078125 18.75 25.757812 Z M 31.589844 33.6875 C 31.589844 33.730469 31.523438 33.761719 31.445312 33.761719 C 30.90625 33.761719 28.933594 34.914062 27.96875 35.785156 C 26.445312 37.15625 25.773438 38.550781 25.617188 40.640625 C 25.582031 41.183594 25.523438 41.644531 25.492188 41.667969 C 25.464844 41.691406 25.417969 41.324219 25.378906 40.847656 C 25.203125 38.527344 26.574219 36.152344 28.953125 34.664062 C 30.039062 33.988281 31.3125 33.410156 31.464844 33.527344 C 31.53125 33.578125 31.589844 33.644531 31.589844 33.6875 Z M 16.210938 33.8125 C 19.109375 35.082031 20.859375 37.039062 21.292969 39.511719 C 21.417969 40.207031 21.332031 41.652344 21.179688 41.566406 C 21.128906 41.542969 21.09375 41.148438 21.09375 40.699219 C 21.09375 38.84375 20.339844 37.15625 18.945312 35.875 C 18.066406 35.074219 17.21875 34.53125 16.160156 34.089844 C 15.332031 33.730469 15.246094 33.679688 15.382812 33.570312 C 15.46875 33.488281 15.4375 33.476562 16.210938 33.8125 Z M 14.8125 35.183594 C 16.855469 36.019531 18.375 37.464844 18.992188 39.144531 C 19.242188 39.8125 19.367188 41.910156 19.15625 41.851562 C 19.058594 41.828125 19.011719 41.558594 18.964844 40.816406 C 18.933594 40.265625 18.839844 39.605469 18.742188 39.328125 C 18.375 38.242188 17.539062 37.15625 16.507812 36.410156 C 15.882812 35.960938 14.3125 35.183594 14.023438 35.183594 C 13.867188 35.183594 13.820312 35.089844 13.9375 34.992188 C 14.042969 34.890625 14.1875 34.925781 14.8125 35.183594 Z M 32.878906 35 C 32.910156 35.042969 32.554688 35.226562 32.089844 35.425781 C 29.316406 36.613281 27.910156 38.390625 27.691406 40.964844 C 27.613281 41.808594 27.515625 42.003906 27.410156 41.5 C 27.351562 41.242188 27.476562 39.921875 27.613281 39.445312 C 27.726562 39.019531 28.152344 38.214844 28.546875 37.691406 C 29.277344 36.710938 30.300781 35.945312 31.714844 35.300781 C 32.496094 34.941406 32.785156 34.867188 32.878906 35 Z M 32.878906 35 "/>
<path style=" stroke:none;fill-rule:nonzero;fill:rgb(0%,0%,0%);fill-opacity:1;" d="M 28.808594 28.121094 C 29.421875 29.601562 30.15625 30.644531 31.253906 31.605469 C 32.03125 32.292969 32.792969 32.75 35.539062 34.230469 C 36.464844 34.722656 37.90625 35.515625 38.738281 35.992188 C 39.574219 36.46875 40.277344 36.855469 40.304688 36.855469 C 40.324219 36.855469 40.683594 36.671875 41.085938 36.445312 L 41.820312 36.042969 L 40.941406 35.550781 C 40.46875 35.273438 39.59375 34.789062 39.007812 34.472656 C 38.417969 34.148438 37.347656 33.5625 36.617188 33.160156 C 31.503906 30.34375 30.464844 29.640625 28.863281 27.914062 L 28.59375 27.621094 Z M 28.808594 28.121094 "/>
</g>
</svg>
