<?xml version="1.0" encoding="UTF-8"?>
<svg xmlns="http://www.w3.org/2000/svg" xmlns:xlink="http://www.w3.org/1999/xlink" width="38px" height="38px" viewBox="0 0 38 38" version="1.1">
<g id="surface1">
<path style=" stroke:none;fill-rule:nonzero;fill:rgb(0%,0%,0%);fill-opacity:1;" d="M 16.765625 13.347656 C 15.800781 13.535156 15.132812 13.886719 14.480469 14.550781 C 13.757812 15.28125 13.355469 16.183594 13.3125 17.1875 C 13.253906 18.398438 13.671875 19.492188 14.515625 20.328125 C 15.058594 20.863281 15.648438 21.203125 16.394531 21.402344 C 16.777344 21.503906 16.839844 21.511719 17.417969 21.507812 C 17.964844 21.507812 18.070312 21.5 18.371094 21.421875 C 18.96875 21.257812 19.457031 21.027344 19.894531 20.699219 L 20.097656 20.542969 L 20.183594 20.621094 C 20.257812 20.691406 20.265625 20.734375 20.265625 20.949219 L 20.265625 21.199219 L 21.851562 22.78125 L 23.433594 24.367188 L 23.898438 23.898438 L 24.367188 23.433594 L 22.78125 21.851562 L 21.199219 20.265625 L 20.949219 20.265625 C 20.734375 20.265625 20.691406 20.257812 20.621094 20.183594 L 20.542969 20.101562 L 20.746094 19.824219 C 20.996094 19.476562 21.257812 18.9375 21.371094 18.539062 C 21.640625 17.59375 21.546875 16.535156 21.113281 15.640625 C 20.570312 14.507812 19.605469 13.722656 18.382812 13.417969 C 17.945312 13.308594 17.152344 13.273438 16.765625 13.347656 Z M 17.839844 14.601562 C 18.972656 14.78125 19.867188 15.589844 20.164062 16.695312 C 20.265625 17.078125 20.277344 17.75 20.183594 18.101562 C 20.089844 18.457031 19.84375 18.945312 19.625 19.210938 C 18.289062 20.824219 15.792969 20.535156 14.851562 18.660156 C 14.648438 18.25 14.585938 17.953125 14.585938 17.382812 C 14.585938 16.890625 14.589844 16.855469 14.707031 16.523438 C 15.15625 15.207031 16.488281 14.390625 17.839844 14.601562 Z M 17.839844 14.601562 "/>
</g>
</svg>
