<?xml version="1.0" encoding="UTF-8"?>
<svg xmlns="http://www.w3.org/2000/svg" xmlns:xlink="http://www.w3.org/1999/xlink" width="51px" height="48px" viewBox="0 0 51 48" version="1.1">
<g id="surface1">
<path style=" stroke:none;fill-rule:nonzero;fill:rgb(0%,0%,0%);fill-opacity:1;" d="M 24.863281 17.625 C 23.3125 17.835938 22.332031 18.207031 21.289062 18.980469 C 20.03125 19.914062 19.148438 21.261719 18.8125 22.777344 C 18.679688 23.367188 18.691406 24.648438 18.832031 25.277344 C 19.277344 27.222656 20.609375 28.859375 22.46875 29.734375 C 23.421875 30.179688 24.332031 30.375 25.5 30.375 C 26.671875 30.375 27.582031 30.179688 28.550781 29.707031 C 30.449219 28.792969 31.699219 27.25 32.167969 25.253906 C 32.300781 24.683594 32.308594 23.519531 32.1875 22.890625 C 31.675781 20.28125 29.570312 18.25 26.832031 17.730469 C 26.390625 17.644531 25.183594 17.582031 24.863281 17.625 Z M 26.847656 19.039062 C 29.367188 19.675781 31.058594 21.863281 30.917969 24.308594 C 30.863281 25.199219 30.589844 25.980469 30.050781 26.765625 L 29.84375 27.066406 L 29.464844 26.777344 C 28.683594 26.183594 27.464844 25.777344 26.050781 25.640625 C 24.542969 25.488281 22.488281 26.007812 21.5 26.792969 L 21.164062 27.0625 L 21.039062 26.90625 C 20.710938 26.503906 20.351562 25.730469 20.183594 25.066406 C 20.078125 24.667969 20.042969 23.699219 20.113281 23.238281 C 20.230469 22.484375 20.617188 21.601562 21.109375 20.976562 C 21.402344 20.609375 22.039062 20.023438 22.40625 19.792969 C 22.816406 19.535156 23.488281 19.226562 23.890625 19.109375 C 24.570312 18.925781 24.824219 18.894531 25.617188 18.90625 C 26.253906 18.921875 26.445312 18.9375 26.847656 19.039062 Z M 26.734375 27.019531 C 27.746094 27.234375 28.621094 27.632812 28.804688 27.957031 C 28.90625 28.128906 27.6875 28.746094 26.820312 28.964844 C 26.378906 29.070312 26.246094 29.085938 25.523438 29.089844 C 24.90625 29.089844 24.640625 29.070312 24.367188 29.007812 C 23.617188 28.835938 23.074219 28.617188 22.46875 28.234375 C 22.109375 28.007812 22.105469 27.980469 22.417969 27.734375 C 22.808594 27.425781 23.675781 27.117188 24.578125 26.957031 C 25.09375 26.867188 26.179688 26.898438 26.734375 27.019531 Z M 26.734375 27.019531 "/>
<path style=" stroke:none;fill-rule:nonzero;fill:rgb(0%,0%,0%);fill-opacity:1;" d="M 24.78125 20.261719 C 24.035156 20.488281 23.460938 21.03125 23.234375 21.722656 C 23.105469 22.109375 23.105469 22.6875 23.234375 23.070312 C 23.464844 23.769531 24.082031 24.34375 24.835938 24.550781 C 25.167969 24.644531 25.832031 24.644531 26.164062 24.550781 C 26.542969 24.449219 27.074219 24.121094 27.3125 23.839844 C 27.699219 23.398438 27.855469 22.972656 27.859375 22.398438 C 27.859375 21.410156 27.199219 20.550781 26.222656 20.265625 C 25.820312 20.152344 25.164062 20.152344 24.78125 20.261719 Z M 25.960938 21.558594 C 26.34375 21.734375 26.585938 22.207031 26.492188 22.601562 C 26.433594 22.835938 26.21875 23.109375 25.996094 23.230469 C 25.75 23.363281 25.292969 23.367188 25.039062 23.25 C 24.691406 23.078125 24.496094 22.773438 24.488281 22.398438 C 24.488281 22.007812 24.734375 21.664062 25.121094 21.515625 C 25.335938 21.4375 25.734375 21.457031 25.960938 21.558594 Z M 25.960938 21.558594 "/>
</g>
</svg>
