<?xml version="1.0" encoding="UTF-8"?>
<svg xmlns="http://www.w3.org/2000/svg" xmlns:xlink="http://www.w3.org/1999/xlink" width="240px" height="320px" viewBox="0 0 240 320" version="1.1">
<g id="surface1">
<path style=" stroke:none;fill-rule:nonzero;fill:rgb(0%,0%,0%);fill-opacity:1;" d="M 93.238281 16.222656 C 92.710938 16.480469 91.679688 16.769531 90.960938 16.863281 C 90.238281 16.960938 89.375 17.214844 89.039062 17.441406 C 88.152344 18.046875 87.144531 18.625 83.519531 20.480469 C 81.742188 21.40625 79.464844 22.6875 78.480469 23.296875 C 75.9375 24.863281 72.625 26.65625 70.921875 27.328125 C 70.128906 27.679688 68.351562 28.480469 66.960938 29.152344 C 65.566406 29.824219 63.792969 30.59375 63 30.878906 C 58.921875 32.414062 56.160156 33.695312 55.078125 34.558594 C 52.152344 36.929688 51.71875 37.152344 50.855469 36.734375 C 50.160156 36.414062 50.0625 36.480469 48.886719 38.015625 C 47.136719 40.320312 41.566406 43.839844 35.640625 46.398438 C 34.007812 47.105469 29.0625 50.398438 26.902344 52.222656 C 26.0625 52.929688 25.535156 53.121094 24.527344 53.121094 C 23.617188 53.121094 22.726562 53.40625 21.527344 54.113281 C 20.566406 54.625 19.585938 55.199219 19.320312 55.328125 C 19.054688 55.488281 17.449219 56.480469 15.71875 57.535156 C 14.015625 58.59375 11.902344 59.777344 11.039062 60.160156 C 10.175781 60.542969 9.046875 61.121094 8.519531 61.40625 C 7.992188 61.726562 6.886719 62.304688 6.070312 62.71875 C 4.703125 63.359375 4.558594 63.519531 4.558594 64.351562 C 4.558594 64.863281 5.0625 66.753906 5.664062 68.542969 C 6.265625 70.367188 7.128906 73.28125 7.585938 75.039062 C 8.0625 76.800781 8.6875 79.167969 9 80.320312 C 9.335938 81.472656 10.390625 85.34375 11.375 88.960938 C 13.703125 97.40625 16.632812 107.265625 18.625 113.183594 C 18.816406 113.761719 19.128906 114.71875 19.320312 115.265625 C 19.511719 115.839844 19.871094 117.023438 20.136719 117.921875 C 20.375 118.785156 20.878906 120.351562 21.238281 121.375 L 21.886719 123.199219 L 23.472656 123.007812 C 28.894531 122.367188 31.175781 121.855469 33.480469 120.769531 C 34.800781 120.128906 36.742188 119.425781 37.800781 119.199219 C 39.574219 118.847656 41.449219 118.273438 44.113281 117.375 C 45.359375 116.960938 46.246094 117.375 46.414062 118.464844 C 46.488281 118.878906 46.65625 123.296875 46.800781 128.320312 C 46.945312 133.3125 47.136719 137.535156 47.207031 137.695312 C 47.351562 138.015625 47.878906 162.71875 48.238281 186.078125 C 48.359375 194.6875 48.574219 205.726562 48.71875 210.558594 C 49.128906 225.121094 48.769531 243.902344 47.878906 254.878906 C 47.6875 257.152344 47.472656 259.839844 47.398438 260.800781 C 47.183594 263.457031 46.824219 279.007812 46.65625 292.542969 L 46.511719 304.574219 L 48.265625 304.769531 C 51.121094 305.089844 116.6875 304.734375 129 304.351562 C 140.472656 304 144.046875 303.710938 147.480469 302.878906 C 153.769531 301.34375 170.808594 300.511719 177.71875 301.375 C 179.449219 301.601562 182.136719 301.824219 183.71875 301.855469 L 186.601562 301.921875 L 186.792969 299.199219 C 187.078125 295.167969 187.03125 288.992188 186.625 281.601562 C 186.289062 275.296875 186.097656 248.03125 186.214844 224.800781 C 186.238281 220.03125 186.238281 214.847656 186.191406 213.28125 C 186.167969 211.679688 186.144531 204.0625 186.121094 196.320312 C 186.121094 185.441406 186.191406 181.664062 186.457031 179.679688 C 186.984375 175.777344 187.078125 163.457031 186.625 157.601562 C 186.40625 154.945312 186.265625 151.136719 186.3125 149.121094 C 186.335938 147.105469 186.265625 144.894531 186.144531 144.257812 C 185.976562 143.296875 186.046875 142.816406 186.457031 141.761719 C 186.816406 140.800781 187.054688 139.230469 187.320312 135.902344 C 187.777344 130.238281 188.496094 124.257812 189.144531 120.960938 C 189.40625 119.585938 189.648438 117.761719 189.695312 116.894531 C 189.769531 115.359375 189.769531 115.359375 190.585938 115.425781 C 191.015625 115.457031 192.359375 116.128906 193.558594 116.894531 C 194.734375 117.695312 196.800781 118.945312 198.121094 119.710938 C 199.441406 120.480469 200.902344 121.375 201.359375 121.695312 C 204.457031 124 205.273438 124.511719 206.929688 125.246094 C 207.9375 125.664062 209.089844 126.273438 209.519531 126.558594 C 210.265625 127.070312 210.265625 127.070312 210.960938 126.078125 C 211.320312 125.566406 211.800781 124.480469 211.992188 123.710938 C 212.183594 122.945312 213.191406 120.863281 214.222656 119.070312 C 217.511719 113.40625 222.601562 103.585938 225.265625 97.761719 C 226.632812 94.816406 226.441406 95.230469 229.726562 86.878906 C 231.863281 81.472656 234.214844 75.808594 235.296875 73.535156 C 235.488281 73.121094 235.464844 72.863281 235.199219 72.511719 C 234.550781 71.679688 230.304688 68.863281 227.761719 67.585938 C 225.574219 66.496094 222.191406 64.320312 219.71875 62.398438 C 219.335938 62.078125 218.519531 61.472656 217.921875 61.054688 C 216.144531 59.742188 212.902344 57.28125 210.601562 55.488281 C 209.425781 54.558594 206.160156 52.222656 203.351562 50.304688 C 198.769531 47.105469 193.414062 42.976562 192.070312 41.601562 C 191.808594 41.3125 190.441406 40.609375 189.070312 40.03125 C 187.726562 39.457031 186.289062 38.847656 185.878906 38.65625 C 185.496094 38.496094 184.078125 37.855469 182.761719 37.28125 C 181.441406 36.671875 179.664062 35.808594 178.800781 35.359375 C 177.9375 34.878906 176.0625 33.953125 174.601562 33.28125 C 173.160156 32.609375 170.710938 31.457031 169.199219 30.71875 C 167.6875 29.984375 165.574219 28.992188 164.519531 28.480469 C 162.886719 27.710938 158.808594 25.503906 153.695312 22.59375 C 153.023438 22.207031 152.207031 21.664062 151.871094 21.375 C 151.296875 20.863281 148.488281 20.511719 144.121094 20.382812 C 142.199219 20.320312 142.199219 20.320312 138.886719 22.527344 C 137.0625 23.710938 135.023438 24.929688 134.328125 25.183594 C 133.632812 25.40625 132.480469 25.855469 131.761719 26.144531 C 130.464844 26.65625 129.121094 26.71875 120.191406 26.496094 C 119.230469 26.464844 117.335938 26.65625 115.96875 26.878906 C 110.664062 27.839844 105.671875 25.855469 99.359375 20.320312 C 98.113281 19.230469 96.601562 17.726562 96.046875 16.992188 C 94.921875 15.585938 94.703125 15.519531 93.238281 16.222656 Z M 217.679688 70.878906 C 219.550781 72.160156 219.601562 76.128906 217.777344 78.046875 C 217.320312 78.527344 216.792969 78.71875 215.976562 78.71875 C 214.96875 78.71875 214.65625 78.558594 213.9375 77.664062 C 213.191406 76.769531 213.046875 76.351562 212.929688 74.945312 C 212.832031 73.566406 212.878906 73.28125 213.214844 73.28125 C 213.503906 73.28125 213.601562 73.601562 213.601562 74.59375 C 213.601562 76.414062 214.609375 77.761719 216 77.761719 C 216.792969 77.761719 217.152344 77.566406 217.703125 76.832031 C 218.257812 76.097656 218.398438 75.617188 218.398438 74.558594 C 218.398438 71.9375 216.335938 70.496094 214.535156 71.902344 C 213.601562 72.640625 213.3125 72.128906 214.152344 71.167969 C 214.945312 70.238281 216.574219 70.113281 217.679688 70.878906 Z M 215.617188 72.800781 C 215.519531 73.054688 215.59375 73.28125 215.734375 73.28125 C 215.878906 73.28125 216 73.054688 216 72.800781 C 216 72.542969 216.167969 72.320312 216.359375 72.320312 C 216.574219 72.320312 216.648438 72.511719 216.550781 72.832031 C 216.433594 73.246094 216.503906 73.3125 216.910156 73.152344 C 217.199219 73.023438 217.464844 73.089844 217.585938 73.34375 C 217.679688 73.535156 217.632812 73.792969 217.488281 73.855469 C 217.320312 73.921875 217.199219 74.113281 217.199219 74.304688 C 217.199219 74.496094 217.367188 74.558594 217.558594 74.433594 C 217.777344 74.335938 217.921875 74.433594 217.921875 74.71875 C 217.921875 74.976562 217.777344 75.199219 217.585938 75.199219 C 217.34375 75.199219 215.28125 73.855469 214.824219 73.40625 C 214.609375 73.183594 215.0625 72.320312 215.375 72.320312 C 215.617188 72.320312 215.6875 72.511719 215.617188 72.800781 Z M 216.121094 74.910156 C 217.007812 75.585938 217.367188 76.03125 217.273438 76.351562 C 217.152344 76.769531 217.054688 76.734375 216.648438 76.257812 C 216.191406 75.710938 216.167969 75.710938 216.3125 76.222656 C 216.433594 76.640625 216.335938 76.800781 216 76.800781 C 215.710938 76.800781 215.519531 76.574219 215.519531 76.289062 C 215.519531 75.871094 215.449219 75.839844 215.183594 76.128906 C 214.921875 76.414062 214.800781 76.414062 214.65625 76.128906 C 214.558594 75.902344 214.609375 75.648438 214.753906 75.585938 C 214.921875 75.519531 215.039062 75.328125 215.039062 75.136719 C 215.039062 74.945312 214.871094 74.878906 214.679688 74.976562 C 214.296875 75.199219 213.984375 74.71875 214.199219 74.238281 C 214.441406 73.761719 214.703125 73.855469 216.121094 74.910156 Z M 76.078125 84.160156 L 76.078125 86.71875 L 75.359375 86.71875 C 74.710938 86.71875 74.640625 86.816406 74.640625 87.679688 L 74.640625 88.640625 L 70.800781 88.640625 L 70.800781 81.601562 L 76.078125 81.601562 Z M 89.761719 84.160156 L 89.761719 86.753906 L 86.113281 86.65625 L 82.441406 86.558594 L 82.367188 84.0625 L 82.296875 81.601562 L 89.761719 81.601562 Z M 103.199219 84.160156 L 103.199219 86.71875 L 96 86.71875 L 96 81.601562 L 103.199219 81.601562 Z M 116.878906 84.160156 L 116.878906 86.753906 L 113.230469 86.65625 L 109.558594 86.558594 L 109.488281 84.0625 L 109.414062 81.601562 L 116.878906 81.601562 Z M 130.511719 84.0625 L 130.441406 86.558594 L 126.792969 86.65625 L 123.121094 86.753906 L 123.121094 81.601562 L 130.585938 81.601562 Z M 144 84.160156 L 144 86.71875 L 136.800781 86.71875 L 136.800781 81.601562 L 144 81.601562 Z M 157.632812 84.0625 L 157.558594 86.558594 L 150.359375 86.558594 L 150.289062 84.0625 L 150.214844 81.601562 L 157.703125 81.601562 Z M 169.199219 85.121094 L 169.199219 88.640625 L 165.359375 88.640625 L 165.359375 87.679688 C 165.359375 86.816406 165.289062 86.71875 164.640625 86.71875 L 163.921875 86.71875 L 163.921875 81.601562 L 169.199219 81.601562 Z M 74.640625 101.761719 L 74.640625 106.558594 L 70.800781 106.558594 L 70.800781 96.960938 L 74.640625 96.960938 Z M 169.199219 101.761719 L 169.199219 106.558594 L 165.359375 106.558594 L 165.359375 96.960938 L 169.199219 96.960938 Z M 112.96875 110.945312 C 113.832031 111.488281 114.433594 112.542969 114.648438 113.921875 C 114.769531 114.847656 114.742188 114.878906 113.976562 114.878906 C 113.328125 114.847656 113.0625 114.65625 112.679688 113.824219 C 112.054688 112.542969 110.976562 112.097656 109.679688 112.609375 C 107.6875 113.40625 107.902344 115.199219 110.113281 116.03125 C 113.089844 117.121094 113.761719 117.503906 114.359375 118.433594 C 115.511719 120.289062 114.960938 123.457031 113.230469 124.703125 C 112.679688 125.089844 111.9375 125.246094 110.761719 125.246094 C 108.335938 125.246094 107.089844 124.222656 106.441406 121.695312 C 106.054688 120.191406 106.128906 120 107.136719 120 C 107.832031 120 107.953125 120.128906 108.070312 120.894531 C 108.289062 122.273438 109.296875 123.007812 110.929688 123.007812 C 112.441406 123.039062 113.28125 122.335938 113.28125 121.121094 C 113.28125 120.03125 112.558594 119.390625 110.28125 118.558594 C 108.839844 118.046875 107.953125 117.503906 107.496094 116.929688 C 105.742188 114.6875 106.703125 111.230469 109.273438 110.367188 C 110.257812 110.046875 111.984375 110.304688 112.96875 110.945312 Z M 118.800781 116.0625 C 118.921875 121.28125 118.945312 121.632812 119.472656 122.304688 C 120.238281 123.359375 122.398438 123.359375 123.167969 122.304688 C 123.695312 121.632812 123.71875 121.28125 123.839844 116.0625 L 123.960938 110.558594 L 125.640625 110.558594 L 125.640625 116 C 125.617188 122.207031 125.398438 123.296875 123.863281 124.542969 C 122.6875 125.535156 120.023438 125.601562 118.800781 124.640625 C 117.238281 123.390625 117 122.433594 116.929688 116.542969 C 116.878906 113.664062 116.902344 111.105469 116.976562 110.847656 C 117.070312 110.527344 117.359375 110.398438 117.886719 110.464844 L 118.679688 110.558594 Z M 134.761719 117.601562 C 135.984375 121.472656 136.894531 124.769531 136.800781 124.894531 C 136.703125 125.054688 136.273438 125.121094 135.816406 125.054688 C 135.097656 124.960938 134.976562 124.800781 134.398438 122.878906 L 133.777344 120.800781 L 131.710938 120.703125 L 129.671875 120.609375 L 129.070312 122.785156 C 128.496094 124.894531 128.449219 124.960938 127.609375 125.054688 C 127.007812 125.121094 126.71875 125.023438 126.71875 124.769531 C 126.71875 124.542969 127.65625 121.214844 128.785156 117.375 L 130.871094 110.367188 L 131.6875 110.464844 L 132.527344 110.558594 Z M 74.640625 119.679688 L 74.640625 124.480469 L 70.800781 124.480469 L 70.800781 114.878906 L 74.640625 114.878906 Z M 169.199219 119.679688 L 169.199219 124.511719 L 167.351562 124.414062 L 165.480469 124.320312 L 165.40625 119.585938 L 165.335938 114.878906 L 169.199219 114.878906 Z M 74.519531 137.441406 L 74.519531 142.238281 L 72.671875 142.335938 L 70.800781 142.433594 L 70.800781 137.664062 C 70.800781 135.039062 70.871094 132.800781 70.96875 132.671875 C 71.0625 132.542969 71.902344 132.511719 72.839844 132.542969 L 74.519531 132.640625 Z M 169.199219 137.535156 L 169.199219 142.433594 L 167.351562 142.335938 L 165.480469 142.238281 L 165.40625 137.761719 C 165.382812 135.328125 165.382812 133.152344 165.457031 132.960938 C 165.503906 132.734375 166.246094 132.609375 167.375 132.609375 L 169.199219 132.640625 Z M 106.03125 138.945312 C 106.320312 139.457031 110.398438 152.480469 110.398438 152.929688 C 110.398438 153.121094 109.992188 153.28125 109.488281 153.28125 C 108.574219 153.28125 108.550781 153.246094 107.976562 151.265625 L 107.375 149.28125 L 103.105469 149.28125 L 102.527344 151.265625 C 101.953125 153.28125 101.953125 153.28125 100.992188 153.28125 C 100.320312 153.28125 100.054688 153.152344 100.152344 152.863281 C 100.273438 152.449219 103.824219 140.449219 104.183594 139.265625 C 104.425781 138.464844 105.601562 138.273438 106.03125 138.945312 Z M 118.945312 139.296875 C 119.785156 139.871094 120.480469 141.535156 120.480469 142.945312 C 120.480469 144.191406 119.640625 145.921875 118.800781 146.335938 C 117.984375 146.753906 117.9375 146.945312 118.488281 147.550781 C 118.945312 148.0625 121.199219 152.574219 121.199219 152.992188 C 121.199219 153.152344 120.742188 153.28125 120.191406 153.28125 C 119.183594 153.28125 119.136719 153.246094 118.152344 151.105469 C 116.542969 147.617188 116.160156 147.199219 114.601562 147.199219 L 113.28125 147.199219 L 113.28125 153.28125 L 111.601562 153.28125 L 111.601562 146.144531 C 111.601562 142.207031 111.671875 138.878906 111.792969 138.753906 C 112.128906 138.273438 118.128906 138.71875 118.945312 139.296875 Z M 130.273438 139.742188 L 130.34375 140.800781 L 126.71875 140.800781 L 126.71875 153.28125 L 125.039062 153.28125 L 124.992188 147.105469 L 124.921875 140.960938 L 123.191406 140.863281 C 121.464844 140.769531 121.441406 140.769531 121.441406 139.871094 C 121.441406 139.390625 121.511719 138.878906 121.609375 138.753906 C 121.703125 138.65625 123.671875 138.59375 125.976562 138.625 L 130.199219 138.71875 Z M 139.632812 139.742188 L 139.703125 140.800781 L 133.441406 140.800781 L 133.441406 144.640625 L 139.199219 144.640625 L 139.199219 146.878906 L 133.441406 146.878906 L 133.441406 151.039062 L 139.921875 151.039062 L 139.921875 153.28125 L 135.792969 153.214844 L 131.640625 153.121094 L 131.566406 146.238281 C 131.542969 142.464844 131.566406 139.199219 131.640625 138.945312 C 131.710938 138.625 132.625 138.558594 135.648438 138.625 L 139.558594 138.71875 Z M 74.519531 155.359375 L 74.519531 160.160156 L 72.671875 160.257812 L 70.800781 160.351562 L 70.800781 150.367188 L 72.671875 150.464844 L 74.519531 150.558594 Z M 169.152344 155.265625 L 169.078125 160.160156 L 165.480469 160.160156 L 165.40625 155.679688 C 165.382812 153.246094 165.40625 151.039062 165.457031 150.816406 C 165.550781 150.527344 166.128906 150.398438 167.398438 150.398438 L 169.222656 150.398438 Z M 118.222656 167.328125 C 120.238281 168.542969 121.175781 170.753906 121.199219 174.273438 C 121.199219 176.0625 121.078125 176.863281 120.601562 178.078125 C 119.976562 179.742188 120.070312 180.257812 120.984375 180.640625 C 121.511719 180.863281 121.558594 181.40625 121.128906 182.207031 C 120.839844 182.71875 120.769531 182.6875 119.664062 181.921875 C 118.679688 181.214844 118.390625 181.152344 117.769531 181.441406 C 116.472656 182.015625 114.863281 181.824219 113.519531 180.863281 C 112.511719 180.191406 112.105469 179.617188 111.503906 178.238281 C 110.542969 175.9375 110.472656 172.832031 111.335938 170.464844 C 112.535156 167.199219 115.65625 165.761719 118.222656 167.328125 Z M 107.976562 174.015625 C 109.175781 177.824219 110.160156 181.089844 110.160156 181.214844 C 110.160156 181.34375 109.726562 181.441406 109.222656 181.441406 C 108.3125 181.441406 108.289062 181.40625 107.6875 179.425781 L 107.089844 177.441406 L 102.816406 177.246094 L 102.265625 179.359375 L 101.710938 181.441406 L 100.753906 181.441406 C 99.9375 181.441406 99.816406 181.34375 99.9375 180.863281 C 100.03125 180.574219 100.96875 177.34375 102.046875 173.664062 L 103.992188 167.039062 L 105.769531 167.039062 Z M 124.847656 172.511719 L 124.921875 177.984375 L 125.59375 178.753906 C 126.097656 179.328125 126.550781 179.519531 127.390625 179.519531 C 129.695312 179.519531 130.078125 178.367188 130.078125 171.585938 L 130.078125 167.039062 L 131.761719 167.039062 L 131.761719 172.382812 C 131.761719 178.878906 131.496094 179.96875 129.792969 181.089844 C 128.425781 181.953125 126.503906 181.984375 125.089844 181.121094 C 123.40625 180.097656 123.121094 178.878906 123.121094 172.382812 L 123.121094 167.039062 L 124.753906 167.039062 Z M 136.078125 174.273438 L 136.078125 181.472656 L 135.214844 181.375 L 134.351562 181.28125 L 134.375 174.558594 C 134.375 170.847656 134.398438 167.648438 134.398438 167.425781 C 134.398438 167.199219 134.734375 167.039062 135.238281 167.039062 L 136.078125 167.039062 Z M 140.542969 170.785156 C 140.257812 177.632812 140.183594 178.238281 139.558594 178.238281 C 138.9375 178.238281 138.863281 177.566406 138.574219 170.785156 L 138.40625 167.039062 L 140.710938 167.039062 Z M 74.640625 173.121094 L 74.640625 177.921875 L 70.800781 177.921875 L 70.800781 168.320312 L 74.640625 168.320312 Z M 169.199219 173.183594 L 169.199219 178.078125 L 167.351562 178.015625 L 165.480469 177.984375 L 165.40625 173.566406 C 165.382812 171.136719 165.40625 168.960938 165.457031 168.734375 C 165.550781 168.449219 166.128906 168.320312 167.398438 168.320312 L 169.199219 168.320312 Z M 140.449219 179.359375 C 140.496094 179.457031 140.519531 179.96875 140.449219 180.480469 C 140.351562 181.40625 140.28125 181.472656 139.464844 181.375 C 138.742188 181.28125 138.601562 181.152344 138.574219 180.480469 C 138.550781 180.03125 138.574219 179.585938 138.648438 179.425781 C 138.769531 179.167969 140.257812 179.105469 140.449219 179.359375 Z M 74.640625 191.039062 L 74.640625 195.839844 L 70.800781 195.839844 L 70.800781 186.238281 L 74.640625 186.238281 Z M 169.199219 191.039062 L 169.199219 195.839844 L 165.359375 195.839844 L 165.359375 186.238281 L 169.199219 186.238281 Z M 74.640625 205.3125 C 74.640625 206.433594 74.664062 206.464844 75.359375 206.335938 L 76.078125 206.175781 L 76.078125 211.199219 L 70.800781 211.199219 L 70.800781 204.160156 L 74.640625 204.160156 Z M 169.199219 207.679688 L 169.199219 211.199219 L 163.921875 211.199219 L 163.921875 206.175781 L 164.640625 206.335938 C 165.335938 206.464844 165.359375 206.433594 165.359375 205.3125 L 165.359375 204.160156 L 169.199219 204.160156 Z M 89.230469 206.398438 C 89.734375 206.398438 89.761719 206.527344 89.761719 208.800781 L 89.761719 211.199219 L 82.320312 211.199219 L 82.320312 206.433594 L 83.472656 206.335938 C 84.097656 206.273438 85.511719 206.273438 86.640625 206.304688 C 87.769531 206.335938 88.921875 206.367188 89.230469 206.398438 Z M 116.710938 206.398438 C 116.808594 206.398438 116.878906 207.488281 116.878906 208.800781 L 116.878906 211.199219 L 109.441406 211.199219 L 109.441406 208.832031 C 109.441406 206.59375 109.464844 206.433594 109.992188 206.335938 C 110.375 206.273438 115.078125 206.304688 116.710938 206.398438 Z M 130.558594 208.832031 L 130.558594 211.199219 L 123.121094 211.199219 L 123.121094 208.832031 C 123.121094 207.519531 123.214844 206.398438 123.359375 206.335938 C 123.480469 206.273438 125.160156 206.273438 127.078125 206.335938 L 130.558594 206.433594 Z M 103.199219 208.800781 L 103.199219 211.199219 L 96 211.199219 L 96 206.398438 L 103.199219 206.398438 Z M 144 208.800781 L 144 211.199219 L 136.800781 211.199219 L 136.800781 206.398438 L 144 206.398438 Z M 157.679688 208.800781 L 157.679688 211.199219 L 150.238281 211.199219 L 150.238281 206.398438 L 157.679688 206.398438 Z M 157.679688 208.800781 "/>
<path style=" stroke:none;fill-rule:nonzero;fill:rgb(0%,0%,0%);fill-opacity:1;" d="M 131.0625 115.777344 C 130.753906 116.960938 130.441406 118.113281 130.367188 118.304688 C 130.296875 118.625 130.632812 118.71875 131.617188 118.71875 C 132.574219 118.71875 132.960938 118.59375 132.960938 118.304688 C 132.960938 117.953125 131.832031 113.921875 131.664062 113.695312 C 131.640625 113.664062 131.375 114.59375 131.0625 115.777344 Z M 131.0625 115.777344 "/>
<path style=" stroke:none;fill-rule:nonzero;fill:rgb(0%,0%,0%);fill-opacity:1;" d="M 104.976562 142.59375 C 104.878906 142.910156 104.617188 143.902344 104.351562 144.734375 C 104.113281 145.566406 103.921875 146.398438 103.921875 146.558594 C 103.921875 146.753906 104.519531 146.878906 105.238281 146.878906 C 105.960938 146.878906 106.558594 146.753906 106.558594 146.625 C 106.558594 146.335938 105.359375 142.304688 105.214844 142.113281 C 105.167969 142.046875 105.046875 142.273438 104.976562 142.59375 Z M 104.976562 142.59375 "/>
<path style=" stroke:none;fill-rule:nonzero;fill:rgb(0%,0%,0%);fill-opacity:1;" d="M 113.375 141.246094 C 113.304688 141.472656 113.28125 142.367188 113.328125 143.230469 L 113.398438 144.800781 L 115.488281 144.800781 C 117.167969 144.800781 117.648438 144.671875 118.054688 144.191406 C 118.921875 143.136719 118.679688 141.726562 117.527344 141.152344 C 116.496094 140.640625 113.542969 140.703125 113.375 141.246094 Z M 113.375 141.246094 "/>
<path style=" stroke:none;fill-rule:nonzero;fill:rgb(0%,0%,0%);fill-opacity:1;" d="M 114.601562 169.28125 C 112.273438 170.558594 111.816406 176.03125 113.832031 178.527344 C 114.289062 179.070312 114.816406 179.328125 115.726562 179.425781 C 116.832031 179.519531 116.929688 179.488281 116.449219 179.136719 C 116.015625 178.847656 115.921875 178.59375 116.039062 177.953125 C 116.136719 177.503906 116.230469 177.089844 116.28125 177.023438 C 116.328125 176.960938 116.832031 177.214844 117.382812 177.601562 C 118.390625 178.207031 118.464844 178.238281 118.753906 177.695312 C 119.59375 176.128906 119.664062 173.121094 118.894531 171.167969 C 118.199219 169.34375 116.113281 168.414062 114.601562 169.28125 Z M 114.601562 169.28125 "/>
<path style=" stroke:none;fill-rule:nonzero;fill:rgb(0%,0%,0%);fill-opacity:1;" d="M 104.59375 170.945312 C 104.519531 171.359375 104.230469 172.449219 103.96875 173.34375 L 103.441406 175.039062 L 104.902344 175.039062 C 105.695312 175.039062 106.320312 174.945312 106.273438 174.785156 C 106.246094 174.65625 105.9375 173.566406 105.601562 172.382812 C 105.265625 171.199219 104.929688 170.238281 104.855469 170.238281 C 104.761719 170.238281 104.640625 170.558594 104.59375 170.945312 Z M 104.59375 170.945312 "/>
</g>
</svg>
