<?xml version="1.0" encoding="UTF-8"?>
<svg xmlns="http://www.w3.org/2000/svg" xmlns:xlink="http://www.w3.org/1999/xlink" width="240px" height="320px" viewBox="0 0 240 320" version="1.1">
<g id="surface1">
<path style=" stroke:none;fill-rule:nonzero;fill:rgb(0%,0%,0%);fill-opacity:1;" d="M 42.703125 2.46875 C 42.703125 4.5625 43.894531 7.027344 45.417969 8.222656 C 46.394531 8.972656 47.226562 8.898438 50.046875 7.777344 C 50.773438 7.476562 51.023438 7.625 51.023438 8.449219 C 51.023438 10.242188 48.960938 13.382812 47.480469 13.90625 C 46.753906 14.128906 44.910156 15.699219 43.425781 17.347656 C 41.941406 18.992188 38.828125 21.683594 36.550781 23.328125 C 32.785156 26.019531 26.34375 31.699219 22.074219 36.113281 C 19.144531 39.101562 14.910156 54.054688 10.929688 75.515625 C 7.671875 93.160156 5.863281 107.515625 5.679688 116.933594 L 5.609375 121.421875 L 8.867188 123.960938 L 8.976562 133.160156 C 9.121094 143.328125 8.539062 156.859375 7.746094 162.167969 C 7.128906 166.429688 7.128906 166.578125 7.746094 164.859375 C 8.035156 164.039062 8.179688 163.140625 8.105469 162.839844 C 8.035156 162.542969 8.105469 162.167969 8.324219 161.871094 C 8.539062 161.570312 8.613281 161.121094 8.503906 160.746094 C 8.394531 160.375 8.503906 159.175781 8.683594 158.054688 C 8.902344 156.933594 9.15625 154.09375 9.265625 151.851562 C 9.335938 149.53125 9.480469 146.46875 9.589844 145.046875 C 9.664062 143.625 9.84375 139.886719 9.953125 136.824219 C 10.097656 133.757812 10.421875 130.765625 10.640625 130.242188 C 11.398438 128.671875 15.777344 128.375 19.179688 129.644531 C 20.878906 130.316406 23.449219 131.289062 24.898438 131.738281 C 26.308594 132.261719 27.503906 133.007812 27.503906 133.457031 C 27.539062 134.578125 25.984375 147.515625 25.695312 148.785156 C 25.550781 149.457031 25.296875 151.101562 25.152344 152.523438 C 25.007812 153.945312 24.644531 155.886719 24.355469 156.785156 C 24.066406 157.683594 23.921875 158.730469 24.027344 159.175781 C 24.136719 159.550781 24.136719 160 23.992188 160.148438 C 23.667969 160.375 22.253906 167.550781 21.929688 170.390625 C 21.820312 171.589844 21.964844 172.5625 22.328125 173.085938 C 22.871094 173.90625 22.835938 174.355469 21.964844 178.019531 C 21.421875 180.261719 20.699219 182.878906 20.300781 183.851562 C 19.648438 185.570312 19.578125 185.644531 18.78125 184.597656 C 17.082031 182.355469 16.648438 182.28125 16.648438 184.375 C 16.648438 185.421875 16.792969 186.09375 17.007812 185.792969 C 17.226562 185.496094 17.296875 185.046875 17.226562 184.746094 C 17.117188 184.449219 17.261719 184.148438 17.550781 184.148438 C 18.023438 184.148438 18.023438 184.375 17.515625 185.496094 C 17.1875 186.242188 17.042969 187.214844 17.1875 187.589844 C 17.296875 188.039062 17.261719 188.410156 17.042969 188.410156 C 16.863281 188.410156 16.609375 189.007812 16.5 189.683594 C 16.394531 190.503906 16.355469 190.207031 16.394531 189.160156 C 16.464844 187.738281 16.285156 187.214844 15.667969 187.066406 C 15.199219 186.914062 14.835938 187.140625 14.835938 187.589844 C 14.835938 189.007812 13.679688 190.652344 12.703125 190.652344 C 12.121094 190.652344 11.472656 191.175781 11.21875 191.777344 C 10.855469 192.671875 10.964844 193.046875 11.796875 193.71875 C 12.375 194.167969 13.679688 194.839844 14.65625 195.289062 L 16.464844 196.039062 L 16.574219 202.242188 C 16.683594 207.328125 16.609375 208.449219 16.140625 208.824219 C 15.417969 209.421875 15.378906 213.53125 16.066406 218.839844 C 16.429688 221.757812 16.464844 222.804688 16.175781 222.804688 C 15.921875 222.804688 15.960938 223.101562 16.25 223.476562 C 16.574219 223.925781 16.792969 225.421875 16.828125 227.140625 C 16.828125 228.785156 17.042969 230.578125 17.261719 231.101562 C 17.480469 231.699219 17.839844 233.945312 18.09375 236.113281 C 18.347656 238.28125 18.78125 240.597656 19.070312 241.195312 C 19.613281 242.316406 19.796875 247.476562 19.359375 248.972656 C 19.253906 249.347656 19.289062 249.71875 19.503906 249.71875 C 19.6875 249.71875 19.902344 249.269531 20.011719 248.746094 C 20.121094 248.300781 20.15625 249.195312 20.121094 250.839844 C 20.085938 252.484375 19.941406 254.28125 19.757812 254.878906 C 19.542969 255.625 19.578125 255.777344 19.832031 255.402344 C 20.121094 255.027344 20.265625 255.476562 20.300781 256.597656 C 20.300781 258.316406 20.300781 258.316406 20.628906 256.746094 C 21.097656 254.28125 21.566406 254.054688 21.605469 256.300781 C 21.675781 258.09375 21.640625 258.09375 21.351562 256.824219 C 21.097656 255.625 21.023438 256 21.023438 258.316406 C 21.023438 260.636719 21.097656 261.007812 21.351562 259.8125 C 21.640625 258.390625 21.675781 258.390625 21.675781 260.039062 C 21.714844 261.160156 21.859375 261.609375 22.148438 261.234375 C 22.402344 260.859375 22.472656 261.085938 22.328125 261.90625 C 22.21875 262.578125 22.363281 263.476562 22.726562 264.074219 C 23.269531 264.972656 23.304688 264.898438 22.871094 263.777344 C 22.617188 263.101562 22.546875 262.355469 22.726562 262.128906 C 22.90625 261.90625 23.523438 264.449219 24.066406 267.886719 C 25.222656 275.140625 25.585938 276.113281 28.335938 278.953125 C 31.773438 282.542969 35.753906 288.824219 36.875 292.410156 C 37.417969 294.207031 39.082031 298.390625 40.496094 301.683594 C 41.941406 304.972656 43.351562 308.5625 43.644531 309.683594 C 44.113281 311.550781 44.078125 311.777344 43.460938 312.523438 C 43.0625 312.898438 42.375 313.269531 41.941406 313.269531 C 41 313.269531 37.5625 308.1875 37.851562 307.214844 C 37.960938 306.839844 37.890625 306.617188 37.707031 306.691406 C 37.527344 306.839844 36.550781 305.421875 35.5 303.550781 C 34.449219 301.683594 33.367188 299.8125 33.148438 299.4375 C 32.894531 298.992188 32.28125 297.871094 31.773438 296.898438 C 30.941406 295.402344 30.832031 295.328125 30.941406 296.523438 C 31.375 300.859375 31.449219 302.804688 31.195312 302.503906 C 31.050781 302.355469 30.867188 303.699219 30.832031 305.570312 C 30.796875 308.636719 30.832031 308.859375 31.410156 307.960938 C 31.882812 307.214844 31.882812 307.289062 31.339844 308.484375 C 30.867188 309.457031 30.613281 309.609375 30.507812 308.933594 C 30.398438 308.484375 30.074219 308.039062 29.78125 308.039062 C 29.347656 308.039062 29.3125 308.261719 29.636719 309.007812 C 30.035156 310.054688 29.53125 311.777344 28.804688 311.777344 C 28.625 311.777344 28.769531 311.253906 29.167969 310.652344 C 29.53125 310.054688 29.710938 309.609375 29.492188 309.609375 C 28.949219 309.609375 27.828125 311.476562 28.082031 312 C 28.191406 312.222656 27.359375 312.972656 26.199219 313.644531 C 25.007812 314.316406 23.777344 315.140625 23.414062 315.589844 C 22.941406 316.113281 22.582031 316.039062 22.183594 315.363281 C 21.859375 314.839844 21.53125 314.46875 21.460938 314.617188 C 21.386719 314.691406 20.773438 313.945312 20.046875 312.824219 C 19.359375 311.699219 18.671875 311.027344 18.527344 311.328125 C 18.167969 312.148438 19.902344 314.839844 20.375 314.242188 C 20.554688 314.019531 20.628906 314.167969 20.519531 314.542969 C 20.375 314.992188 20.773438 315.738281 21.351562 316.261719 C 21.964844 316.785156 22.402344 317.382812 22.292969 317.53125 C 22.21875 317.683594 21.496094 317.234375 20.664062 316.410156 C 19.253906 314.992188 19.214844 314.992188 19.578125 316.335938 C 19.757812 317.085938 19.832031 317.757812 19.6875 317.757812 C 19.578125 317.757812 19.648438 318.28125 19.902344 318.878906 C 20.300781 319.851562 25.113281 320 57.25 320 C 86.417969 320 94.304688 319.851562 94.742188 319.101562 C 95.210938 318.28125 95.246094 318.28125 95.03125 319.175781 C 94.8125 319.851562 94.847656 320.074219 95.175781 319.851562 C 95.789062 319.476562 95.933594 316.113281 95.390625 315.289062 C 95.175781 314.914062 95.320312 314.839844 95.753906 315.140625 C 96.40625 315.515625 96.585938 315.140625 96.765625 313.046875 C 97.058594 309.90625 99.734375 298.46875 102.269531 289.644531 C 103.679688 284.785156 104.222656 282.09375 104.222656 280.148438 C 104.222656 276.039062 104.800781 270.953125 107.117188 254.578125 C 108.3125 246.355469 109.578125 236.261719 109.976562 232.148438 C 110.773438 223.699219 111.277344 214.578125 110.773438 217.570312 C 110.589844 218.617188 110.410156 220.636719 110.375 222.054688 C 110.335938 224.597656 110.300781 224.597656 109.941406 222.804688 C 109.722656 221.757812 109.578125 220.1875 109.613281 219.214844 C 109.6875 218.242188 109.503906 216.972656 109.253906 216.375 C 108.890625 215.476562 108.890625 215.253906 109.289062 215.476562 C 109.648438 215.625 109.796875 215.027344 109.796875 213.609375 C 109.757812 212.039062 109.867188 211.589844 110.300781 211.960938 C 110.734375 212.261719 110.699219 211.960938 110.191406 210.390625 C 109.832031 209.269531 109.757812 208.671875 110.046875 208.972656 C 110.375 209.421875 110.410156 209.195312 110.230469 208.148438 C 110.046875 207.402344 109.941406 206.355469 109.941406 205.980469 C 109.976562 205.53125 110.046875 201.792969 110.15625 197.609375 C 110.265625 193.347656 110.445312 189.609375 110.554688 189.160156 C 110.664062 188.785156 110.589844 188.410156 110.410156 188.410156 C 110.191406 188.410156 110.011719 189.007812 110.011719 189.683594 C 110.011719 190.578125 109.902344 190.730469 109.722656 190.128906 C 109.214844 188.484375 108.492188 188.710938 108.382812 190.652344 C 108.3125 191.699219 108.203125 193.421875 108.09375 194.617188 C 108.023438 195.738281 108.09375 196.636719 108.238281 196.636719 C 108.417969 196.636719 108.566406 197.007812 108.566406 197.457031 C 108.566406 197.90625 108.3125 198.054688 107.984375 197.832031 C 107.515625 197.457031 107.441406 197.757812 107.550781 199.253906 C 107.660156 200.300781 107.585938 201.121094 107.40625 201.121094 C 107.226562 201.121094 107.1875 201.421875 107.296875 201.871094 C 107.40625 202.242188 107.335938 202.617188 107.117188 202.617188 C 106.898438 202.617188 106.828125 202.992188 106.972656 203.515625 C 107.117188 203.960938 106.9375 204.785156 106.574219 205.382812 C 106.175781 205.90625 106.105469 206.355469 106.320312 206.355469 C 106.574219 206.355469 106.753906 206.878906 106.753906 207.550781 C 106.753906 208.148438 106.609375 208.523438 106.429688 208.300781 C 106.25 208.074219 105.996094 209.121094 105.851562 210.617188 C 105.707031 212.484375 105.777344 213.457031 106.105469 213.90625 C 106.5 214.429688 106.5 214.578125 106.105469 214.578125 C 105.851562 214.578125 105.742188 214.878906 105.851562 215.328125 C 106.066406 216 105.5625 216.449219 104.800781 216.148438 C 104.621094 216.074219 104.691406 216.523438 104.945312 217.195312 C 105.378906 218.242188 105.34375 218.542969 104.910156 219.140625 C 104.476562 219.664062 104.476562 219.8125 104.945312 219.8125 C 105.378906 219.8125 105.378906 219.960938 105.019531 220.410156 C 104.765625 220.785156 104.65625 221.609375 104.800781 222.28125 C 104.945312 223.101562 104.835938 223.550781 104.546875 223.550781 C 104.1875 223.550781 104.1875 223.777344 104.476562 224.375 C 104.730469 224.898438 104.765625 225.792969 104.582031 226.839844 C 104.1875 228.933594 103.714844 232.746094 103.789062 233.421875 C 103.824219 233.792969 103.714844 234.019531 103.5 234.019531 C 103.316406 234.019531 103.28125 234.542969 103.390625 235.289062 C 103.570312 236.113281 103.5 236.335938 103.171875 235.886719 C 102.773438 235.4375 102.773438 235.664062 103.171875 237.085938 C 103.570312 238.652344 103.535156 238.730469 103.0625 237.980469 C 102.628906 237.160156 102.558594 237.457031 102.558594 239.851562 C 102.558594 241.71875 102.414062 242.542969 102.085938 242.390625 C 101.832031 242.316406 101.726562 242.542969 101.871094 242.992188 C 101.976562 243.4375 101.832031 244.785156 101.542969 246.054688 C 101.21875 247.328125 101.074219 248.671875 101.183594 249.046875 C 101.289062 249.421875 101.21875 249.71875 101.074219 249.71875 C 100.894531 249.71875 100.785156 250.839844 100.785156 252.113281 C 100.785156 253.832031 100.640625 254.503906 100.277344 254.355469 C 99.878906 254.207031 99.84375 254.355469 100.167969 255.175781 C 100.53125 256 100.496094 256.449219 100.058594 257.195312 C 99.625 257.945312 99.589844 258.390625 99.953125 259.289062 C 100.242188 259.960938 100.242188 260.261719 100.023438 259.960938 C 99.625 259.4375 99.480469 260.710938 99.410156 265.945312 C 99.410156 267.289062 99.265625 268.1875 99.082031 267.960938 C 98.9375 267.738281 98.902344 268.113281 99.011719 268.710938 C 99.15625 269.457031 99.046875 269.90625 98.757812 269.90625 C 98.46875 269.90625 98.578125 270.429688 99.011719 271.328125 C 99.371094 272.074219 99.808594 272.597656 99.914062 272.449219 C 100.242188 272.074219 100.675781 274.242188 100.785156 276.636719 C 100.820312 277.683594 100.964844 279.402344 101.109375 280.375 C 101.21875 281.421875 100.929688 280.597656 100.421875 278.578125 C 99.953125 276.5625 99.625 274.617188 99.734375 274.316406 C 99.84375 273.945312 99.664062 273.871094 99.371094 274.09375 C 98.648438 274.691406 98.324219 277.007812 98.757812 278.652344 C 99.15625 280.375 98.757812 282.09375 97.128906 285.382812 C 96.441406 286.730469 95.828125 288.824219 95.71875 290.390625 C 95.574219 291.8125 95.175781 293.53125 94.777344 294.28125 C 94.414062 294.953125 94.199219 295.925781 94.34375 296.375 C 94.488281 296.898438 94.414062 296.898438 94.089844 296.300781 C 93.835938 295.851562 93.4375 295.625 93.183594 295.851562 C 92.929688 296 92.640625 295.777344 92.53125 295.175781 C 92.460938 294.652344 92.425781 294.804688 92.460938 295.476562 C 92.53125 296.222656 92.425781 297.046875 92.242188 297.269531 C 92.0625 297.496094 92.027344 298.019531 92.136719 298.46875 C 92.28125 298.992188 92.207031 299.066406 91.992188 298.765625 C 91.484375 298.167969 90.542969 301.007812 89.925781 305.195312 C 89.675781 306.992188 89.347656 308.933594 89.203125 309.609375 C 89.058594 310.503906 89.238281 310.953125 90 311.402344 C 90.542969 311.699219 90.832031 312.074219 90.613281 312.300781 C 90 312.746094 88.226562 311.101562 88.480469 310.28125 C 88.589844 309.90625 88.480469 309.757812 88.226562 309.90625 C 87.972656 310.128906 87.175781 309.308594 86.488281 308.113281 L 85.222656 305.945312 L 86.273438 301.457031 C 87.539062 296 87.285156 294.429688 85.550781 297.347656 C 83.414062 300.933594 79.46875 309.007812 78.382812 312 C 76.648438 316.636719 73.933594 318.429688 73.351562 315.214844 C 73.0625 313.71875 74.367188 309.160156 75.019531 309.234375 C 75.34375 309.308594 75.488281 308.933594 75.378906 308.335938 C 75.125 306.914062 76.175781 303.699219 77.914062 300.636719 C 78.710938 299.214844 79.902344 296.300781 80.554688 294.128906 C 82.328125 288.375 85.296875 283.515625 88.007812 281.792969 C 91.195312 279.777344 91.773438 279.027344 92.859375 275.664062 L 93.800781 272.671875 L 93.4375 257.644531 C 93.183594 246.730469 93.183594 240.222656 93.511719 233.871094 C 93.726562 229.085938 94.015625 224.972656 94.125 224.746094 C 94.523438 223.851562 94.992188 239.699219 94.992188 253.757812 C 94.957031 267.960938 94.957031 267.960938 95.5 263.101562 C 96.007812 258.542969 96.078125 249.121094 95.789062 220.1875 C 95.753906 216.222656 96.007812 211.515625 96.585938 206.355469 C 97.816406 194.691406 97.996094 179.8125 97.019531 169.195312 C 96.515625 164.039062 96.1875 157.160156 96.117188 149.980469 L 95.972656 138.914062 L 98.9375 139.363281 C 100.53125 139.664062 102.375 140.039062 103.027344 140.261719 L 104.148438 140.710938 L 104.003906 150.953125 C 103.859375 160.898438 103.859375 161.269531 104.65625 162.691406 C 105.453125 164.113281 105.488281 164.113281 104.945312 162.617188 C 104.65625 161.792969 105.125 162.390625 106.03125 163.960938 C 106.9375 165.53125 107.660156 167.027344 107.660156 167.328125 C 107.660156 167.625 107.949219 169.121094 108.347656 170.765625 C 108.855469 172.933594 109.070312 173.382812 109.324219 172.636719 C 109.722656 171.289062 109.757812 169.496094 109.324219 170.019531 C 108.890625 170.617188 109.035156 168 109.46875 167.328125 C 109.6875 166.953125 109.6875 166.730469 109.433594 166.730469 C 109.214844 166.730469 109.035156 166.28125 109 165.757812 C 109 165.308594 108.855469 162.46875 108.746094 159.625 C 108.601562 156.710938 108.457031 152.074219 108.457031 149.160156 C 108.382812 144.074219 108.417969 143.925781 109.46875 142.878906 C 110.085938 142.28125 110.699219 141.308594 110.917969 140.636719 C 111.207031 139.664062 111.316406 139.960938 111.496094 142.054688 L 111.714844 144.671875 L 111.785156 141.609375 C 111.820312 137.871094 112.183594 137.195312 114.535156 136 C 115.550781 135.550781 116.5625 134.804688 116.816406 134.355469 C 117.105469 133.90625 117.25 131.066406 117.25 125.007812 C 117.25 117.234375 117.105469 115.140625 115.765625 104.746094 C 112.472656 79.027344 110.773438 65.195312 110.335938 61.308594 C 109.941406 57.71875 109.578125 56.597656 107.335938 51.960938 C 105.269531 47.777344 103.316406 45.007812 97.597656 38.128906 C 86.382812 24.671875 83.523438 21.609375 82.4375 21.90625 C 81.894531 22.054688 81.53125 21.90625 81.640625 21.609375 C 81.714844 21.308594 81.207031 20.335938 80.519531 19.4375 C 79.832031 18.542969 78.601562 16.300781 77.804688 14.429688 C 77.007812 12.5625 76.355469 11.140625 76.355469 11.363281 C 76.355469 12.261719 78.203125 16.523438 80.011719 19.960938 L 82.039062 23.699219 L 81.53125 26.242188 C 80.734375 30.128906 79.359375 33.421875 77.695312 35.4375 C 75.8125 37.683594 71.90625 40.375 70.457031 40.375 C 69.480469 40.375 69.410156 40.222656 69.625 38.28125 C 69.769531 37.160156 69.953125 34.765625 70.058594 32.898438 C 70.203125 30.207031 70.167969 29.832031 69.84375 30.878906 C 69.625 31.550781 69.300781 32 69.121094 31.777344 C 68.578125 31.101562 68.285156 32.972656 68.359375 36.710938 L 68.394531 40.300781 L 66.730469 40.824219 C 62.714844 42.019531 56.308594 39.550781 53.269531 35.589844 C 50.375 31.851562 47.804688 24 47.769531 18.914062 C 47.769531 16.449219 48.273438 15.101562 48.671875 16.449219 C 48.816406 16.898438 49.035156 17.046875 49.214844 16.824219 C 49.359375 16.597656 49.613281 16.972656 49.722656 17.644531 C 49.832031 18.242188 50.121094 18.542969 50.335938 18.242188 C 50.589844 17.945312 51.460938 17.644531 52.328125 17.570312 C 54.535156 17.421875 55.730469 15.550781 55.730469 12.335938 C 55.730469 10.914062 55.910156 9.71875 56.128906 9.71875 C 56.308594 9.71875 56.417969 9.421875 56.308594 9.046875 C 56.128906 8.523438 58.082031 7.175781 61.265625 5.609375 C 62.242188 5.160156 65.863281 1.644531 65.863281 1.195312 C 65.863281 0.898438 60.652344 0.746094 54.28125 0.746094 L 42.703125 0.746094 Z M 83.050781 94.878906 C 83.160156 95.253906 83.125 95.777344 82.941406 96 C 82.472656 96.597656 81.023438 95.625 81.277344 94.878906 C 81.53125 93.980469 82.761719 93.980469 83.050781 94.878906 Z M 86.777344 96.972656 C 86.925781 99.886719 86.308594 100.261719 85.984375 97.570312 C 85.839844 96.523438 85.511719 95.699219 85.222656 95.699219 C 84.933594 95.699219 84.679688 95.328125 84.679688 94.878906 C 84.679688 94.429688 85.113281 94.207031 85.695312 94.355469 C 86.488281 94.503906 86.707031 94.953125 86.777344 96.972656 Z M 72.558594 95.699219 C 72.449219 96.074219 71.941406 96.449219 71.433594 96.449219 C 70.964844 96.449219 70.566406 96.074219 70.566406 95.699219 C 70.566406 95.253906 71.074219 94.953125 71.6875 94.953125 C 72.304688 94.953125 72.703125 95.253906 72.558594 95.699219 Z M 76.175781 95.699219 C 76.066406 96.074219 75.5625 96.449219 75.054688 96.449219 C 74.582031 96.449219 74.1875 96.074219 74.1875 95.699219 C 74.1875 95.253906 74.691406 94.953125 75.308594 94.953125 C 75.921875 94.953125 76.320312 95.253906 76.175781 95.699219 Z M 79.613281 95.699219 C 79.613281 96.074219 79.214844 96.449219 78.746094 96.449219 C 78.238281 96.449219 77.730469 96.074219 77.625 95.699219 C 77.480469 95.253906 77.878906 94.953125 78.492188 94.953125 C 79.105469 94.953125 79.613281 95.253906 79.613281 95.699219 Z M 69.84375 98.242188 C 69.84375 99.289062 69.699219 100.335938 69.480469 100.5625 C 69.265625 100.859375 69.121094 100.039062 69.121094 98.765625 C 69.121094 97.496094 69.300781 96.449219 69.480469 96.449219 C 69.699219 96.449219 69.84375 97.269531 69.84375 98.242188 Z M 86.851562 105.121094 C 86.851562 106.09375 86.707031 106.914062 86.488281 106.914062 C 86.308594 106.914062 86.128906 105.871094 86.128906 104.597656 C 86.128906 103.328125 86.273438 102.503906 86.488281 102.804688 C 86.707031 103.027344 86.851562 104.074219 86.851562 105.121094 Z M 69.84375 105.792969 C 69.84375 106.839844 69.699219 107.664062 69.480469 107.664062 C 69.300781 107.664062 69.121094 106.839844 69.121094 105.792969 C 69.121094 104.746094 69.300781 103.925781 69.480469 103.925781 C 69.699219 103.925781 69.84375 104.746094 69.84375 105.792969 Z M 86.851562 112.148438 C 86.851562 113.347656 86.707031 114.390625 86.488281 114.390625 C 86.308594 114.390625 86.128906 113.347656 86.128906 112.148438 C 86.128906 110.878906 86.308594 109.90625 86.488281 109.90625 C 86.707031 109.90625 86.851562 110.878906 86.851562 112.148438 Z M 69.84375 112.898438 C 69.84375 114.09375 69.699219 115.140625 69.480469 115.140625 C 69.082031 115.140625 68.976562 111.925781 69.371094 111.175781 C 69.769531 110.28125 69.84375 110.578125 69.84375 112.898438 Z M 86.851562 119.625 C 86.851562 120.824219 86.707031 121.871094 86.488281 121.871094 C 86.308594 121.871094 86.128906 120.824219 86.128906 119.625 C 86.128906 118.355469 86.308594 117.382812 86.488281 117.382812 C 86.707031 117.382812 86.851562 118.355469 86.851562 119.625 Z M 69.734375 121.644531 C 69.589844 122.914062 69.589844 122.914062 69.300781 121.644531 C 69.15625 120.972656 69.15625 119.777344 69.300781 119.027344 C 69.589844 117.832031 69.589844 117.832031 69.734375 119.027344 C 69.84375 119.777344 69.84375 120.972656 69.734375 121.644531 Z M 86.851562 127.175781 C 86.851562 128.449219 86.707031 129.269531 86.488281 128.972656 C 86.308594 128.746094 86.128906 127.699219 86.128906 126.652344 C 86.128906 125.683594 86.308594 124.859375 86.488281 124.859375 C 86.707031 124.859375 86.851562 125.90625 86.851562 127.175781 Z M 70.203125 127.851562 C 70.203125 128.597656 70.058594 129.421875 69.878906 129.71875 C 69.445312 130.242188 68.976562 127.402344 69.300781 126.355469 C 69.625 125.234375 70.203125 126.207031 70.203125 127.851562 Z M 87.214844 134.207031 C 87.214844 135.253906 87.070312 136.074219 86.851562 136.074219 C 86.671875 136.074219 86.488281 135.253906 86.488281 134.207031 C 86.488281 133.160156 86.671875 132.335938 86.851562 132.335938 C 87.070312 132.335938 87.214844 133.160156 87.214844 134.207031 Z M 70.203125 134.878906 C 70.203125 135.925781 70.058594 136.972656 69.84375 137.195312 C 69.625 137.496094 69.480469 136.671875 69.480469 135.402344 C 69.480469 134.128906 69.664062 133.085938 69.84375 133.085938 C 70.058594 133.085938 70.203125 133.90625 70.203125 134.878906 Z M 87.214844 141.234375 C 87.214844 141.980469 87.105469 142.804688 86.996094 143.027344 C 86.527344 143.925781 86.238281 142.804688 86.382812 140.933594 C 86.597656 138.914062 87.214844 139.140625 87.214844 141.234375 Z M 27.175781 161.945312 C 26.34375 207.101562 24.609375 248.898438 23.195312 256.523438 C 22.941406 258.019531 22.835938 257.644531 22.617188 253.832031 C 22.328125 249.496094 22.507812 240.597656 23.160156 223.550781 C 23.339844 218.019531 23.339844 210.914062 23.089844 203.738281 C 22.871094 197.53125 22.796875 188.113281 22.90625 182.804688 C 23.050781 174.355469 23.234375 172.039062 24.355469 164.859375 C 25.042969 160.300781 25.875 153.347656 26.199219 149.308594 C 26.851562 141.683594 27.105469 139.515625 27.394531 140.113281 C 27.46875 140.261719 27.359375 150.128906 27.175781 161.945312 Z M 70.351562 141.757812 C 70.675781 143.402344 70.640625 143.550781 70.023438 143.550781 C 69.734375 143.550781 69.480469 142.878906 69.480469 142.054688 C 69.480469 140.261719 70.023438 140.039062 70.351562 141.757812 Z M 74.1875 142.804688 C 74.1875 143.175781 73.714844 143.550781 73.101562 143.550781 C 72.519531 143.550781 72.015625 143.175781 72.015625 142.804688 C 72.015625 142.355469 72.519531 142.054688 73.101562 142.054688 C 73.714844 142.054688 74.1875 142.355469 74.1875 142.804688 Z M 77.441406 142.804688 C 77.441406 143.175781 77.042969 143.550781 76.539062 143.550781 C 76.03125 143.550781 75.632812 143.175781 75.632812 142.804688 C 75.632812 142.355469 76.03125 142.054688 76.539062 142.054688 C 77.042969 142.054688 77.441406 142.355469 77.441406 142.804688 Z M 81.0625 142.804688 C 81.0625 143.175781 80.664062 143.550781 80.191406 143.550781 C 79.6875 143.550781 79.179688 143.175781 79.070312 142.804688 C 78.925781 142.355469 79.324219 142.054688 79.941406 142.054688 C 80.554688 142.054688 81.0625 142.355469 81.0625 142.804688 Z M 84.5 142.804688 C 84.390625 143.175781 83.882812 143.550781 83.378906 143.550781 C 82.90625 143.550781 82.507812 143.175781 82.507812 142.804688 C 82.507812 142.355469 83.015625 142.054688 83.632812 142.054688 C 84.246094 142.054688 84.644531 142.355469 84.5 142.804688 Z M 95.140625 168.074219 C 95.355469 171.664062 95.535156 176.671875 95.535156 179.289062 C 95.535156 185.570312 94.777344 198.128906 94.378906 198.128906 C 94.234375 198.128906 94.089844 188.933594 94.125 177.71875 C 94.160156 157.234375 94.378906 155.140625 95.140625 168.074219 Z M 21.605469 184.523438 C 21.605469 186.09375 21.714844 188.1875 21.859375 189.160156 C 22.074219 190.804688 22.003906 190.730469 21.0625 188.410156 L 19.976562 185.871094 L 20.773438 183.777344 C 21.171875 182.652344 21.566406 181.757812 21.566406 181.757812 C 21.605469 181.683594 21.605469 182.953125 21.605469 184.523438 Z M 19.179688 187.960938 C 18.671875 189.007812 18.382812 188.113281 18.671875 186.617188 C 18.855469 185.570312 19 185.496094 19.214844 186.316406 C 19.359375 186.839844 19.359375 187.589844 19.179688 187.960938 Z M 15.921875 187.960938 C 15.921875 188.113281 15.667969 188.484375 15.34375 188.710938 C 15.054688 188.933594 14.910156 188.859375 15.019531 188.410156 C 15.234375 187.664062 15.921875 187.363281 15.921875 187.960938 Z M 21.023438 190.054688 C 21.316406 191.175781 21.316406 191.402344 21.023438 191.101562 C 20.808594 190.804688 20.445312 189.90625 20.230469 189.007812 C 19.941406 187.886719 19.941406 187.664062 20.230469 187.960938 C 20.445312 188.261719 20.808594 189.160156 21.023438 190.054688 Z M 13.933594 192.222656 C 14.332031 193.496094 13.859375 193.871094 12.484375 193.347656 C 11.796875 193.046875 11.289062 192.523438 11.398438 192.074219 C 11.6875 191.175781 13.644531 191.175781 13.933594 192.222656 Z M 16.683594 192.671875 C 17.152344 193.871094 17.117188 193.945312 16.574219 192.972656 C 16.210938 192.449219 15.921875 191.851562 15.921875 191.699219 C 15.921875 191.101562 16.210938 191.476562 16.683594 192.671875 Z M 18.816406 197.457031 L 19.722656 199.027344 L 18.710938 197.832031 C 17.839844 196.710938 17.695312 196.710938 17.515625 197.757812 C 17.40625 198.355469 17.152344 198.652344 16.972656 198.429688 C 16.683594 198.054688 17.335938 195.960938 17.730469 195.960938 C 17.839844 195.960938 18.3125 196.636719 18.816406 197.457031 Z M 18.710938 200.523438 C 18.601562 201.121094 18.492188 200.898438 18.492188 200.074219 C 18.457031 199.253906 18.566406 198.804688 18.671875 199.101562 C 18.78125 199.328125 18.816406 200 18.710938 200.523438 Z M 19.722656 201.121094 C 19.832031 201.496094 19.757812 201.871094 19.578125 201.871094 C 19.359375 201.871094 19.179688 201.496094 19.179688 201.121094 C 19.179688 200.671875 19.253906 200.375 19.324219 200.375 C 19.433594 200.375 19.613281 200.671875 19.722656 201.121094 Z M 19.542969 203.363281 C 19.832031 203.738281 19.976562 204.1875 19.902344 204.410156 C 19.796875 204.5625 19.398438 204.261719 19.035156 203.664062 C 18.238281 202.542969 18.671875 202.242188 19.542969 203.363281 Z M 20.046875 207.550781 C 20.230469 208.597656 20.191406 208.671875 19.722656 207.851562 C 19.105469 206.804688 19.035156 206.355469 19.503906 206.355469 C 19.6875 206.355469 19.941406 206.878906 20.046875 207.550781 Z M 18.601562 208.449219 C 18.710938 208.824219 18.566406 209.121094 18.273438 209.121094 C 17.984375 209.121094 17.839844 208.824219 17.949219 208.449219 C 18.058594 208.148438 18.203125 207.851562 18.273438 207.851562 C 18.347656 207.851562 18.492188 208.148438 18.601562 208.449219 Z M 18.09375 212.933594 C 18.09375 214.054688 18.023438 214.054688 17.730469 213.085938 C 17.261719 211.589844 17.261719 210.617188 17.730469 211.214844 C 17.949219 211.4375 18.09375 212.261719 18.09375 212.933594 Z M 16.539062 213.980469 C 16.429688 214.503906 16.355469 214.128906 16.355469 213.085938 C 16.355469 212.039062 16.429688 211.664062 16.539062 212.113281 C 16.609375 212.636719 16.609375 213.53125 16.539062 213.980469 Z M 19.542969 216.222656 C 19.542969 216.671875 19.324219 216.597656 19 216.074219 C 18.710938 215.550781 18.457031 215.027344 18.457031 214.878906 C 18.457031 214.730469 18.710938 214.804688 19 215.027344 C 19.289062 215.328125 19.542969 215.851562 19.542969 216.222656 Z M 19 233.269531 C 19.105469 233.644531 19.035156 234.019531 18.855469 234.019531 C 18.636719 234.019531 18.457031 233.644531 18.457031 233.269531 C 18.457031 232.824219 18.527344 232.523438 18.601562 232.523438 C 18.710938 232.523438 18.890625 232.824219 19 233.269531 Z M 19.976562 240.597656 C 20.265625 241.269531 20.230469 241.421875 19.796875 241.046875 C 19.105469 240.523438 18.710938 238.652344 19.070312 237.53125 C 19.253906 236.933594 19.398438 237.160156 19.46875 238.128906 C 19.542969 238.953125 19.796875 240.074219 19.976562 240.597656 Z M 103.390625 279.550781 C 103.390625 280.375 103.207031 280.898438 103.0625 280.671875 C 102.917969 280.449219 102.882812 279.851562 103.027344 279.253906 C 103.28125 277.683594 103.460938 277.832031 103.390625 279.550781 Z M 101.582031 288.746094 C 101.472656 289.269531 101.398438 288.898438 101.398438 287.851562 C 101.398438 286.804688 101.472656 286.429688 101.582031 286.878906 C 101.652344 287.402344 101.652344 288.300781 101.582031 288.746094 Z M 97.347656 305.421875 C 97.347656 305.570312 96.984375 306.09375 96.550781 306.542969 C 95.753906 307.363281 95.753906 307.289062 96.40625 306.242188 C 97.164062 304.972656 97.347656 304.824219 97.347656 305.421875 Z M 32.929688 306.542969 C 32.929688 306.914062 32.75 307.289062 32.53125 307.289062 C 32.351562 307.289062 32.28125 306.914062 32.386719 306.542969 C 32.496094 306.09375 32.679688 305.792969 32.785156 305.792969 C 32.859375 305.792969 32.929688 306.09375 32.929688 306.542969 Z M 31.195312 310.804688 C 30.976562 310.953125 30.832031 311.476562 30.941406 311.777344 C 31.050781 312.148438 30.976562 312.597656 30.796875 312.824219 C 30.542969 313.195312 30.507812 312 30.722656 310.429688 C 30.761719 310.355469 30.976562 310.28125 31.230469 310.355469 C 31.554688 310.355469 31.554688 310.503906 31.195312 310.804688 Z M 94.921875 312.300781 C 94.667969 312.449219 94.234375 312.449219 94.015625 312.300781 C 93.761719 312.074219 93.945312 311.925781 94.449219 311.925781 C 94.957031 311.925781 95.140625 312.074219 94.921875 312.300781 Z M 35.828125 317.007812 C 35.574219 317.382812 35.101562 317.457031 34.847656 317.234375 C 34.414062 316.859375 34.414062 316.710938 34.777344 316.1875 C 35.03125 315.886719 35.390625 315.8125 35.535156 315.960938 C 35.679688 316.1875 35.828125 315.886719 35.863281 315.363281 C 35.863281 314.617188 35.933594 314.617188 36.078125 315.4375 C 36.1875 315.960938 36.078125 316.710938 35.828125 317.007812 Z M 38.105469 315.886719 C 38.214844 316.261719 37.890625 316.636719 37.417969 316.636719 C 36.949219 316.636719 36.550781 316.261719 36.550781 315.738281 C 36.550781 314.691406 37.925781 314.765625 38.105469 315.886719 Z M 87.105469 315.214844 C 86.996094 315.4375 86.671875 315.515625 86.417969 315.289062 C 86.128906 315.066406 86.238281 314.839844 86.632812 314.839844 C 87.03125 314.765625 87.25 314.992188 87.105469 315.214844 Z M 34.015625 316.261719 C 34.015625 316.636719 33.835938 317.007812 33.617188 317.007812 C 33.4375 317.007812 33.367188 316.636719 33.472656 316.261719 C 33.582031 315.8125 33.761719 315.515625 33.871094 315.515625 C 33.945312 315.515625 34.015625 315.8125 34.015625 316.261719 Z M 34.015625 316.261719 "/>
<path style=" stroke:none;fill-rule:nonzero;fill:rgb(0%,0%,0%);fill-opacity:1;" d="M 187.851562 1.269531 C 188.394531 1.421875 189.011719 2.390625 189.265625 3.363281 C 189.515625 4.410156 190.058594 5.382812 190.421875 5.683594 C 193.101562 7.402344 185.140625 9.347656 176.054688 9.195312 C 169.867188 9.121094 168.238281 8.824219 164.65625 7.253906 L 160.496094 5.382812 L 156.695312 8.746094 C 151.410156 13.457031 146.632812 18.390625 142.402344 23.550781 C 131.90625 36.261719 131.941406 36.1875 130.242188 40.597656 C 128.214844 45.832031 127.78125 48.671875 125.355469 74.019531 C 123.871094 89.945312 121.699219 107.886719 119.78125 120.523438 C 119.386719 123.140625 119.058594 125.457031 119.058594 125.757812 C 119.058594 125.980469 120.109375 127.550781 121.339844 129.195312 L 123.65625 132.1875 L 123.871094 143.625 C 124.015625 149.90625 124.160156 160.597656 124.160156 167.402344 C 124.199219 174.207031 124.34375 180.785156 124.488281 182.054688 C 124.703125 183.851562 124.777344 184 124.8125 182.578125 C 124.8125 181.683594 125.066406 180.933594 125.320312 180.933594 C 125.609375 180.933594 125.574219 180.710938 125.210938 180.1875 C 124.8125 179.664062 124.667969 177.945312 124.632812 173.457031 C 124.597656 168.375 124.703125 167.101562 125.355469 165.457031 C 125.828125 164.113281 125.933594 163.363281 125.679688 163.214844 C 125.355469 162.992188 125.355469 162.316406 125.609375 161.046875 C 126.007812 158.652344 126.007812 158.503906 125.535156 158.503906 C 125.355469 158.503906 125.246094 158.804688 125.355469 159.101562 C 125.429688 159.402344 125.355469 160.148438 125.140625 160.746094 C 124.847656 161.644531 124.8125 161.644531 124.992188 160.523438 C 125.101562 159.777344 124.992188 159.253906 124.742188 159.253906 C 124.449219 159.253906 124.449219 159.027344 124.8125 158.578125 C 125.066406 158.207031 125.210938 157.609375 125.066406 157.160156 C 124.957031 156.710938 125.03125 156.113281 125.246094 155.8125 C 125.574219 155.4375 125.5 154.992188 125.03125 154.242188 C 124.632812 153.71875 124.488281 153.269531 124.703125 153.269531 C 124.886719 153.269531 125.03125 151.777344 125.03125 149.90625 C 125.03125 148.039062 124.886719 146.542969 124.742188 146.542969 C 124.558594 146.542969 124.558594 146.09375 124.742188 145.570312 C 124.886719 145.121094 125.03125 143.328125 125.066406 141.683594 C 125.175781 134.054688 124.992188 134.28125 130.242188 136.148438 C 132.992188 137.121094 135.777344 137.570312 137.585938 137.421875 L 140.484375 137.195312 L 140.265625 140.933594 C 140.15625 142.953125 139.976562 148.039062 139.832031 152.148438 C 139.722656 156.261719 139.542969 160.597656 139.503906 161.871094 C 139.433594 163.066406 139.289062 170.167969 139.144531 177.570312 C 138.890625 194.765625 138.636719 205.609375 138.457031 207.476562 C 138.347656 208.300781 138.273438 209.269531 138.273438 209.71875 C 138.238281 210.09375 138.058594 209.945312 137.878906 209.347656 C 137.585938 208.449219 137.515625 208.597656 137.515625 209.945312 C 137.515625 211.066406 137.371094 211.515625 137.082031 211.140625 C 136.792969 210.765625 136.753906 210.992188 136.9375 211.960938 C 137.082031 212.785156 136.9375 213.832031 136.574219 214.652344 C 136.25 215.402344 136.105469 216.375 136.25 216.746094 C 136.355469 217.195312 136.285156 217.570312 136.105469 217.570312 C 135.5625 217.570312 135.777344 219.214844 136.429688 220.335938 C 136.898438 221.160156 136.863281 221.234375 136.25 221.308594 C 135.851562 221.308594 135.667969 221.609375 135.886719 221.90625 C 136.320312 222.578125 136.429688 227.289062 135.996094 227.289062 C 135.851562 227.289062 135.707031 227.515625 135.742188 227.8125 C 135.8125 228.933594 135.269531 231.777344 134.945312 231.851562 C 134.257812 232.074219 134.078125 232.222656 133.679688 232.746094 C 133.425781 233.046875 133.171875 232.746094 133.0625 232.222656 C 132.957031 231.625 133.027344 230.953125 133.28125 230.730469 C 133.535156 230.503906 133.5 230.355469 133.171875 230.355469 C 132.882812 230.429688 132.375 230.429688 132.085938 230.355469 C 131.617188 230.28125 131.617188 230.207031 132.085938 229.53125 C 132.519531 228.933594 132.449219 228.785156 131.761719 228.785156 C 131.039062 228.785156 130.929688 228.484375 131.074219 226.542969 C 131.183594 224.898438 131.109375 224.523438 130.820312 225.046875 C 130.53125 225.570312 130.167969 225.347656 129.734375 224.300781 C 129.371094 223.476562 129.191406 222.804688 129.335938 222.804688 C 129.480469 222.804688 129.410156 222.128906 129.191406 221.308594 C 128.902344 220.1875 128.9375 219.960938 129.300781 220.1875 C 129.554688 220.410156 130.058594 220.039062 130.457031 219.4375 C 131.144531 218.316406 131.109375 218.316406 129.988281 218.617188 C 129.046875 218.839844 128.828125 218.691406 128.976562 217.945312 C 129.082031 217.347656 129.011719 216.671875 128.792969 216.375 C 128.578125 216.148438 128.503906 215.476562 128.613281 214.953125 C 128.722656 214.355469 128.613281 213.757812 128.359375 213.53125 C 128.035156 213.308594 128.035156 213.160156 128.394531 213.160156 C 128.613281 213.085938 128.828125 212.710938 128.828125 212.261719 C 128.828125 211.886719 128.648438 211.738281 128.46875 211.960938 C 128.25 212.1875 128.035156 211.886719 127.925781 211.289062 C 127.816406 210.617188 127.636719 209.496094 127.492188 208.746094 C 127.09375 206.503906 127.019531 204.785156 127.308594 205.160156 C 127.492188 205.382812 127.636719 205.085938 127.636719 204.484375 C 127.636719 203.886719 127.453125 203.515625 127.238281 203.589844 C 127.019531 203.664062 126.804688 202.691406 126.804688 201.347656 C 126.730469 199.550781 126.839844 199.101562 127.238281 199.402344 C 127.816406 199.851562 128.792969 197.683594 128.828125 195.960938 C 128.828125 195.363281 128.539062 194.242188 128.214844 193.496094 C 127.707031 192.300781 127.671875 191.925781 128.105469 191.402344 C 128.757812 190.578125 128.867188 188.636719 128.359375 187.8125 C 128.105469 187.4375 127.203125 186.914062 126.332031 186.691406 C 125.464844 186.46875 124.597656 185.871094 124.449219 185.269531 C 123.726562 182.953125 123.945312 194.09375 124.886719 208.671875 C 125.933594 225.046875 127.164062 234.691406 131.90625 263.027344 C 132.59375 267.289062 133.171875 271.851562 133.171875 273.269531 C 133.171875 274.617188 133.605469 277.53125 134.113281 279.777344 L 135.019531 283.738281 L 134.800781 280.523438 C 134.546875 277.085938 134.511719 277.085938 135.886719 278.128906 C 136.609375 278.730469 136.828125 278.652344 136.71875 277.980469 C 136.609375 277.457031 136.25 276.859375 135.851562 276.785156 C 135.488281 276.636719 135.019531 276.1875 134.835938 275.8125 C 134.621094 275.4375 134.875 275.363281 135.378906 275.589844 C 135.851562 275.8125 136.429688 276.039062 136.609375 276.039062 C 137.226562 276.1875 137.1875 278.578125 136.574219 286.207031 C 136.066406 292.484375 136.066406 293.308594 136.609375 295.699219 C 136.9375 297.121094 137.441406 298.617188 137.695312 299.066406 C 137.984375 299.515625 138.09375 300.484375 137.984375 301.085938 C 137.839844 301.90625 137.914062 302.128906 138.167969 301.757812 C 138.710938 301.085938 138.710938 301.980469 138.128906 305.121094 C 137.878906 306.542969 137.695312 308.636719 137.730469 309.757812 C 137.730469 310.878906 137.625 312 137.480469 312.222656 C 137.296875 312.449219 137.152344 312.972656 137.152344 313.347656 C 137.152344 313.792969 137.335938 313.871094 137.515625 313.644531 C 137.730469 313.347656 137.839844 313.421875 137.804688 313.792969 C 137.769531 314.09375 137.949219 315.664062 138.203125 317.234375 L 138.671875 320 L 176.238281 320 L 213.761719 319.925781 L 214.015625 317.160156 C 214.125 315.664062 214.234375 313.195312 214.234375 311.777344 C 214.269531 309.53125 214.304688 309.382812 214.667969 310.578125 C 214.886719 311.402344 214.957031 313.644531 214.847656 315.960938 C 214.742188 318.28125 214.777344 320 214.992188 320 C 215.175781 320 215.320312 318.503906 215.320312 316.636719 C 215.320312 314.765625 215.464844 313.269531 215.644531 313.269531 C 216.007812 313.269531 216.40625 315.8125 216.40625 318.28125 C 216.40625 319.925781 216.550781 320 218.757812 320 C 220.097656 320 221.109375 319.699219 221.109375 319.253906 C 221.109375 318.804688 221.472656 318.503906 221.90625 318.503906 L 222.664062 318.503906 L 221.941406 316.785156 C 221.542969 315.886719 221.039062 314.46875 220.820312 313.570312 C 220.421875 312 217.890625 296.222656 217.671875 293.980469 C 217.597656 293.308594 217.453125 291.738281 217.273438 290.542969 C 217.09375 288.898438 217.128906 288.523438 217.492188 288.972656 C 217.816406 289.421875 217.851562 289.195312 217.527344 287.925781 C 217.273438 286.953125 217.164062 283.4375 217.273438 277.980469 C 217.417969 270.503906 217.417969 270.207031 217.164062 275.515625 C 216.875 281.269531 216.117188 286.429688 215.429688 287.328125 C 215.246094 287.550781 214.8125 283.140625 214.488281 277.53125 C 213.835938 266.914062 212.640625 258.542969 210.21875 247.625 L 209.023438 242.242188 L 209.492188 236.785156 C 210.578125 223.851562 210.652344 221.609375 210.253906 204.859375 C 210.035156 194.691406 210 181.085938 210.179688 170.46875 C 210.324219 160.824219 210.363281 149.683594 210.253906 145.792969 C 210.109375 141.90625 210 138.617188 210.035156 138.617188 C 210.074219 138.542969 212.714844 138.691406 215.933594 138.914062 L 221.796875 139.289062 L 221.6875 142.730469 C 221.617188 144.597656 221.726562 146.765625 221.90625 147.589844 C 222.160156 148.636719 222.160156 148.859375 221.832031 148.410156 C 221.507812 148.039062 221.507812 148.1875 221.761719 149.234375 C 221.941406 150.054688 222.121094 153.269531 222.121094 156.484375 C 222.160156 159.699219 222.269531 163.066406 222.414062 163.886719 C 222.519531 164.710938 222.484375 165.234375 222.339844 165.007812 C 221.976562 164.5625 221.976562 169.121094 222.339844 170.316406 C 222.449219 170.765625 222.484375 172.1875 222.375 173.382812 C 222.230469 175.175781 222.304688 175.699219 222.738281 175.699219 C 223.0625 175.699219 223.246094 176 223.136719 176.375 C 223.027344 176.746094 223.171875 177.421875 223.460938 177.945312 C 223.859375 178.617188 223.894531 179.214844 223.605469 180.335938 C 223.351562 181.382812 223.351562 182.054688 223.679688 182.878906 C 224.003906 183.699219 223.96875 183.925781 223.425781 184 C 223.027344 184 222.917969 184.222656 223.207031 184.449219 C 224.042969 185.121094 223.714844 189.007812 222.664062 190.429688 C 222.121094 191.175781 221.542969 191.777344 221.328125 191.851562 C 221.109375 191.851562 220.710938 192 220.496094 192 C 220.203125 192.074219 220.097656 192.972656 220.167969 194.316406 C 220.277344 196.039062 220.167969 196.410156 219.699219 196.039062 C 219.300781 195.738281 219.410156 196.335938 220.023438 197.90625 C 220.53125 199.253906 221.109375 200.222656 221.289062 200.222656 C 222.664062 200.074219 222.992188 200.375 222.59375 201.421875 C 222.015625 202.839844 222.628906 203.515625 223.894531 202.914062 C 224.800781 202.390625 224.875 202.46875 224.402344 203.589844 C 224.042969 204.484375 224.042969 205.160156 224.292969 205.832031 C 224.835938 207.101562 224.257812 208.746094 223.535156 208.148438 C 223.027344 207.777344 222.957031 208.074219 223.136719 209.945312 C 223.246094 211.140625 223.171875 212.335938 222.992188 212.636719 C 222.773438 212.859375 222.664062 213.90625 222.773438 214.953125 C 222.882812 216.375 222.8125 216.671875 222.375 216.375 C 221.941406 216 221.871094 216.222656 222.160156 217.644531 C 222.375 218.992188 222.304688 219.664062 221.871094 220.335938 C 221.328125 221.160156 221.328125 221.382812 221.871094 223.402344 C 222.449219 225.570312 222.449219 225.644531 221.6875 226.390625 C 221 227.140625 221 227.214844 221.617188 227.214844 C 222.230469 227.289062 222.230469 227.4375 221.726562 229.085938 C 221.398438 230.054688 221.253906 231.027344 221.363281 231.328125 C 221.472656 231.550781 221.652344 235.289062 221.6875 239.699219 C 221.761719 244.039062 221.90625 247.851562 222.015625 248.222656 C 222.121094 248.523438 221.976562 249.046875 221.761719 249.195312 C 221.398438 249.496094 221.398438 249.71875 221.726562 250.242188 C 221.976562 250.617188 222.121094 251.664062 222.015625 252.5625 C 221.941406 253.457031 222.015625 254.207031 222.195312 254.207031 C 222.484375 254.207031 222.484375 256.597656 222.195312 259.066406 C 222.160156 259.4375 222.160156 259.960938 222.195312 260.1875 C 222.414062 261.53125 223.027344 272.898438 222.992188 275.4375 C 222.957031 276.1875 223.171875 277.53125 223.460938 278.429688 C 223.714844 279.253906 224.042969 281.121094 224.1875 282.46875 C 224.332031 283.8125 224.621094 285.085938 224.835938 285.308594 C 225.125 285.53125 225.269531 289.046875 225.308594 296.671875 C 225.34375 307.363281 225.742188 319.328125 226.03125 319.925781 C 226.355469 320.597656 226.140625 304.972656 225.777344 299.140625 C 225.417969 293.609375 225.453125 292.5625 226.105469 288.746094 C 226.648438 285.609375 226.863281 281.71875 227.042969 274.019531 C 227.152344 268.261719 227.585938 258.992188 227.984375 253.457031 C 230.917969 213.757812 231.242188 190.578125 229.070312 172.710938 C 227.984375 163.589844 227.625 157.007812 227.625 145.496094 L 227.625 134.730469 L 229.179688 133.53125 C 230.011719 132.933594 231.386719 132.039062 232.253906 131.589844 C 233.632812 130.839844 233.777344 130.617188 233.777344 128.375 C 233.777344 127.027344 233.269531 121.570312 232.652344 116.261719 C 232.039062 110.878906 230.734375 99.214844 229.757812 90.242188 C 227.625 70.429688 225.234375 51.289062 224.511719 48.523438 C 224.257812 47.402344 223.316406 45.308594 222.484375 43.886719 C 218.976562 37.980469 207.574219 23.027344 203.160156 18.46875 C 200.519531 15.777344 197.730469 12.5625 196.898438 11.363281 C 196.066406 10.09375 194.582031 8.523438 193.570312 7.777344 C 191.726562 6.355469 190.820312 4.039062 191.21875 1.71875 C 191.363281 0.972656 190.894531 0.746094 189.15625 0.824219 C 187.925781 0.898438 187.347656 1.121094 187.851562 1.269531 Z M 181.917969 56.597656 C 182.097656 57.644531 179.78125 58.691406 178.914062 58.019531 C 178.445312 57.644531 178.40625 57.347656 178.804688 56.375 C 179.3125 55.027344 181.699219 55.175781 181.917969 56.597656 Z M 187.453125 56.449219 C 187.453125 57.195312 187.058594 57.570312 186.1875 57.570312 C 185.5 57.570312 184.8125 57.570312 184.667969 57.644531 C 184.488281 57.644531 184.34375 57.121094 184.269531 56.523438 C 184.160156 55.550781 184.488281 55.328125 185.789062 55.328125 C 187.019531 55.328125 187.453125 55.625 187.453125 56.449219 Z M 192.882812 56.449219 C 192.882812 57.269531 192.484375 57.570312 191.472656 57.570312 C 190.097656 57.570312 189.410156 56.824219 189.878906 55.777344 C 189.988281 55.550781 190.746094 55.328125 191.507812 55.328125 C 192.484375 55.328125 192.882812 55.625 192.882812 56.449219 Z M 198.601562 58.839844 C 198.457031 63.027344 197.585938 64.300781 197.585938 60.261719 C 197.585938 57.792969 197.515625 57.570312 196.539062 57.570312 C 195.453125 57.570312 194.875 56.671875 195.308594 55.777344 C 195.417969 55.550781 196.25 55.328125 197.117188 55.328125 L 198.710938 55.328125 Z M 154.160156 58.019531 C 154.160156 58.765625 153.726562 59.066406 152.75 59.066406 C 151.375 59.066406 150.652344 58.242188 151.050781 56.972656 C 151.339844 55.925781 154.160156 56.898438 154.160156 58.019531 Z M 159.84375 57.269531 C 159.914062 57.792969 159.410156 58.316406 158.613281 58.542969 C 157.128906 58.914062 156.441406 58.242188 156.875 56.824219 C 157.203125 55.777344 159.664062 56.148438 159.84375 57.269531 Z M 165.308594 57.347656 C 165.378906 58.019531 164.945312 58.316406 163.789062 58.316406 C 162.230469 58.316406 161.796875 57.792969 162.375 56.523438 C 162.8125 55.699219 165.125 56.375 165.308594 57.347656 Z M 170.808594 57.269531 C 170.808594 58.167969 170.484375 58.316406 169.289062 58.167969 C 167.152344 57.871094 167.007812 56.074219 169.144531 56.074219 C 170.410156 56.074219 170.808594 56.375 170.808594 57.269531 Z M 176.34375 57.195312 C 176.199219 58.316406 173.234375 58.09375 173.050781 56.972656 C 172.941406 56.222656 173.339844 56.074219 174.644531 56.222656 C 175.621094 56.375 176.382812 56.746094 176.34375 57.195312 Z M 148.515625 59.589844 C 148.226562 62.953125 148.191406 63.101562 147.683594 62.429688 C 147.25 61.90625 147.140625 58.09375 147.539062 57.347656 C 147.648438 57.046875 148.007812 56.824219 148.261719 56.824219 C 148.660156 56.824219 148.695312 57.496094 148.515625 59.589844 Z M 198.671875 70.652344 C 198.671875 73.121094 198.527344 74.019531 198.128906 74.019531 C 197.730469 74.019531 197.585938 73.121094 197.585938 70.652344 C 197.585938 68.1875 197.730469 67.289062 198.128906 67.289062 C 198.527344 67.289062 198.671875 68.1875 198.671875 70.652344 Z M 148.660156 70.578125 C 148.734375 71.699219 148.695312 73.195312 148.589844 73.792969 C 148.261719 75.589844 147.285156 73.570312 147.285156 71.027344 C 147.285156 67.363281 148.480469 66.992188 148.660156 70.578125 Z M 198.671875 82.316406 C 198.671875 84.410156 198.527344 85.234375 198.128906 85.234375 C 197.730469 85.234375 197.585938 84.410156 197.585938 82.390625 C 197.585938 80.824219 197.695312 79.253906 197.804688 79.027344 C 198.3125 78.054688 198.671875 79.476562 198.671875 82.316406 Z M 148.734375 82.617188 C 148.734375 85.085938 148.589844 85.980469 148.191406 85.980469 C 147.792969 85.980469 147.648438 85.085938 147.648438 82.617188 C 147.648438 80.148438 147.792969 79.253906 148.191406 79.253906 C 148.589844 79.253906 148.734375 80.148438 148.734375 82.617188 Z M 148.734375 93.832031 C 148.734375 96.300781 148.589844 97.195312 148.191406 97.195312 C 147.792969 97.195312 147.648438 96.375 147.648438 94.355469 C 147.648438 92.785156 147.757812 91.214844 147.902344 90.992188 C 148.480469 89.792969 148.734375 90.691406 148.734375 93.832031 Z M 198.78125 92.859375 C 198.960938 95.550781 198.78125 97.195312 198.273438 97.195312 C 197.878906 97.195312 197.441406 92.261719 197.769531 91.289062 C 198.203125 89.792969 198.601562 90.46875 198.78125 92.859375 Z M 198.960938 105.269531 C 199.035156 107.738281 198.960938 108.410156 198.527344 108.410156 C 198.09375 108.410156 197.949219 107.589844 197.949219 104.972656 C 197.949219 100.5625 198.816406 100.859375 198.960938 105.269531 Z M 148.734375 105.792969 C 148.734375 109.160156 148.300781 110.28125 147.863281 107.960938 C 147.429688 105.644531 147.613281 102.429688 148.191406 102.429688 C 148.589844 102.429688 148.734375 103.328125 148.734375 105.792969 Z M 198.960938 117.085938 C 198.890625 118.730469 198.710938 120 198.492188 120 C 198.058594 120 197.804688 115.515625 198.128906 113.792969 C 198.492188 111.699219 199.105469 114.019531 198.960938 117.085938 Z M 149.023438 116.785156 C 148.878906 121.195312 148.007812 121.496094 148.007812 117.085938 C 148.007812 114.46875 148.15625 113.644531 148.589844 113.644531 C 149.023438 113.644531 149.09375 114.316406 149.023438 116.785156 Z M 199.035156 127.925781 C 199.035156 130.617188 198.890625 131.589844 198.601562 131.4375 C 198.09375 131.066406 197.769531 126.878906 198.09375 125.160156 C 198.527344 122.839844 199.035156 124.335938 199.035156 127.925781 Z M 148.914062 128.449219 C 148.914062 132.859375 148.226562 132.710938 148.082031 128.300781 C 148.007812 125.609375 148.082031 124.785156 148.445312 125.007812 C 148.734375 125.234375 148.914062 126.578125 148.914062 128.449219 Z M 149.023438 140.261719 C 148.949219 141.90625 148.769531 143.175781 148.550781 143.175781 C 148.117188 143.175781 147.863281 138.691406 148.191406 136.972656 C 148.550781 134.878906 149.167969 137.195312 149.023438 140.261719 Z M 199.214844 139.515625 C 199.214844 141.609375 199.070312 142.429688 198.671875 142.429688 C 198.09375 142.429688 197.730469 139.066406 198.09375 137.046875 C 198.492188 134.953125 199.214844 136.523438 199.214844 139.515625 Z M 199.398438 151.101562 C 199.398438 153.195312 199.253906 154.019531 198.855469 154.019531 C 198.457031 154.019531 198.3125 153.195312 198.3125 151.175781 C 198.3125 149.609375 198.417969 148.039062 198.527344 147.8125 C 199.035156 146.839844 199.398438 148.261719 199.398438 151.101562 Z M 149.3125 150.730469 C 149.566406 153.496094 149.09375 155.363281 148.40625 154.46875 C 148.191406 154.167969 148.007812 152.597656 148.007812 150.953125 C 148.007812 147.140625 148.949219 146.914062 149.3125 150.730469 Z M 149.386719 162.839844 C 149.457031 165.308594 149.386719 165.980469 148.949219 165.980469 C 148.515625 165.980469 148.371094 165.160156 148.371094 162.542969 C 148.371094 158.128906 149.238281 158.429688 149.386719 162.839844 Z M 199.324219 162.390625 C 199.253906 164.1875 199.070312 165.609375 198.855469 165.609375 C 198.671875 165.609375 198.457031 164.1875 198.382812 162.390625 C 198.273438 159.925781 198.382812 159.253906 198.855469 159.253906 C 199.324219 159.253906 199.433594 159.925781 199.324219 162.390625 Z M 125.140625 164.859375 C 125.03125 165.085938 124.8125 164.710938 124.703125 163.960938 C 124.488281 162.914062 124.523438 162.839844 124.886719 163.515625 C 125.140625 164.039062 125.246094 164.636719 125.140625 164.859375 Z M 149.386719 174.652344 C 149.3125 176.300781 149.132812 177.570312 148.914062 177.570312 C 148.480469 177.570312 148.226562 173.085938 148.550781 171.363281 C 148.914062 169.269531 149.53125 171.589844 149.386719 174.652344 Z M 199.398438 173.90625 C 199.398438 176.300781 199.253906 177.195312 198.960938 177.046875 C 198.457031 176.671875 198.128906 173.234375 198.457031 171.515625 C 198.855469 169.269531 199.398438 170.617188 199.398438 173.90625 Z M 199.613281 183.476562 C 199.902344 185.871094 199.6875 187.8125 199.144531 188.261719 C 198.816406 188.410156 198.671875 187.515625 198.671875 185.121094 C 198.671875 181.457031 199.253906 180.484375 199.613281 183.476562 Z M 149.457031 185.871094 C 149.457031 190.28125 148.589844 189.980469 148.445312 185.570312 C 148.371094 183.101562 148.445312 182.429688 148.878906 182.429688 C 149.3125 182.429688 149.457031 183.253906 149.457031 185.871094 Z M 223.390625 192.671875 C 223.136719 192.824219 222.703125 192.824219 222.484375 192.671875 C 222.230469 192.449219 222.414062 192.300781 222.917969 192.300781 C 223.425781 192.300781 223.605469 192.449219 223.390625 192.671875 Z M 149.457031 194.765625 C 149.457031 195.289062 149.710938 196.113281 150.035156 196.484375 C 150.796875 197.308594 150.398438 198.878906 149.457031 198.878906 C 148.695312 198.878906 148.117188 195.886719 148.550781 194.46875 C 148.878906 193.269531 149.457031 193.496094 149.457031 194.765625 Z M 199.757812 195.140625 C 199.757812 196.335938 199.503906 196.636719 198.492188 196.636719 C 197.042969 196.636719 196.828125 195.4375 198.058594 194.390625 C 199.324219 193.347656 199.757812 193.496094 199.757812 195.140625 Z M 178.046875 196.636719 C 178.046875 197.90625 177.792969 198.128906 176.632812 198.128906 C 175.839844 198.128906 175.078125 197.757812 174.96875 197.382812 C 174.570312 195.960938 175.1875 195.140625 176.632812 195.140625 C 177.792969 195.140625 178.046875 195.363281 178.046875 196.636719 Z M 183.65625 196.261719 C 183.65625 196.636719 182.96875 197.085938 182.136719 197.234375 C 180.90625 197.457031 180.578125 197.234375 180.578125 196.261719 C 180.578125 195.289062 180.90625 195.066406 182.136719 195.289062 C 182.96875 195.4375 183.65625 195.8125 183.65625 196.261719 Z M 189.191406 196.039062 C 189.082031 196.5625 188.359375 197.085938 187.527344 197.234375 C 186.332031 197.382812 186.007812 197.234375 186.007812 196.335938 C 186.007812 195.4375 186.40625 195.140625 187.671875 195.140625 C 188.828125 195.140625 189.265625 195.4375 189.191406 196.039062 Z M 194.621094 196.039062 C 194.511719 196.636719 193.859375 197.007812 193.0625 197.007812 C 192.269531 197.007812 191.617188 196.636719 191.542969 196.039062 C 191.433594 195.4375 191.871094 195.140625 193.0625 195.140625 C 194.257812 195.140625 194.691406 195.4375 194.621094 196.039062 Z M 222.558594 195.886719 C 222.847656 196.261719 222.957031 196.636719 222.738281 196.636719 C 222.558594 196.636719 222.121094 196.261719 221.832031 195.886719 C 221.542969 195.515625 221.472656 195.140625 221.652344 195.140625 C 221.871094 195.140625 222.269531 195.515625 222.558594 195.886719 Z M 155.863281 197.160156 C 156.042969 198.128906 153.726562 199.328125 153.113281 198.503906 C 152.425781 197.683594 152.679688 196.710938 153.726562 196.410156 C 155.140625 195.960938 155.71875 196.113281 155.863281 197.160156 Z M 161.582031 197.007812 C 161.582031 197.382812 160.894531 197.832031 160.058594 197.980469 C 158.828125 198.207031 158.503906 197.980469 158.503906 197.007812 C 158.503906 196.039062 158.828125 195.8125 160.058594 196.039062 C 160.894531 196.1875 161.582031 196.5625 161.582031 197.007812 Z M 167.1875 197.007812 C 167.1875 197.832031 166.753906 198.128906 165.5625 198.128906 C 164.367188 198.128906 163.933594 197.832031 163.933594 197.007812 C 163.933594 196.1875 164.367188 195.886719 165.5625 195.886719 C 166.753906 195.886719 167.1875 196.1875 167.1875 197.007812 Z M 172.617188 197.085938 C 172.617188 197.980469 172.292969 198.128906 171.097656 197.980469 C 168.960938 197.683594 168.816406 195.886719 170.953125 195.886719 C 172.21875 195.886719 172.617188 196.1875 172.617188 197.085938 Z M 223.460938 201.871094 C 223.351562 202.242188 223.027344 202.617188 222.8125 202.617188 C 222.558594 202.617188 222.59375 202.316406 222.917969 201.871094 C 223.605469 200.972656 223.75 200.972656 223.460938 201.871094 Z M 222.339844 221.757812 C 222.449219 222.355469 222.414062 222.652344 222.195312 222.429688 C 221.976562 222.207031 221.832031 221.683594 221.832031 221.234375 C 221.832031 220.1875 222.085938 220.410156 222.339844 221.757812 Z M 132.375 234.019531 C 132.050781 235.066406 131.871094 235.214844 131.652344 234.542969 C 131.433594 233.792969 131.832031 233.046875 132.738281 232.597656 C 132.773438 232.523438 132.628906 233.195312 132.375 234.019531 Z M 134.621094 235.289062 C 134.222656 236.5625 134.222656 236.5625 134.4375 235.214844 C 134.65625 233.71875 134.65625 233.71875 133.859375 235.214844 C 133.0625 236.636719 133.0625 236.636719 133.460938 234.992188 C 133.933594 233.269531 134.730469 232.375 134.910156 233.347656 C 134.980469 233.71875 134.835938 234.542969 134.621094 235.289062 Z M 214.304688 303.925781 C 214.414062 304.898438 214.34375 305.570312 214.199219 305.347656 C 213.871094 304.972656 213.726562 302.054688 214.015625 302.054688 C 214.089844 302.054688 214.234375 302.878906 214.304688 303.925781 Z M 139.796875 304.746094 C 139.757812 306.242188 138.671875 312.449219 138.601562 311.777344 C 138.273438 309.085938 138.273438 306.691406 138.636719 304.898438 C 139.105469 302.578125 139.902344 302.429688 139.796875 304.746094 Z M 141.351562 305.121094 C 141.460938 305.570312 141.386719 306.242188 141.132812 306.542969 C 140.878906 306.839844 140.773438 307.664062 140.878906 308.335938 C 140.988281 308.933594 140.988281 309.609375 140.808594 309.832031 C 140.664062 310.054688 140.519531 308.859375 140.484375 307.214844 C 140.375 304.449219 140.808594 303.402344 141.351562 305.121094 Z M 140.085938 311.550781 C 140.554688 312.746094 140.519531 312.824219 139.976562 311.851562 C 139.613281 311.328125 139.324219 310.730469 139.324219 310.578125 C 139.324219 309.980469 139.613281 310.355469 140.085938 311.550781 Z M 212.570312 317.457031 C 212.679688 318.054688 212.640625 318.355469 212.425781 318.128906 C 212.207031 317.90625 212.0625 317.382812 212.0625 316.933594 C 212.0625 315.886719 212.316406 316.113281 212.570312 317.457031 Z M 212.570312 317.457031 "/>
<path style=" stroke:none;fill-rule:nonzero;fill:rgb(0%,0%,0%);fill-opacity:1;" d="M 111.207031 151.027344 C 111.207031 153.71875 111.277344 154.765625 111.351562 153.421875 C 111.421875 152.148438 111.421875 149.90625 111.351562 148.5625 C 111.277344 147.289062 111.207031 148.335938 111.207031 151.027344 Z M 111.207031 151.027344 "/>
<path style=" stroke:none;fill-rule:nonzero;fill:rgb(0%,0%,0%);fill-opacity:1;" d="M 136.25 154.019531 C 135.742188 154.46875 135.707031 154.691406 136.066406 154.765625 C 136.464844 154.765625 136.394531 155.066406 135.851562 155.738281 C 135.378906 156.261719 135.125 157.308594 135.164062 158.28125 C 135.199219 159.175781 135.089844 159.777344 134.945312 159.550781 C 134.765625 159.328125 134.546875 160.148438 134.402344 161.269531 C 134.257812 162.390625 133.894531 164.335938 133.570312 165.609375 C 133.28125 166.804688 132.992188 168.375 132.957031 168.972656 C 132.957031 169.570312 132.8125 170.839844 132.664062 171.738281 C 132.414062 173.457031 132.957031 174.804688 133.390625 173.382812 C 133.570312 172.785156 133.5 172.710938 133.171875 173.085938 C 132.847656 173.457031 132.773438 173.382812 132.957031 172.785156 C 133.351562 171.515625 133.894531 172.5625 133.644531 174.054688 C 133.460938 175.101562 133.535156 175.101562 134.257812 173.832031 C 135.886719 170.992188 136.355469 169.871094 136.175781 169.421875 C 136.03125 169.195312 136.140625 168.972656 136.355469 168.972656 C 136.609375 168.972656 136.792969 168.671875 136.792969 168.300781 C 136.792969 167.925781 136.972656 166.652344 137.226562 165.457031 C 137.625 163.363281 137.625 160.300781 137.226562 158.878906 C 136.863281 157.683594 136.9375 154.46875 137.335938 153.871094 C 137.839844 153.121094 137.1875 153.195312 136.25 154.019531 Z M 136.25 154.019531 "/>
<path style=" stroke:none;fill-rule:nonzero;fill:rgb(0%,0%,0%);fill-opacity:1;" d="M 6.695312 169.496094 C 6.585938 171.066406 6.40625 173.234375 6.332031 174.355469 C 6.078125 177.570312 6.804688 211.214844 7.273438 217.945312 C 7.816406 225.792969 8.757812 234.316406 10.496094 246.730469 C 12.703125 262.503906 13.027344 265.421875 13.390625 271.699219 C 13.644531 275.738281 14.113281 279.175781 14.875 282.542969 C 16.105469 287.777344 18.382812 303.550781 18.527344 307.664062 C 18.566406 309.085938 18.671875 310.128906 18.78125 310.054688 C 19.144531 309.832031 21.351562 312.824219 21.351562 313.421875 C 21.351562 313.71875 21.605469 314.019531 21.894531 314.019531 C 22.796875 314.019531 22.507812 312.898438 21.386719 312.074219 C 20.300781 311.175781 19.179688 307.515625 18.960938 304.074219 C 18.816406 302.054688 18.855469 302.054688 19.46875 303.253906 C 19.796875 303.925781 20.484375 306.019531 20.988281 307.886719 C 22.253906 312.597656 23.484375 314.316406 25.007812 313.644531 L 26.164062 313.121094 L 24.96875 312 C 24.28125 311.476562 23.523438 311.175781 23.269531 311.328125 C 22.796875 311.699219 21.785156 309.160156 21.0625 305.644531 C 20.699219 303.925781 20.734375 303.550781 21.171875 303.550781 C 21.460938 303.550781 21.714844 303.851562 21.714844 304.148438 C 21.714844 304.523438 22.183594 305.496094 22.761719 306.390625 C 23.777344 307.886719 23.8125 307.886719 23.632812 306.542969 C 23.523438 305.71875 23.304688 305.195312 23.160156 305.421875 C 23.015625 305.644531 22.652344 305.195312 22.402344 304.523438 C 21.929688 303.402344 22.003906 303.328125 22.796875 303.777344 L 23.703125 304.222656 L 22.796875 302.953125 C 22.292969 302.28125 20.878906 299.515625 19.613281 296.824219 C 17.804688 292.933594 17.226562 291.140625 16.753906 287.625 C 16.429688 285.308594 16.03125 283.363281 15.886719 283.363281 C 15.632812 283.363281 15.019531 279.625 15.164062 278.578125 C 15.199219 278.28125 15.054688 277.53125 14.835938 277.007812 C 14.332031 275.8125 14.003906 270.652344 14.4375 270.652344 C 14.621094 270.652344 14.835938 269.980469 14.945312 269.160156 C 15.054688 268.335938 14.980469 267.664062 14.800781 267.664062 C 14.621094 267.664062 14.476562 268.039062 14.476562 268.5625 C 14.476562 269.007812 14.367188 269.234375 14.257812 268.933594 C 14.113281 268.710938 14.4375 267.4375 14.980469 266.167969 C 15.488281 264.898438 15.921875 264.222656 15.921875 264.746094 C 15.921875 265.269531 16.03125 265.496094 16.140625 265.195312 C 16.285156 264.972656 16.25 264.148438 16.140625 263.402344 C 15.921875 262.28125 15.777344 262.429688 15.019531 264.300781 C 14.546875 265.570312 14.148438 266.09375 14.113281 265.570312 C 14.113281 265.121094 14.292969 264.671875 14.476562 264.671875 C 14.691406 264.671875 14.835938 264.222656 14.800781 263.699219 C 14.691406 261.757812 14.875 260.859375 15.308594 261.308594 C 15.523438 261.609375 15.417969 261.234375 15.054688 260.636719 C 14.65625 259.960938 14.546875 259.4375 14.765625 259.4375 C 15.019531 259.4375 15.199219 258.542969 15.164062 257.347656 C 15.164062 255.550781 15.125 255.476562 14.835938 256.824219 C 14.582031 258.09375 14.511719 258.09375 14.511719 256.972656 C 14.476562 256.300781 14.511719 255.625 14.546875 255.476562 C 14.582031 255.402344 14.402344 254.578125 14.148438 253.609375 C 13.894531 252.5625 13.859375 251.960938 14.078125 251.960938 C 14.476562 251.960938 13.460938 246.730469 12.917969 245.90625 C 12.773438 245.683594 12.664062 245.007812 12.738281 244.410156 C 12.8125 243.8125 12.628906 243.4375 12.375 243.589844 C 12.085938 243.664062 11.976562 243.4375 12.121094 242.992188 C 12.230469 242.542969 12.484375 242.390625 12.628906 242.542969 C 12.773438 242.765625 12.917969 242.46875 12.917969 241.871094 C 12.917969 241.269531 12.59375 240.523438 12.195312 240.300781 C 11.617188 239.925781 11.582031 239.699219 11.976562 239.175781 C 12.339844 238.730469 12.269531 238.503906 11.6875 238.503906 C 10.785156 238.503906 10.601562 237.457031 11.289062 236.5625 C 11.542969 236.261719 11.582031 236.335938 11.433594 236.859375 C 11.289062 237.382812 11.398438 237.757812 11.761719 237.757812 C 12.085938 237.757812 12.230469 237.382812 12.121094 237.007812 C 12.015625 236.5625 12.085938 236.261719 12.304688 236.261719 C 12.519531 236.261719 12.59375 235.886719 12.484375 235.515625 C 12.339844 235.066406 12.121094 234.914062 11.976562 235.066406 C 11.832031 235.289062 11.507812 235.140625 11.21875 234.691406 C 10.785156 234.167969 10.785156 234.019531 11.363281 234.019531 C 11.796875 234.019531 11.941406 233.644531 11.832031 232.972656 C 11.726562 232.375 11.796875 231.699219 12.050781 231.476562 C 12.375 231.253906 12.339844 231.101562 12.015625 231.101562 C 11.761719 231.027344 11.472656 231.550781 11.363281 232.148438 C 11.21875 232.746094 11.039062 233.269531 10.894531 233.269531 C 10.386719 233.269531 10.566406 230.652344 11.183594 229.160156 C 11.761719 227.664062 11.761719 227.664062 11 228.933594 C 10.601562 229.683594 10.132812 230.28125 9.988281 230.28125 C 9.625 230.28125 10.132812 227.066406 10.566406 226.46875 C 10.820312 226.167969 10.785156 225.792969 10.566406 225.496094 C 10.351562 225.195312 10.242188 224.523438 10.386719 223.925781 C 10.496094 223.253906 10.351562 222.804688 10.097656 222.804688 C 9.664062 222.804688 9.664062 222.652344 10.097656 222.128906 C 10.457031 221.609375 10.457031 221.382812 10.132812 220.933594 C 9.878906 220.636719 9.554688 220.859375 9.371094 221.382812 C 9.15625 222.054688 9.046875 222.128906 9.046875 221.53125 C 9.046875 221.085938 9.191406 220.484375 9.410156 220.1875 C 9.589844 219.960938 9.625 219.066406 9.445312 218.09375 C 9.300781 217.195312 9.226562 216.074219 9.300781 215.550781 C 9.371094 215.101562 9.15625 214.578125 8.792969 214.355469 C 8.179688 214.054688 8.179688 213.980469 8.828125 213.90625 C 9.371094 213.832031 9.410156 213.609375 9.046875 212.710938 C 8.683594 211.738281 8.722656 211.589844 9.445312 211.515625 L 10.3125 211.4375 L 9.410156 210.914062 C 8.683594 210.46875 8.433594 209.644531 8.105469 206.503906 C 7.851562 204.335938 7.816406 202.46875 7.960938 202.242188 C 8.105469 202.09375 8.140625 201.046875 8.035156 199.925781 C 7.925781 198.730469 8.070312 197.683594 8.359375 197.234375 C 8.757812 196.636719 8.757812 196.5625 8.324219 196.859375 C 7.851562 197.160156 7.746094 196.484375 7.707031 193.347656 C 7.671875 191.253906 7.5625 188.335938 7.382812 186.914062 C 7.019531 183.253906 6.984375 169.644531 7.382812 168 C 7.5625 167.175781 7.527344 166.730469 7.308594 166.730469 C 7.09375 166.730469 6.804688 168 6.695312 169.496094 Z M 13.0625 249.945312 C 12.703125 250.617188 12.664062 250.542969 12.882812 249.496094 C 12.992188 248.746094 13.207031 248.375 13.316406 248.597656 C 13.425781 248.824219 13.316406 249.421875 13.0625 249.945312 Z M 18.457031 296.449219 C 18.457031 296.824219 18.273438 296.671875 18.09375 296.074219 C 17.914062 295.476562 17.730469 294.578125 17.730469 294.207031 C 17.730469 293.757812 17.914062 293.980469 18.09375 294.578125 C 18.273438 295.175781 18.457031 296 18.457031 296.449219 Z M 20.300781 299.515625 L 21.53125 302.207031 L 20.265625 300.933594 C 18.925781 299.515625 18.382812 298.390625 18.671875 297.421875 C 18.925781 296.597656 18.890625 296.523438 20.300781 299.515625 Z M 24.066406 312.523438 C 24.171875 312.898438 24.136719 313.269531 23.921875 313.269531 C 23.738281 313.269531 23.449219 312.898438 23.339844 312.523438 C 23.234375 312.074219 23.269531 311.777344 23.484375 311.777344 C 23.667969 311.777344 23.957031 312.074219 24.066406 312.523438 Z M 24.066406 312.523438 "/>
<path style=" stroke:none;fill-rule:nonzero;fill:rgb(0%,0%,0%);fill-opacity:1;" d="M 109.179688 177.269531 C 109.433594 177.792969 109.722656 178.019531 109.832031 177.792969 C 109.941406 177.570312 109.757812 177.121094 109.398438 176.898438 C 108.890625 176.449219 108.855469 176.523438 109.179688 177.269531 Z M 109.179688 177.269531 "/>
<path style=" stroke:none;fill-rule:nonzero;fill:rgb(0%,0%,0%);fill-opacity:1;" d="M 109.503906 181.980469 C 109.722656 183.175781 110.734375 184.222656 110.734375 183.328125 C 110.734375 182.578125 109.941406 180.933594 109.578125 180.933594 C 109.433594 180.933594 109.398438 181.382812 109.503906 181.980469 Z M 109.503906 181.980469 "/>
<path style=" stroke:none;fill-rule:nonzero;fill:rgb(0%,0%,0%);fill-opacity:1;" d="M 109.289062 187.289062 C 109.289062 188.484375 109.867188 188.785156 110.15625 187.738281 C 110.265625 187.363281 110.121094 186.914062 109.832031 186.617188 C 109.503906 186.390625 109.289062 186.617188 109.289062 187.289062 Z M 109.289062 187.289062 "/>
<path style=" stroke:none;fill-rule:nonzero;fill:rgb(0%,0%,0%);fill-opacity:1;" d="M 135.742188 195.664062 C 135.488281 198.878906 135.019531 203.140625 134.691406 205.234375 C 134.367188 207.253906 134.113281 209.195312 134.078125 209.421875 C 134.078125 210.390625 132.160156 214.730469 131.832031 214.503906 C 131.6875 214.429688 131.472656 214.953125 131.398438 215.699219 C 131.328125 216.746094 131.652344 216.449219 132.773438 214.503906 C 134.078125 212.261719 134.332031 211.363281 134.222656 209.570312 C 134.222656 209.347656 134.4375 208.824219 134.765625 208.449219 C 135.089844 208.074219 135.34375 207.101562 135.34375 206.28125 C 135.34375 205.457031 135.488281 204.933594 135.632812 205.160156 C 135.777344 205.308594 135.851562 204.335938 135.777344 202.839844 C 135.667969 200.972656 135.742188 200.300781 136.03125 200.671875 C 136.320312 201.046875 136.429688 199.851562 136.429688 196.710938 C 136.429688 194.242188 136.609375 192 136.792969 191.777344 C 137.296875 191.101562 137.226562 189.90625 136.683594 189.90625 C 136.355469 189.90625 136.066406 191.925781 135.742188 195.664062 Z M 135.742188 195.664062 "/>
<path style=" stroke:none;fill-rule:nonzero;fill:rgb(0%,0%,0%);fill-opacity:1;" d="M 111.929688 194.765625 C 111.929688 196.410156 112.003906 197.007812 112.074219 196.039062 C 112.148438 195.140625 112.148438 193.792969 112.074219 193.046875 C 111.964844 192.375 111.894531 193.121094 111.929688 194.765625 Z M 111.929688 194.765625 "/>
<path style=" stroke:none;fill-rule:nonzero;fill:rgb(0%,0%,0%);fill-opacity:1;" d="M 111.566406 203.738281 C 111.566406 205.757812 111.640625 206.578125 111.714844 205.382812 C 111.785156 204.261719 111.785156 202.617188 111.714844 201.644531 C 111.640625 200.746094 111.566406 201.644531 111.566406 203.738281 Z M 111.566406 203.738281 "/>
<path style=" stroke:none;fill-rule:nonzero;fill:rgb(0%,0%,0%);fill-opacity:1;" d="M 221.289062 203.363281 C 221.398438 203.738281 221.582031 204.113281 221.6875 204.113281 C 221.761719 204.113281 221.832031 203.738281 221.832031 203.363281 C 221.832031 202.914062 221.652344 202.617188 221.433594 202.617188 C 221.253906 202.617188 221.183594 202.914062 221.289062 203.363281 Z M 221.289062 203.363281 "/>
<path style=" stroke:none;fill-rule:nonzero;fill:rgb(0%,0%,0%);fill-opacity:1;" d="M 223.136719 206.28125 C 223.027344 206.652344 223.171875 207.101562 223.460938 207.402344 C 223.75 207.625 224.003906 207.476562 224.003906 207.101562 C 224.003906 206.128906 223.351562 205.457031 223.136719 206.28125 Z M 223.136719 206.28125 "/>
<path style=" stroke:none;fill-rule:nonzero;fill:rgb(0%,0%,0%);fill-opacity:1;" d="M 136.972656 207.925781 C 136.828125 208.375 136.792969 208.824219 136.898438 209.046875 C 136.972656 209.269531 137.152344 208.898438 137.261719 208.222656 C 137.515625 206.953125 137.296875 206.730469 136.972656 207.925781 Z M 136.972656 207.925781 "/>
<path style=" stroke:none;fill-rule:nonzero;fill:rgb(0%,0%,0%);fill-opacity:1;" d="M 111.097656 209.046875 C 111.097656 209.71875 110.917969 209.945312 110.664062 209.644531 C 110.300781 209.195312 110.300781 209.269531 110.628906 210.167969 C 110.84375 210.765625 111.097656 212.1875 111.207031 213.457031 C 111.277344 214.878906 111.386719 214.28125 111.421875 211.738281 C 111.421875 209.644531 111.386719 207.851562 111.277344 207.851562 C 111.171875 207.851562 111.097656 208.375 111.097656 209.046875 Z M 111.097656 209.046875 "/>
<path style=" stroke:none;fill-rule:nonzero;fill:rgb(0%,0%,0%);fill-opacity:1;" d="M 129.878906 221.90625 C 130.277344 222.503906 130.277344 222.652344 129.878906 222.953125 C 129.554688 223.175781 129.589844 223.402344 130.058594 223.777344 C 130.53125 224.148438 130.675781 224 130.566406 223.027344 C 130.496094 222.355469 130.203125 221.683594 129.914062 221.53125 C 129.480469 221.234375 129.480469 221.308594 129.878906 221.90625 Z M 129.878906 221.90625 "/>
<path style=" stroke:none;fill-rule:nonzero;fill:rgb(0%,0%,0%);fill-opacity:1;" d="M 134.765625 223.925781 C 134.367188 224.523438 134.257812 224.972656 134.546875 225.046875 C 134.765625 225.046875 134.980469 225.570312 134.980469 226.242188 C 134.980469 226.839844 134.835938 227.214844 134.65625 226.914062 C 134.476562 226.691406 134.1875 226.914062 134.039062 227.363281 C 133.894531 227.960938 133.933594 228.039062 134.1875 227.738281 C 134.765625 226.992188 134.730469 228.261719 134.1875 229.457031 C 133.789062 230.207031 133.824219 230.28125 134.257812 229.90625 C 134.910156 229.457031 136.140625 223.699219 135.742188 223.175781 C 135.5625 223.027344 135.125 223.328125 134.765625 223.925781 Z M 134.765625 223.925781 "/>
<path style=" stroke:none;fill-rule:nonzero;fill:rgb(0%,0%,0%);fill-opacity:1;" d="M 213.546875 226.992188 C 213.546875 227.8125 213.65625 228.039062 213.761719 227.4375 C 213.871094 226.914062 213.835938 226.242188 213.726562 226.019531 C 213.617188 225.71875 213.511719 226.167969 213.546875 226.992188 Z M 213.546875 226.992188 "/>
<path style=" stroke:none;fill-rule:nonzero;fill:rgb(0%,0%,0%);fill-opacity:1;" d="M 215.355469 248.671875 C 215.355469 249.496094 215.464844 249.71875 215.574219 249.121094 C 215.679688 248.597656 215.644531 247.925781 215.535156 247.699219 C 215.429688 247.402344 215.320312 247.851562 215.355469 248.671875 Z M 215.355469 248.671875 "/>
<path style=" stroke:none;fill-rule:nonzero;fill:rgb(0%,0%,0%);fill-opacity:1;" d="M 19.179688 251.214844 C 19.179688 251.589844 19.359375 251.960938 19.578125 251.960938 C 19.757812 251.960938 19.832031 251.589844 19.722656 251.214844 C 19.613281 250.765625 19.433594 250.46875 19.324219 250.46875 C 19.253906 250.46875 19.179688 250.765625 19.179688 251.214844 Z M 19.179688 251.214844 "/>
<path style=" stroke:none;fill-rule:nonzero;fill:rgb(0%,0%,0%);fill-opacity:1;" d="M 15.960938 274.914062 C 15.960938 276.113281 16.105469 277.683594 16.285156 278.503906 C 16.5 279.625 16.609375 279.101562 16.609375 276.410156 C 16.648438 274.46875 16.5 272.898438 16.285156 272.898438 C 16.105469 272.898438 15.921875 273.792969 15.960938 274.914062 Z M 15.960938 274.914062 "/>
<path style=" stroke:none;fill-rule:nonzero;fill:rgb(0%,0%,0%);fill-opacity:1;" d="M 134.730469 289.347656 C 134.730469 291.589844 134.800781 292.5625 134.875 291.363281 C 134.945312 290.242188 134.945312 288.449219 134.875 287.253906 C 134.800781 286.128906 134.730469 287.101562 134.730469 289.347656 Z M 134.730469 289.347656 "/>
<path style=" stroke:none;fill-rule:nonzero;fill:rgb(0%,0%,0%);fill-opacity:1;" d="M 134.511719 307.289062 C 134.621094 313.644531 134.835938 319.175781 135.054688 319.625 C 135.269531 320.148438 135.308594 319.699219 135.164062 318.28125 C 134.980469 316.933594 135.054688 316.261719 135.34375 316.261719 C 135.707031 316.261719 135.707031 316.039062 135.34375 315.140625 C 135.089844 314.46875 134.980469 313.792969 135.089844 313.570312 C 135.453125 312.824219 136.5 317.007812 136.320312 318.503906 C 136.210938 319.328125 136.285156 320 136.464844 320 C 136.648438 320 136.792969 319.253906 136.828125 318.28125 C 136.828125 317.382812 136.9375 314.242188 137.042969 311.402344 C 137.40625 302.503906 137.371094 298.839844 136.9375 298.542969 C 136.683594 298.390625 136.539062 298.839844 136.574219 299.515625 C 136.574219 300.261719 136.210938 301.308594 135.707031 301.832031 L 134.800781 302.804688 L 135.667969 302.804688 C 136.285156 302.804688 136.464844 303.101562 136.285156 304 C 136.175781 304.671875 136.066406 305.347656 136.066406 305.496094 C 136.066406 305.644531 135.742188 305.792969 135.34375 305.792969 C 134.730469 305.792969 134.621094 305.121094 134.511719 300.710938 C 134.4375 297.945312 134.4375 300.933594 134.511719 307.289062 Z M 135.851562 306.992188 C 136.609375 307.589844 136.574219 309.457031 135.851562 310.054688 C 135.308594 310.503906 135.308594 310.652344 135.921875 311.550781 C 136.539062 312.449219 136.539062 312.523438 135.851562 312.523438 C 135.417969 312.523438 135.089844 312.074219 135.089844 311.550781 C 135.089844 311.027344 134.980469 309.683594 134.835938 308.5625 C 134.621094 306.542969 134.800781 306.167969 135.851562 306.992188 Z M 135.851562 306.992188 "/>
<path style=" stroke:none;fill-rule:nonzero;fill:rgb(0%,0%,0%);fill-opacity:1;" d="M 23.882812 304.597656 C 23.882812 304.746094 24.171875 305.347656 24.535156 305.871094 C 25.078125 306.839844 25.113281 306.765625 24.644531 305.570312 C 24.171875 304.375 23.882812 304 23.882812 304.597656 Z M 23.882812 304.597656 "/>
<path style=" stroke:none;fill-rule:nonzero;fill:rgb(0%,0%,0%);fill-opacity:1;" d="M 40.496094 307.066406 C 40.023438 308.335938 40.023438 308.335938 40.710938 307.289062 C 41.109375 306.691406 41.507812 306.09375 41.582031 306.019531 C 41.652344 305.871094 41.582031 305.792969 41.363281 305.792969 C 41.144531 305.792969 40.746094 306.390625 40.496094 307.066406 Z M 40.496094 307.066406 "/>
<path style=" stroke:none;fill-rule:nonzero;fill:rgb(0%,0%,0%);fill-opacity:1;" d="M 96.332031 318.128906 C 96.332031 319.402344 96.40625 319.777344 96.515625 319.027344 C 96.585938 318.355469 96.585938 317.308594 96.515625 316.785156 C 96.40625 316.335938 96.332031 316.859375 96.332031 318.128906 Z M 96.332031 318.128906 "/>
</g>
</svg>
