<?xml version="1.0" encoding="UTF-8"?>
<svg xmlns="http://www.w3.org/2000/svg" xmlns:xlink="http://www.w3.org/1999/xlink" width="240px" height="320px" viewBox="0 0 240 320" version="1.1">
<g id="surface1">
<path style=" stroke:none;fill-rule:nonzero;fill:rgb(0%,0%,0%);fill-opacity:1;" d="M 54.289062 1.605469 C 54.289062 2.546875 54.574219 6.226562 54.910156 9.90625 C 55.246094 13.492188 55.441406 16.886719 55.34375 17.265625 C 55.199219 17.734375 53.664062 19.433594 51.9375 21.132812 C 50.160156 22.925781 47.855469 25.1875 46.800781 26.320312 C 45.742188 27.453125 43.054688 30 40.800781 32.074219 C 38.542969 34.054688 34.753906 38.300781 32.304688 41.414062 C 29.855469 44.527344 27.3125 47.359375 26.640625 47.734375 C 24.191406 48.960938 21.121094 58.300781 18.574219 72.167969 C 17.183594 79.8125 16.945312 82.546875 16.320312 96.792969 C 15.886719 106.792969 14.113281 123.394531 12.71875 129.71875 C 12.382812 131.414062 11.953125 134.433594 11.808594 136.414062 L 11.472656 140.09375 L 14.257812 142.640625 C 16.320312 144.433594 26.734375 149.054688 28.894531 149.054688 C 29.328125 149.054688 29.183594 200.660156 28.753906 207.074219 C 28.273438 214.054688 27.886719 216.226562 26.0625 222.640625 C 25.679688 223.960938 25.152344 226.132812 24.910156 227.546875 C 24.238281 230.847656 22.753906 230.753906 22.800781 227.453125 C 22.800781 225.847656 22.558594 225.09375 22.128906 225.28125 C 21.695312 225.472656 21.601562 225 21.792969 224.054688 C 22.175781 222.074219 20.832031 216.980469 19.921875 216.980469 C 19.585938 216.980469 19.105469 216.507812 18.910156 215.847656 C 18.71875 215.1875 18.769531 215.09375 19.105469 215.472656 C 19.96875 216.507812 19.824219 212.359375 18.960938 210.660156 C 18.527344 209.90625 18.335938 208.492188 18.480469 207.546875 C 18.625 206.605469 18.527344 205.566406 18.238281 205.1875 C 17.089844 203.773438 17.808594 211.699219 20.785156 233.867188 C 21.839844 241.507812 22.414062 247.546875 22.222656 249.152344 C 21.886719 252.734375 22.320312 255.945312 23.710938 259.152344 C 24.480469 260.945312 25.007812 264.054688 25.390625 268.585938 C 26.0625 276.414062 28.511719 285.09375 30.335938 285.945312 C 32.0625 286.699219 33.695312 285.847656 33.40625 284.246094 C 33.214844 283.492188 33.265625 282.453125 33.40625 281.886719 C 33.9375 280.28125 34.558594 283.207031 34.558594 287.074219 C 34.558594 294.339844 36.910156 301.226562 40.558594 304.90625 C 44.542969 308.960938 46.753906 309.527344 62.832031 310.378906 C 78.238281 311.226562 85.96875 310.660156 90 308.394531 C 96.625 304.71875 104.6875 290.472656 106.128906 279.90625 C 107.089844 273.019531 107.089844 272.925781 107.566406 275.28125 C 107.808594 276.507812 108.191406 277.167969 108.480469 276.886719 C 109.199219 276.039062 109.054688 279.339844 108.289062 281.039062 C 107.953125 281.886719 107.519531 284.246094 107.328125 286.320312 C 107.039062 289.71875 107.089844 289.90625 107.710938 288.394531 C 108.289062 286.980469 108.574219 286.886719 109.390625 287.734375 C 110.542969 288.960938 110.734375 290.566406 109.679688 290.566406 C 109.296875 290.566406 108.960938 291.039062 108.960938 291.507812 C 108.960938 292.167969 109.246094 292.167969 109.871094 291.605469 C 110.351562 291.039062 110.878906 290.945312 111.070312 291.226562 C 111.214844 291.507812 111.359375 297.167969 111.359375 303.679688 C 111.359375 316.886719 111.839844 319.8125 114.097656 319.8125 C 115.054688 319.8125 115.246094 319.527344 114.960938 318.113281 C 114.769531 317.265625 114.527344 315.660156 114.433594 314.621094 C 114.335938 313.585938 114.144531 311.132812 114 309.152344 C 113.855469 307.167969 113.566406 305.847656 113.328125 306.039062 C 113.136719 306.320312 112.945312 303.492188 112.894531 299.90625 C 112.800781 294.90625 112.894531 293.394531 113.328125 293.960938 C 113.761719 294.433594 113.808594 294.152344 113.617188 293.019531 C 113.425781 292.074219 113.28125 290.945312 113.28125 290.472656 C 113.28125 289.90625 113.089844 289.71875 112.847656 290 C 112.609375 290.378906 112.414062 288.300781 112.414062 285.28125 C 112.414062 281.980469 112.609375 280.472656 112.847656 281.320312 C 113.136719 282.167969 113.28125 281.605469 113.28125 279.71875 C 113.28125 277.546875 113.136719 277.167969 112.800781 278.300781 C 112.464844 279.339844 112.320312 279.054688 112.320312 276.792969 L 112.320312 273.867188 L 114.863281 274.246094 L 117.359375 274.527344 L 115.679688 273.207031 C 114 271.980469 114 271.980469 114.144531 266.699219 C 114.335938 260.378906 114 258.867188 112.894531 260.566406 C 112.320312 261.320312 112.367188 261.039062 113.039062 259.433594 C 113.566406 258.113281 114.097656 256.886719 114.238281 256.605469 C 114.574219 255.945312 114.71875 250 114.382812 250 C 114.238281 250 113.808594 250.753906 113.425781 251.605469 C 113.039062 252.546875 113.136719 251.792969 113.710938 250 C 114.238281 248.207031 114.960938 246.792969 115.246094 246.980469 C 115.535156 247.074219 115.632812 246.414062 115.441406 245.1875 C 115.152344 243.492188 115.246094 243.207031 115.921875 243.679688 C 116.351562 244.054688 116.929688 244.339844 117.214844 244.339844 C 117.550781 244.339844 117.503906 244.8125 117.167969 245.660156 C 116.6875 246.792969 116.734375 247.546875 117.3125 249.433594 C 117.742188 250.753906 118.414062 253.019531 118.894531 254.433594 C 119.328125 255.847656 119.761719 258.960938 119.855469 261.320312 C 119.953125 263.679688 120.144531 266.226562 120.335938 266.980469 C 120.480469 267.734375 120.574219 269.339844 120.527344 270.472656 C 120.382812 273.207031 121.34375 274.152344 121.632812 271.507812 C 121.777344 270.28125 122.449219 263.773438 123.167969 257.074219 C 123.839844 250.28125 125.136719 240.09375 126.046875 234.433594 C 128.6875 217.546875 129.886719 208.773438 131.472656 194.339844 C 132.863281 181.605469 132.960938 179.433594 132.960938 161.886719 C 132.960938 151.507812 133.054688 143.300781 133.199219 143.585938 C 133.34375 143.867188 133.585938 149.8125 133.726562 156.792969 C 133.871094 163.773438 134.257812 172.074219 134.59375 175.1875 C 135.070312 180.1875 135.070312 181.414062 134.449219 183.679688 C 133.585938 186.886719 133.679688 196.605469 134.6875 202.074219 C 135.214844 205.1875 135.265625 206.507812 134.785156 209.152344 C 134.351562 211.414062 134.351562 213.300781 134.6875 216.039062 C 134.976562 218.019531 135.023438 220.28125 134.832031 220.945312 C 134.59375 221.605469 134.398438 223.585938 134.398438 225.1875 C 134.398438 228.679688 133.777344 234.339844 132.480469 243.394531 C 131.425781 250.472656 130.703125 259.152344 130.078125 271.226562 C 129.695312 278.773438 129.792969 280.1875 130.65625 283.679688 C 131.617188 287.734375 133.871094 291.886719 136.558594 294.621094 C 138.910156 296.980469 143.519531 299.621094 153.265625 304.433594 C 161.808594 308.585938 162.863281 308.867188 168 308.773438 C 183.601562 308.394531 199.632812 297.074219 207.984375 280.753906 C 209.183594 278.300781 210.574219 276.414062 211.105469 276.414062 C 211.632812 276.414062 212.878906 277.734375 213.886719 279.339844 C 215.617188 281.980469 215.761719 282.074219 216.335938 280.566406 C 216.671875 279.621094 216.960938 278.207031 216.960938 277.453125 C 216.960938 276.132812 216.910156 276.132812 216.480469 277.359375 C 215.710938 279.71875 215.902344 275 216.671875 271.226562 C 217.34375 268.113281 217.34375 267.925781 216.480469 267.925781 C 216 267.925781 215.519531 268.394531 215.425781 269.054688 C 215.28125 269.8125 214.222656 269.339844 212.0625 267.453125 L 208.945312 264.8125 L 209.089844 261.132812 C 209.183594 259.054688 209.328125 257.167969 209.472656 256.792969 C 209.566406 256.414062 209.761719 246.699219 209.808594 235.09375 C 209.902344 223.585938 210.144531 214.152344 210.335938 214.152344 C 210.574219 214.152344 210.71875 213.492188 210.71875 212.640625 C 210.71875 211.320312 211.105469 211.132812 213.601562 211.699219 C 216.863281 212.453125 217.246094 211.980469 214.800781 210.378906 C 212.113281 208.679688 210.769531 205.660156 211.054688 202.359375 C 211.199219 200.753906 211.488281 199.054688 211.679688 198.585938 C 211.871094 198.019531 212.160156 195.472656 212.351562 192.925781 C 212.542969 190.28125 212.878906 187.167969 213.070312 185.847656 C 214.65625 176.605469 214.800781 169.8125 213.40625 169.8125 C 213.070312 169.8125 212.304688 168.773438 211.726562 167.546875 C 210.816406 165.660156 210.527344 163.394531 210.046875 155.28125 L 209.472656 145.28125 L 210.960938 145.28125 C 215.183594 145.28125 226.175781 137.546875 228.144531 133.207031 C 229.054688 131.226562 229.007812 130.09375 227.230469 118.867188 C 226.894531 116.507812 225.839844 103.113281 224.878906 88.960938 C 223.054688 61.699219 222.191406 54.246094 219.886719 44.246094 C 218.59375 38.585938 218.0625 37.453125 214.894531 33.207031 C 212.929688 30.566406 207.070312 24.152344 201.792969 18.960938 C 196.558594 13.679688 191.039062 7.925781 189.601562 6.132812 C 186.816406 2.734375 184.65625 1.605469 185.761719 4.246094 C 186.191406 5.28125 186.097656 6.414062 185.183594 9.621094 C 184.367188 12.734375 182.929688 15.1875 179.28125 20 C 176.640625 23.492188 174.097656 26.226562 173.617188 26.039062 C 173.183594 25.847656 172.894531 26.039062 173.089844 26.507812 C 173.375 27.453125 173.183594 27.546875 169.105469 27.734375 C 167.519531 27.734375 166.273438 27.546875 166.367188 27.265625 C 166.464844 26.886719 166.128906 26.414062 165.601562 26.132812 C 165.023438 25.847656 164.734375 26.039062 164.929688 26.605469 C 165.121094 27.167969 164.976562 27.359375 164.59375 27.074219 C 164.207031 26.792969 162.527344 25.660156 160.800781 24.621094 C 155.617188 21.414062 151.585938 12.925781 153.023438 8.394531 C 153.359375 7.359375 153.503906 6.605469 153.40625 6.605469 C 152.976562 6.605469 149.472656 10.753906 147.839844 13.300781 C 145.199219 17.359375 136.511719 26.792969 131.902344 30.660156 C 127.34375 34.433594 121.824219 42.832031 119.953125 48.679688 C 119.375 50.566406 118.320312 55.753906 117.601562 60.09375 L 116.351562 68.113281 L 114.574219 61.132812 C 113.519531 56.792969 111.648438 51.699219 109.777344 47.734375 C 106.800781 41.507812 106.703125 41.414062 104.496094 41.605469 C 103.007812 41.792969 102 41.320312 101.425781 40.378906 C 100.945312 39.527344 99.3125 37.734375 97.777344 36.320312 C 96.289062 34.90625 94.894531 33.394531 94.753906 32.925781 C 94.609375 32.453125 94.03125 32.074219 93.457031 32.074219 C 92.878906 32.074219 90.671875 30.566406 88.558594 28.773438 C 86.449219 26.980469 84.480469 25.472656 84.191406 25.472656 C 83.902344 25.472656 83.375 24.8125 83.039062 24.054688 C 82.222656 22.167969 77.328125 16.792969 75.601562 15.945312 C 74.449219 15.472656 74.398438 15.28125 75.265625 15.1875 C 76.65625 15.09375 76.609375 13.773438 75.070312 11.414062 L 73.824219 9.433594 L 75.167969 6.886719 C 76.078125 5.1875 76.511719 3.492188 76.414062 2.074219 C 76.273438 0.378906 75.9375 0 74.351562 0 C 72.769531 0 72.480469 0.28125 72.382812 2.074219 C 72.289062 5.1875 72.335938 5.945312 72.71875 7.734375 C 73.007812 9.054688 72.816406 9.433594 71.855469 9.433594 C 71.183594 9.433594 70.511719 9.8125 70.320312 10.378906 C 70.175781 10.847656 69.457031 11.132812 68.734375 11.132812 C 68.015625 11.039062 66.960938 11.226562 66.382812 11.605469 C 65.617188 12.167969 65.089844 11.792969 64.367188 10.28125 C 63.023438 7.359375 63.121094 5.847656 64.703125 5.09375 C 65.425781 4.71875 66.238281 3.867188 66.480469 3.207031 C 66.769531 2.546875 67.726562 1.605469 68.640625 1.132812 C 69.9375 0.378906 68.398438 0.1875 62.304688 0.09375 C 54.910156 0 54.238281 0.09375 54.289062 1.605469 Z M 71.039062 13.113281 C 71.039062 13.585938 71.425781 14.246094 71.902344 14.433594 C 72.335938 14.71875 71.664062 14.90625 70.414062 15 C 68.449219 15.09375 68.207031 14.90625 68.734375 13.679688 C 69.40625 12.167969 71.039062 11.792969 71.039062 13.113281 Z M 72.097656 51.039062 C 75.265625 53.113281 77.089844 55.1875 79.441406 59.527344 L 80.878906 62.265625 L 83.902344 60.472656 L 86.878906 58.679688 L 87.886719 65.378906 C 88.414062 69.152344 89.375 75.472656 90 79.433594 L 91.105469 86.699219 L 88.175781 88.394531 L 85.246094 90.09375 L 84.097656 96.699219 C 82.128906 107.925781 79.199219 114.527344 73.921875 119.621094 C 71.566406 121.792969 70.703125 122.074219 66.238281 122.167969 C 61.679688 122.167969 60.960938 121.886719 58.511719 119.527344 C 56.976562 118.113281 54.863281 115.28125 53.710938 113.300781 L 51.648438 109.71875 L 48.816406 111.507812 C 47.230469 112.453125 45.839844 113.019531 45.695312 112.734375 C 45.550781 112.453125 44.496094 106.226562 43.390625 98.960938 L 41.375 85.753906 L 42.480469 84.90625 C 43.054688 84.433594 44.398438 83.679688 45.457031 83.113281 C 47.28125 82.167969 47.375 81.792969 47.953125 76.886719 C 48.71875 70.1875 51.839844 61.039062 54.960938 56.320312 C 59.664062 49.339844 66.433594 47.265625 72.097656 51.039062 Z M 192.335938 90.09375 C 193.34375 90.945312 194.496094 92.265625 194.929688 93.019531 C 195.503906 94.054688 196.222656 94.339844 197.183594 93.960938 C 198.527344 93.300781 198.574219 93.492188 199.34375 98.960938 C 200.351562 106.039062 200.398438 105.566406 198.960938 106.605469 C 198.289062 107.074219 197.472656 108.960938 197.039062 111.039062 C 194.640625 122.359375 187.96875 125.660156 183.550781 117.734375 C 182.734375 116.320312 182.304688 116.132812 181.199219 116.980469 C 180.480469 117.546875 179.808594 117.832031 179.761719 117.734375 C 179.519531 117.074219 178.03125 105.472656 178.175781 105.28125 C 178.273438 105.1875 178.894531 104.621094 179.664062 103.960938 C 180.382812 103.394531 180.960938 102.167969 180.960938 101.226562 C 180.960938 98.113281 183.40625 92.359375 185.425781 90.472656 C 187.871094 88.300781 190.03125 88.207031 192.335938 90.09375 Z M 124.273438 139.339844 C 127.199219 140.660156 127.488281 141.039062 126.863281 142.265625 C 126.335938 143.300781 126.289062 143.867188 126.769531 144.339844 C 127.105469 144.8125 127.199219 145.753906 126.960938 146.792969 C 126.71875 148.019531 126.527344 148.207031 126.382812 147.359375 C 126.238281 146.792969 125.761719 146.226562 125.230469 146.226562 C 124.03125 146.226562 124.078125 145.472656 125.425781 143.300781 C 126 142.359375 126.191406 141.605469 125.902344 141.507812 C 125.566406 141.507812 125.28125 141.886719 125.28125 142.453125 C 125.28125 142.925781 125.039062 143.394531 124.753906 143.394531 C 124.464844 143.394531 124.367188 142.734375 124.511719 141.886719 C 124.703125 140.847656 124.558594 140.566406 123.984375 140.753906 C 122.878906 141.132812 122.640625 146.414062 123.601562 150 C 124.65625 153.960938 124.511719 156.039062 122.878906 158.773438 C 121.390625 161.414062 121.007812 161.132812 122.160156 158.207031 C 122.929688 156.132812 122.734375 153.585938 121.679688 150.378906 C 120.769531 147.640625 119.28125 147.265625 119.664062 149.90625 C 119.761719 150.945312 119.519531 153.019531 119.039062 154.527344 C 118.558594 156.132812 118.222656 157.640625 118.367188 157.925781 C 118.464844 158.207031 118.414062 158.300781 118.273438 158.113281 C 118.128906 157.832031 117.886719 155 117.792969 151.699219 C 117.648438 148.394531 117.457031 142.832031 117.3125 139.339844 L 117.023438 132.925781 L 118.992188 135.28125 C 120.097656 136.699219 122.449219 138.492188 124.273438 139.339844 Z M 204.71875 156.792969 C 204.527344 165.28125 204.335938 175 204.289062 178.492188 C 204.289062 181.886719 204.097656 185 203.953125 185.378906 C 203.664062 185.847656 203.183594 173.679688 203.136719 164.152344 C 203.089844 159.71875 203.953125 143.394531 204.289062 142.359375 C 205.007812 140.09375 205.054688 142.734375 204.71875 156.792969 Z M 116.878906 155.28125 C 116.113281 156.414062 116.113281 156.605469 116.832031 158.019531 C 117.265625 158.867188 117.601562 160.472656 117.601562 161.507812 C 117.601562 162.925781 117.839844 163.300781 118.558594 162.925781 C 119.089844 162.640625 119.425781 162.832031 119.230469 163.300781 C 119.089844 163.773438 119.953125 164.152344 121.199219 164.152344 L 123.359375 164.152344 L 122.59375 166.507812 C 121.726562 169.152344 120.960938 169.621094 120.960938 167.453125 C 120.960938 166.699219 121.199219 166.039062 121.535156 166.039062 C 121.824219 166.039062 121.96875 165.847656 121.871094 165.566406 C 121.726562 165.378906 120.910156 165.472656 120.097656 165.945312 C 119.089844 166.507812 118.558594 166.507812 118.558594 165.945312 C 118.558594 165.378906 118.320312 165.28125 118.078125 165.566406 C 117.742188 165.945312 117.695312 166.605469 118.03125 167.265625 C 118.273438 167.925781 118.558594 168.773438 118.65625 169.339844 C 118.703125 169.8125 119.425781 170.1875 120.144531 170 C 121.390625 169.8125 121.441406 169.90625 120.816406 171.226562 C 120.382812 171.980469 119.664062 172.640625 119.183594 172.640625 C 118.128906 172.640625 116.734375 176.320312 117.695312 176.605469 C 118.03125 176.605469 118.558594 176.792969 118.800781 176.886719 C 119.089844 177.074219 119.617188 177.167969 120.046875 177.265625 C 120.527344 177.359375 120.960938 178.585938 121.152344 180.378906 C 121.34375 182.074219 121.585938 184.621094 121.777344 186.039062 C 121.921875 187.734375 121.824219 188.679688 121.488281 188.679688 C 121.152344 188.679688 121.054688 189.054688 121.199219 189.621094 C 121.390625 190.1875 121.054688 190.472656 120.433594 190.28125 C 119.855469 190.1875 119.28125 190.660156 119.136719 191.414062 C 118.992188 192.167969 119.136719 192.453125 119.472656 192.074219 C 119.761719 191.699219 120 191.886719 120 192.546875 C 120 193.207031 120.480469 193.394531 121.296875 193.113281 C 122.6875 192.640625 124.800781 193.773438 124.800781 195.09375 C 124.800781 195.566406 123.792969 195.847656 122.542969 195.660156 C 120.769531 195.472656 120.480469 195.566406 121.34375 196.226562 C 121.921875 196.699219 122.398438 197.453125 122.398438 197.925781 C 122.398438 198.394531 122.929688 198.585938 123.550781 198.394531 C 124.175781 198.113281 125.089844 198.394531 125.617188 198.960938 C 126.382812 199.8125 126.335938 199.90625 125.136719 200 C 123.839844 200 123.839844 200 124.609375 202.359375 C 125.230469 204.246094 125.28125 204.71875 124.753906 204.8125 C 124.367188 204.90625 123.742188 205.09375 123.359375 205.1875 C 122.976562 205.28125 122.351562 205.472656 122.015625 205.566406 C 121.679688 205.566406 121.535156 206.132812 121.679688 206.605469 C 121.871094 207.167969 122.351562 207.546875 122.785156 207.453125 C 123.984375 207.167969 126.046875 208.960938 125.375 209.8125 C 125.089844 210.1875 124.945312 211.039062 125.089844 211.699219 C 125.28125 212.640625 124.992188 212.832031 124.128906 212.546875 C 122.976562 212.074219 122.59375 212.832031 122.832031 215.378906 C 122.878906 215.847656 122.734375 215.945312 122.496094 215.660156 C 121.96875 215.09375 119.953125 219.433594 120.335938 220.1875 C 120.527344 220.472656 121.199219 220.753906 121.871094 220.753906 C 122.929688 220.753906 122.832031 221.039062 121.105469 222.640625 C 119.710938 223.867188 119.039062 225 119.039062 226.226562 C 119.039062 227.265625 118.511719 228.773438 117.839844 229.621094 C 116.878906 230.847656 116.640625 231.980469 116.640625 234.90625 C 116.640625 237.925781 116.449219 238.679688 115.726562 238.679688 C 114.574219 238.679688 113.902344 235.1875 113.566406 226.886719 C 113.425781 223.300781 113.089844 220.1875 112.800781 220 C 112.558594 219.8125 112.320312 219.246094 112.320312 218.773438 C 112.320312 218.207031 112.511719 218.019531 112.753906 218.394531 C 112.992188 218.679688 113.328125 218.019531 113.519531 216.980469 C 113.855469 214.90625 114.480469 214.527344 114.960938 216.039062 C 115.34375 217.265625 116.160156 217.265625 116.160156 216.039062 C 116.160156 215.472656 115.824219 215.09375 115.390625 215.09375 C 114.910156 215.09375 114.71875 214.527344 114.863281 213.773438 C 115.054688 212.734375 114.910156 212.546875 114.335938 212.832031 C 113.617188 213.300781 113.617188 213.207031 114.382812 212.265625 C 114.816406 211.699219 115.199219 210.566406 115.199219 209.71875 C 115.199219 208.867188 115.054688 208.492188 114.863281 208.773438 C 114.71875 209.152344 114.289062 208.679688 113.953125 207.640625 C 113.519531 206.507812 113.375 203.492188 113.519531 197.734375 C 113.664062 192.074219 113.519531 189.8125 113.183594 190.1875 C 112.320312 191.226562 113.328125 188.394531 114.289062 186.980469 C 114.960938 186.132812 115.054688 185.1875 114.71875 183.113281 C 114.144531 179.152344 114.625 175.472656 115.777344 175.472656 C 116.542969 175.472656 116.59375 175.1875 116.160156 173.585938 C 115.488281 171.132812 114.863281 171.886719 114.480469 175.753906 C 113.953125 180.566406 113.375 181.414062 112.078125 178.960938 C 110.878906 176.699219 110.257812 171.980469 111.070312 171.320312 C 111.40625 171.039062 111.457031 170.660156 111.121094 170.09375 C 110.398438 168.960938 110.351562 167.359375 110.878906 164.621094 C 111.265625 162.546875 111.648438 162.265625 113.617188 162.167969 L 115.921875 161.980469 L 114 161.320312 C 112.945312 160.945312 112.558594 160.566406 113.136719 160.472656 C 113.710938 160.472656 114.335938 159.90625 114.480469 159.433594 C 114.671875 158.867188 115.007812 158.679688 115.246094 158.960938 C 115.824219 159.71875 115.777344 158.394531 115.199219 156.605469 C 114.910156 155.660156 114.71875 155.566406 114.71875 156.320312 C 114.71875 156.980469 114.289062 157.546875 113.761719 157.546875 C 113.230469 157.546875 112.800781 158.113281 112.800781 158.679688 C 112.800781 159.527344 112.609375 159.433594 112.320312 158.492188 C 112.078125 157.734375 111.839844 157.453125 111.839844 157.832031 C 111.839844 158.207031 111.40625 158.113281 110.878906 157.546875 C 110.160156 156.792969 109.871094 156.980469 109.441406 158.492188 C 108.769531 160.945312 107.519531 160.945312 107.519531 158.492188 C 107.519531 156.507812 108.816406 154.71875 110.304688 154.71875 C 110.785156 154.71875 111.695312 153.679688 112.273438 152.453125 L 113.328125 150.28125 L 111.503906 150.660156 C 110.496094 150.945312 109.105469 151.132812 108.382812 151.226562 C 107.617188 151.226562 107.039062 151.605469 107.039062 151.980469 C 107.039062 152.453125 106.847656 152.832031 106.558594 152.832031 C 106.320312 152.832031 106.078125 151.792969 106.078125 150.660156 C 106.078125 148.585938 106.320312 148.394531 110.6875 147.265625 C 113.230469 146.699219 115.679688 145.753906 116.113281 145.28125 C 116.734375 144.621094 116.929688 145.1875 117.3125 149.246094 C 117.695312 153.394531 117.648438 154.246094 116.878906 155.28125 Z M 103.488281 156.886719 C 104.878906 183.394531 105.601562 194.152344 106.273438 197.734375 C 106.65625 199.90625 107.089844 204.527344 107.28125 208.113281 C 107.472656 211.699219 108.382812 219.054688 109.296875 224.527344 C 110.257812 230.09375 111.070312 237.265625 111.214844 241.039062 C 111.457031 247.640625 111.457031 247.640625 109.246094 254.246094 C 108 257.832031 106.894531 261.792969 106.753906 263.019531 C 106.320312 266.320312 105.792969 265.472656 104.734375 259.621094 C 103.390625 252.167969 103.246094 249.527344 102.910156 226.414062 C 102.71875 209.90625 102.433594 203.960938 101.425781 194.339844 C 100.753906 187.832031 100.128906 182.265625 99.984375 181.886719 C 99.886719 181.414062 100.128906 180.1875 100.511719 179.054688 C 101.089844 177.453125 101.28125 174.527344 101.28125 167.074219 C 101.28125 157.546875 102.144531 144.71875 102.671875 145.847656 C 102.816406 146.132812 103.199219 151.132812 103.488281 156.886719 Z M 35.519531 153.679688 C 35.519531 155.566406 35.855469 159.433594 36.238281 162.074219 C 37.152344 168.113281 37.007812 192.832031 35.953125 206.132812 C 35.519531 211.792969 35.375 220.378906 35.472656 231.792969 C 35.566406 241.320312 35.425781 249.054688 35.230469 249.054688 C 34.414062 249.054688 33.742188 247.640625 32.878906 244.339844 C 31.871094 240.566406 31.777344 227.734375 32.640625 220.566406 C 32.929688 218.300781 33.359375 205.847656 33.601562 192.925781 C 34.128906 162.546875 34.609375 148.960938 35.089844 149.621094 C 35.328125 149.90625 35.519531 151.699219 35.519531 153.679688 Z M 126.816406 149.527344 C 127.199219 149.8125 127.390625 151.320312 127.34375 153.113281 C 127.296875 154.71875 127.246094 157.734375 127.246094 159.621094 C 127.199219 162.167969 127.007812 163.207031 126.480469 163.207031 C 125.902344 163.207031 125.761719 161.792969 125.761719 156.132812 C 125.761719 152.265625 125.855469 149.054688 125.953125 149.054688 C 126.046875 149.054688 126.433594 149.246094 126.816406 149.527344 Z M 121.246094 155.566406 C 121.152344 156.980469 120.960938 158.679688 120.769531 159.339844 C 120.289062 160.753906 119.519531 160.660156 119.710938 159.152344 C 119.855469 158.585938 120.046875 156.886719 120.191406 155.378906 C 120.574219 151.980469 121.488281 152.074219 121.246094 155.566406 Z M 111.503906 161.039062 C 111.167969 161.226562 110.496094 161.226562 110.0625 161.039062 C 109.585938 160.753906 109.871094 160.566406 110.640625 160.566406 C 111.457031 160.566406 111.792969 160.753906 111.503906 161.039062 Z M 110.398438 163.207031 C 110.398438 164.433594 109.871094 164.433594 108.960938 163.207031 C 108.382812 162.453125 108.433594 162.265625 109.34375 162.265625 C 109.921875 162.265625 110.398438 162.640625 110.398438 163.207031 Z M 120.480469 167.832031 C 120.480469 168.960938 119.519531 170.1875 119.183594 169.527344 C 118.847656 168.867188 119.472656 166.980469 120.046875 166.980469 C 120.289062 166.980469 120.480469 167.359375 120.480469 167.832031 Z M 124.320312 167.925781 C 124.320312 168.394531 124.078125 168.867188 123.792969 168.867188 C 123.550781 168.867188 123.457031 168.394531 123.601562 167.925781 C 123.742188 167.359375 123.984375 166.980469 124.128906 166.980469 C 124.222656 166.980469 124.320312 167.359375 124.320312 167.925781 Z M 120 174.527344 C 120 175 119.808594 175.472656 119.519531 175.472656 C 119.28125 175.472656 119.039062 175 119.039062 174.527344 C 119.039062 173.960938 119.28125 173.585938 119.519531 173.585938 C 119.808594 173.585938 120 173.960938 120 174.527344 Z M 110.878906 187.167969 C 110.878906 187.359375 110.449219 187.359375 109.921875 187.074219 C 109.390625 186.792969 108.960938 186.226562 108.960938 185.660156 C 108.960938 185.1875 109.390625 185.28125 109.921875 185.847656 C 110.449219 186.414062 110.878906 186.980469 110.878906 187.167969 Z M 114.480469 185.847656 C 114.335938 186.320312 113.953125 186.792969 113.710938 186.792969 C 113.425781 186.792969 113.375 186.320312 113.519531 185.847656 C 113.664062 185.28125 114.046875 184.90625 114.289062 184.90625 C 114.574219 184.90625 114.625 185.28125 114.480469 185.847656 Z M 112.894531 197.832031 C 112.753906 199.339844 112.558594 199.90625 112.414062 199.246094 C 112.222656 198.019531 112.609375 195.28125 112.945312 195.28125 C 113.039062 195.28125 113.039062 196.414062 112.894531 197.832031 Z M 204.671875 210.847656 C 205.585938 226.507812 206.398438 255.847656 205.921875 256.886719 C 205.535156 257.832031 204.671875 254.339844 204.046875 249.152344 C 203.710938 246.132812 203.710938 243.773438 204.097656 240.945312 C 204.527344 237.832031 204.527344 235.566406 204.046875 230.945312 C 203.183594 222.832031 202.367188 210.660156 202.414062 206.132812 C 202.414062 202.546875 203.328125 196.507812 203.710938 197.265625 C 203.808594 197.453125 204.238281 203.585938 204.671875 210.847656 Z M 112.800781 202.832031 C 112.800781 203.300781 112.609375 203.773438 112.320312 203.773438 C 112.078125 203.773438 111.839844 203.300781 111.839844 202.832031 C 111.839844 202.265625 112.078125 201.886719 112.320312 201.886719 C 112.609375 201.886719 112.800781 202.265625 112.800781 202.832031 Z M 112.175781 210.566406 C 112.078125 211.792969 111.984375 211.039062 111.984375 208.960938 C 111.9375 206.886719 112.03125 205.945312 112.175781 206.792969 C 112.273438 207.734375 112.273438 209.433594 112.175781 210.566406 Z M 124.128906 218.207031 C 124.320312 218.585938 123.886719 218.867188 123.214844 218.867188 C 122.496094 218.867188 121.921875 218.492188 121.921875 217.925781 C 121.921875 216.886719 123.601562 217.167969 124.128906 218.207031 Z M 20.398438 220.753906 C 20.257812 221.226562 20.304688 221.699219 20.496094 221.699219 C 20.734375 221.699219 20.929688 222.546875 20.976562 223.585938 C 21.023438 224.621094 20.878906 225.472656 20.6875 225.472656 C 20.207031 225.472656 19.679688 221.039062 20.0625 220.28125 C 20.496094 219.433594 20.734375 219.71875 20.398438 220.753906 Z M 122.015625 227.546875 C 122.160156 228.207031 121.921875 229.90625 121.535156 231.414062 C 120.71875 234.71875 121.199219 236.039062 122.207031 233.207031 C 122.59375 232.074219 123.214844 231.132812 123.503906 231.226562 C 123.9375 231.226562 123.9375 231.414062 123.503906 231.792969 C 123.167969 231.980469 122.878906 232.832031 122.878906 233.492188 C 122.878906 234.152344 122.542969 234.90625 122.160156 235.28125 C 121.777344 235.566406 121.585938 236.320312 121.726562 237.074219 C 121.871094 237.832031 121.632812 238.960938 121.199219 239.621094 C 120.527344 240.753906 120.480469 240.472656 120.71875 237.832031 C 120.910156 235.660156 120.816406 235 120.433594 235.378906 C 120.046875 235.945312 120.046875 235.566406 120.433594 234.152344 C 121.152344 231.507812 121.105469 230.847656 120.191406 231.507812 C 119.808594 231.792969 119.566406 231.699219 119.761719 231.226562 C 119.902344 230.753906 119.710938 230.1875 119.425781 229.90625 C 118.945312 229.621094 118.945312 229.246094 119.472656 228.019531 C 120.238281 226.132812 121.777344 225.945312 122.015625 227.546875 Z M 118.222656 233.019531 C 118.03125 234.246094 118.222656 234.90625 118.703125 234.90625 C 119.230469 234.90625 119.375 235.945312 119.328125 239.152344 C 119.328125 241.507812 119.230469 243.394531 119.136719 243.394531 C 119.039062 243.394531 118.753906 242.167969 118.511719 240.566406 C 118.222656 239.054688 117.792969 238.019531 117.503906 238.300781 C 117.214844 238.679688 117.265625 239.246094 117.648438 239.71875 C 118.128906 240.28125 118.128906 240.566406 117.742188 240.566406 C 117.40625 240.566406 117.265625 241.226562 117.457031 241.980469 C 117.695312 243.207031 117.550781 243.300781 116.449219 242.359375 C 115.105469 241.132812 114.769531 239.621094 115.921875 239.621094 C 116.785156 239.621094 117.601562 236.699219 117.601562 233.585938 C 117.601562 232.265625 117.792969 231.132812 118.03125 231.132812 C 118.273438 231.132812 118.367188 231.980469 118.222656 233.019531 Z M 119.089844 246.699219 C 119.089844 247.925781 117.121094 248.492188 117.121094 247.359375 C 117.121094 246.320312 118.078125 245.28125 118.703125 245.660156 C 118.945312 245.753906 119.089844 246.226562 119.089844 246.699219 Z M 120.382812 251.886719 C 120.433594 253.960938 120.289062 255.660156 120 255.660156 C 119.761719 255.660156 119.519531 255.28125 119.519531 254.8125 C 119.519531 254.339844 119.375 252.640625 119.230469 251.039062 C 118.992188 248.867188 119.089844 248.113281 119.566406 248.113281 C 120 248.113281 120.289062 249.433594 120.382812 251.886719 Z M 111.359375 265.472656 C 111.359375 268.300781 110.160156 270.847656 109.199219 270.1875 C 108.335938 269.527344 108.335938 269.339844 109.007812 266.699219 C 110.0625 262.734375 111.359375 262.074219 111.359375 265.472656 Z M 111.359375 265.472656 "/>
<path style=" stroke:none;fill-rule:nonzero;fill:rgb(0%,0%,0%);fill-opacity:1;" d="M 60.144531 55.753906 C 55.726562 59.054688 51.265625 68.960938 50.207031 77.734375 C 49.921875 80 50.015625 80.378906 50.734375 80 C 51.214844 79.71875 57.601562 75.945312 64.992188 71.605469 L 78.335938 63.773438 L 76.558594 60.660156 C 72.574219 53.867188 65.425781 51.792969 60.144531 55.753906 Z M 68.542969 62.925781 L 69.742188 66.039062 L 68.257812 66.039062 C 67.441406 66.039062 66.625 66.414062 66.480469 66.980469 C 65.902344 68.867188 65.28125 67.925781 65.28125 65.1875 C 65.28125 58.679688 66.527344 57.832031 68.542969 62.925781 Z M 72 60.28125 C 72 60.847656 71.808594 61.507812 71.519531 61.792969 C 71.28125 62.074219 71.039062 61.699219 71.039062 60.945312 C 71.039062 60.09375 71.28125 59.433594 71.519531 59.433594 C 71.808594 59.433594 72 59.8125 72 60.28125 Z M 64.320312 63.773438 C 64.992188 67.167969 64.128906 70 62.542969 69.621094 C 61.054688 69.339844 60 64.71875 60.910156 62.925781 C 61.296875 62.167969 61.585938 62.734375 61.96875 64.90625 C 62.59375 68.585938 63.457031 68.019531 63.023438 64.152344 C 62.6875 60.566406 63.648438 60.28125 64.320312 63.773438 Z M 59.519531 65.09375 C 59.519531 65.566406 59.230469 66.039062 58.945312 66.132812 C 58.609375 66.132812 58.800781 66.507812 59.425781 66.980469 C 60.816406 68.113281 60.769531 70.566406 59.28125 71.886719 C 57.792969 73.207031 57.023438 71.980469 58.273438 70.1875 C 59.183594 68.867188 59.183594 68.867188 58.175781 68.867188 C 57.167969 68.867188 56.6875 66.226562 57.457031 64.8125 C 57.9375 63.773438 59.519531 64.054688 59.519531 65.09375 Z M 55.054688 71.320312 C 54.625 72.167969 53.710938 70.753906 54.046875 69.621094 C 54.238281 69.054688 54.527344 69.054688 54.863281 69.71875 C 55.152344 70.28125 55.246094 70.945312 55.054688 71.320312 Z M 55.054688 71.320312 "/>
<path style=" stroke:none;fill-rule:nonzero;fill:rgb(0%,0%,0%);fill-opacity:1;" d="M 64.558594 75.660156 C 53.230469 82.359375 43.871094 87.925781 43.824219 88.113281 C 43.632812 88.394531 46.609375 106.980469 46.992188 107.734375 C 47.230469 108.207031 82.558594 88.207031 88.128906 84.433594 C 88.511719 84.246094 88.222656 80.945312 87.265625 74.339844 C 86.449219 68.960938 85.679688 64.339844 85.488281 64.054688 C 85.34375 63.773438 75.9375 68.960938 64.558594 75.660156 Z M 81.457031 72.832031 C 84.382812 79.152344 82.320312 87.734375 77.902344 87.734375 C 74.832031 87.734375 72.71875 80.945312 74.113281 75.566406 C 75.070312 71.886719 76.078125 70.847656 78.527344 70.753906 C 79.96875 70.753906 80.734375 71.320312 81.457031 72.832031 Z M 71.230469 76.320312 C 71.761719 77.925781 70.992188 80 69.601562 80.472656 C 67.007812 81.507812 67.34375 87.734375 69.984375 87.734375 C 70.65625 87.734375 71.039062 87.453125 70.847656 86.980469 C 70.65625 86.605469 70.222656 86.320312 69.9375 86.320312 C 69.601562 86.320312 69.3125 85.378906 69.214844 84.246094 C 69.070312 82.640625 69.359375 82.074219 70.558594 81.605469 C 72.382812 80.847656 72.527344 81.132812 73.296875 86.039062 L 73.824219 89.8125 L 71.710938 91.605469 C 69.359375 93.679688 68.0625 93.394531 66.382812 90.378906 C 64.175781 86.320312 64.703125 79.152344 67.390625 76.792969 C 69.121094 75.28125 70.847656 75.09375 71.230469 76.320312 Z M 62.929688 83.867188 C 65.519531 89.054688 64.175781 96.980469 60.480469 98.492188 C 55.488281 100.378906 53.039062 87.359375 57.503906 82.640625 C 59.566406 80.378906 61.34375 80.753906 62.929688 83.867188 Z M 52.03125 92.074219 C 52.847656 97.167969 52.945312 97.359375 54.238281 96.792969 C 55.34375 96.414062 55.679688 96.699219 55.921875 98.207031 C 56.304688 100.660156 56.398438 100.472656 53.425781 102.167969 L 50.878906 103.679688 L 49.921875 97.359375 C 49.390625 93.867188 48.816406 90.28125 48.671875 89.433594 C 48.480469 88.019531 49.054688 87.265625 50.6875 86.886719 C 50.976562 86.886719 51.550781 89.152344 52.03125 92.074219 Z M 52.03125 92.074219 "/>
<path style=" stroke:none;fill-rule:nonzero;fill:rgb(0%,0%,0%);fill-opacity:1;" d="M 77.136719 76.132812 C 76.558594 77.167969 76.753906 80.847656 77.472656 81.980469 C 78.191406 83.207031 79.488281 82.546875 79.824219 80.847656 C 80.207031 78.867188 79.246094 75.472656 78.335938 75.472656 C 77.855469 75.472656 77.28125 75.753906 77.136719 76.132812 Z M 77.136719 76.132812 "/>
<path style=" stroke:none;fill-rule:nonzero;fill:rgb(0%,0%,0%);fill-opacity:1;" d="M 58.222656 88.300781 C 57.839844 90.378906 58.65625 92.832031 59.855469 93.207031 C 60.960938 93.492188 61.632812 91.226562 61.199219 88.585938 C 60.816406 86.320312 58.65625 86.226562 58.222656 88.300781 Z M 58.222656 88.300781 "/>
<path style=" stroke:none;fill-rule:nonzero;fill:rgb(0%,0%,0%);fill-opacity:1;" d="M 81.503906 91.980469 C 81.40625 92.167969 75.359375 95.847656 68.160156 100.09375 C 60.910156 104.339844 54.863281 108.019531 54.71875 108.207031 C 54.238281 109.152344 57.9375 114.246094 60.382812 116.039062 C 69.023438 122.453125 78.71875 113.492188 81.792969 96.414062 C 82.175781 94.246094 82.320312 92.265625 82.128906 92.074219 C 81.886719 91.792969 81.648438 91.792969 81.503906 91.980469 Z M 76.992188 102.640625 C 77.425781 105.847656 77.089844 107.546875 76.320312 106.039062 C 76.078125 105.566406 75.695312 103.679688 75.550781 101.980469 C 75.121094 97.734375 76.367188 98.394531 76.992188 102.640625 Z M 74.6875 102.265625 C 75.121094 105.847656 74.734375 108.019531 73.535156 108.300781 C 72.144531 108.679688 71.230469 107.265625 70.945312 104.246094 C 70.609375 100.847656 71.855469 100.566406 72.433594 103.867188 C 72.71875 105.472656 73.152344 106.507812 73.390625 106.132812 C 73.726562 105.753906 73.726562 104.71875 73.441406 103.207031 C 72.816406 100.09375 72.816406 100 73.679688 100 C 74.0625 100 74.496094 101.039062 74.6875 102.265625 Z M 69.503906 103.679688 C 70.320312 104.71875 71.566406 109.246094 71.136719 109.8125 C 70.945312 110 70.078125 110.472656 69.214844 110.847656 C 66.625 111.886719 65.328125 108.300781 67.054688 104.527344 C 67.921875 102.640625 68.542969 102.453125 69.503906 103.679688 Z M 65.375 108.867188 C 66.71875 112.074219 66.574219 113.773438 65.089844 112.640625 C 64.703125 112.359375 63.984375 112.832031 63.503906 113.773438 C 62.6875 115.378906 62.640625 115.28125 62.496094 111.886719 C 62.351562 108.679688 62.976562 105.660156 63.792969 105.660156 C 63.9375 105.660156 64.65625 107.074219 65.375 108.867188 Z M 65.375 108.867188 "/>
<path style=" stroke:none;fill-rule:nonzero;fill:rgb(0%,0%,0%);fill-opacity:1;" d="M 67.777344 107.167969 C 67.96875 109.152344 68.832031 109.339844 69.023438 107.265625 C 69.121094 106.320312 68.878906 105.660156 68.398438 105.660156 C 67.921875 105.660156 67.679688 106.226562 67.777344 107.167969 Z M 67.777344 107.167969 "/>
<path style=" stroke:none;fill-rule:nonzero;fill:rgb(0%,0%,0%);fill-opacity:1;" d="M 185.808594 92.734375 C 183.886719 94.621094 181.34375 101.039062 181.96875 102.265625 C 182.257812 102.832031 193.441406 96.414062 194.0625 95.28125 C 194.59375 94.339844 190.558594 90.566406 189.023438 90.566406 C 188.398438 90.566406 186.910156 91.507812 185.808594 92.734375 Z M 190.03125 94.71875 C 190.511719 95.847656 190.222656 96.320312 188.113281 97.546875 C 186.144531 98.679688 185.472656 98.773438 185.230469 97.925781 C 185.039062 97.265625 184.992188 96.414062 185.089844 96.039062 C 185.472656 94.8125 187.199219 95.1875 187.246094 96.414062 C 187.246094 97.074219 187.441406 96.792969 187.679688 95.753906 C 187.96875 94.433594 188.113281 94.339844 188.160156 95.28125 C 188.160156 96.414062 188.304688 96.320312 188.6875 95 C 189.265625 93.019531 189.3125 93.019531 190.03125 94.71875 Z M 190.03125 94.71875 "/>
<path style=" stroke:none;fill-rule:nonzero;fill:rgb(0%,0%,0%);fill-opacity:1;" d="M 188.542969 100.847656 C 183.601562 103.773438 179.472656 106.414062 179.328125 106.699219 C 179.183594 106.980469 179.375 109.152344 179.761719 111.507812 L 180.527344 115.753906 L 189.648438 110.28125 C 194.640625 107.359375 198.863281 104.71875 198.960938 104.527344 C 199.199219 104.152344 198.097656 96.605469 197.761719 95.945312 C 197.617188 95.753906 193.488281 97.925781 188.542969 100.847656 Z M 196.03125 99.621094 C 197.039062 101.605469 196.992188 103.113281 195.839844 105.1875 C 194.542969 107.546875 192.480469 105.847656 192.480469 102.453125 C 192.480469 98.679688 194.6875 96.886719 196.03125 99.621094 Z M 192 103.867188 C 192.527344 106.320312 192.527344 106.886719 191.953125 107.640625 C 190.464844 109.433594 188.640625 107.832031 188.640625 104.71875 C 188.640625 100.378906 191.136719 99.71875 192 103.867188 Z M 187.921875 106.980469 C 187.921875 111.886719 184.894531 112.832031 184.414062 108.113281 C 184.078125 105 184.703125 103.679688 186.335938 103.960938 C 187.726562 104.246094 187.921875 104.621094 187.921875 106.980469 Z M 182.6875 108.019531 C 182.832031 109.339844 183.265625 110.378906 183.648438 110.378906 C 184.65625 110.378906 184.464844 112.074219 183.3125 112.734375 C 182.785156 113.113281 182.257812 113.207031 182.207031 113.019531 C 181.777344 111.980469 181.105469 106.699219 181.296875 106.226562 C 181.921875 105.09375 182.398438 105.753906 182.6875 108.019531 Z M 182.6875 108.019531 "/>
<path style=" stroke:none;fill-rule:nonzero;fill:rgb(0%,0%,0%);fill-opacity:1;" d="M 193.921875 102.265625 C 193.921875 103.113281 194.257812 103.773438 194.6875 103.773438 C 195.503906 103.773438 195.359375 101.699219 194.496094 101.132812 C 194.160156 100.945312 193.921875 101.414062 193.921875 102.265625 Z M 193.921875 102.265625 "/>
<path style=" stroke:none;fill-rule:nonzero;fill:rgb(0%,0%,0%);fill-opacity:1;" d="M 190.078125 104.71875 C 190.078125 105.753906 190.273438 106.605469 190.464844 106.605469 C 190.65625 106.605469 190.847656 105.753906 190.847656 104.71875 C 190.847656 103.679688 190.65625 102.832031 190.464844 102.832031 C 190.273438 102.832031 190.078125 103.679688 190.078125 104.71875 Z M 190.078125 104.71875 "/>
<path style=" stroke:none;fill-rule:nonzero;fill:rgb(0%,0%,0%);fill-opacity:1;" d="M 185.617188 106.226562 C 185.230469 106.980469 185.664062 108.492188 186.289062 108.492188 C 186.527344 108.492188 186.71875 107.832031 186.71875 107.074219 C 186.71875 105.660156 186.144531 105.1875 185.617188 106.226562 Z M 185.617188 106.226562 "/>
<path style=" stroke:none;fill-rule:nonzero;fill:rgb(0%,0%,0%);fill-opacity:1;" d="M 193.199219 109.90625 C 192.144531 110.660156 189.550781 112.265625 187.441406 113.492188 L 183.601562 115.753906 L 185.28125 117.734375 C 188.640625 121.886719 193.296875 119.621094 195.359375 113.019531 C 196.894531 108.019531 196.609375 107.640625 193.199219 109.90625 Z M 194.0625 112.734375 C 194.257812 113.492188 194.160156 114.339844 193.921875 114.621094 C 193.632812 115 193.441406 114.433594 193.390625 113.492188 C 193.390625 112.167969 193.296875 112.265625 192.910156 114.054688 C 192.527344 115.945312 192.335938 116.039062 191.710938 115 C 191.136719 114.054688 190.992188 114.054688 191.136719 115.1875 C 191.328125 116.792969 189.503906 116.980469 189.214844 115.28125 C 188.976562 113.773438 191.089844 112.167969 191.808594 113.300781 C 192.191406 113.867188 192.480469 113.679688 192.671875 112.734375 C 193.007812 110.945312 193.726562 110.945312 194.0625 112.734375 Z M 189.121094 117.074219 C 189.121094 117.546875 188.6875 117.925781 188.160156 117.925781 C 187.105469 117.925781 187.054688 117.832031 187.488281 115.660156 C 187.726562 114.433594 187.921875 114.339844 188.449219 115.1875 C 188.832031 115.753906 189.121094 116.605469 189.121094 117.074219 Z M 189.121094 117.074219 "/>
<path style=" stroke:none;fill-rule:nonzero;fill:rgb(0%,0%,0%);fill-opacity:1;" d="M 121.34375 140.28125 C 121.679688 140.566406 122.113281 140.472656 122.257812 140.1875 C 122.449219 139.90625 122.160156 139.621094 121.632812 139.71875 C 121.105469 139.71875 120.960938 140 121.34375 140.28125 Z M 121.34375 140.28125 "/>
<path style=" stroke:none;fill-rule:nonzero;fill:rgb(0%,0%,0%);fill-opacity:1;" d="M 118.078125 142.925781 C 118.414062 143.679688 118.894531 144.339844 119.136719 144.339844 C 119.425781 144.339844 119.375 143.679688 119.039062 142.925781 C 118.703125 142.167969 118.222656 141.507812 117.984375 141.507812 C 117.695312 141.507812 117.742188 142.167969 118.078125 142.925781 Z M 118.078125 142.925781 "/>
<path style=" stroke:none;fill-rule:nonzero;fill:rgb(0%,0%,0%);fill-opacity:1;" d="M 119.039062 145.660156 C 119.039062 145.847656 119.761719 146.226562 120.671875 146.414062 C 121.585938 146.605469 122.207031 146.414062 122.113281 146.039062 C 121.871094 145.28125 119.039062 144.90625 119.039062 145.660156 Z M 119.039062 145.660156 "/>
<path style=" stroke:none;fill-rule:nonzero;fill:rgb(0%,0%,0%);fill-opacity:1;" d="M 112.609375 153.679688 C 112.464844 154.054688 112.894531 154.246094 113.519531 153.960938 C 114.191406 153.773438 114.71875 153.394531 114.71875 153.207031 C 114.71875 152.453125 112.847656 152.832031 112.609375 153.679688 Z M 112.609375 153.679688 "/>
<path style=" stroke:none;fill-rule:nonzero;fill:rgb(0%,0%,0%);fill-opacity:1;" d="M 115.96875 168.019531 C 115.34375 170.09375 115.296875 170.753906 115.726562 170.1875 C 116.113281 169.71875 116.542969 169.339844 116.734375 169.339844 C 116.878906 169.339844 117.214844 168.960938 117.457031 168.492188 C 117.695312 168.019531 117.550781 167.925781 117.167969 168.394531 C 116.6875 168.960938 116.59375 168.585938 116.878906 167.074219 C 117.3125 164.246094 116.976562 164.621094 115.96875 168.019531 Z M 115.96875 168.019531 "/>
<path style=" stroke:none;fill-rule:nonzero;fill:rgb(0%,0%,0%);fill-opacity:1;" d="M 114.671875 167.265625 C 114.238281 167.925781 113.761719 169.433594 113.566406 170.753906 C 113.230469 173.019531 113.230469 173.113281 114 171.226562 C 114.816406 169.246094 115.824219 166.039062 115.585938 166.039062 C 115.488281 166.039062 115.105469 166.605469 114.671875 167.265625 Z M 114.671875 167.265625 "/>
<path style=" stroke:none;fill-rule:nonzero;fill:rgb(0%,0%,0%);fill-opacity:1;" d="M 111.359375 175 C 111.359375 175.753906 111.457031 176.414062 111.550781 176.414062 C 111.648438 176.414062 111.839844 175.753906 112.03125 175 C 112.175781 174.246094 112.078125 173.585938 111.839844 173.585938 C 111.550781 173.585938 111.359375 174.246094 111.359375 175 Z M 111.359375 175 "/>
<path style=" stroke:none;fill-rule:nonzero;fill:rgb(0%,0%,0%);fill-opacity:1;" d="M 115.441406 186.886719 C 114.910156 188.492188 115.488281 188.867188 116.160156 187.265625 C 116.542969 186.414062 116.542969 185.847656 116.257812 185.847656 C 115.96875 185.847656 115.585938 186.320312 115.441406 186.886719 Z M 115.441406 186.886719 "/>
<path style=" stroke:none;fill-rule:nonzero;fill:rgb(0%,0%,0%);fill-opacity:1;" d="M 117.121094 192.453125 C 117.121094 193.019531 117.457031 193.394531 117.839844 193.394531 C 118.222656 193.394531 118.558594 193.207031 118.558594 193.019531 C 118.558594 192.832031 118.222656 192.453125 117.839844 192.074219 C 117.457031 191.792969 117.121094 191.980469 117.121094 192.453125 Z M 117.121094 192.453125 "/>
<path style=" stroke:none;fill-rule:nonzero;fill:rgb(0%,0%,0%);fill-opacity:1;" d="M 114.574219 201.792969 C 114.191406 204.71875 114.625 206.039062 115.488281 204.621094 C 116.207031 203.394531 116.449219 200.472656 115.726562 201.320312 C 115.488281 201.699219 115.199219 201.414062 115.105469 200.753906 C 114.960938 200.09375 114.769531 200.566406 114.574219 201.792969 Z M 114.574219 201.792969 "/>
<path style=" stroke:none;fill-rule:nonzero;fill:rgb(0%,0%,0%);fill-opacity:1;" d="M 116.640625 204.621094 C 116.640625 205 117.550781 205.378906 118.65625 205.566406 C 119.761719 205.660156 120.574219 205.566406 120.480469 205.378906 C 120 204.621094 116.640625 203.867188 116.640625 204.621094 Z M 116.640625 204.621094 "/>
<path style=" stroke:none;fill-rule:nonzero;fill:rgb(0%,0%,0%);fill-opacity:1;" d="M 117.601562 217.925781 C 117.023438 218.679688 117.121094 218.867188 117.984375 218.867188 C 118.609375 218.867188 118.945312 218.492188 118.800781 217.925781 C 118.464844 216.792969 118.511719 216.792969 117.601562 217.925781 Z M 117.601562 217.925781 "/>
<path style=" stroke:none;fill-rule:nonzero;fill:rgb(0%,0%,0%);fill-opacity:1;" d="M 161.28125 6.132812 C 160.800781 7.265625 160.800781 7.546875 161.425781 7.546875 C 161.855469 7.546875 162.335938 7.074219 162.480469 6.605469 C 162.671875 5.945312 163.34375 6.226562 164.304688 7.167969 C 167.230469 10.1875 167.519531 10.378906 169.152344 10.378906 C 170.0625 10.378906 170.976562 9.90625 171.167969 9.246094 C 171.40625 8.585938 171.167969 8.394531 170.496094 8.679688 C 169.96875 8.960938 167.953125 8.207031 166.03125 6.980469 C 161.855469 4.339844 162.046875 4.339844 161.28125 6.132812 Z M 161.28125 6.132812 "/>
<path style=" stroke:none;fill-rule:nonzero;fill:rgb(0%,0%,0%);fill-opacity:1;" d="M 175.488281 7.925781 C 176.496094 9.339844 176.929688 9.246094 176.398438 7.640625 C 176.257812 7.074219 175.726562 6.605469 175.296875 6.605469 C 174.671875 6.605469 174.671875 6.792969 175.488281 7.925781 Z M 175.488281 7.925781 "/>
<path style=" stroke:none;fill-rule:nonzero;fill:rgb(0%,0%,0%);fill-opacity:1;" d="M 155.761719 8.679688 C 156.097656 10.1875 158.398438 13.585938 158.351562 12.546875 C 158.351562 12.167969 157.726562 10.847656 156.910156 9.621094 C 156.144531 8.394531 155.617188 7.925781 155.761719 8.679688 Z M 155.761719 8.679688 "/>
<path style=" stroke:none;fill-rule:nonzero;fill:rgb(0%,0%,0%);fill-opacity:1;" d="M 172.222656 8.207031 C 172.558594 8.492188 172.992188 8.394531 173.136719 8.113281 C 173.328125 7.832031 173.039062 7.546875 172.511719 7.640625 C 171.984375 7.640625 171.839844 7.925781 172.222656 8.207031 Z M 172.222656 8.207031 "/>
<path style=" stroke:none;fill-rule:nonzero;fill:rgb(0%,0%,0%);fill-opacity:1;" d="M 166.945312 13.867188 C 167.230469 14.054688 167.808594 14.054688 168.144531 13.867188 C 168.433594 13.585938 168.191406 13.394531 167.519531 13.394531 C 166.847656 13.394531 166.609375 13.585938 166.945312 13.867188 Z M 166.945312 13.867188 "/>
<path style=" stroke:none;fill-rule:nonzero;fill:rgb(0%,0%,0%);fill-opacity:1;" d="M 16.800781 161.320312 C 16.800781 165.945312 17.183594 166.699219 19.921875 167.359375 C 24.480469 168.585938 25.152344 168.679688 25.96875 167.640625 C 26.6875 166.792969 26.6875 166.507812 26.0625 165.28125 C 25.585938 164.339844 25.199219 164.246094 24.910156 164.8125 C 24.625 165.378906 23.761719 165.472656 22.800781 165.09375 C 21.886719 164.71875 21.070312 164.527344 20.976562 164.71875 C 20.878906 165 20.496094 164.527344 20.207031 163.773438 C 19.871094 163.019531 19.296875 162.640625 18.910156 162.925781 C 18.527344 163.207031 18.238281 163.019531 18.238281 162.546875 C 18.238281 162.074219 17.902344 160.847656 17.519531 159.8125 C 16.894531 158.113281 16.847656 158.207031 16.800781 161.320312 Z M 16.800781 161.320312 "/>
<path style=" stroke:none;fill-rule:nonzero;fill:rgb(0%,0%,0%);fill-opacity:1;" d="M 18.097656 184.339844 C 17.902344 187.359375 17.855469 190.09375 18 190.378906 C 18.144531 190.660156 18.238281 190 18.238281 188.867188 C 18.238281 187.734375 18.480469 186.792969 18.71875 186.792969 C 19.007812 186.792969 19.199219 187.734375 19.199219 188.773438 C 19.199219 190.566406 19.390625 190.753906 20.6875 190.1875 C 21.503906 189.90625 22.367188 189.621094 22.609375 189.621094 C 22.847656 189.621094 23.039062 189.246094 23.039062 188.773438 C 23.039062 187.734375 19.199219 182.734375 19.152344 183.679688 C 19.105469 184.152344 18.960938 183.113281 18.769531 181.605469 C 18.480469 179.152344 18.382812 179.527344 18.097656 184.339844 Z M 18.097656 184.339844 "/>
<path style=" stroke:none;fill-rule:nonzero;fill:rgb(0%,0%,0%);fill-opacity:1;" d="M 217.921875 212.265625 C 217.921875 212.734375 218.160156 213.207031 218.398438 213.207031 C 218.6875 213.207031 218.878906 212.734375 218.878906 212.265625 C 218.878906 211.699219 218.6875 211.320312 218.398438 211.320312 C 218.160156 211.320312 217.921875 211.699219 217.921875 212.265625 Z M 217.921875 212.265625 "/>
<path style=" stroke:none;fill-rule:nonzero;fill:rgb(0%,0%,0%);fill-opacity:1;" d="M 114.960938 252.832031 C 114.769531 253.394531 115.007812 253.492188 115.535156 253.113281 C 116.304688 252.546875 116.351562 252.640625 115.679688 254.246094 C 115.007812 255.847656 115.007812 255.945312 116.113281 254.8125 C 117.023438 253.867188 117.121094 253.394531 116.59375 252.734375 C 115.726562 251.699219 115.34375 251.699219 114.960938 252.832031 Z M 114.960938 252.832031 "/>
<path style=" stroke:none;fill-rule:nonzero;fill:rgb(0%,0%,0%);fill-opacity:1;" d="M 217.007812 274.152344 C 217.007812 275.1875 217.152344 275.472656 217.296875 274.71875 C 217.441406 274.054688 217.390625 273.207031 217.246094 272.925781 C 217.105469 272.546875 216.960938 273.113281 217.007812 274.152344 Z M 217.007812 274.152344 "/>
<path style=" stroke:none;fill-rule:nonzero;fill:rgb(0%,0%,0%);fill-opacity:1;" d="M 120.144531 311.414062 C 120.144531 313.207031 119.953125 315.753906 119.761719 317.167969 C 119.425781 319.621094 119.519531 319.8125 120.960938 319.8125 C 122.160156 319.8125 122.449219 319.527344 122.207031 318.300781 C 122.0625 317.453125 121.921875 315.847656 121.921875 314.621094 C 121.921875 313.492188 121.535156 311.507812 121.054688 310.378906 L 120.144531 308.207031 Z M 120.144531 311.414062 "/>
</g>
</svg>
