<?xml version="1.0" encoding="UTF-8"?>
<svg xmlns="http://www.w3.org/2000/svg" xmlns:xlink="http://www.w3.org/1999/xlink" width="240px" height="320px" viewBox="0 0 240 320" version="1.1">
<g id="surface1">
<path style=" stroke:none;fill-rule:nonzero;fill:rgb(0%,0%,0%);fill-opacity:1;" d="M 168.898438 3.136719 C 167.050781 4.894531 165.925781 8.609375 165.9375 12.960938 C 165.949219 15.136719 166.066406 16.257812 166.535156 18.046875 C 167.039062 20.03125 167.761719 21.726562 168.480469 22.65625 L 169.140625 23.519531 L 179.878906 23.519531 C 189.875 23.519531 190.644531 23.488281 191.015625 22.945312 C 191.21875 22.65625 191.554688 22.175781 191.746094 21.921875 C 192.253906 21.214844 192.875 19.265625 193.246094 17.183594 C 193.511719 15.742188 193.585938 14.945312 193.585938 13.152344 C 193.585938 11.230469 193.523438 10.625 193.1875 8.960938 C 192.730469 6.65625 191.914062 4.609375 191.003906 3.390625 L 190.355469 2.558594 L 179.929688 2.558594 C 170.269531 2.59375 169.453125 2.625 168.898438 3.136719 Z M 171.601562 7.550781 C 171.671875 7.742188 171.695312 8.128906 171.648438 8.449219 C 171.589844 8.832031 171.503906 8.929688 171.3125 8.734375 C 171.179688 8.609375 170.820312 8.480469 170.53125 8.480469 C 169.835938 8.511719 169.488281 9.535156 169.378906 12 C 169.140625 16.960938 170.003906 19.742188 171.300781 18.175781 C 171.5625 17.855469 171.636719 17.886719 171.730469 18.273438 C 171.898438 18.976562 171.863281 19.105469 171.46875 19.488281 C 170.878906 20.03125 170.027344 19.902344 169.609375 19.230469 C 169.019531 18.273438 168.78125 16.609375 168.78125 13.441406 C 168.792969 8.832031 169.402344 6.910156 170.796875 7.136719 C 171.167969 7.199219 171.539062 7.390625 171.601562 7.550781 Z M 175.261719 8 C 175.753906 9.214844 175.957031 11.136719 175.894531 13.984375 C 175.824219 18.113281 175.332031 19.839844 174.253906 19.839844 C 173.28125 19.839844 172.753906 17.664062 172.753906 13.601562 C 172.738281 10.71875 173.050781 8.511719 173.566406 7.648438 C 174.058594 6.816406 174.851562 6.976562 175.261719 8 Z M 179.269531 7.328125 C 179.363281 7.488281 179.398438 7.839844 179.363281 8.128906 C 179.304688 8.542969 179.195312 8.640625 178.859375 8.449219 C 178.355469 8.191406 177.757812 8.769531 177.660156 9.632812 C 177.539062 10.59375 177.804688 11.425781 178.570312 12.511719 C 179.351562 13.632812 179.640625 14.65625 179.640625 16.382812 C 179.640625 18.367188 178.992188 19.839844 178.117188 19.839844 C 177.433594 19.839844 177.121094 19.519531 177.121094 18.847656 C 177.121094 18.304688 177.191406 18.273438 177.828125 18.433594 C 178.488281 18.625 178.558594 18.59375 178.859375 17.792969 C 179.113281 17.121094 179.171875 16.734375 179.113281 16.0625 C 179.015625 15.070312 178.8125 14.558594 177.972656 13.375 C 177.191406 12.257812 176.929688 10.976562 177.121094 9.40625 C 177.300781 7.9375 177.851562 7.039062 178.558594 7.039062 C 178.859375 7.039062 179.171875 7.167969 179.269531 7.328125 Z M 191.269531 7.328125 C 191.363281 7.488281 191.398438 7.839844 191.363281 8.128906 C 191.304688 8.542969 191.195312 8.640625 190.859375 8.449219 C 190.378906 8.222656 189.78125 8.769531 189.660156 9.503906 C 189.527344 10.464844 189.742188 11.199219 190.476562 12.351562 C 191.410156 13.792969 191.628906 14.527344 191.640625 16.160156 C 191.640625 18.367188 191.027344 19.839844 190.117188 19.839844 C 189.433594 19.839844 189.121094 19.519531 189.121094 18.847656 C 189.121094 18.304688 189.191406 18.273438 189.828125 18.433594 C 190.488281 18.625 190.558594 18.59375 190.847656 17.824219 C 191.425781 16.289062 191.183594 15.070312 189.972656 13.34375 C 189.15625 12.191406 188.902344 10.816406 189.167969 9.121094 C 189.289062 8.382812 189.492188 7.808594 189.742188 7.519531 C 190.1875 7.007812 191.015625 6.910156 191.269531 7.328125 Z M 184.054688 7.902344 C 184.03125 8.351562 183.875 8.511719 183.324219 8.574219 L 182.640625 8.671875 L 182.640625 19.519531 L 182.039062 19.519531 L 182.039062 8.671875 L 181.355469 8.574219 C 180.804688 8.511719 180.648438 8.351562 180.625 7.902344 C 180.589844 7.390625 180.730469 7.359375 182.339844 7.359375 C 183.949219 7.359375 184.09375 7.390625 184.054688 7.902344 Z M 187.367188 13.023438 C 187.753906 16.160156 188.101562 18.910156 188.125 19.105469 C 188.160156 19.359375 188.074219 19.519531 187.882812 19.519531 C 187.621094 19.519531 187.546875 19.265625 187.320312 17.441406 L 187.054688 15.328125 L 186.324219 15.425781 L 185.59375 15.519531 L 185.351562 17.503906 C 185.148438 19.199219 185.074219 19.519531 184.835938 19.519531 C 184.679688 19.519531 184.558594 19.425781 184.558594 19.328125 C 184.558594 19.167969 185.785156 8.832031 185.941406 7.742188 C 185.964844 7.550781 186.144531 7.359375 186.324219 7.359375 C 186.660156 7.359375 186.683594 7.488281 187.367188 13.023438 Z M 187.367188 13.023438 "/>
<path style=" stroke:none;fill-rule:nonzero;fill:rgb(0%,0%,0%);fill-opacity:1;" d="M 173.820312 9.023438 C 173.386719 10.046875 173.195312 12.929688 173.398438 15.457031 C 173.566406 17.632812 173.855469 18.558594 174.347656 18.558594 C 174.839844 18.558594 175.164062 17.34375 175.261719 15.167969 C 175.5 10.113281 174.757812 6.878906 173.820312 9.023438 Z M 173.820312 9.023438 "/>
<path style=" stroke:none;fill-rule:nonzero;fill:rgb(0%,0%,0%);fill-opacity:1;" d="M 186.035156 12 L 185.785156 14.078125 L 186.3125 14.078125 C 186.601562 14.078125 186.839844 13.953125 186.839844 13.824219 C 186.839844 13.40625 186.457031 10.433594 186.371094 10.175781 C 186.324219 10.015625 186.179688 10.847656 186.035156 12 Z M 186.035156 12 "/>
<path style=" stroke:none;fill-rule:nonzero;fill:rgb(0%,0%,0%);fill-opacity:1;" d="M 49.921875 3.359375 C 49.03125 4.128906 47.878906 6.367188 47.507812 8.0625 C 46.332031 13.40625 47.230469 20.128906 49.5 22.945312 L 50.21875 23.839844 L 71.578125 23.839844 L 72.167969 23.039062 C 74.257812 20.191406 75.097656 14.59375 74.21875 9.34375 C 73.835938 7.070312 73.066406 5.023438 72.15625 3.808594 L 71.578125 3.039062 L 61.019531 2.976562 C 52.1875 2.945312 50.375 3.007812 49.921875 3.359375 Z M 52.199219 8 C 52.199219 8.574219 52.117188 8.640625 51.238281 8.640625 L 50.28125 8.640625 L 50.28125 12.800781 L 51.132812 12.800781 C 51.875 12.800781 51.972656 12.863281 51.9375 13.34375 C 51.898438 13.792969 51.769531 13.921875 51.300781 13.953125 C 50.964844 13.984375 50.605469 14.015625 50.496094 14.046875 C 50.304688 14.078125 50.28125 14.433594 50.28125 16.800781 C 50.28125 19.488281 50.28125 19.519531 49.980469 19.519531 L 49.679688 19.519531 L 49.679688 7.359375 L 50.941406 7.359375 C 52.117188 7.359375 52.199219 7.390625 52.199219 8 Z M 55.679688 7.839844 C 56.449219 8.894531 56.507812 11.070312 55.824219 12.769531 L 55.367188 13.921875 L 56.003906 16.542969 C 56.351562 18.015625 56.640625 19.265625 56.640625 19.359375 C 56.640625 19.457031 56.496094 19.519531 56.316406 19.519531 C 56.027344 19.519531 55.894531 19.136719 55.367188 16.863281 C 54.886719 14.753906 54.695312 14.207031 54.445312 14.144531 L 54.121094 14.046875 L 54.121094 16.769531 C 54.121094 19.488281 54.121094 19.519531 53.820312 19.519531 L 53.519531 19.519531 L 53.519531 13.664062 C 53.519531 10.433594 53.554688 7.679688 53.605469 7.585938 C 53.761719 7.167969 55.332031 7.359375 55.679688 7.839844 Z M 60.121094 8 C 60.121094 8.574219 60.035156 8.640625 59.21875 8.640625 L 58.320312 8.640625 L 58.320312 12.480469 L 59.148438 12.480469 C 59.746094 12.480469 59.988281 12.609375 60.035156 12.929688 C 60.132812 13.535156 59.867188 13.761719 59.027344 13.761719 L 58.320312 13.761719 L 58.320312 18.238281 L 59.21875 18.238281 C 60.035156 18.238281 60.121094 18.304688 60.121094 18.878906 C 60.121094 19.488281 60.035156 19.519531 58.921875 19.519531 L 57.71875 19.519531 L 57.71875 7.359375 L 58.921875 7.359375 C 60.035156 7.359375 60.121094 7.390625 60.121094 8 Z M 62.808594 11.425781 C 63.191406 13.695312 63.5625 15.648438 63.613281 15.808594 C 63.671875 16 63.71875 14.238281 63.71875 11.742188 L 63.71875 7.359375 L 64.320312 7.359375 L 64.320312 19.519531 L 63.984375 19.519531 C 63.671875 19.519531 63.601562 19.265625 62.953125 15.425781 C 62.566406 13.183594 62.195312 11.230469 62.148438 11.039062 C 62.089844 10.878906 62.039062 12.640625 62.039062 15.136719 L 62.039062 19.519531 L 61.441406 19.519531 L 61.441406 7.359375 L 61.777344 7.359375 C 62.089844 7.359375 62.160156 7.617188 62.808594 11.425781 Z M 68.578125 8 C 68.578125 8.351562 68.410156 8.511719 67.894531 8.574219 L 67.199219 8.671875 L 67.199219 19.519531 L 66.601562 19.519531 L 66.601562 8.671875 L 65.914062 8.574219 C 65.363281 8.511719 65.21875 8.351562 65.183594 7.902344 C 65.148438 7.390625 65.269531 7.359375 66.863281 7.425781 C 68.292969 7.519531 68.578125 7.585938 68.578125 8 Z M 72.121094 8 C 72.121094 8.574219 72.035156 8.640625 71.21875 8.640625 L 70.320312 8.640625 L 70.320312 12.480469 L 71.148438 12.480469 C 71.746094 12.480469 71.988281 12.609375 72.035156 12.929688 C 72.144531 13.632812 72.011719 13.761719 71.136719 13.761719 L 70.320312 13.761719 L 70.320312 18.238281 L 71.21875 18.238281 C 72.035156 18.238281 72.121094 18.304688 72.121094 18.878906 C 72.121094 19.488281 72.035156 19.519531 70.921875 19.519531 L 69.71875 19.519531 L 69.71875 7.359375 L 70.921875 7.359375 C 72.035156 7.359375 72.121094 7.390625 72.121094 8 Z M 72.121094 8 "/>
<path style=" stroke:none;fill-rule:nonzero;fill:rgb(0%,0%,0%);fill-opacity:1;" d="M 54.121094 10.753906 L 54.121094 12.894531 L 54.660156 12.703125 C 55.320312 12.511719 55.679688 11.742188 55.679688 10.527344 C 55.679688 9.34375 55.285156 8.640625 54.636719 8.640625 L 54.121094 8.640625 Z M 54.121094 10.753906 "/>
<path style=" stroke:none;fill-rule:nonzero;fill:rgb(0%,0%,0%);fill-opacity:1;" d="M 62.230469 30.367188 C 62.449219 30.71875 62.808594 31.679688 63.058594 32.542969 C 63.300781 33.375 63.589844 34.207031 63.695312 34.367188 C 63.949219 34.753906 62.820312 31.199219 62.425781 30.367188 C 62.257812 30.046875 62.0625 29.761719 61.992188 29.761719 C 61.921875 29.761719 62.027344 30.046875 62.230469 30.367188 Z M 62.230469 30.367188 "/>
<path style=" stroke:none;fill-rule:nonzero;fill:rgb(0%,0%,0%);fill-opacity:1;" d="M 58.789062 31.265625 L 58.378906 32.480469 L 58.800781 31.519531 C 59.027344 31.007812 59.269531 30.464844 59.339844 30.335938 C 59.398438 30.175781 59.398438 30.078125 59.328125 30.078125 C 59.257812 30.078125 59.015625 30.625 58.789062 31.265625 Z M 58.789062 31.265625 "/>
<path style=" stroke:none;fill-rule:nonzero;fill:rgb(0%,0%,0%);fill-opacity:1;" d="M 58.03125 34.398438 C 57.996094 34.6875 57.960938 35.105469 57.972656 35.296875 C 57.972656 35.519531 58.03125 35.328125 58.09375 34.910156 C 58.152344 34.496094 58.1875 34.078125 58.152344 34.015625 C 58.128906 33.953125 58.078125 34.113281 58.03125 34.398438 Z M 58.03125 34.398438 "/>
<path style=" stroke:none;fill-rule:nonzero;fill:rgb(0%,0%,0%);fill-opacity:1;" d="M 63.960938 34.878906 C 63.960938 35.039062 64.019531 35.199219 64.078125 35.199219 C 64.152344 35.199219 64.199219 35.039062 64.199219 34.878906 C 64.199219 34.6875 64.152344 34.558594 64.078125 34.558594 C 64.019531 34.558594 63.960938 34.6875 63.960938 34.878906 Z M 63.960938 34.878906 "/>
<path style=" stroke:none;fill-rule:nonzero;fill:rgb(0%,0%,0%);fill-opacity:1;" d="M 58.476562 39.679688 C 58.65625 40.382812 59.878906 43.390625 59.878906 43.136719 C 59.878906 43.070312 59.519531 42.078125 59.074219 40.960938 C 58.644531 39.808594 58.367188 39.230469 58.476562 39.679688 Z M 58.476562 39.679688 "/>
<path style=" stroke:none;fill-rule:nonzero;fill:rgb(0%,0%,0%);fill-opacity:1;" d="M 60.058594 48.960938 C 60.023438 49.121094 60.070312 49.28125 60.179688 49.28125 C 60.289062 49.28125 60.335938 49.121094 60.300781 48.960938 C 60.265625 48.769531 60.203125 48.640625 60.179688 48.640625 C 60.15625 48.640625 60.097656 48.769531 60.058594 48.960938 Z M 60.058594 48.960938 "/>
<path style=" stroke:none;fill-rule:nonzero;fill:rgb(0%,0%,0%);fill-opacity:1;" d="M 166.980469 71.070312 C 166.714844 71.390625 166.414062 71.679688 166.320312 71.679688 C 166.210938 71.679688 165.949219 72.097656 165.71875 72.574219 C 165.492188 73.089844 164.953125 74.015625 164.519531 74.625 C 163.667969 75.871094 157.402344 84.542969 155.398438 87.230469 L 154.140625 88.960938 L 153.394531 92.0625 C 152.734375 94.816406 152.183594 98.238281 149.039062 119.296875 C 147.058594 132.542969 145.078125 145.40625 144.660156 147.871094 C 144.226562 150.367188 143.878906 152.511719 143.878906 152.640625 C 143.878906 152.769531 144.515625 154.175781 145.296875 155.742188 C 146.0625 157.3125 148.105469 161.472656 149.820312 164.992188 C 151.535156 168.511719 153.589844 172.671875 154.367188 174.273438 L 155.796875 177.121094 L 156.046875 176.191406 C 156.191406 175.679688 156.394531 174.976562 156.503906 174.59375 C 156.695312 173.953125 156.707031 177.3125 156.71875 236.222656 C 156.71875 275.902344 156.769531 298.816406 156.839844 299.328125 L 156.960938 300.160156 L 160.019531 300.160156 C 162 300.160156 163.726562 300.351562 164.902344 300.671875 C 167.039062 301.28125 168.910156 301.121094 170.929688 300.160156 C 172.8125 299.230469 175.679688 299.265625 177.574219 300.222656 C 178.714844 300.769531 179.410156 300.894531 181.320312 300.894531 C 182.605469 300.894531 184.222656 300.734375 184.921875 300.511719 C 189.972656 299.105469 190.332031 299.070312 193.019531 299.710938 C 194.617188 300.097656 196.488281 300.320312 198.121094 300.289062 C 200.734375 300.289062 203.460938 299.710938 203.734375 299.136719 C 203.84375 298.878906 203.878906 286.078125 203.878906 237.089844 C 203.878906 197.121094 203.914062 175.359375 204 175.359375 C 204.058594 175.359375 204.203125 175.710938 204.3125 176.191406 C 204.433594 176.640625 204.589844 176.929688 204.683594 176.832031 C 204.769531 176.734375 206.363281 173.601562 208.210938 169.855469 C 210.070312 166.113281 212.089844 162.015625 212.710938 160.800781 C 215.675781 154.878906 216.480469 153.152344 216.480469 152.609375 C 216.480469 152.320312 216.109375 149.921875 215.652344 147.296875 C 215.207031 144.703125 213.226562 131.839844 211.261719 118.71875 C 207.949219 96.609375 207.636719 94.65625 206.890625 91.679688 C 206.113281 88.542969 206.074219 88.449219 205.199219 87.359375 C 204.707031 86.753906 203.761719 85.503906 203.101562 84.574219 C 202.441406 83.648438 200.28125 80.703125 198.300781 78.046875 C 196.320312 75.390625 194.53125 72.894531 194.328125 72.511719 C 194.136719 72.160156 193.597656 71.488281 193.128906 71.070312 L 192.300781 70.304688 L 191.28125 72.0625 C 189.324219 75.457031 187.355469 77.632812 184.859375 79.199219 C 181.117188 81.535156 176.664062 80.960938 173.21875 77.761719 C 171.695312 76.320312 169.632812 73.632812 168.742188 71.871094 C 167.929688 70.273438 167.699219 70.144531 166.980469 71.070312 Z M 166.980469 71.070312 "/>
<path style=" stroke:none;fill-rule:nonzero;fill:rgb(0%,0%,0%);fill-opacity:1;" d="M 46.933594 71.359375 C 46.644531 71.710938 46.34375 72 46.261719 72 C 46.1875 72 46.019531 72.289062 45.898438 72.640625 C 45.78125 72.992188 44.519531 74.878906 43.09375 76.863281 C 41.664062 78.816406 39.527344 81.792969 38.339844 83.425781 C 37.152344 85.089844 35.746094 86.976562 35.207031 87.679688 C 34.285156 88.863281 34.210938 89.054688 33.574219 91.585938 C 33.214844 93.054688 32.820312 94.71875 32.710938 95.296875 C 32.605469 95.871094 30.925781 106.878906 28.992188 119.777344 C 25.234375 144.734375 25.246094 144.609375 24.503906 148.832031 C 23.722656 153.214844 23.664062 152.703125 25.222656 155.871094 C 25.96875 157.375 28.523438 162.527344 30.898438 167.328125 C 33.265625 172.128906 35.339844 176.289062 35.507812 176.574219 C 35.785156 177.089844 35.808594 177.054688 36.046875 176.191406 C 36.191406 175.679688 36.394531 174.976562 36.503906 174.59375 C 36.695312 173.953125 36.707031 177.28125 36.730469 236.160156 C 36.730469 270.398438 36.78125 298.753906 36.828125 299.199219 L 36.910156 300 L 40.019531 300.097656 C 41.773438 300.128906 43.957031 300.382812 45 300.671875 C 47.125 301.28125 48.886719 301.089844 50.867188 300.128906 C 52.558594 299.296875 55.957031 299.230469 57.238281 300 C 59.28125 301.183594 62.449219 301.214844 66.660156 300 C 69.730469 299.136719 71.28125 299.070312 73.320312 299.710938 C 76.378906 300.703125 82.824219 300.351562 83.675781 299.136719 C 83.867188 298.878906 83.878906 295.585938 83.878906 236.863281 L 83.890625 174.878906 L 84.214844 175.9375 C 84.394531 176.511719 84.589844 176.960938 84.636719 176.960938 C 84.707031 176.960938 91.414062 163.648438 93.71875 158.910156 C 94.078125 158.175781 94.847656 156.609375 95.4375 155.390625 C 96.011719 154.207031 96.480469 153.054688 96.480469 152.800781 C 96.480469 152.574219 96.132812 150.367188 95.710938 147.9375 C 94.859375 143.007812 94.273438 139.199219 92.53125 127.519531 C 90.035156 110.6875 87.863281 96.414062 87.601562 95.039062 C 87.265625 93.28125 86.257812 89.246094 86.015625 88.734375 C 85.933594 88.511719 85.234375 87.585938 84.480469 86.65625 C 83.722656 85.726562 82.753906 84.449219 82.320312 83.808594 C 79.546875 79.679688 72.3125 70.367188 72.191406 70.753906 C 72.167969 70.816406 71.929688 72.609375 71.652344 74.71875 C 71.386719 76.800781 71.113281 78.65625 71.0625 78.785156 C 71.003906 78.945312 70.523438 78.335938 69.984375 77.503906 L 68.988281 75.9375 L 68.183594 76.703125 C 65.484375 79.359375 63.144531 80.640625 60.589844 80.863281 C 57.589844 81.152344 55.054688 80.03125 52.441406 77.214844 L 51.058594 75.742188 L 49.992188 77.246094 C 49.402344 78.078125 48.886719 78.65625 48.839844 78.496094 C 48.78125 78.367188 48.492188 76.640625 48.179688 74.71875 C 47.878906 72.769531 47.59375 71.105469 47.542969 70.976562 C 47.496094 70.847656 47.21875 71.039062 46.933594 71.359375 Z M 60.167969 140.703125 C 60.035156 142.367188 60 142.59375 59.890625 142.144531 C 59.832031 141.855469 59.734375 141.921875 59.566406 142.433594 C 59.4375 142.847656 59.410156 143.039062 59.519531 142.878906 C 59.722656 142.527344 60.40625 142.625 60.910156 143.070312 L 61.285156 143.359375 L 61.246094 146.144531 C 61.234375 148.03125 61.175781 148.960938 61.054688 149.152344 C 60.949219 149.34375 60.984375 149.441406 61.199219 149.472656 C 61.367188 149.503906 60.910156 149.632812 60.179688 149.761719 C 58.09375 150.144531 56.640625 151.425781 55.105469 154.207031 C 54.695312 154.910156 54.347656 155.519531 54.324219 155.519531 C 54.289062 155.519531 54.15625 155.007812 54.011719 154.398438 L 53.773438 153.28125 L 54.3125 152.289062 C 54.996094 151.039062 56.410156 149.28125 57.121094 148.800781 C 57.625 148.449219 57.683594 148.289062 58.019531 146.398438 L 58.378906 144.351562 L 58.019531 144.542969 C 57.097656 145.023438 55.597656 146.335938 54.804688 147.390625 C 53.796875 148.769531 52.441406 151.007812 52.441406 151.328125 C 52.441406 151.457031 52.90625 153.023438 53.472656 154.816406 C 54.335938 157.535156 54.480469 158.175781 54.359375 158.558594 C 54.144531 159.265625 54.046875 159.167969 53.675781 158.015625 C 52.546875 154.527344 51.792969 152.671875 51.550781 152.800781 C 51.394531 152.929688 51.109375 152.640625 50.796875 152.0625 L 50.292969 151.167969 L 51.359375 148.960938 C 53.855469 143.742188 56.699219 140.671875 59.242188 140.449219 C 59.664062 140.414062 60.035156 140.257812 60.070312 140.097656 C 60.191406 139.585938 60.238281 139.871094 60.167969 140.703125 Z M 60.910156 142.335938 C 60.78125 142.65625 60.613281 141.921875 60.539062 140.800781 L 60.46875 139.679688 L 60.71875 140.894531 C 60.863281 141.601562 60.949219 142.238281 60.910156 142.335938 Z M 63.046875 144.128906 C 63.886719 144.480469 65.867188 146.367188 66.9375 147.902344 C 67.90625 149.28125 69.359375 151.871094 69.359375 152.257812 C 69.359375 152.382812 69.191406 152.992188 68.988281 153.601562 C 68.796875 154.207031 68.339844 155.742188 67.980469 156.992188 C 67.621094 158.273438 67.164062 159.648438 66.972656 160.097656 C 66.671875 160.734375 66.636719 160.960938 66.769531 161.246094 C 66.886719 161.535156 66.996094 161.441406 67.210938 160.960938 C 67.378906 160.609375 67.429688 160.351562 67.34375 160.320312 C 67.261719 160.320312 67.210938 160.191406 67.261719 160 C 67.296875 159.839844 67.402344 159.777344 67.5 159.902344 C 67.597656 160 67.679688 159.9375 67.679688 159.777344 C 67.679688 159.648438 67.921875 158.816406 68.21875 157.953125 C 68.519531 157.089844 68.761719 156.191406 68.761719 155.96875 C 68.761719 155.777344 69.121094 154.6875 69.574219 153.566406 C 70.390625 151.488281 71.640625 148.960938 71.640625 149.34375 C 71.640625 149.726562 68.734375 157.921875 68.460938 158.335938 C 68.328125 158.496094 67.90625 159.488281 67.523438 160.511719 L 66.828125 162.367188 L 66.359375 160.609375 C 66.097656 159.648438 65.878906 158.753906 65.878906 158.625 C 65.878906 158.464844 66.121094 157.761719 66.421875 157.054688 C 66.71875 156.320312 66.960938 155.648438 66.960938 155.550781 C 66.960938 155.457031 66.71875 154.945312 66.421875 154.464844 C 66.121094 153.953125 65.878906 153.472656 65.878906 153.375 C 65.878906 153.28125 66.011719 153.441406 66.179688 153.726562 C 66.347656 154.015625 66.625 154.496094 66.792969 154.785156 L 67.105469 155.328125 L 67.8125 153.246094 C 68.195312 152.128906 68.507812 151.136719 68.507812 151.039062 C 68.519531 150.785156 67.078125 148.574219 66.226562 147.550781 C 65.328125 146.464844 63.851562 145.183594 62.84375 144.609375 C 62.472656 144.382812 62.101562 144.03125 62.015625 143.777344 C 61.90625 143.425781 61.933594 143.390625 62.171875 143.617188 C 62.328125 143.777344 62.722656 144.03125 63.046875 144.128906 Z M 62.160156 145.664062 C 62.160156 146.207031 62.039062 145.855469 61.859375 144.863281 L 61.667969 143.839844 L 61.90625 144.640625 C 62.039062 145.089844 62.160156 145.535156 62.160156 145.664062 Z M 62.890625 146.71875 C 63.132812 148.0625 63.191406 149.761719 63.011719 149.761719 C 62.953125 149.761719 62.878906 149.183594 62.832031 148.449219 C 62.785156 147.710938 62.652344 146.558594 62.519531 145.855469 C 62.339844 144.832031 62.328125 144.671875 62.484375 145.023438 C 62.59375 145.246094 62.773438 146.015625 62.890625 146.71875 Z M 62.519531 147.039062 C 62.519531 147.199219 62.460938 147.136719 62.398438 146.878906 C 62.339844 146.625 62.28125 146.238281 62.28125 146.078125 C 62.28125 145.886719 62.339844 145.984375 62.398438 146.238281 C 62.460938 146.496094 62.519531 146.847656 62.519531 147.039062 Z M 56.746094 148.289062 C 56.722656 148.351562 56.292969 148.992188 55.800781 149.664062 C 55.308594 150.367188 54.589844 151.390625 54.214844 151.96875 C 53.328125 153.3125 53.316406 153.023438 54.179688 151.488281 C 54.539062 150.847656 54.839844 150.175781 54.839844 150.046875 C 54.839844 149.886719 54.910156 149.761719 55.007812 149.761719 C 55.09375 149.761719 55.464844 149.40625 55.8125 148.992188 C 56.375 148.289062 56.890625 147.902344 56.746094 148.289062 Z M 50.460938 151.9375 C 51.347656 153.726562 52.921875 157.40625 52.921875 157.695312 C 52.921875 157.824219 52.835938 158.207031 52.738281 158.527344 C 52.585938 159.070312 52.546875 159.105469 52.296875 158.65625 C 51.660156 157.503906 50.507812 154.433594 49.800781 151.9375 C 48.972656 149.054688 49.03125 149.054688 50.460938 151.9375 Z M 63.601562 150.6875 C 63.960938 151.039062 64.199219 151.328125 64.128906 151.328125 C 64.054688 151.359375 63.769531 151.136719 63.46875 150.878906 C 63.179688 150.625 62.617188 150.273438 62.21875 150.078125 L 61.5 149.792969 L 62.21875 149.921875 C 62.617188 149.984375 63.238281 150.335938 63.601562 150.6875 Z M 62.722656 151.070312 C 63.214844 151.425781 63.382812 151.808594 63.109375 152.0625 C 62.867188 152.289062 63.144531 153.152344 63.863281 154.335938 C 64.597656 155.550781 64.765625 156.320312 64.105469 155.390625 C 63.085938 153.984375 62.628906 153.761719 60.71875 153.761719 C 59.015625 153.761719 58.789062 153.824219 57.996094 154.59375 C 56.964844 155.617188 55.738281 157.855469 55.1875 159.742188 C 54.683594 161.503906 54.503906 161.984375 54.757812 160.894531 C 55.03125 159.742188 55.019531 159.679688 54.589844 159.808594 C 54.265625 159.902344 54.238281 159.871094 54.394531 159.457031 C 54.492188 159.199219 54.730469 158.945312 54.925781 158.910156 C 55.117188 158.847656 55.34375 158.71875 55.414062 158.59375 C 55.777344 157.984375 55.367188 156.160156 54.875 156.160156 C 53.566406 156.160156 57.046875 151.519531 58.96875 150.6875 C 59.722656 150.367188 62.015625 150.625 62.722656 151.070312 Z M 63.660156 151.9375 C 63.625 152.03125 63.527344 151.9375 63.445312 151.710938 C 63.335938 151.390625 63.347656 151.359375 63.515625 151.550781 C 63.636719 151.648438 63.695312 151.839844 63.660156 151.9375 Z M 64.96875 152 C 65.269531 152.320312 65.519531 152.703125 65.519531 152.769531 C 65.519531 152.929688 64.429688 151.777344 64.332031 151.488281 C 64.222656 151.230469 64.429688 151.359375 64.96875 152 Z M 50.242188 153.984375 C 50.605469 155.328125 50.617188 155.425781 50.386719 155.777344 C 50.125 156.222656 50.074219 157.121094 50.316406 157.121094 C 50.496094 157.121094 51.71875 160.222656 51.636719 160.449219 C 51.574219 160.574219 51.347656 160.097656 50.507812 158.144531 C 50.269531 157.601562 50.015625 157.121094 49.957031 157.121094 C 49.691406 157.121094 48.503906 162.398438 48.058594 165.566406 C 47.6875 168.160156 47.113281 174.078125 47.207031 174.304688 C 47.242188 174.398438 47.519531 174.367188 47.808594 174.273438 C 48.277344 174.078125 48.371094 173.921875 48.421875 173.183594 C 48.792969 168.351562 49.222656 165.441406 50.089844 161.792969 C 50.628906 159.519531 50.699219 159.328125 50.84375 159.871094 C 50.929688 160.191406 51 160.574219 51 160.769531 C 51 160.929688 51.179688 161.472656 51.394531 161.953125 C 51.71875 162.6875 51.757812 162.878906 51.613281 163.265625 C 51.515625 163.488281 51.480469 163.519531 51.515625 163.328125 C 51.5625 163.105469 51.492188 162.878906 51.359375 162.785156 C 51.109375 162.625 50.890625 163.167969 50.59375 164.703125 C 50.425781 165.632812 50.425781 165.726562 50.578125 165.535156 C 50.6875 165.441406 50.746094 165.28125 50.710938 165.183594 C 50.675781 165.121094 50.761719 164.609375 50.890625 164.097656 C 51.085938 163.425781 51.179688 163.265625 51.300781 163.519531 C 51.382812 163.710938 51.527344 163.777344 51.636719 163.648438 C 51.730469 163.550781 51.851562 163.617188 51.898438 163.808594 C 51.9375 164 52.105469 164.160156 52.261719 164.160156 C 52.414062 164.160156 52.585938 164.320312 52.632812 164.542969 C 52.691406 164.800781 52.585938 164.863281 52.222656 164.734375 C 51.960938 164.640625 51.707031 164.640625 51.671875 164.734375 C 51.550781 165.054688 52.09375 166.367188 52.273438 166.175781 C 52.464844 165.984375 52.488281 166.207031 52.320312 167.007812 C 52.246094 167.425781 52.261719 167.777344 52.390625 168.191406 C 52.558594 168.769531 52.558594 168.769531 52.441406 168.0625 C 52.308594 167.328125 52.308594 167.328125 52.621094 167.871094 C 52.847656 168.257812 53.0625 168.351562 53.449219 168.222656 C 53.988281 168 54.121094 168.257812 54.121094 169.503906 C 54.121094 169.921875 54.097656 169.921875 53.929688 169.566406 C 53.773438 169.214844 53.785156 169.441406 53.988281 170.464844 C 54.277344 172.03125 54.300781 172.734375 54.058594 173.566406 C 53.902344 174.113281 53.929688 174.304688 54.265625 175.550781 C 54.46875 176.320312 54.648438 176.960938 54.671875 176.960938 C 54.683594 176.960938 54.625 176.289062 54.527344 175.457031 C 54.253906 173.054688 54.347656 172.449219 54.648438 174.65625 C 54.804688 175.777344 54.960938 176.769531 54.996094 176.832031 C 55.03125 176.929688 55.164062 176.832031 55.308594 176.574219 C 55.65625 176 55.957031 173.855469 55.859375 172.574219 C 55.789062 171.550781 55.308594 170.238281 55.007812 170.238281 C 54.910156 170.238281 54.839844 170.015625 54.839844 169.761719 C 54.839844 168.929688 55.597656 169.984375 55.789062 171.070312 L 55.96875 172 L 56.074219 170.59375 C 56.207031 168.832031 56.039062 167.167969 55.597656 165.761719 C 55.355469 164.992188 55.261719 164.863281 55.1875 165.183594 C 55.105469 165.503906 55.078125 165.503906 55.078125 165.152344 C 55.078125 164.894531 54.996094 164.449219 54.898438 164.160156 C 54.742188 163.679688 54.757812 163.457031 55.03125 161.984375 C 55.414062 159.902344 56.230469 157.953125 57.238281 156.671875 C 58.1875 155.488281 59.242188 155.230469 60.996094 155.839844 L 62.160156 156.222656 L 62.160156 159.839844 L 60.984375 162.144531 C 60.347656 163.425781 59.449219 165.28125 58.980469 166.238281 C 58.523438 167.230469 57.804688 168.542969 57.382812 169.183594 C 56.964844 169.792969 56.652344 170.367188 56.675781 170.433594 C 56.699219 170.496094 56.953125 170.335938 57.238281 170.078125 C 57.949219 169.40625 58.585938 169.472656 59.257812 170.304688 C 59.878906 171.070312 60.109375 171.710938 60.121094 172.574219 C 60.121094 173.023438 60.167969 173.089844 60.347656 172.800781 C 60.660156 172.351562 60.660156 172.351562 60.683594 173.34375 C 60.695312 173.886719 60.550781 174.6875 60.300781 175.488281 C 59.722656 177.441406 59.59375 178.207031 59.507812 180.320312 C 59.4375 182.238281 59.4375 182.238281 59.425781 179.585938 C 59.410156 178.144531 59.375 176.960938 59.351562 176.960938 C 59.328125 176.960938 59.015625 177.3125 58.644531 177.761719 C 57.804688 178.785156 56.761719 178.945312 56.398438 178.078125 C 56.269531 177.761719 56.160156 177.664062 56.160156 177.855469 C 56.160156 178.046875 56.089844 178.144531 55.992188 178.046875 C 55.894531 177.953125 55.800781 178.144531 55.765625 178.558594 C 55.679688 179.488281 55.273438 179.296875 55.222656 178.304688 C 55.164062 177.183594 54.960938 177.824219 54.960938 179.136719 C 54.960938 179.902344 55.078125 180.800781 55.285156 181.601562 L 55.597656 182.878906 L 55.273438 182.078125 C 55.105469 181.664062 54.886719 180.671875 54.804688 179.902344 L 54.648438 178.496094 L 54.324219 179.519531 C 53.976562 180.609375 53.988281 181.121094 54.371094 181.121094 C 54.503906 181.121094 54.730469 181.472656 54.875 181.921875 C 55.03125 182.398438 55.308594 182.785156 55.535156 182.847656 C 55.753906 182.910156 55.957031 183.039062 55.992188 183.105469 C 56.089844 183.390625 56.050781 188.929688 55.933594 190.558594 C 55.871094 191.425781 55.847656 192.289062 55.882812 192.449219 C 55.945312 192.703125 55.453125 192.574219 54.613281 192.128906 C 54.277344 191.9375 54.214844 192 54.277344 192.414062 C 54.324219 192.734375 54.179688 193.183594 53.84375 193.824219 C 53.566406 194.304688 53.316406 194.816406 53.28125 194.910156 C 53.242188 195.007812 53.113281 195.199219 52.980469 195.328125 C 52.789062 195.519531 52.777344 195.617188 52.921875 195.871094 C 53.0625 196.160156 53.0625 196.191406 52.882812 196.03125 C 52.667969 195.839844 52.378906 196.449219 52.128906 197.632812 C 52.042969 197.953125 51.949219 198.144531 51.886719 197.984375 C 51.839844 197.855469 51.910156 197.34375 52.042969 196.832031 C 52.285156 196 52.285156 195.902344 52.105469 195.359375 C 51.996094 195.039062 51.972656 194.878906 52.054688 195.007812 C 52.128906 195.136719 52.199219 195.070312 52.199219 194.910156 C 52.199219 194.433594 51.757812 194.464844 51.683594 194.945312 C 51.648438 195.167969 51.613281 194.945312 51.613281 194.464844 C 51.601562 193.984375 51.492188 192.992188 51.347656 192.257812 C 50.976562 190.335938 50.148438 187.167969 49.957031 186.976562 C 49.871094 186.878906 49.703125 186.273438 49.585938 185.632812 C 49.246094 183.742188 49.296875 176.0625 49.667969 172.480469 C 49.824219 170.976562 49.980469 169.40625 50.003906 168.960938 L 50.0625 168.160156 L 49.894531 168.960938 C 49.535156 170.6875 48.960938 176.640625 48.960938 178.65625 C 48.960938 179.230469 48.898438 179.902344 48.828125 180.160156 C 48.730469 180.511719 48.71875 179.425781 48.769531 176.320312 C 48.816406 173.34375 48.804688 172.128906 48.71875 172.351562 C 48.515625 172.894531 48.359375 176.222656 48.359375 179.9375 C 48.359375 182.304688 48.324219 183.328125 48.226562 183.199219 C 48.15625 183.070312 48.132812 182.753906 48.179688 182.496094 C 48.214844 182.207031 48.214844 181.503906 48.167969 180.894531 L 48.097656 179.808594 L 46.90625 179.902344 C 46.246094 179.96875 45.71875 179.871094 45.71875 179.710938 C 45.71875 179.550781 45.648438 179.585938 45.574219 179.777344 C 45.492188 179.9375 45.3125 180.160156 45.179688 180.257812 C 45 180.382812 45.023438 180.414062 45.277344 180.449219 C 45.71875 180.480469 45.695312 181.28125 45.226562 181.726562 C 44.519531 182.367188 44.4375 182.238281 44.339844 180.414062 C 44.242188 178.527344 44.351562 178.144531 45.097656 177.761719 C 45.5625 177.535156 45.71875 177.152344 45.71875 176.191406 C 45.71875 175.679688 45.695312 175.679688 45.527344 176.03125 C 45.371094 176.351562 45.324219 176.351562 45.238281 176.03125 C 45.191406 175.777344 45.070312 175.679688 44.988281 175.742188 C 44.855469 175.871094 44.398438 174.976562 44.398438 174.558594 C 44.398438 174.464844 44.617188 174.398438 44.867188 174.398438 C 45.625 174.398438 45.949219 173.40625 46.078125 170.878906 C 46.234375 167.519531 46.90625 162.816406 47.855469 158.527344 C 48.347656 156.257812 49.632812 152.222656 49.789062 152.449219 C 49.824219 152.511719 50.039062 153.214844 50.242188 153.984375 Z M 70.847656 154.945312 C 70.609375 155.871094 70.320312 156.960938 70.210938 157.34375 C 70.105469 157.726562 69.984375 158.078125 69.925781 158.078125 C 69.875 158.078125 70.140625 156.992188 70.523438 155.679688 C 71.292969 152.929688 71.53125 152.449219 70.847656 154.945312 Z M 52.09375 159.96875 C 52.042969 160.382812 52.03125 160.382812 51.984375 159.96875 C 51.949219 159.742188 51.660156 158.65625 51.324219 157.601562 L 50.722656 155.679688 L 51.433594 157.601562 C 51.839844 158.6875 52.117188 159.710938 52.09375 159.96875 Z M 71.53125 156.894531 C 71.292969 157.601562 71.28125 157.695312 71.472656 158.113281 C 72.179688 159.648438 73.464844 166.496094 73.859375 170.816406 C 74.089844 173.28125 74.039062 174.816406 73.8125 172.480469 C 73.296875 167.265625 72.625 163.070312 71.734375 159.585938 L 71.257812 157.726562 L 70.859375 158.945312 C 70.632812 159.617188 70.453125 159.96875 70.441406 159.742188 C 70.441406 159.328125 71.554688 156.160156 71.710938 156.160156 C 71.761719 156.160156 71.6875 156.511719 71.53125 156.894531 Z M 53.734375 159.679688 C 54.347656 161.28125 54.492188 161.921875 54.214844 161.921875 C 54.144531 161.921875 54.121094 161.824219 54.15625 161.726562 C 54.253906 161.441406 53.710938 160.320312 53.484375 160.320312 C 53.269531 160.320312 52.882812 158.816406 52.980469 158.398438 C 53.089844 157.953125 53.050781 157.921875 53.734375 159.679688 Z M 70.007812 158.6875 C 70.128906 159.167969 69.742188 159.328125 69.601562 158.847656 C 69.480469 158.496094 69.492188 158.398438 69.695312 158.398438 C 69.839844 158.398438 69.972656 158.527344 70.007812 158.6875 Z M 70.621094 161.246094 C 70.585938 161.632812 70.5 161.921875 70.441406 161.921875 C 70.378906 161.921875 70.390625 161.566406 70.464844 161.121094 C 70.621094 160.191406 70.738281 160.289062 70.621094 161.246094 Z M 69.359375 162.046875 C 69.359375 162.113281 69.265625 162.367188 69.15625 162.59375 C 68.964844 163.007812 68.953125 162.976562 69.109375 162.464844 C 69.265625 161.953125 69.359375 161.792969 69.359375 162.046875 Z M 70.199219 162.367188 C 70.199219 162.464844 70.152344 162.625 70.078125 162.71875 C 70.019531 162.816406 69.960938 162.753906 69.960938 162.59375 C 69.960938 162.398438 70.019531 162.238281 70.078125 162.238281 C 70.152344 162.238281 70.199219 162.304688 70.199219 162.367188 Z M 52.921875 163.679688 C 53.003906 163.96875 53.015625 164.160156 52.945312 164.160156 C 52.882812 164.160156 52.800781 163.9375 52.753906 163.679688 C 52.714844 163.425781 52.703125 163.199219 52.726562 163.199219 C 52.753906 163.199219 52.835938 163.425781 52.921875 163.679688 Z M 68.664062 163.902344 C 68.59375 164.097656 68.484375 164.160156 68.4375 164.03125 C 68.386719 163.902344 68.425781 163.679688 68.519531 163.519531 C 68.617188 163.359375 68.722656 163.296875 68.746094 163.390625 C 68.785156 163.457031 68.734375 163.710938 68.664062 163.902344 Z M 66.601562 164.863281 C 66.601562 165.441406 66.167969 168 66.070312 168 C 66.046875 168 66.070312 167.457031 66.132812 166.785156 C 66.191406 166.144531 66.238281 165.121094 66.238281 164.511719 C 66.238281 163.585938 66.265625 163.488281 66.421875 163.839844 C 66.515625 164.0625 66.601562 164.511719 66.601562 164.863281 Z M 70.066406 164.0625 C 69.984375 164.382812 69.757812 165.121094 69.5625 165.726562 C 69.371094 166.304688 69.179688 167.105469 69.121094 167.519531 C 69.046875 168 68.878906 168.320312 68.578125 168.449219 C 68.328125 168.574219 68.113281 168.609375 68.074219 168.511719 C 68.039062 168.414062 67.859375 168.542969 67.667969 168.800781 C 67.234375 169.40625 67.199219 169.40625 67.199219 168.671875 C 67.199219 168.128906 67.285156 168.0625 67.980469 168.128906 C 68.617188 168.160156 68.785156 168.0625 68.929688 167.519531 C 69.035156 167.167969 69.085938 166.6875 69.058594 166.496094 C 69.035156 166.273438 69.167969 165.855469 69.359375 165.601562 C 69.851562 164.929688 69.816406 164.574219 69.277344 164.734375 C 68.929688 164.800781 68.867188 164.769531 69 164.511719 C 69.097656 164.320312 69.347656 164.160156 69.5625 164.160156 C 69.769531 164.160156 69.984375 164 70.019531 163.839844 C 70.054688 163.648438 70.128906 163.519531 70.164062 163.519531 C 70.199219 163.519531 70.152344 163.777344 70.066406 164.0625 Z M 71.964844 166.304688 C 72.121094 167.230469 72.214844 168.160156 72.167969 168.351562 C 72.121094 168.574219 72.132812 168.640625 72.203125 168.542969 C 72.382812 168.222656 73.09375 174.367188 73.066406 176.160156 C 73.066406 176.800781 73.007812 176.542969 72.910156 175.265625 C 72.828125 174.273438 72.683594 173.246094 72.574219 173.023438 C 72.480469 172.832031 72.253906 171.425781 72.085938 169.921875 C 71.6875 166.527344 71.183594 164.160156 71.015625 164.929688 C 70.957031 165.214844 70.847656 165.441406 70.777344 165.441406 C 70.691406 165.441406 70.789062 164.992188 70.980469 164.480469 C 71.316406 163.550781 71.339844 163.519531 71.496094 164.0625 C 71.59375 164.382812 71.796875 165.40625 71.964844 166.304688 Z M 67.042969 164.863281 C 67.007812 165.121094 66.972656 165.023438 66.972656 164.671875 C 66.960938 164.320312 66.996094 164.128906 67.03125 164.257812 C 67.066406 164.351562 67.078125 164.640625 67.042969 164.863281 Z M 54.324219 166.398438 C 54.359375 166.65625 54.40625 167.390625 54.421875 168 C 54.445312 168.671875 54.433594 168.800781 54.394531 168.320312 C 54.335938 167.585938 54.324219 167.550781 54.226562 168.160156 C 54.167969 168.574219 54.132812 168.160156 54.132812 166.878906 C 54.144531 165.824219 54.167969 165.183594 54.203125 165.441406 C 54.226562 165.695312 54.289062 166.144531 54.324219 166.398438 Z M 65.542969 166.816406 C 65.183594 168.703125 65.050781 168.929688 65.269531 167.328125 C 65.386719 166.433594 65.722656 165.121094 65.832031 165.121094 C 65.855469 165.121094 65.722656 165.886719 65.542969 166.816406 Z M 68.398438 165.566406 C 68.398438 165.632812 68.257812 165.921875 68.074219 166.207031 L 67.738281 166.753906 L 68.027344 166.113281 C 68.304688 165.441406 68.398438 165.3125 68.398438 165.566406 Z M 55.320312 167.808594 C 55.320312 168.382812 55.117188 167.550781 55.03125 166.71875 L 54.949219 165.921875 L 55.128906 166.71875 C 55.234375 167.167969 55.308594 167.648438 55.320312 167.808594 Z M 67.1875 169.855469 C 67.199219 170.175781 67.164062 170.175781 67.042969 169.855469 C 66.949219 169.632812 66.910156 169.121094 66.949219 168.671875 L 67.007812 167.839844 L 67.09375 168.640625 C 67.140625 169.089844 67.175781 169.632812 67.1875 169.855469 Z M 68.386719 169.664062 C 68.773438 172.414062 68.820312 173.761719 68.820312 183.457031 L 68.820312 193.3125 L 68.53125 193.792969 L 68.257812 194.304688 L 68.808594 195.808594 C 69.109375 196.640625 69.359375 197.503906 69.359375 197.726562 C 69.359375 197.984375 69.238281 197.695312 69.085938 197.089844 C 68.929688 196.480469 68.734375 196 68.640625 196 C 68.375 195.96875 68.148438 195.519531 68.21875 195.167969 C 68.269531 195.007812 68.242188 194.878906 68.171875 194.878906 C 68.113281 194.878906 67.8125 194.496094 67.511719 193.984375 C 67.128906 193.375 66.972656 192.960938 67.007812 192.574219 C 67.078125 191.679688 66.925781 191.648438 66.203125 192.289062 L 65.542969 192.894531 L 65.375 191.265625 C 65.292969 190.335938 65.21875 188.191406 65.21875 186.496094 C 65.21875 184.703125 65.171875 183.328125 65.101562 183.265625 C 65.039062 183.199219 65.074219 183.167969 65.195312 183.230469 C 65.53125 183.359375 66.335938 181.054688 66.433594 179.679688 C 66.503906 178.6875 66.457031 178.367188 66.167969 177.566406 C 65.914062 176.863281 65.808594 176.734375 65.722656 177.023438 C 65.652344 177.3125 65.640625 177.246094 65.6875 176.863281 C 65.722656 176.542969 65.761719 176.097656 65.761719 175.902344 C 65.761719 175.679688 65.832031 175.871094 65.914062 176.320312 C 66.15625 177.632812 66.394531 177.28125 66.695312 175.199219 C 66.925781 173.535156 66.972656 173.921875 66.757812 175.839844 C 66.695312 176.414062 66.71875 176.414062 67.007812 175.710938 C 67.355469 174.816406 67.390625 174.207031 67.140625 173.3125 C 66.949219 172.609375 66.886719 171.359375 67.066406 171.679688 C 67.128906 171.777344 67.246094 171.328125 67.320312 170.71875 C 67.535156 168.960938 68.195312 168.320312 68.386719 169.664062 Z M 54.492188 170.207031 C 54.574219 169.855469 54.601562 169.855469 54.601562 170.304688 C 54.601562 170.59375 54.550781 170.910156 54.492188 171.039062 C 54.335938 171.296875 54.132812 170.207031 54.226562 169.601562 C 54.277344 169.246094 54.3125 169.34375 54.335938 169.886719 C 54.371094 170.496094 54.40625 170.558594 54.492188 170.207031 Z M 64.535156 170.527344 C 65.074219 171.296875 65.003906 171.359375 64.320312 170.71875 C 63.71875 170.144531 62.617188 170.078125 62.242188 170.59375 C 62.101562 170.785156 61.882812 171.265625 61.777344 171.648438 C 61.570312 172.320312 61.558594 172.320312 61.558594 171.679688 C 61.558594 169.761719 63.46875 169.023438 64.535156 170.527344 Z M 66.480469 169.855469 C 66.480469 170.015625 66.347656 170.304688 66.179688 170.496094 C 65.808594 170.945312 65.785156 170.464844 66.15625 169.984375 C 66.492188 169.535156 66.480469 169.566406 66.480469 169.855469 Z M 66.898438 171.199219 C 66.792969 172.511719 66.695312 172.257812 66.792969 170.910156 C 66.839844 170.367188 66.898438 169.953125 66.925781 170.046875 C 66.960938 170.113281 66.949219 170.65625 66.898438 171.199219 Z M 65.617188 171.105469 C 65.542969 171.617188 65.496094 172.351562 65.496094 172.800781 C 65.507812 173.503906 65.496094 173.535156 65.386719 173.023438 C 65.292969 172.574219 65.304688 172.160156 65.460938 171.328125 C 65.6875 170.015625 65.808594 169.855469 65.617188 171.105469 Z M 54.613281 172.0625 C 54.46875 172.703125 54.445312 172.511719 54.550781 171.679688 C 54.601562 171.390625 54.660156 171.230469 54.683594 171.328125 C 54.71875 171.390625 54.683594 171.742188 54.613281 172.0625 Z M 55.007812 173.3125 C 55.042969 173.566406 55.03125 173.695312 54.960938 173.601562 C 54.886719 173.503906 54.839844 173.28125 54.839844 173.089844 C 54.839844 172.640625 54.925781 172.734375 55.007812 173.3125 Z M 65.605469 174.464844 C 65.566406 174.71875 65.53125 174.625 65.53125 174.273438 C 65.519531 173.921875 65.554688 173.726562 65.59375 173.855469 C 65.628906 173.953125 65.640625 174.238281 65.605469 174.464844 Z M 65.351562 177.152344 C 65.242188 177.566406 65.101562 177.921875 65.027344 177.921875 C 64.957031 177.921875 65.015625 177.535156 65.148438 177.089844 C 65.292969 176.609375 65.410156 175.9375 65.410156 175.550781 C 65.4375 174.945312 65.4375 174.945312 65.484375 175.617188 C 65.519531 176.03125 65.449219 176.703125 65.351562 177.152344 Z M 65.28125 175.679688 C 65.28125 176.128906 64.546875 177.28125 64.402344 177.054688 C 64.273438 176.832031 64.402344 176.511719 64.859375 175.871094 C 65.292969 175.265625 65.28125 175.265625 65.28125 175.679688 Z M 44.890625 176.640625 L 45.179688 177.246094 L 44.761719 177.28125 C 44.449219 177.28125 44.386719 177.183594 44.519531 176.960938 C 44.640625 176.769531 44.652344 176.640625 44.554688 176.640625 C 44.472656 176.640625 44.398438 176.480469 44.398438 176.320312 C 44.398438 175.808594 44.59375 175.9375 44.890625 176.640625 Z M 72.636719 183.328125 C 72.574219 187.425781 72.265625 190.367188 71.410156 194.945312 C 71.003906 197.183594 70.980469 197.441406 71.148438 197.886719 C 71.242188 198.175781 71.269531 198.398438 71.195312 198.398438 C 71.125 198.398438 71.003906 198.175781 70.921875 197.921875 C 70.835938 197.664062 70.714844 197.441406 70.65625 197.441406 C 70.464844 197.441406 69.839844 196.160156 69.839844 195.777344 C 69.839844 195.585938 69.984375 195.808594 70.164062 196.289062 C 70.332031 196.769531 70.535156 197.089844 70.609375 197.054688 C 70.835938 196.863281 71.867188 190.945312 72.121094 188.320312 C 72.289062 186.6875 72.40625 184.160156 72.457031 181.441406 C 72.503906 178.273438 72.550781 177.472656 72.613281 178.398438 C 72.660156 179.105469 72.671875 181.3125 72.636719 183.328125 Z M 73.164062 180.703125 C 73.140625 181.375 73.117188 180.832031 73.117188 179.519531 C 73.117188 178.207031 73.140625 177.664062 73.164062 178.304688 C 73.1875 178.976562 73.1875 180.0625 73.164062 180.703125 Z M 62.039062 183.390625 C 61.882812 184.351562 61.332031 185.761719 61.222656 185.441406 C 61.199219 185.375 61.332031 184.800781 61.535156 184.191406 C 61.738281 183.585938 61.945312 182.753906 61.992188 182.335938 C 62.039062 181.886719 62.101562 181.761719 62.136719 182.015625 C 62.160156 182.238281 62.113281 182.847656 62.039062 183.390625 Z M 57.816406 183.230469 C 58.042969 183.648438 58.078125 184 58.066406 185.695312 C 58.054688 187.96875 57.972656 188.671875 57.71875 188.640625 C 57.574219 188.640625 57.550781 188.222656 57.574219 186.59375 C 57.613281 184.894531 57.589844 184.480469 57.371094 183.96875 C 57.226562 183.617188 57.121094 183.199219 57.121094 183.039062 C 57.121094 182.558594 57.515625 182.65625 57.816406 183.230469 Z M 64.355469 183.359375 C 64.320312 183.777344 64.199219 183.96875 64.03125 183.902344 C 63.792969 183.839844 63.78125 183.96875 63.792969 186.175781 L 63.792969 188.480469 L 63.457031 188.414062 C 63.121094 188.351562 63.121094 188.320312 63.121094 186.304688 C 63.121094 184.609375 63.167969 184.160156 63.421875 183.519531 C 63.792969 182.496094 64.453125 182.398438 64.355469 183.359375 Z M 44.699219 185.921875 C 44.664062 186.078125 44.554688 186.238281 44.484375 186.238281 C 44.398438 186.238281 44.410156 186.113281 44.519531 185.921875 C 44.746094 185.535156 44.796875 185.535156 44.699219 185.921875 Z M 59.136719 186.527344 C 59.28125 186.753906 59.269531 186.976562 59.113281 187.777344 C 59.003906 188.320312 58.921875 189.121094 58.921875 189.601562 C 58.921875 190.496094 58.882812 190.527344 58.558594 190.078125 C 58.355469 189.792969 58.34375 189.855469 58.402344 190.878906 C 58.453125 191.617188 58.429688 192 58.332031 192 C 58.261719 192 58.199219 191.839844 58.199219 191.679688 C 58.199219 191.488281 58.140625 191.359375 58.054688 191.359375 C 57.984375 191.359375 58.03125 191.679688 58.175781 192.097656 C 58.488281 192.960938 58.546875 193.921875 58.261719 193.28125 C 58.164062 193.054688 58.078125 193.023438 58.078125 193.183594 C 58.078125 193.535156 58.632812 194.878906 58.789062 194.878906 C 58.847656 194.878906 58.921875 195.390625 58.945312 196 C 59.003906 197.375 58.777344 197.34375 58.667969 195.96875 C 58.621094 195.457031 58.585938 195.230469 58.570312 195.425781 C 58.546875 196.128906 58.199219 195.871094 58.199219 195.167969 C 58.199219 194.816406 58.152344 194.625 58.078125 194.71875 C 58.019531 194.816406 57.949219 194.59375 57.949219 194.175781 C 57.910156 192.734375 57.875 192.097656 57.792969 191.710938 C 57.742188 191.519531 57.769531 191.359375 57.839844 191.359375 C 57.910156 191.359375 57.949219 191.230469 57.910156 191.105469 C 57.875 190.945312 57.828125 190.464844 57.792969 189.984375 C 57.742188 189.214844 57.757812 189.152344 57.972656 189.441406 C 58.273438 189.886719 58.441406 189.601562 58.441406 188.640625 C 58.441406 186.785156 58.753906 185.855469 59.136719 186.527344 Z M 60.097656 188.671875 C 60.144531 190.273438 60.132812 190.464844 59.929688 190.335938 C 59.773438 190.273438 59.699219 189.921875 59.675781 189.152344 C 59.628906 187.550781 59.519531 187.519531 59.519531 189.054688 C 59.519531 190.015625 59.472656 190.398438 59.351562 190.398438 C 58.90625 190.398438 59.003906 188.257812 59.496094 187.039062 C 59.902344 186.046875 60.023438 186.367188 60.097656 188.671875 Z M 46.175781 187.167969 C 46.261719 187.296875 46.402344 187.777344 46.5 188.222656 C 46.644531 188.992188 46.632812 189.089844 46.355469 189.40625 C 45.972656 189.886719 45.960938 189.855469 45.960938 189.121094 C 45.960938 188.734375 45.828125 188.097656 45.660156 187.679688 L 45.371094 186.878906 L 45.695312 186.878906 C 45.875 186.878906 46.09375 187.007812 46.175781 187.167969 Z M 61.441406 188.449219 C 61.441406 189.34375 61.296875 190.398438 61.1875 190.398438 C 61.128906 190.398438 61.078125 189.566406 61.078125 188.542969 C 61.09375 186.878906 61.105469 186.785156 61.261719 187.328125 C 61.355469 187.679688 61.441406 188.191406 61.441406 188.449219 Z M 62.027344 189.441406 C 62.027344 190.175781 62.015625 190.175781 61.933594 189.601562 C 61.871094 189.246094 61.800781 188.449219 61.753906 187.839844 L 61.679688 186.71875 L 61.859375 187.679688 C 61.957031 188.191406 62.027344 188.992188 62.027344 189.441406 Z M 60.695312 189.214844 C 60.671875 189.761719 60.613281 190.238281 60.539062 190.238281 C 60.382812 190.238281 60.324219 188.960938 60.421875 187.902344 C 60.492188 187.136719 60.515625 187.105469 60.613281 187.617188 C 60.683594 187.9375 60.71875 188.640625 60.695312 189.214844 Z M 74.089844 189.023438 C 73.726562 194.496094 72.515625 200.929688 71.0625 205.152344 L 70.476562 206.847656 L 69.972656 204.769531 C 69.695312 203.648438 69.589844 203.070312 69.742188 203.519531 C 69.898438 203.96875 70.105469 204.703125 70.210938 205.121094 L 70.414062 205.921875 L 70.800781 204.960938 C 71.21875 203.902344 72.023438 200.929688 72.503906 198.71875 C 72.949219 196.640625 73.632812 191.808594 73.800781 189.664062 C 73.957031 187.648438 74.21875 187.070312 74.089844 189.023438 Z M 47.425781 190.910156 C 47.890625 195.390625 48.984375 200.703125 50.257812 204.542969 L 50.867188 206.398438 L 51.289062 204.863281 C 51.515625 204.03125 51.972656 202.65625 52.285156 201.824219 C 52.871094 200.320312 52.871094 200.320312 53.101562 200.960938 C 53.304688 201.566406 53.292969 201.632812 52.429688 204.0625 C 51.949219 205.441406 51.433594 206.816406 51.277344 207.136719 C 51.132812 207.457031 51.011719 207.871094 51.035156 208.0625 C 51.046875 208.257812 50.964844 208.449219 50.84375 208.480469 C 50.722656 208.542969 50.507812 208.863281 50.363281 209.183594 C 50.148438 209.664062 50.160156 209.535156 50.449219 208.222656 L 50.773438 206.6875 L 50.160156 204.894531 C 48.949219 201.375 47.867188 196.320312 47.398438 192 C 47.257812 190.6875 47.089844 189.34375 47.027344 188.992188 C 46.933594 188.574219 46.945312 188.449219 47.050781 188.542969 C 47.136719 188.609375 47.304688 189.664062 47.425781 190.910156 Z M 63.550781 190.144531 C 63.265625 191.648438 63.121094 192.128906 63.121094 191.617188 C 63.121094 191.328125 63.179688 190.976562 63.238281 190.878906 C 63.3125 190.785156 63.359375 190.304688 63.359375 189.824219 C 63.359375 189.214844 63.394531 189.089844 63.492188 189.34375 C 63.574219 189.566406 63.601562 189.921875 63.550781 190.144531 Z M 58.921875 191.710938 C 58.921875 192.929688 58.632812 192.832031 58.585938 191.585938 C 58.558594 190.976562 58.597656 190.71875 58.726562 190.71875 C 58.859375 190.71875 58.921875 191.039062 58.921875 191.710938 Z M 59.460938 191.039062 C 59.554688 191.425781 59.398438 192.960938 59.269531 192.960938 C 59.207031 192.960938 59.160156 192.449219 59.160156 191.839844 C 59.160156 190.785156 59.304688 190.367188 59.460938 191.039062 Z M 60.070312 191.742188 C 60.035156 192.160156 60 192.671875 60 192.894531 C 60 193.121094 59.953125 193.214844 59.878906 193.121094 C 59.675781 192.769531 59.734375 191.039062 59.953125 191.039062 C 60.097656 191.039062 60.132812 191.230469 60.070312 191.742188 Z M 60.742188 191.425781 C 60.683594 191.648438 60.601562 192.191406 60.574219 192.640625 C 60.539062 193.28125 60.515625 193.214844 60.46875 192.222656 C 60.421875 191.199219 60.445312 191.039062 60.636719 191.039062 C 60.804688 191.039062 60.839844 191.136719 60.742188 191.425781 Z M 61.320312 191.808594 C 61.261719 192.222656 61.246094 192.671875 61.285156 192.769531 C 61.332031 192.863281 61.296875 192.960938 61.222656 192.960938 C 61.140625 192.960938 61.078125 192.511719 61.078125 192 C 61.078125 191.359375 61.140625 191.039062 61.261719 191.039062 C 61.390625 191.039062 61.402344 191.199219 61.320312 191.808594 Z M 63.371094 192.449219 C 63.214844 192.894531 63.121094 193.566406 63.121094 194.335938 C 63.121094 194.976562 63.070312 195.519531 63.011719 195.519531 C 62.832031 195.519531 63.011719 193.28125 63.289062 192.160156 C 63.433594 191.585938 63.5625 191.265625 63.589844 191.425781 C 63.613281 191.585938 63.515625 192.0625 63.371094 192.449219 Z M 62.761719 192.414062 C 62.761719 192.574219 62.710938 192.574219 62.640625 192.480469 C 62.578125 192.382812 62.519531 192.03125 62.519531 191.742188 C 62.519531 191.265625 62.542969 191.265625 62.640625 191.679688 C 62.699219 191.9375 62.761719 192.289062 62.761719 192.414062 Z M 62.003906 192.382812 C 61.96875 192.640625 61.933594 192.542969 61.933594 192.191406 C 61.921875 191.839844 61.957031 191.648438 61.992188 191.777344 C 62.027344 191.871094 62.039062 192.160156 62.003906 192.382812 Z M 58.921875 193.761719 C 58.921875 194.335938 58.871094 194.496094 58.738281 194.367188 C 58.644531 194.238281 58.558594 193.886719 58.558594 193.566406 C 58.558594 193.246094 58.644531 192.960938 58.738281 192.960938 C 58.847656 192.960938 58.921875 193.246094 58.921875 193.761719 Z M 63.445312 193.664062 C 63.40625 193.921875 63.371094 193.824219 63.371094 193.472656 C 63.359375 193.121094 63.394531 192.929688 63.433594 193.054688 C 63.46875 193.152344 63.480469 193.441406 63.445312 193.664062 Z M 59.398438 194.433594 C 59.398438 194.878906 59.351562 195.136719 59.28125 195.039062 C 59.21875 194.945312 59.160156 194.496094 59.160156 194.046875 C 59.160156 193.601562 59.207031 193.34375 59.28125 193.441406 C 59.351562 193.535156 59.398438 193.984375 59.398438 194.433594 Z M 54.730469 194.496094 C 54.601562 194.558594 54.480469 194.878906 54.445312 195.199219 C 54.394531 195.679688 54.289062 195.808594 53.976562 195.777344 C 53.746094 195.742188 53.496094 195.839844 53.425781 195.96875 C 53.339844 196.097656 53.28125 196.128906 53.28125 196.03125 C 53.28125 195.9375 53.566406 195.488281 53.914062 195.039062 C 54.253906 194.558594 54.589844 194.046875 54.648438 193.886719 C 54.71875 193.726562 54.804688 193.761719 54.863281 194.015625 C 54.925781 194.273438 54.875 194.433594 54.730469 194.496094 Z M 60.070312 194.304688 C 60.035156 194.71875 60 195.136719 60 195.265625 C 60 195.425781 59.953125 195.519531 59.878906 195.519531 C 59.820312 195.519531 59.761719 195.070312 59.761719 194.558594 C 59.761719 193.886719 59.820312 193.601562 59.953125 193.601562 C 60.097656 193.601562 60.132812 193.792969 60.070312 194.304688 Z M 61.308594 193.984375 C 61.308594 194.207031 61.261719 194.6875 61.199219 195.039062 C 61.117188 195.585938 61.09375 195.519531 61.09375 194.625 C 61.078125 194.078125 61.140625 193.601562 61.199219 193.601562 C 61.273438 193.601562 61.320312 193.792969 61.308594 193.984375 Z M 66.71875 194.273438 C 66.71875 194.433594 66.804688 194.558594 66.898438 194.558594 C 66.996094 194.558594 67.273438 194.847656 67.523438 195.230469 C 68.050781 196 68.207031 196.382812 67.859375 196 C 67.726562 195.871094 67.464844 195.742188 67.261719 195.710938 C 67.042969 195.679688 66.910156 195.519531 66.925781 195.296875 C 66.949219 195.070312 66.828125 194.816406 66.660156 194.6875 C 66.492188 194.59375 66.359375 194.304688 66.359375 194.046875 C 66.359375 193.792969 66.433594 193.695312 66.539062 193.792969 C 66.636719 193.921875 66.71875 194.113281 66.71875 194.273438 Z M 60.5625 194.625 C 60.527344 194.878906 60.492188 194.785156 60.492188 194.433594 C 60.480469 194.078125 60.515625 193.886719 60.550781 194.015625 C 60.589844 194.113281 60.601562 194.398438 60.5625 194.625 Z M 62.003906 194.945312 C 61.96875 195.167969 61.945312 195.007812 61.945312 194.558594 C 61.945312 194.113281 61.96875 193.953125 62.003906 194.144531 C 62.027344 194.367188 62.027344 194.753906 62.003906 194.945312 Z M 62.675781 195.425781 C 62.640625 196.097656 62.554688 196.769531 62.507812 196.960938 C 62.410156 197.214844 62.460938 195.742188 62.59375 194.625 C 62.6875 193.792969 62.734375 194.304688 62.675781 195.425781 Z M 59.425781 196.800781 C 59.472656 198.078125 59.363281 198.496094 59.230469 197.566406 C 59.125 196.800781 59.148438 195.519531 59.269531 195.519531 C 59.328125 195.519531 59.398438 196.097656 59.425781 196.800781 Z M 59.988281 197.34375 C 59.988281 198.496094 59.953125 198.71875 59.878906 198.238281 C 59.734375 197.34375 59.734375 195.839844 59.878906 195.839844 C 59.953125 195.839844 60 196.511719 59.988281 197.34375 Z M 60.625 196.960938 C 60.601562 197.566406 60.550781 198.078125 60.527344 198.078125 C 60.503906 198.078125 60.480469 197.566406 60.480469 196.960938 C 60.480469 196.351562 60.527344 195.839844 60.574219 195.839844 C 60.625 195.839844 60.648438 196.351562 60.625 196.960938 Z M 61.320312 197.246094 C 61.320312 197.855469 61.273438 198.464844 61.199219 198.558594 C 61.128906 198.6875 61.078125 198.238281 61.078125 197.472656 C 61.078125 196.734375 61.140625 196.160156 61.199219 196.160156 C 61.273438 196.160156 61.320312 196.640625 61.320312 197.246094 Z M 50.878906 196.960938 C 50.878906 197.214844 50.664062 197.726562 50.398438 198.078125 C 50.136719 198.433594 49.921875 198.59375 49.921875 198.433594 C 49.921875 198.273438 50.015625 198.046875 50.148438 197.921875 C 50.269531 197.824219 50.460938 197.472656 50.578125 197.121094 C 50.84375 196.351562 50.878906 196.320312 50.878906 196.960938 Z M 55.34375 198.558594 C 55.476562 199.230469 55.464844 199.199219 54.898438 197.441406 L 54.539062 196.320312 L 54.875 197.121094 C 55.066406 197.566406 55.273438 198.207031 55.34375 198.558594 Z M 65.398438 197.535156 C 65.398438 197.601562 65.257812 197.984375 65.074219 198.433594 L 64.738281 199.199219 L 65.027344 198.304688 C 65.304688 197.503906 65.398438 197.28125 65.398438 197.535156 Z M 66.144531 198.464844 C 66.058594 198.6875 66 198.71875 66 198.527344 C 66 198.078125 66.144531 197.695312 66.226562 197.921875 C 66.253906 198.015625 66.214844 198.273438 66.144531 198.464844 Z M 56.773438 198.945312 C 56.929688 199.390625 56.988281 199.679688 56.914062 199.550781 C 56.796875 199.390625 56.761719 199.648438 56.761719 200.449219 C 56.761719 201.792969 56.941406 201.953125 57.085938 200.734375 C 57.191406 199.902344 57.203125 199.902344 57.898438 202.207031 C 58.285156 203.488281 58.738281 204.703125 58.90625 204.929688 C 59.113281 205.214844 59.6875 205.375 60.601562 205.375 C 62.183594 205.34375 62.6875 204.894531 63.097656 203.136719 C 63.238281 202.558594 63.648438 201.28125 64.007812 200.320312 C 64.65625 198.65625 64.679688 198.625 64.679688 199.457031 C 64.679688 200.222656 64.714844 200.289062 65.027344 200.128906 C 65.21875 200.03125 65.398438 200.0625 65.4375 200.222656 C 65.542969 200.671875 65.183594 201.921875 64.96875 201.921875 C 64.597656 201.921875 64.882812 202.71875 65.292969 202.816406 C 65.722656 202.945312 66.40625 204.351562 66.277344 204.894531 C 66.238281 205.089844 66.265625 205.121094 66.335938 204.992188 C 66.421875 204.863281 66.480469 204.894531 66.480469 205.089844 C 66.480469 205.246094 66.382812 205.566406 66.277344 205.726562 C 66.085938 206.015625 66.085938 206.113281 66.238281 206.398438 C 66.394531 206.65625 66.394531 206.71875 66.214844 206.71875 C 66.109375 206.71875 66 206.847656 65.976562 206.976562 C 65.902344 207.457031 64.871094 208.703125 63.78125 209.664062 C 62.914062 210.433594 62.410156 210.65625 61.246094 210.785156 C 59.640625 210.976562 58.164062 210.65625 58.679688 210.207031 C 58.921875 209.984375 58.871094 209.953125 58.441406 209.984375 C 57.527344 210.015625 57.335938 209.953125 57.433594 209.535156 C 57.480469 209.34375 57.46875 209.28125 57.394531 209.375 C 57.214844 209.664062 56.339844 208.832031 56.339844 208.382812 C 56.339844 207.742188 55.800781 206.976562 55.488281 207.136719 C 55.332031 207.199219 55.164062 207.136719 55.117188 206.945312 C 55.066406 206.753906 55.105469 206.71875 55.199219 206.878906 C 55.296875 207.039062 55.332031 207.007812 55.273438 206.785156 C 55.222656 206.59375 55.117188 206.496094 55.019531 206.59375 C 54.925781 206.71875 54.804688 206.558594 54.769531 206.273438 C 54.730469 205.984375 54.636719 205.855469 54.550781 205.953125 C 54.433594 206.144531 54.71875 205.441406 55.476562 203.679688 C 55.65625 203.265625 55.957031 202.878906 56.125 202.816406 C 56.304688 202.753906 56.472656 202.527344 56.496094 202.273438 C 56.53125 201.984375 56.496094 201.921875 56.410156 202.078125 C 56.269531 202.304688 55.800781 201.40625 55.800781 200.929688 C 55.800781 200.769531 55.90625 200.511719 56.050781 200.289062 C 56.242188 200.03125 56.339844 200.03125 56.449219 200.351562 C 56.542969 200.640625 56.542969 200.671875 56.410156 200.480469 C 56.304688 200.320312 56.269531 200.351562 56.328125 200.574219 C 56.496094 201.28125 56.640625 200.960938 56.640625 199.902344 C 56.640625 199.328125 56.578125 198.6875 56.496094 198.464844 C 56.410156 198.238281 56.375 198.078125 56.410156 198.078125 C 56.449219 198.078125 56.605469 198.464844 56.773438 198.945312 Z M 52.078125 198.6875 C 52.078125 199.136719 51.492188 200.863281 51.480469 200.449219 C 51.480469 200.097656 51.9375 198.398438 52.03125 198.398438 C 52.054688 198.398438 52.078125 198.527344 52.078125 198.6875 Z M 52.921875 199.359375 C 52.921875 199.519531 52.8125 199.550781 52.679688 199.457031 C 52.546875 199.359375 52.441406 199.167969 52.441406 199.039062 C 52.441406 198.878906 52.546875 198.847656 52.679688 198.945312 C 52.8125 199.039062 52.921875 199.230469 52.921875 199.359375 Z M 68.878906 198.847656 C 68.878906 198.910156 68.796875 199.070312 68.6875 199.167969 C 68.59375 199.265625 68.542969 199.230469 68.578125 199.039062 C 68.652344 198.71875 68.878906 198.59375 68.878906 198.847656 Z M 69.828125 200.480469 C 69.828125 200.640625 69.71875 200.449219 69.601562 200.03125 C 69.46875 199.617188 69.359375 199.136719 69.359375 198.910156 C 69.359375 198.71875 69.46875 198.910156 69.601562 199.359375 C 69.730469 199.808594 69.839844 200.289062 69.828125 200.480469 Z M 55.558594 200.160156 C 55.679688 200.574219 55.679688 200.769531 55.511719 201.214844 C 55.402344 201.535156 55.355469 201.921875 55.390625 202.015625 C 55.441406 202.144531 55.34375 202.367188 55.175781 202.527344 C 55.007812 202.6875 54.46875 204 53.988281 205.40625 C 53.496094 206.847656 53.039062 208 52.96875 208 C 52.894531 208 52.765625 207.777344 52.667969 207.488281 C 52.535156 207.070312 52.703125 206.496094 53.890625 203.328125 C 54.636719 201.3125 55.296875 199.679688 55.332031 199.679688 C 55.378906 199.679688 55.476562 199.902344 55.558594 200.160156 Z M 66.5625 200.894531 C 66.816406 201.535156 67.414062 203.265625 67.882812 204.703125 C 68.746094 207.296875 68.746094 207.296875 68.484375 207.777344 C 68.230469 208.257812 68.195312 208.191406 67.402344 205.984375 C 66.949219 204.703125 66.613281 203.871094 66.660156 204.0625 C 66.78125 204.734375 66.660156 204.542969 66.347656 203.617188 C 66.085938 202.816406 66.085938 202.785156 66.335938 203.328125 C 66.742188 204.289062 66.648438 203.425781 66.214844 202.367188 C 66 201.855469 65.902344 201.726562 66 202.078125 C 66.167969 202.65625 66.167969 202.6875 65.976562 202.273438 C 65.855469 202.046875 65.785156 201.761719 65.808594 201.632812 C 65.84375 201.503906 65.820312 201.214844 65.761719 200.960938 C 65.652344 200.511719 65.808594 199.679688 66.011719 199.679688 C 66.058594 199.679688 66.3125 200.222656 66.5625 200.894531 Z M 52.054688 200.894531 C 52.164062 201.089844 52.019531 201.472656 51.589844 202.207031 C 50.964844 203.230469 50.964844 203.070312 51.527344 201.34375 C 51.78125 200.574219 51.828125 200.542969 52.054688 200.894531 Z M 70.128906 202.59375 L 70.355469 203.679688 L 69.984375 202.753906 C 69.589844 201.792969 69.480469 201.121094 69.742188 201.34375 C 69.828125 201.441406 70.007812 201.984375 70.128906 202.59375 Z M 71.039062 209.34375 C 71.039062 209.761719 68.761719 205.054688 68.242188 203.550781 C 67.992188 202.847656 67.8125 202.113281 67.859375 201.921875 C 67.933594 201.601562 71.039062 208.863281 71.039062 209.34375 Z M 54.960938 203.519531 C 54.886719 203.871094 54.769531 204.160156 54.695312 204.160156 C 54.625 204.160156 54.660156 203.871094 54.78125 203.519531 C 54.898438 203.167969 55.019531 202.878906 55.042969 202.878906 C 55.066406 202.878906 55.03125 203.167969 54.960938 203.519531 Z M 67.429688 206.433594 C 67.714844 207.296875 67.933594 208.0625 67.90625 208.128906 C 67.882812 208.222656 67.597656 207.488281 67.285156 206.527344 C 66.960938 205.566406 66.742188 204.800781 66.804688 204.832031 C 66.851562 204.863281 67.140625 205.566406 67.429688 206.433594 Z M 54.238281 205.855469 C 54.238281 205.921875 54.121094 206.238281 53.976562 206.59375 L 53.699219 207.199219 L 53.929688 206.464844 C 54.144531 205.792969 54.238281 205.601562 54.238281 205.855469 Z M 54.613281 206.945312 C 54.769531 207.457031 54.757812 207.488281 54.574219 207.070312 C 54.371094 206.65625 54.3125 206.398438 54.40625 206.398438 C 54.433594 206.398438 54.527344 206.65625 54.613281 206.945312 Z M 66.898438 206.71875 C 66.863281 206.878906 66.707031 207.199219 66.5625 207.390625 C 66.3125 207.710938 66.3125 207.679688 66.589844 207.070312 C 66.886719 206.335938 67.019531 206.207031 66.898438 206.71875 Z M 51.972656 209.054688 C 53.21875 211.96875 55.667969 215.230469 57.394531 216.320312 C 58.246094 216.832031 58.464844 217.472656 57.695312 217.152344 C 55.894531 216.414062 52.691406 212 51.492188 208.511719 C 51.035156 207.199219 51.3125 207.519531 51.972656 209.054688 Z M 69.960938 207.902344 C 69.960938 208.191406 68.820312 210.65625 68.039062 212.0625 C 66.757812 214.367188 64.453125 216.929688 63.179688 217.441406 C 62.734375 217.632812 62.710938 217.601562 62.929688 217.152344 C 63.058594 216.863281 63.253906 216.640625 63.359375 216.640625 C 63.757812 216.640625 65.410156 215.039062 66.503906 213.601562 C 67.140625 212.769531 68.125 211.105469 68.710938 209.921875 C 69.769531 207.742188 69.960938 207.457031 69.960938 207.902344 Z M 65.699219 208.640625 C 65.664062 208.800781 65.554688 208.960938 65.484375 208.960938 C 65.398438 208.960938 65.410156 208.832031 65.519531 208.640625 C 65.746094 208.257812 65.796875 208.257812 65.699219 208.640625 Z M 64.921875 209.601562 C 64.824219 209.761719 64.691406 209.921875 64.621094 209.921875 C 64.558594 209.921875 64.585938 209.761719 64.679688 209.601562 C 64.777344 209.441406 64.921875 209.28125 64.980469 209.28125 C 65.050781 209.28125 65.015625 209.441406 64.921875 209.601562 Z M 64.320312 210.238281 C 64.222656 210.398438 64.09375 210.558594 64.019531 210.558594 C 63.960938 210.558594 63.984375 210.398438 64.078125 210.238281 C 64.175781 210.078125 64.320312 209.921875 64.378906 209.921875 C 64.453125 209.921875 64.414062 210.078125 64.320312 210.238281 Z M 63.539062 210.878906 C 63.40625 211.039062 63.214844 211.167969 63.121094 211.167969 C 63.011719 211.167969 63.023438 211.039062 63.179688 210.878906 C 63.3125 210.71875 63.503906 210.59375 63.601562 210.59375 C 63.707031 210.59375 63.695312 210.71875 63.539062 210.878906 Z M 62.84375 211.390625 C 62.808594 211.488281 62.699219 211.519531 62.617188 211.425781 C 62.519531 211.328125 62.554688 211.230469 62.6875 211.230469 C 62.820312 211.199219 62.890625 211.296875 62.84375 211.390625 Z M 62.855469 213.664062 C 62.6875 215.425781 62.542969 215.617188 62.6875 213.921875 C 62.761719 213.121094 62.855469 212.480469 62.890625 212.480469 C 62.941406 212.480469 62.929688 213.023438 62.855469 213.664062 Z M 60.550781 220.511719 C 60.457031 221.121094 60.371094 221.34375 60.371094 221.054688 C 60.359375 220.320312 60.613281 218.65625 60.683594 219.070312 C 60.707031 219.296875 60.648438 219.9375 60.550781 220.511719 Z M 60.550781 220.511719 "/>
<path style=" stroke:none;fill-rule:nonzero;fill:rgb(0%,0%,0%);fill-opacity:1;" d="M 59.710938 141.023438 C 59.640625 141.472656 59.652344 141.503906 59.773438 141.214844 C 59.855469 140.992188 59.890625 140.734375 59.855469 140.640625 C 59.820312 140.542969 59.746094 140.703125 59.710938 141.023438 Z M 59.710938 141.023438 "/>
<path style=" stroke:none;fill-rule:nonzero;fill:rgb(0%,0%,0%);fill-opacity:1;" d="M 58.800781 149.441406 C 58.558594 149.632812 58.546875 149.695312 58.738281 149.695312 C 58.871094 149.695312 59.113281 149.566406 59.28125 149.441406 C 59.519531 149.246094 59.53125 149.183594 59.339844 149.183594 C 59.207031 149.183594 58.96875 149.3125 58.800781 149.441406 Z M 58.800781 149.441406 "/>
<path style=" stroke:none;fill-rule:nonzero;fill:rgb(0%,0%,0%);fill-opacity:1;" d="M 58.054688 149.984375 C 58.140625 150.078125 58.246094 150.046875 58.285156 149.953125 C 58.332031 149.855469 58.261719 149.761719 58.128906 149.792969 C 57.996094 149.792969 57.960938 149.886719 58.054688 149.984375 Z M 58.054688 149.984375 "/>
<path style=" stroke:none;fill-rule:nonzero;fill:rgb(0%,0%,0%);fill-opacity:1;" d="M 57.085938 170.558594 C 56.890625 170.71875 56.675781 170.785156 56.59375 170.6875 C 56.375 170.464844 56.21875 171.136719 56.0625 173.054688 C 55.859375 175.550781 55.882812 176.160156 56.242188 177.28125 C 56.554688 178.304688 56.578125 178.304688 57.347656 178.175781 C 58.414062 177.953125 59.050781 177.054688 59.398438 175.296875 C 59.542969 174.527344 59.734375 173.761719 59.84375 173.535156 C 60 173.214844 59.988281 173.089844 59.773438 172.511719 C 59.628906 172.128906 59.519531 171.710938 59.519531 171.550781 C 59.519531 170.558594 57.910156 169.886719 57.085938 170.558594 Z M 57.085938 170.558594 "/>
<path style=" stroke:none;fill-rule:nonzero;fill:rgb(0%,0%,0%);fill-opacity:1;" d="M 46.441406 174.945312 C 45.875 175.230469 45.875 175.710938 46.441406 175.488281 C 47.074219 175.230469 47.507812 174.71875 47.039062 174.785156 C 46.871094 174.785156 46.609375 174.878906 46.441406 174.945312 Z M 46.441406 174.945312 "/>
<path style=" stroke:none;fill-rule:nonzero;fill:rgb(0%,0%,0%);fill-opacity:1;" d="M 47.855469 174.945312 C 47.941406 175.039062 48.046875 175.007812 48.085938 174.910156 C 48.132812 174.816406 48.058594 174.71875 47.929688 174.753906 C 47.796875 174.753906 47.761719 174.847656 47.855469 174.945312 Z M 47.855469 174.945312 "/>
<path style=" stroke:none;fill-rule:nonzero;fill:rgb(0%,0%,0%);fill-opacity:1;" d="M 54.695312 190.847656 C 54.445312 191.328125 54.527344 191.679688 54.898438 191.679688 C 55.222656 191.679688 55.738281 190.753906 55.414062 190.71875 C 55.308594 190.71875 55.152344 190.65625 55.054688 190.558594 C 54.972656 190.496094 54.804688 190.625 54.695312 190.847656 Z M 54.695312 190.847656 "/>
<path style=" stroke:none;fill-rule:nonzero;fill:rgb(0%,0%,0%);fill-opacity:1;" d="M 52.273438 193.535156 C 52.175781 193.953125 52.273438 195.679688 52.390625 195.550781 C 52.597656 195.328125 52.96875 194.558594 52.90625 194.496094 C 52.882812 194.433594 52.738281 194.144531 52.597656 193.824219 C 52.464844 193.503906 52.320312 193.375 52.273438 193.535156 Z M 52.273438 193.535156 "/>
<path style=" stroke:none;fill-rule:nonzero;fill:rgb(0%,0%,0%);fill-opacity:1;" d="M 66.539062 180.0625 C 66.503906 180.574219 66.324219 181.441406 66.15625 182.046875 L 65.84375 183.136719 L 66.433594 182.238281 C 67.246094 180.992188 67.261719 180.929688 67.03125 180.03125 C 66.78125 178.976562 66.648438 178.976562 66.539062 180.0625 Z M 66.539062 180.0625 "/>
<path style=" stroke:none;fill-rule:nonzero;fill:rgb(0%,0%,0%);fill-opacity:1;" d="M 65.398438 189.886719 C 65.398438 190.144531 65.449219 190.433594 65.507812 190.527344 C 65.566406 190.65625 65.59375 190.433594 65.554688 190.078125 C 65.484375 189.34375 65.398438 189.246094 65.398438 189.886719 Z M 65.398438 189.886719 "/>
<path style=" stroke:none;fill-rule:nonzero;fill:rgb(0%,0%,0%);fill-opacity:1;" d="M 65.941406 190.6875 C 65.710938 190.945312 65.722656 190.976562 66.023438 191.359375 C 66.382812 191.808594 66.769531 191.585938 66.695312 190.945312 C 66.636719 190.464844 66.265625 190.335938 65.941406 190.6875 Z M 65.941406 190.6875 "/>
<path style=" stroke:none;fill-rule:nonzero;fill:rgb(0%,0%,0%);fill-opacity:1;" d="M 58.09375 190.59375 C 58.09375 190.945312 58.128906 191.039062 58.164062 190.785156 C 58.199219 190.558594 58.1875 190.273438 58.152344 190.175781 C 58.117188 190.046875 58.078125 190.238281 58.09375 190.59375 Z M 58.09375 190.59375 "/>
<path style=" stroke:none;fill-rule:nonzero;fill:rgb(0%,0%,0%);fill-opacity:1;" d="M 64.320312 199.839844 C 64.175781 200.320312 64.261719 201.601562 64.453125 201.601562 C 64.511719 201.601562 64.558594 201.089844 64.558594 200.480469 C 64.558594 199.230469 64.535156 199.167969 64.320312 199.839844 Z M 64.320312 199.839844 "/>
</g>
</svg>
