<?xml version="1.0" standalone="no"?>
<!DOCTYPE svg PUBLIC "-//W3C//DTD SVG 20010904//EN"
 "http://www.w3.org/TR/2001/REC-SVG-20010904/DTD/svg10.dtd">
<svg version="1.0" xmlns="http://www.w3.org/2000/svg"
 width="850.000000pt" height="850.000000pt" viewBox="0 0 850.000000 850.000000"
 preserveAspectRatio="xMidYMid meet">
<metadata>
Created by potrace 1.16, written by Peter Selinger 2001-2019
</metadata>
<g transform="translate(0.000000,850.000000) scale(0.100000,-0.100000)"
fill="#000000" stroke="none">
<path d="M3150 8440 c-41 -33 -77 -55 -81 -49 -3 6 -11 3 -19 -7 -12 -14 -11
-29 4 -102 23 -115 38 -162 52 -162 6 0 30 14 53 31 68 48 241 154 317 192
142 71 359 133 534 150 19 2 -149 4 -375 5 l-410 2 -75 -60z"/>
<path d="M4315 8493 c86 -10 229 -38 302 -59 156 -45 375 -161 518 -275 l73
-58 12 47 c6 26 14 88 17 138 6 89 5 92 -18 104 -13 7 -54 35 -90 61 l-66 49
-389 -1 c-214 -1 -375 -4 -359 -6z"/>
<path d="M3238 5743 c-9 -27 -20 -65 -23 -85 -4 -21 -11 -38 -16 -38 -5 0 -4
11 1 25 5 13 5 27 1 30 -14 8 -77 -252 -96 -401 -6 -44 8 -127 32 -191 5 -14
-2 -11 -30 10 -21 16 -57 37 -80 47 -27 12 -68 47 -112 96 -38 42 -70 73 -72
68 -2 -5 8 -56 20 -114 18 -76 29 -107 43 -115 22 -12 34 -26 34 -40 -1 -5 -7
-2 -14 8 -13 16 -13 16 -13 -6 0 -18 5 -23 21 -22 11 2 20 8 18 14 -2 8 5 10
18 6 12 -4 27 -2 35 5 10 9 23 5 55 -15 22 -14 53 -30 67 -36 19 -7 23 -13 15
-21 -7 -7 -17 -4 -33 10 -12 12 -25 19 -29 17 -4 -3 -15 4 -25 15 -10 11 -28
20 -39 19 -20 0 -20 -1 2 -11 12 -6 22 -15 22 -19 0 -4 -14 -1 -31 8 -16 8
-33 12 -36 9 -3 -3 3 -9 15 -13 11 -5 35 -27 52 -51 17 -23 35 -40 40 -37 5 3
12 1 15 -5 4 -6 33 -33 66 -60 33 -28 57 -50 53 -50 -4 0 5 -9 20 -21 14 -11
26 -25 26 -31 0 -6 -8 0 -18 12 -14 17 -24 21 -41 15 -21 -6 -21 -8 -7 -24 9
-10 16 -25 16 -33 0 -22 93 -194 98 -180 2 6 -2 21 -8 34 -11 22 -10 21 9 -2
12 -15 16 -29 11 -34 -6 -6 -3 -17 7 -28 15 -16 15 -18 0 -18 -9 0 -19 -5 -23
-12 -5 -8 -2 -9 10 -5 11 4 15 3 10 -4 -4 -8 1 -9 17 -4 18 5 21 4 9 -4 -8 -6
-24 -8 -35 -5 -14 4 -16 3 -7 -4 7 -5 12 -15 10 -22 -2 -8 3 -15 10 -16 6 -1
17 -2 23 -3 5 0 8 -5 4 -10 -3 -5 -1 -12 4 -15 5 -4 12 -2 16 4 4 7 12 7 24 0
10 -5 22 -6 26 -2 5 4 5 1 1 -6 -5 -8 -13 -9 -25 -2 -23 12 -33 3 -21 -19 10
-20 4 -31 -27 -49 -21 -11 -24 -9 -38 25 -8 20 -18 33 -21 30 -4 -3 3 -22 14
-42 22 -37 27 -105 8 -105 -6 0 -5 -4 2 -9 11 -7 11 -9 -2 -14 -21 -8 -29 8
-11 23 14 11 14 15 -1 31 -10 11 -14 22 -11 26 4 3 7 1 7 -6 0 -7 4 -10 10 -6
13 8 1 35 -16 35 -8 0 -14 -7 -14 -15 0 -11 -5 -10 -22 7 -15 15 -23 18 -26 9
-2 -7 4 -18 14 -26 18 -13 17 -14 -8 -25 -15 -7 -25 -19 -23 -29 2 -9 4 -18 4
-21 1 -2 6 1 12 7 6 6 17 9 25 6 9 -3 12 2 9 14 -2 12 2 20 11 20 8 0 14 -4
14 -9 0 -4 -4 -8 -10 -8 -5 0 -7 -7 -3 -17 5 -13 2 -15 -15 -11 -22 6 -35 -4
-38 -30 -2 -7 3 -11 9 -9 7 3 11 9 10 14 -1 5 5 10 13 10 19 0 18 -13 -1 -21
-11 -4 -13 -11 -7 -23 9 -20 10 -33 1 -48 -4 -5 -5 -19 -4 -31 1 -15 -4 -21
-18 -20 -13 1 -29 20 -49 56 -16 30 -36 61 -45 68 -12 8 -13 12 -3 12 10 0 10
4 -2 18 -16 19 -46 116 -73 235 -16 72 -19 77 -38 71 -30 -9 -33 -12 -19 -26
9 -9 12 -9 12 0 0 26 17 10 28 -27 16 -52 15 -69 -2 -46 -8 11 -12 24 -9 29 4
5 1 6 -4 3 -6 -4 -30 23 -54 59 -24 37 -45 62 -47 55 -2 -6 -8 -9 -13 -6 -5 4
-6 -1 -3 -9 3 -9 1 -16 -5 -16 -6 0 -10 3 -10 8 4 21 -3 31 -16 26 -8 -4 -15
-10 -15 -16 0 -5 6 -6 13 -3 6 4 -1 -6 -18 -20 -21 -20 -24 -25 -10 -20 33 12
65 14 71 4 3 -5 10 -9 16 -9 7 0 6 5 -2 15 -6 8 -10 20 -8 27 3 8 12 -1 21
-19 21 -39 21 -47 2 -39 -8 3 -19 -2 -24 -12 -5 -9 -12 -16 -15 -14 -16 6 -25
0 -20 -13 4 -8 1 -15 -6 -15 -6 0 -9 -4 -5 -9 5 -9 42 -7 52 3 2 2 5 13 6 24
0 12 9 23 19 26 14 3 25 -8 43 -45 30 -59 30 -59 4 -54 -25 5 -38 15 -21 15
17 0 14 22 -7 49 -12 16 -21 20 -25 12 -4 -6 -3 -11 3 -11 6 0 15 -10 22 -21
6 -12 7 -19 2 -16 -6 4 -9 -6 -8 -21 1 -15 -2 -32 -7 -39 -5 -6 -5 -14 0 -17
12 -7 25 22 16 35 -7 12 3 11 27 -1 13 -7 19 -7 19 0 0 5 10 10 23 10 18 0 19
-2 7 -10 -8 -5 -10 -10 -5 -10 7 0 9 -14 7 -34 -3 -25 2 -39 20 -55 16 -16 18
-20 6 -16 -11 4 -18 2 -18 -5 0 -6 -4 -9 -10 -5 -5 3 -8 11 -6 18 1 7 1 9 -1
5 -7 -12 -20 -10 -72 12 -45 20 -49 25 -86 108 -21 48 -47 99 -57 114 -20 30
-23 45 -8 50 7 2 5 11 -4 23 -15 20 -15 20 -9 -2 8 -32 -5 -29 -18 3 -5 15
-12 24 -16 20 -6 -6 66 -178 109 -260 13 -25 17 -41 10 -48 -15 -15 -32 0 -32
28 0 30 -79 224 -91 224 -10 0 1 -35 40 -129 30 -70 44 -139 17 -76 -8 17 -20
46 -29 65 l-15 35 2 -32 c1 -18 5 -36 9 -39 4 -4 7 -12 7 -18 0 -6 -5 -4 -10
4 -7 11 -10 7 -11 -20 -1 -19 -2 -41 -2 -47 1 -7 -2 -13 -6 -13 -3 0 -7 57 -9
128 -3 113 -5 146 -10 190 -1 6 -6 12 -11 12 -13 0 -20 -49 -7 -54 7 -3 7 -5
-1 -5 -7 -1 -13 -8 -13 -16 0 -8 -8 -15 -17 -15 -14 0 -15 2 -4 9 7 5 11 15 9
22 -3 8 -1 22 4 32 12 23 -3 22 -30 -3 -23 -22 -29 -40 -12 -40 5 0 9 -3 8 -7
-1 -5 3 -18 10 -30 21 -39 4 -25 -23 17 -27 43 -55 53 -55 20 0 -12 -8 -30
-19 -41 -18 -20 -18 -20 -14 6 6 30 0 31 -38 4 -20 -14 -28 -27 -25 -42 3 -12
5 -26 5 -30 1 -5 5 -6 9 -3 5 3 19 -9 32 -27 12 -18 17 -26 9 -19 -7 6 -18 12
-23 12 -13 -1 24 -30 37 -30 17 0 1 45 -23 67 -22 19 -23 21 -5 18 11 -2 20
-4 20 -5 0 -1 8 -3 18 -5 11 -2 16 1 14 8 -3 7 -10 11 -16 9 -7 -1 -10 2 -6 8
3 6 11 7 17 4 7 -5 9 -1 5 9 -3 10 -2 17 3 17 6 0 10 -19 10 -41 0 -36 -2 -40
-15 -29 -19 16 -19 1 0 -24 22 -29 30 -12 30 59 0 69 17 74 21 6 1 -22 5 -45
9 -52 5 -7 4 -10 -3 -6 -6 5 -8 0 -5 -13 7 -26 33 -26 28 0 -2 11 1 22 6 25
15 10 0 25 -19 19 -14 -5 -14 -4 -3 4 12 9 13 14 2 29 -8 10 -2 5 13 -11 21
-22 24 -31 15 -42 -9 -12 -9 -13 3 -9 9 4 15 17 14 30 0 13 -5 21 -10 17 -5
-3 -6 2 -3 12 4 10 7 23 7 29 0 7 5 6 10 -3 6 -8 10 -54 8 -101 -2 -95 15
-141 50 -134 9 1 26 -3 37 -11 10 -8 14 -14 9 -14 -6 0 -15 5 -22 12 -7 7 -12
8 -12 2 0 -6 8 -18 18 -27 17 -15 139 -87 149 -87 14 0 -14 23 -57 46 -47 25
-63 44 -40 44 6 0 10 -4 10 -10 0 -5 5 -10 11 -10 5 0 8 4 5 9 -4 5 2 8 11 6
10 -2 25 -4 33 -4 13 -1 13 -2 0 -11 -9 -6 -17 -5 -21 2 -4 7 -9 7 -13 0 -8
-14 3 -20 36 -18 27 2 53 16 29 16 -7 0 -9 5 -6 10 3 6 3 10 -2 11 -20 2 -46
8 -61 15 -19 8 -29 10 -56 12 -16 2 -17 4 -5 19 9 11 10 14 2 9 -9 -5 -11 -2
-7 8 8 20 24 21 24 1 0 -8 3 -14 8 -13 11 2 46 -14 54 -26 5 -7 8 -7 8 2 0 7
14 -1 31 -19 17 -17 33 -28 36 -25 4 3 -13 24 -36 46 -23 22 -39 40 -36 40 3
0 30 -16 60 -36 31 -21 59 -33 66 -28 7 4 10 3 6 -2 -3 -6 15 -21 39 -34 34
-17 52 -36 70 -71 13 -26 28 -50 34 -54 13 -8 13 -35 0 -35 -5 0 -7 6 -4 14 3
8 1 17 -5 21 -6 3 -11 -1 -11 -10 0 -11 -7 -15 -22 -13 -11 2 -23 -2 -25 -9
-3 -8 4 -10 21 -7 14 2 26 1 26 -4 0 -4 11 -8 24 -8 14 0 23 6 22 14 -1 8 5
17 12 19 9 4 10 -1 3 -19 -7 -19 -6 -25 5 -25 8 0 13 6 10 12 -5 14 39 14 51
1 4 -5 2 -6 -4 -2 -8 4 -13 2 -13 -6 0 -10 -3 -9 -11 2 -8 12 -10 11 -7 -5 2
-11 8 -20 15 -20 6 0 14 -3 18 -7 9 -9 -16 -5 -32 5 -16 10 -16 -3 0 -24 16
-21 48 -32 41 -15 -3 8 0 17 6 21 8 5 8 11 1 19 -8 9 -7 13 4 13 8 0 12 -4 9
-9 -3 -4 2 -8 11 -8 8 0 18 -7 21 -15 7 -18 25 -20 22 -3 -4 16 -50 54 -62 50
-5 -2 -4 3 2 11 12 14 7 27 -10 27 -5 0 -6 -4 -3 -10 3 -5 0 -7 -9 -4 -8 3
-13 14 -11 25 2 11 -2 19 -10 19 -13 0 -13 28 0 50 3 5 1 18 -4 28 -8 14 -6
19 5 19 8 0 13 -6 10 -14 -3 -7 1 -13 9 -13 11 0 12 5 5 25 -7 19 -6 25 5 25
8 0 18 -7 23 -15 7 -14 12 -13 34 5 15 11 29 16 32 11 4 -5 1 -13 -5 -17 -7
-4 -8 -9 -1 -13 9 -5 82 -155 82 -168 0 -2 -4 -2 -9 1 -5 3 -11 -1 -15 -9 -4
-11 1 -15 17 -15 13 0 36 -14 52 -30 16 -17 35 -28 43 -25 8 3 20 1 27 -5 7
-6 20 -8 28 -4 13 5 14 9 4 25 -15 24 -31 25 -23 2 6 -17 5 -17 -7 -1 -10 12
-17 14 -31 6 -14 -8 -17 -7 -11 1 4 7 -4 23 -19 38 -14 14 -26 31 -25 37 0 7
3 6 6 -1 10 -26 22 -12 18 20 -4 21 0 15 11 -17 12 -38 18 -46 25 -35 8 10 9
8 4 -9 -5 -16 -3 -22 7 -20 19 4 38 32 26 39 -5 3 -12 25 -15 48 -3 22 -9 41
-14 41 -5 0 -6 -13 -2 -30 3 -18 1 -30 -5 -30 -5 0 -8 9 -5 20 3 13 0 20 -8
20 -8 1 -3 10 13 23 19 15 28 34 31 62 l4 40 1 -45 c1 -25 9 -55 17 -66 8 -12
11 -24 8 -28 -4 -4 -12 6 -19 21 l-13 28 2 -38 c1 -22 6 -35 13 -33 6 2 11 -1
11 -7 1 -12 8 -49 19 -99 10 -47 34 -27 34 27 0 13 5 27 11 30 15 10 0 -66
-17 -84 -10 -11 -16 -12 -27 -3 -9 8 -17 8 -24 1 -8 -8 -13 -8 -17 0 -4 6 -16
11 -27 11 -11 0 -35 11 -53 25 -18 14 -38 25 -45 25 -7 0 -23 11 -36 25 -22
21 -25 22 -25 6 0 -13 14 -24 41 -35 22 -9 61 -37 86 -62 41 -40 44 -45 22
-42 -13 2 -30 7 -36 11 -17 11 -33 0 -27 -17 4 -10 -2 -14 -19 -12 -14 0 -23
4 -20 9 2 4 -1 7 -7 7 -8 0 -10 -13 -6 -37 3 -21 5 -39 6 -41 0 -2 8 -2 18 0
17 3 17 -1 8 -57 -1 -5 -5 -15 -9 -21 -4 -7 0 -17 8 -24 8 -7 15 -21 15 -31 0
-11 5 -19 11 -19 6 0 9 7 6 14 -4 9 -1 14 6 12 7 -1 9 -1 5 1 -5 3 -8 11 -8
19 0 9 5 12 10 9 6 -4 10 6 10 23 0 18 10 39 26 55 14 15 23 31 19 38 -5 8 -2
8 11 2 11 -5 25 -8 32 -7 6 1 19 2 27 3 17 1 21 56 5 66 -15 9 -12 22 6 29 27
11 53 -21 47 -57 -3 -25 0 -35 16 -44 13 -8 22 -9 26 -3 13 21 25 9 14 -12
-12 -23 -12 -23 9 -5 13 12 22 15 27 7 4 -6 15 -8 25 -5 24 8 60 -11 60 -30 0
-8 5 -15 10 -15 13 0 13 13 -1 27 -6 6 -12 22 -13 37 -2 15 -1 24 2 21 3 -2
11 0 19 6 15 13 47 -6 37 -22 -3 -5 0 -9 6 -9 10 0 19 14 24 42 2 7 6 21 11
31 4 10 3 28 -4 40 -10 20 -10 19 -7 -10 2 -18 0 -35 -5 -39 -5 -3 -7 -10 -4
-15 4 -5 1 -9 -4 -9 -12 0 -14 13 -4 24 19 19 10 35 -19 31 -25 -3 -28 -1 -17
11 18 21 4 28 -16 8 -12 -12 -22 -15 -32 -8 -8 5 -13 12 -11 15 2 3 -3 13 -10
21 -10 12 -8 20 8 41 32 41 23 41 -25 1 -25 -20 -43 -39 -40 -42 3 -3 15 3 26
14 l22 19 -17 -33 c-14 -28 -20 -31 -36 -22 -11 6 -20 8 -20 4 0 -3 -6 -2 -13
4 -9 8 -16 6 -25 -8 -16 -26 -45 -15 -36 14 3 11 13 29 21 38 13 14 13 21 2
47 -12 26 -15 28 -21 13 -4 -9 -7 7 -7 38 0 30 -2 75 -5 100 l-5 45 12 -42 c7
-23 16 -45 21 -50 13 -12 -4 59 -20 84 -15 24 -18 49 -6 55 4 2 22 32 41 68
19 36 43 76 53 89 10 13 18 30 18 38 0 8 8 28 17 46 9 18 18 35 19 40 1 4 3
10 4 15 1 4 2 12 0 17 -1 6 4 5 11 -2 7 -7 9 -19 4 -30 -5 -10 -9 -21 -10 -25
-2 -5 -3 -9 -5 -10 -1 -2 -3 -19 -4 -38 -6 -75 -19 -115 -45 -135 -14 -11 -43
-35 -63 -53 -35 -31 -36 -34 -22 -60 8 -15 14 -32 14 -39 0 -18 20 -66 25 -61
3 2 -3 33 -11 67 l-16 63 28 27 28 26 -23 -27 c-21 -24 -22 -30 -11 -60 7 -18
14 -46 16 -61 2 -16 6 -32 9 -37 3 -5 -3 -7 -13 -5 -22 4 -50 -11 -39 -21 4
-4 2 -13 -5 -21 -8 -10 -8 -12 4 -8 12 5 14 0 11 -19 -7 -33 5 -34 17 -1 5 14
15 25 22 24 10 0 10 -2 1 -6 -7 -2 -13 -12 -13 -21 0 -12 10 -7 31 18 30 34
30 34 10 3 -22 -33 -27 -48 -12 -39 5 3 3 -15 -5 -41 -8 -25 -12 -48 -10 -50
2 -2 23 18 46 46 24 28 47 48 51 45 5 -3 9 1 9 9 0 8 7 21 17 28 15 13 15 12
5 -8 -13 -23 -6 -57 9 -47 5 3 7 10 4 15 -8 12 4 49 15 49 6 0 6 -10 0 -25
-11 -28 2 -42 20 -20 7 8 17 12 23 8 6 -4 8 0 4 9 -3 10 3 24 14 34 11 10 27
32 35 50 15 31 44 54 44 34 0 -6 -4 -10 -10 -10 -5 0 -19 -18 -30 -40 -11 -22
-25 -40 -31 -40 -6 0 -8 -4 -4 -9 3 -5 -4 -31 -15 -58 l-20 -48 6 40 6 40 -36
-34 c-31 -30 -36 -32 -37 -15 0 14 -4 12 -14 -11 -15 -34 -12 -43 9 -26 8 7
20 10 26 6 5 -3 15 4 20 17 10 23 10 23 6 -2 -6 -32 3 -72 15 -64 5 3 9 14 9
25 0 29 16 23 30 -11 12 -30 9 -74 -11 -137 -10 -31 -69 -86 -69 -64 0 6 -5
11 -11 11 -6 0 -8 -7 -5 -15 8 -21 -20 -31 -40 -14 -22 18 -36 -2 -53 -80 -8
-35 -18 -58 -23 -55 -6 4 -14 0 -19 -7 -6 -9 -9 -10 -9 -2 0 7 7 16 15 21 18
9 30 62 15 62 -5 0 -9 -3 -9 -7 4 -26 -2 -43 -13 -37 -13 8 -99 6 -108 -3 -3
-2 3 -9 12 -14 10 -5 15 -16 11 -25 -6 -15 26 -84 38 -84 4 0 14 -3 23 -6 11
-4 16 -1 16 11 0 11 -5 15 -15 11 -8 -3 -15 0 -15 5 0 6 9 9 20 6 27 -7 25 1
-2 14 l-23 10 23 -5 c17 -3 26 1 32 17 14 35 11 4 -5 -48 -8 -27 -13 -50 -11
-52 2 -2 16 4 32 12 27 14 30 14 47 -6 9 -12 17 -28 17 -36 0 -21 -25 -65 -50
-88 -29 -26 -53 -72 -41 -80 5 -3 13 4 16 16 4 12 22 38 39 58 50 56 61 92 41
131 -14 27 -21 31 -46 28 -16 -3 -29 0 -29 5 0 11 37 142 47 167 3 8 5 21 4
28 -3 18 16 15 27 -4 8 -15 18 -10 73 34 59 48 64 56 76 109 17 81 16 101 -7
133 -15 21 -17 34 -11 56 16 53 43 109 62 130 11 11 35 47 54 78 31 51 35 67
35 125 0 38 5 75 13 84 10 14 11 1 9 -72 -2 -52 1 -97 7 -109 19 -36 -11 -161
-48 -201 -17 -18 -34 -44 -37 -57 -7 -29 3 -94 15 -94 5 0 21 18 36 41 16 22
38 45 49 51 18 9 18 7 -4 -16 l-24 -27 24 9 c25 9 41 52 20 52 -7 0 -5 6 4 16
9 8 16 21 17 27 0 12 131 121 172 144 11 6 22 20 23 30 7 44 34 92 49 87 8 -4
15 -1 15 5 0 6 -3 10 -7 9 -5 -2 -8 2 -8 7 0 6 2 9 5 8 3 -1 7 7 7 18 1 10 11
33 23 49 13 19 19 38 15 48 -5 13 -3 14 5 6 9 -9 6 -30 -10 -83 -20 -68 -25
-150 -9 -161 5 -3 3 -24 -2 -46 -9 -35 -14 -41 -34 -38 -13 1 -31 -6 -39 -15
-15 -16 -15 -19 3 -35 18 -16 22 -16 41 -3 19 13 19 15 4 21 -9 4 -19 4 -22 1
-3 -3 0 -5 7 -5 7 0 9 -5 5 -11 -4 -8 -9 -7 -15 2 -10 17 -1 32 16 25 35 -13
60 80 40 154 -11 42 9 77 47 84 19 3 52 15 73 26 22 11 41 20 44 20 3 0 -15
-20 -39 -45 -24 -25 -40 -45 -35 -45 5 0 -2 -11 -15 -25 -31 -33 -14 -32 25 1
17 15 25 23 18 20 -6 -4 -15 -2 -18 4 -4 6 -2 9 3 8 5 -2 25 16 45 40 24 28
36 37 35 25 0 -10 3 -27 7 -38 4 -13 4 -16 -2 -7 -7 9 -15 2 -28 -28 -10 -22
-20 -38 -22 -36 -3 2 5 23 17 46 12 23 19 44 17 47 -8 8 -29 -36 -57 -117 -15
-46 -30 -75 -39 -75 -8 0 -16 -6 -19 -14 -3 -9 0 -11 9 -6 8 4 -1 -8 -20 -28
-19 -20 -32 -39 -29 -42 11 -12 89 90 102 134 8 25 15 39 15 31 2 -32 -19 -81
-50 -120 -19 -23 -34 -51 -34 -63 0 -13 -6 -22 -15 -22 -9 0 -14 -8 -12 -20 5
-27 10 -31 24 -17 9 9 9 12 -2 12 -11 1 -11 3 3 11 9 5 17 16 17 23 0 8 7 19
15 26 9 7 14 19 11 26 -3 8 0 13 7 11 7 -1 12 6 12 16 0 10 10 26 21 35 12 10
33 54 49 102 15 47 38 106 51 132 26 53 19 67 -19 38 -14 -11 -31 -20 -39 -20
-7 0 -24 -7 -36 -16 l-22 -15 21 35 c28 48 47 62 61 48 7 -7 17 -12 23 -12 5
0 2 7 -8 15 -18 13 -17 14 9 32 21 14 50 19 119 20 l90 2 -59 -16 c-46 -12
-60 -13 -66 -3 -6 9 -11 6 -21 -11 -11 -21 -11 -23 3 -11 13 10 17 10 22 -4 5
-14 9 -14 24 -3 9 8 -3 -10 -26 -38 -24 -29 -48 -51 -54 -50 -15 3 -40 -45
-29 -56 5 -5 17 -4 27 2 35 18 150 69 165 72 8 2 34 -7 59 -18 25 -12 55 -24
68 -28 12 -3 22 -10 22 -15 0 -5 -11 -5 -25 2 -19 8 -28 8 -42 -3 -16 -13 -17
-12 -4 4 12 15 10 18 -18 23 -17 4 -31 10 -31 15 0 12 -36 11 -58 0 -9 -6 -43
-21 -74 -35 -53 -24 -81 -46 -59 -46 15 0 6 -32 -14 -46 -10 -8 -13 -14 -7
-14 20 0 27 5 24 15 -2 6 0 7 4 3 4 -4 14 -2 23 5 14 10 14 10 5 -3 -64 -86
-89 -116 -111 -133 l-25 -20 13 21 c8 12 20 22 27 22 7 0 10 4 7 10 -7 11 -33
9 -53 -3 -7 -5 -10 -12 -7 -17 3 -4 -2 -13 -10 -20 -21 -18 -19 -35 3 -19 15
13 16 12 3 -4 -12 -15 -11 -20 3 -36 11 -13 14 -21 7 -26 -6 -3 -11 -14 -11
-24 0 -10 -7 -25 -17 -32 -15 -13 -15 -12 -5 9 30 57 31 61 22 67 -6 3 -14 4
-19 1 -5 -4 -7 4 -3 16 5 22 5 23 -15 5 -27 -23 -35 -54 -17 -61 8 -3 14 -17
14 -31 0 -16 -4 -24 -10 -20 -6 4 -8 15 -5 26 10 29 -11 23 -37 -12 -75 -98
-82 -103 -144 -104 -55 0 -58 1 -78 34 -24 42 -26 119 -4 152 8 13 28 30 44
38 16 7 36 17 44 22 8 5 22 12 30 15 33 12 45 22 48 38 2 9 -1 16 -7 16 -6 0
-11 -6 -11 -14 0 -13 -45 -32 -65 -27 -5 2 -7 -1 -3 -5 5 -4 -10 -15 -32 -25
-76 -34 -101 -126 -61 -216 16 -34 26 -43 54 -48 20 -4 50 -4 67 0 35 8 110
69 110 90 0 7 7 18 15 25 12 10 15 10 15 -4 0 -9 7 -16 16 -16 29 0 54 21 74
63 20 40 20 43 3 55 -16 12 -15 14 12 37 17 13 33 24 36 25 3 0 20 20 37 44
19 26 43 47 59 51 32 8 53 23 53 37 0 6 -8 4 -17 -3 -16 -13 -17 -12 -4 4 8 9
16 15 19 12 3 -3 11 0 19 7 11 9 12 7 7 -7 -6 -14 -4 -16 7 -10 11 7 12 6 3
-6 -15 -17 7 -44 23 -28 6 6 10 4 10 -6 0 -8 -3 -13 -5 -10 -3 3 -12 -1 -20
-8 -13 -10 -14 -9 -7 3 8 13 7 13 -8 1 -10 -8 -15 -16 -12 -19 3 -3 -8 -19
-24 -36 -32 -33 -81 -120 -81 -143 0 -8 11 -25 25 -39 34 -34 19 -67 -39 -84
-22 -7 -51 -19 -64 -27 -19 -12 -23 -12 -28 2 -7 18 -44 20 -66 3 -23 -18 -58
-79 -58 -101 0 -11 -8 -31 -19 -45 -10 -15 -24 -44 -30 -64 -8 -25 -22 -42
-43 -53 -39 -19 -36 -20 -40 13 -2 22 -9 28 -33 30 -23 2 -44 -8 -92 -48 -35
-28 -69 -63 -77 -78 -20 -40 -30 -92 -17 -92 6 0 11 8 11 19 0 44 25 83 83
131 80 65 124 69 107 9 -10 -33 -3 -36 38 -12 28 16 31 16 73 -9 52 -30 79
-40 79 -30 0 4 -22 18 -49 31 -38 19 -47 28 -41 40 4 9 16 38 26 65 12 31 26
50 37 52 11 1 22 5 25 8 9 10 10 46 0 46 -4 0 -8 -9 -8 -19 0 -11 -5 -23 -12
-27 -8 -5 -9 -2 -5 10 4 10 7 25 7 34 0 11 9 18 25 18 14 1 22 -2 19 -7 -7
-12 52 -65 85 -78 14 -5 43 -12 64 -16 21 -3 35 -10 32 -15 -3 -4 1 -11 7 -13
7 -3 -12 -3 -42 -1 l-55 5 34 -15 c18 -9 43 -16 55 -16 11 -1 32 -7 46 -16 24
-14 24 -15 2 -9 -36 10 -106 8 -166 -6 -44 -10 -64 -10 -97 0 -57 17 -61 5 -6
-19 25 -11 49 -24 51 -29 8 -12 -42 -44 -54 -36 -6 3 -10 1 -10 -5 0 -6 -17 2
-37 19 -21 17 -41 31 -45 31 -10 0 -97 -94 -92 -99 2 -3 24 14 47 37 46 45 57
50 57 27 0 -9 6 -12 18 -8 9 3 14 3 10 -2 -4 -4 -3 -14 4 -22 6 -7 8 -16 5
-20 -4 -3 -9 2 -13 11 -6 15 -9 15 -33 -6 -14 -12 -20 -16 -13 -8 17 20 15 35
-3 20 -9 -7 -13 -20 -10 -27 3 -8 -4 -26 -15 -40 -24 -30 -25 -40 -6 -40 8 0
12 5 10 12 -3 6 12 29 31 50 22 24 34 32 29 20 -9 -26 -6 -79 6 -110 6 -16 6
-25 0 -25 -6 0 -13 14 -16 30 -4 17 -9 30 -12 30 -2 0 -24 -18 -48 -40 -47
-43 -74 -50 -95 -23 -8 9 -27 22 -43 28 l-30 13 35 20 c47 28 78 55 73 64 -2
3 -15 -4 -29 -18 -13 -13 -30 -24 -37 -24 -7 0 1 11 17 24 l30 24 -30 11 c-16
6 -37 15 -46 20 -9 6 -19 8 -22 5 -7 -8 4 -44 14 -44 5 0 6 7 3 15 -5 13 -3
13 22 0 15 -7 32 -11 37 -8 6 3 7 1 3 -6 -4 -6 -11 -9 -16 -6 -5 3 -22 -1 -37
-10 -19 -11 -21 -14 -7 -10 14 4 21 1 21 -10 0 -11 -7 -14 -21 -9 -15 4 -17 3
-7 -4 10 -7 -15 -24 -95 -64 -110 -55 -323 -176 -358 -203 -26 -20 -15 -28 19
-15 22 8 30 7 39 -5 9 -13 16 -9 46 29 31 38 89 86 105 86 3 0 -8 -17 -25 -38
-25 -31 -29 -44 -24 -70 4 -18 11 -35 15 -38 5 -3 9 -14 9 -25 0 -24 8 -24 40
0 21 17 22 21 10 36 -7 9 -9 15 -4 14 22 -4 44 2 44 12 0 5 -4 7 -10 4 -6 -3
-7 1 -4 9 3 9 1 16 -5 16 -6 0 -11 -4 -11 -10 0 -5 -5 -10 -11 -10 -7 0 -9 10
-4 28 l7 27 -26 -24 c-14 -14 -29 -22 -32 -18 -8 8 34 67 47 67 6 0 8 -4 5 -8
-3 -5 8 -22 24 -37 17 -16 30 -24 30 -17 0 6 -5 14 -11 17 -17 11 -28 49 -17
61 5 7 7 17 6 22 -2 6 23 24 54 41 67 36 147 42 187 15 32 -23 78 -11 122 32
l36 35 6 -30 c5 -22 12 -31 26 -31 21 0 94 30 99 41 1 3 9 15 17 25 11 16 11
10 0 -40 -17 -74 -78 -143 -135 -151 -74 -12 -78 -14 -93 -53 -8 -21 -23 -44
-32 -52 -9 -8 -30 -34 -47 -58 -22 -32 -27 -47 -19 -55 25 -25 11 -54 -45 -96
-31 -23 -57 -41 -58 -39 -6 11 -25 56 -30 71 -5 14 -18 17 -88 17 -75 0 -87 3
-127 30 -41 28 -61 36 -61 26 0 -3 25 -21 55 -41 50 -34 59 -36 123 -34 68 2
97 -5 87 -20 -2 -5 2 -17 10 -27 8 -10 15 -27 15 -36 0 -25 6 -23 53 17 22 19
45 35 50 35 18 0 36 35 37 71 0 20 7 42 15 49 9 7 25 32 35 55 11 24 26 45 34
48 9 4 12 14 9 27 -4 14 -1 19 8 17 8 -2 11 -2 6 0 -15 9 5 23 33 23 24 0 28
-4 26 -25 -5 -40 -33 -74 -58 -70 -23 5 -48 -10 -48 -28 0 -5 10 -2 22 9 l22
19 -17 -25 c-9 -13 -17 -31 -16 -40 0 -13 1 -13 6 0 8 20 43 65 43 54 0 -5
-11 -25 -23 -44 -16 -26 -28 -34 -44 -32 -14 2 -23 -2 -23 -10 0 -10 -3 -9
-11 2 -8 12 -9 10 -4 -8 9 -30 42 -65 50 -52 4 6 0 10 -7 10 -10 0 -10 2 1 9
9 6 10 11 2 15 -6 4 -11 2 -11 -5 0 -10 -3 -10 -12 -1 -10 10 -10 15 2 22 8 6
21 8 28 5 8 -3 26 16 44 45 17 28 32 50 34 50 5 0 -8 -34 -22 -54 -7 -10 -10
-26 -7 -35 4 -13 3 -13 -5 -2 -8 11 -12 10 -21 -7 -16 -30 -14 -36 7 -21 14
11 15 11 5 0 -6 -7 -10 -19 -8 -25 2 -6 -5 -27 -15 -46 -11 -19 -30 -57 -44
-85 -13 -27 -37 -68 -54 -91 -49 -67 -200 -221 -280 -285 -81 -65 -256 -159
-297 -159 -14 0 -58 7 -97 16 -97 22 -267 136 -403 271 -133 132 -170 203
-104 203 16 0 16 3 4 26 -23 45 10 123 45 104 41 -22 124 -22 199 -1 41 11 75
20 76 18 8 -18 60 -87 65 -87 14 0 20 79 9 104 -9 20 -9 29 1 41 7 8 8 15 2
15 -5 0 -15 -7 -23 -16 -10 -13 -10 -20 2 -42 15 -26 15 -62 1 -62 -4 0 -17
15 -29 34 l-21 33 -85 -22 c-80 -22 -89 -22 -152 -9 -49 10 -71 11 -81 3 -19
-15 -37 -76 -30 -103 4 -17 -1 -26 -23 -39 -16 -9 -31 -17 -34 -17 -14 0 -67
98 -72 134 -5 34 -2 49 17 79 25 40 39 45 58 22 14 -17 40 -20 40 -6 0 6 -5
13 -10 16 -6 4 -22 24 -35 44 -13 21 -33 41 -44 44 -12 3 -19 1 -15 -4 3 -5
-4 -9 -15 -9 -12 0 -30 -9 -42 -21 -20 -20 -22 -20 -40 -3 -17 16 -18 19 -4
40 21 32 9 83 -22 95 -47 18 -99 11 -135 -18 -18 -15 -35 -29 -38 -31 -3 -2
-5 -30 -5 -62 0 -51 3 -61 23 -71 22 -13 30 -29 13 -29 -6 0 -13 5 -16 10 -8
13 -43 3 -67 -18 -14 -11 -15 -18 -7 -29 9 -10 6 -13 -15 -13 -14 0 -26 -4
-26 -10 0 -9 45 -21 108 -28 6 -1 12 -6 12 -10 0 -5 -13 -7 -29 -4 -16 2 -37
-1 -48 -7 -15 -9 -12 -11 22 -12 22 -1 51 -3 65 -5 14 -1 42 -3 63 -5 24 -1
33 -5 25 -10 -10 -7 -10 -9 2 -9 13 0 13 -1 0 -10 -10 -6 -17 -5 -22 5 -11 19
-73 10 -108 -15 -16 -11 -33 -20 -38 -20 -6 0 -13 -4 -16 -8 -3 -4 12 -8 32
-8 20 0 38 -4 38 -10 1 -5 -2 -8 -8 -6 -5 1 -7 -2 -3 -8 4 -6 18 -9 32 -8 37
4 40 -19 3 -27 -30 -7 -32 -29 -2 -23 9 2 25 -5 35 -15 15 -15 27 -18 64 -12
35 5 44 4 41 -7 -3 -7 -14 -12 -24 -11 -10 1 -41 3 -67 4 -30 1 -51 7 -54 16
-8 20 -22 5 -23 -25 -1 -75 0 -140 4 -167 3 -26 7 -30 35 -31 35 -1 56 -14 23
-14 -12 0 -22 -4 -22 -10 0 -5 5 -10 12 -10 6 0 2 -10 -10 -23 -20 -21 -20
-25 -7 -51 18 -35 19 -57 3 -76 -7 -8 -9 -11 -4 -7 13 10 38 -44 33 -70 -2
-12 -1 -20 3 -18 9 6 24 -25 21 -42 -1 -7 3 -13 9 -13 5 0 10 9 10 20 0 11 -5
20 -12 20 -6 0 -9 2 -6 5 3 3 18 -1 34 -10 19 -10 23 -15 12 -15 -28 0 -21
-17 12 -29 46 -16 36 -22 -32 -18 -48 3 -57 1 -40 -6 12 -6 22 -13 22 -18 0
-4 8 -5 19 -2 10 3 22 0 25 -6 5 -7 -4 -11 -23 -11 -17 0 -41 -5 -55 -11 -31
-15 -19 -29 44 -52 42 -14 43 -16 15 -17 -52 -3 -104 -10 -127 -19 -17 -6 -2
-10 62 -16 62 -6 78 -10 60 -16 -41 -12 -90 -10 -91 4 0 6 -4 3 -9 -8 -14 -31
-12 -35 18 -35 15 0 38 -3 50 -7 30 -7 10 -23 -29 -23 -16 0 -30 -7 -34 -17
-6 -17 -7 -17 -19 0 -12 15 -15 16 -26 2 -8 -10 -25 -14 -47 -11 -19 2 -31 0
-26 -4 13 -12 126 -23 119 -12 -3 6 -2 13 4 17 5 3 10 2 10 -4 0 -5 6 -16 13
-23 6 -7 17 -26 22 -43 l10 -30 102 -5 c56 -3 105 -8 109 -12 3 -4 -40 -4 -97
-1 -92 6 -103 5 -91 -9 9 -11 50 -18 155 -27 78 -7 162 -15 187 -18 l45 -6
-40 -8 c-22 -4 -96 -8 -164 -8 -68 -1 -121 -4 -117 -8 4 -4 91 -13 194 -21
103 -7 230 -17 282 -22 52 -5 130 -12 172 -15 l77 -7 -69 69 c-55 53 -75 82
-94 130 -14 35 -22 63 -20 63 6 0 86 -61 94 -71 3 -4 48 -27 101 -52 l97 -46
5 -48 c3 -26 6 -67 6 -91 l1 -43 -47 38 -46 38 -115 5 c-62 3 -116 2 -118 -1
-2 -4 23 -32 56 -62 55 -52 63 -56 122 -62 35 -3 115 -5 178 -3 93 2 115 6
115 18 0 8 -11 17 -24 20 -14 3 -26 10 -28 16 -2 6 31 42 74 80 43 38 80 72
83 75 8 10 71 -21 65 -31 -3 -6 -12 -10 -18 -10 -7 0 -6 4 3 10 13 8 13 10 -2
10 -9 0 -20 -4 -23 -10 -3 -5 -11 -10 -18 -10 -6 0 -2 7 9 15 22 17 12 20 -17
4 -11 -5 -16 -15 -13 -21 4 -6 3 -8 -3 -5 -6 4 -23 -3 -38 -15 -21 -16 -24
-23 -13 -30 9 -7 7 -8 -8 -4 -14 4 -29 -3 -49 -24 l-28 -29 27 -11 c14 -5 29
-16 32 -24 4 -10 21 -14 59 -13 29 1 52 -1 50 -4 -2 -3 37 -6 86 -7 64 -1 88
2 83 10 -5 7 -3 8 7 2 8 -4 88 -9 179 -10 145 -2 162 -1 145 12 -11 8 -24 13
-31 10 -6 -2 -11 1 -11 7 0 7 -2 18 -4 26 -2 9 5 17 16 19 17 4 18 2 6 -12
-23 -28 -3 -31 23 -3 l24 26 -31 4 c-31 5 -31 5 2 3 24 -1 35 -6 37 -18 1 -11
-3 -15 -12 -11 -8 3 -14 0 -14 -6 0 -6 8 -11 18 -11 14 0 15 -2 2 -10 -13 -8
-13 -12 4 -27 13 -13 20 -15 23 -5 3 6 12 12 21 12 15 0 15 -2 2 -10 -13 -9
-13 -10 0 -10 21 1 51 25 42 35 -4 5 -1 5 6 1 6 -4 12 -2 12 4 0 6 4 9 9 6 5
-3 20 3 32 14 19 15 21 19 7 20 -9 0 -18 -4 -20 -10 -1 -5 -12 -11 -23 -13
-11 -1 -27 -7 -35 -12 -8 -5 -24 -11 -35 -12 -11 -2 7 11 40 28 33 17 68 31
78 31 9 -1 15 3 12 9 -4 5 -1 9 6 9 7 0 21 8 33 18 12 10 9 3 -9 -21 -15 -21
-46 -53 -69 -72 -39 -33 -40 -35 -16 -36 29 -2 62 -6 108 -14 19 -3 32 0 32 6
0 6 5 7 13 2 15 -10 147 -11 147 0 0 4 -12 8 -27 8 -35 2 -31 2 -71 -4 -19 -3
-31 -3 -27 1 7 7 11 8 43 11 13 1 12 5 -8 16 -22 12 -27 11 -43 -2 -9 -9 -17
-11 -17 -6 0 6 6 16 14 22 11 10 22 9 46 -4 38 -19 132 -45 142 -39 3 2 28 7
55 10 26 3 69 16 95 30 26 13 51 24 55 24 5 -1 -9 -10 -30 -21 -22 -11 -36
-23 -33 -27 4 -3 12 0 18 6 16 16 25 15 31 -2 4 -10 -5 -13 -39 -10 -24 1 -46
-1 -48 -5 -3 -4 18 -8 47 -10 29 -1 60 -4 70 -7 12 -4 29 4 46 20 22 21 41 28
95 33 62 6 70 9 88 37 l20 31 -7 -40 c-3 -22 -8 -48 -11 -57 -3 -10 -1 -18 5
-18 6 0 12 12 12 28 1 19 3 21 6 8 4 -15 7 -16 15 -5 7 10 8 8 3 -8 -4 -13 -2
-23 4 -23 5 0 16 -3 25 -6 12 -4 16 0 16 16 0 17 4 20 20 15 13 -4 20 -2 20 7
0 7 19 21 41 32 24 11 54 38 78 70 52 70 54 76 39 76 -8 0 -28 -20 -46 -45
-33 -46 -84 -85 -114 -85 -11 0 -23 20 -38 66 -16 49 -26 64 -37 60 -8 -3 -17
-6 -19 -6 -2 0 -4 -11 -4 -24 0 -26 -14 -40 -48 -49 -31 -7 -39 16 -17 49 22
34 9 46 -16 14 -19 -25 -23 -88 -5 -82 5 2 13 -2 17 -10 7 -11 11 -10 19 2 7
11 10 11 10 2 0 -18 -25 -25 -49 -13 -12 7 -22 7 -26 2 -3 -5 3 -12 12 -14 15
-4 15 -5 2 -6 -9 0 -24 8 -33 18 -17 19 -17 19 3 14 12 -3 21 -1 21 6 0 6 -4
11 -8 11 -4 0 -8 9 -8 20 0 11 4 20 8 20 4 0 8 5 8 10 0 7 -7 7 -21 0 -11 -7
-23 -9 -26 -6 -3 3 3 9 13 13 32 13 27 33 -7 33 -25 0 -30 -3 -25 -17 4 -12
-1 -9 -15 7 -11 14 -18 20 -15 14 3 -6 -1 -11 -9 -11 -8 0 -14 3 -13 6 2 21
-4 22 -18 5 -8 -10 -13 -13 -9 -6 3 6 1 12 -5 12 -6 0 -13 -6 -16 -14 -3 -8
-12 -12 -20 -9 -8 3 -14 0 -14 -6 0 -6 5 -11 10 -11 6 0 10 -5 10 -11 0 -6 -5
-7 -12 -2 -7 4 -18 8 -25 9 -14 2 -25 -33 -12 -40 5 -2 4 -3 -3 -2 -7 2 -12
10 -10 19 2 13 -1 14 -22 4 -14 -7 -20 -15 -14 -18 6 -4 5 -9 -3 -12 -11 -4
-11 -6 -1 -6 7 -1 11 -5 8 -9 -3 -5 9 -7 27 -5 25 3 28 1 12 -5 -34 -15 -77
-23 -71 -14 3 5 -8 9 -24 9 -16 0 -27 -4 -25 -8 3 -3 -4 -9 -15 -12 -11 -3
-18 -2 -15 3 3 4 -13 8 -35 8 -22 1 -38 -3 -35 -8 3 -5 -11 -2 -31 6 -42 17
-37 1 7 -21 29 -15 55 -12 44 5 -3 4 4 6 16 3 19 -5 19 -7 5 -15 -9 -5 -14
-13 -11 -19 7 -11 -35 4 -83 29 -50 26 -34 37 46 33 47 -2 80 2 99 11 70 36
150 82 168 98 11 10 38 23 61 29 31 8 48 22 73 56 35 48 48 49 72 3 7 -14 6
-18 -6 -18 -9 0 -14 4 -11 9 3 5 0 14 -8 20 -10 9 -17 7 -27 -6 -12 -14 -12
-16 1 -11 11 4 16 0 16 -13 0 -12 -4 -15 -10 -9 -13 13 -29 13 -21 0 4 -6 1
-9 -7 -8 -7 2 -12 -3 -10 -10 1 -8 -2 -11 -7 -8 -5 4 -13 1 -17 -5 -5 -9 0
-10 17 -5 13 4 33 8 45 10 11 2 26 6 32 10 5 3 13 0 15 -6 3 -7 6 -4 7 7 1 18
2 18 11 3 8 -14 14 -15 37 -7 15 6 44 13 66 15 40 5 66 18 129 67 32 25 37 34
37 71 0 24 -2 45 -5 48 -3 3 -23 0 -45 -5 -30 -8 -43 -8 -52 1 -9 9 -2 22 34
55 37 36 44 47 35 62 -5 10 -7 44 -4 76 3 33 3 59 1 59 -3 0 -26 -11 -52 -24
-70 -35 -120 -41 -158 -17 -29 18 -32 24 -38 94 -4 40 -5 92 -1 114 3 26 0 53
-10 77 -20 47 -16 59 28 88 142 95 153 106 192 180 l39 73 13 -44 c7 -24 16
-47 19 -50 11 -10 -4 81 -24 144 -14 42 -17 67 -11 85 5 14 13 59 17 100 5 50
12 74 20 73 15 -4 15 2 0 27 -10 15 -10 22 -1 31 9 9 19 0 44 -40 31 -49 49
-64 49 -40 0 6 -13 28 -29 48 -15 20 -37 54 -48 75 -21 40 -40 36 -24 -6 6
-17 3 -32 -15 -61 -29 -44 -37 -46 -52 -12 -10 21 -9 25 4 25 31 0 3 17 -49
30 -33 7 -88 11 -140 8 -47 -2 -84 -1 -81 4 3 4 32 8 65 8 32 0 59 3 59 8 0 4
-33 5 -72 2 -72 -5 -76 -8 -63 -43 6 -14 3 -16 -11 -11 -14 4 -16 3 -5 -4 9
-7 10 -12 2 -16 -6 -4 -11 -12 -11 -17 0 -6 14 1 31 15 17 14 36 26 42 25 7 0
2 -7 -10 -16 -31 -21 -30 -63 3 -86 14 -11 28 -16 32 -12 3 3 0 10 -8 16 -13
8 -13 10 0 19 8 5 23 10 32 10 10 0 18 9 20 23 3 19 10 22 49 25 91 6 106 -52
33 -123 -43 -42 -49 -45 -101 -45 -45 0 -66 6 -105 31 -28 16 -53 28 -56 25
-7 -7 -10 -5 68 -55 54 -35 71 -41 100 -37 19 3 43 6 53 6 9 0 17 6 17 13 0 7
18 31 40 52 22 22 44 53 49 70 7 23 10 26 15 14 5 -11 -6 -34 -31 -68 -50 -67
-86 -131 -73 -131 5 0 22 19 36 43 14 23 33 53 42 67 l16 25 13 -45 c18 -62
20 -129 4 -170 -59 -149 -55 -145 -164 -201 -64 -33 -102 -48 -105 -40 -2 6
-23 35 -45 63 -74 90 -73 86 -40 94 44 10 175 82 210 117 43 41 33 48 -15 10
-92 -74 -184 -112 -335 -139 -98 -17 -173 -18 -232 -3 -55 14 -159 99 -216
175 l-41 56 -4 156 c-2 87 -6 167 -9 179 -4 17 8 32 56 72 75 63 109 67 175
19 l44 -31 -25 -23 c-32 -30 -42 -71 -24 -103 16 -28 63 -41 82 -22 6 6 19 11
29 11 10 0 18 5 18 10 0 6 -7 10 -15 10 -8 0 -15 5 -15 10 0 14 48 12 52 -2 3
-9 6 -9 12 0 4 7 2 12 -4 12 -6 0 -8 5 -5 10 9 14 -48 13 -63 -2 -20 -20 -26
0 -8 27 22 34 40 32 80 -10 19 -19 38 -35 42 -35 4 0 3 5 -4 12 -17 17 -15 30
6 27 41 -4 45 3 10 21 -45 24 -61 45 -27 35 23 -7 23 -7 4 8 -12 10 -22 12
-26 5 -7 -11 -39 3 -130 58 -30 18 -74 36 -97 40 -46 7 -48 10 -28 37 11 14
22 17 49 12 25 -5 46 -1 77 15 53 27 59 24 160 -64 65 -58 133 -96 145 -84 6
5 -111 95 -180 138 -30 19 -55 37 -55 40 0 4 10 12 23 17 21 11 21 11 2 19
-29 11 -106 56 -103 60 2 1 37 6 78 9 58 6 83 13 109 33 23 17 36 22 39 14 2
-7 9 -12 16 -12 15 0 82 68 74 75 -2 3 -17 -8 -31 -25 -27 -30 -47 -39 -47
-21 0 5 17 23 38 41 20 17 29 29 20 26 -12 -3 -16 0 -13 15 5 23 2 23 -36 3
-25 -12 -28 -18 -18 -30 6 -8 10 -16 8 -17 -2 -1 -24 -17 -48 -36 -44 -35 -57
-38 -176 -42 -59 -2 -71 0 -73 14 -3 15 9 17 99 17 92 0 107 3 147 26 29 17
41 29 34 36 -6 6 -17 6 -30 -1 -11 -6 -38 -11 -59 -11 -37 0 -37 0 -15 16 21
14 22 41 1 28 -5 -3 -6 -10 -3 -16 5 -7 2 -8 -5 -3 -17 10 1 28 31 32 16 2 19
0 9 -6 -9 -6 -10 -11 -2 -15 6 -4 9 -12 6 -17 -4 -5 -2 -9 4 -9 5 0 9 12 9 28
0 35 5 55 17 65 6 5 3 7 -7 3 -10 -3 -20 -1 -23 4 -4 6 -12 10 -18 10 -7 0 -6
-4 3 -10 19 -13 4 -13 -19 0 -13 6 -24 5 -37 -6 -11 -9 -14 -13 -7 -10 6 4 13
0 16 -6 3 -10 8 -9 22 2 14 11 17 11 11 2 -7 -11 -4 -12 13 -3 17 10 20 9 14
-5 -3 -9 -13 -14 -24 -11 -10 3 -20 -2 -23 -10 -3 -8 -10 -11 -16 -8 -6 4 -7
11 -4 17 4 6 -2 6 -15 -1 -23 -13 -28 -31 -8 -31 7 0 13 -9 14 -20 3 -30 -8
-25 -59 34 -40 46 -54 55 -93 60 -25 4 -45 10 -45 12 0 11 94 114 103 114 6 0
33 -17 61 -38 94 -70 119 -82 162 -76 38 5 39 5 17 -12 -48 -35 -17 -41 107
-18 19 3 17 0 -10 -12 -30 -14 -32 -17 -17 -26 10 -5 14 -14 11 -20 -5 -8 -1
-9 10 -5 15 6 17 3 12 -18 -4 -14 -2 -25 4 -25 5 0 10 5 10 11 0 7 10 0 21
-15 12 -15 24 -25 27 -22 2 3 -1 12 -8 21 -7 9 -10 18 -7 21 3 3 13 -13 23
-35 10 -23 21 -41 26 -41 11 0 -8 46 -34 84 -21 30 -21 31 -1 13 12 -10 31
-42 44 -70 12 -29 24 -47 26 -41 2 6 -6 33 -19 60 -31 69 -32 72 -9 46 12 -13
26 -42 32 -63 7 -21 16 -39 21 -39 10 0 4 24 -18 79 -16 39 -17 44 -5 37 4 -3
14 -26 21 -51 7 -25 16 -45 21 -45 7 0 -21 96 -35 118 -3 5 -31 5 -63 2 -79
-9 -92 -3 -49 26 19 13 39 24 45 24 5 0 13 5 16 11 5 7 -5 8 -29 4 -41 -8 -40
-9 -25 35 l12 33 81 -6 c44 -3 82 -9 83 -14 7 -21 45 -75 49 -70 3 2 -3 21
-12 40 -21 43 -57 60 -133 62 -31 1 -59 3 -62 4 -3 0 -2 25 2 54 13 90 11 237
-3 236 -7 0 -44 -43 -82 -95 -50 -69 -75 -116 -94 -174 -16 -49 -32 -80 -40
-80 -8 0 -46 22 -85 50 l-70 50 36 15 c20 8 41 15 47 15 13 0 138 92 139 103
1 4 -23 7 -51 7 -83 1 -222 35 -212 52 7 11 174 6 207 -7 9 -4 17 -3 17 3 0
12 -58 22 -132 22 -32 0 -58 4 -58 10 0 9 180 70 208 70 8 0 33 20 56 45 42
44 44 45 105 45 76 0 90 -7 164 -78 67 -66 75 -61 15 11 -54 64 -112 91 -177
82 l-46 -6 38 26 c38 26 39 26 80 10 22 -9 54 -26 70 -37 20 -15 28 -17 25 -7
-2 8 -30 28 -62 45 l-58 31 31 13 c17 7 31 15 31 19 0 3 -34 5 -75 3 -54 -3
-88 1 -125 14 -27 10 -47 21 -43 25 5 4 64 10 133 13 l125 7 55 -39 c54 -38
55 -40 66 -108 l12 -69 1 67 c0 37 -3 70 -9 73 -5 3 -10 10 -10 15 0 10 106
-24 126 -41 9 -7 14 -31 14 -61 0 -34 4 -47 11 -42 7 4 9 24 6 51 -3 33 -2 42
7 33 6 -6 11 -32 11 -58 0 -37 -5 -51 -25 -69 -14 -12 -20 -23 -14 -23 24 0
54 42 55 78 l1 37 11 -32 c7 -18 37 -55 67 -83 30 -27 51 -50 45 -49 -26 3
-28 -3 -5 -16 l25 -14 -25 -1 c-14 0 -66 -11 -115 -25 -50 -14 -98 -25 -107
-25 -24 0 -72 -20 -65 -26 3 -4 21 -1 39 5 l33 11 -30 -24 c-38 -32 -29 -33
26 -2 57 32 164 66 204 66 35 0 102 -40 98 -58 -2 -6 4 -9 12 -6 8 3 26 -6 40
-20 14 -14 30 -26 35 -26 17 0 11 20 -7 27 -27 10 -133 120 -133 137 0 16 -96
116 -111 116 -5 0 -9 9 -9 20 0 11 -18 40 -41 65 -37 40 -53 48 -180 90 l-140
47 -102 -7 c-56 -4 -118 -11 -137 -16 -27 -7 -43 -4 -77 12 l-42 20 -73 -31
c-40 -17 -79 -34 -86 -37 -37 -16 92 93 146 124 35 19 60 39 55 43 -4 5 -30
11 -58 14 -107 12 -205 30 -205 39 0 13 117 132 156 159 19 13 34 26 34 29 0
3 -33 0 -72 -7 -40 -7 -74 -12 -75 -10 -1 1 41 71 93 155 52 84 94 155 94 157
0 2 -15 -5 -32 -15 -18 -10 -67 -37 -108 -60 -41 -23 -86 -49 -100 -58 -24
-16 -24 -16 3 13 l27 31 -35 86 c-27 69 -36 107 -41 182 -4 52 -10 95 -13 95
-19 -1 -73 -173 -86 -278 -6 -49 -11 -56 -58 -91 -29 -21 -53 -38 -55 -36 -1
1 5 21 13 45 25 70 22 83 -74 330 l-40 105 23 130 c13 72 22 131 21 133 -9 10
-216 -150 -273 -210 -18 -20 -39 -55 -47 -79 l-14 -44 -2 40 c-2 22 -2 61 0
88 1 26 0 47 -3 47 -2 0 -23 -32 -45 -71 -35 -60 -41 -80 -41 -127 -1 -46 -3
-53 -11 -38 -22 36 -22 252 -1 369 10 59 17 107 14 107 -2 0 -13 -10 -23 -22
l-20 -23 11 23 c27 54 -9 30 -110 -76 -103 -107 -149 -175 -151 -224 -1 -19
-3 -17 -8 6 l-6 29 -28 -40 c-35 -50 -69 -142 -61 -165 11 -37 -16 -16 -73 55
-78 96 -104 133 -138 190 -26 46 -65 181 -80 280 -4 26 -10 47 -14 47 -3 0
-14 -21 -23 -47z m1056 -224 c-4 -7 -7 -25 -6 -40 0 -17 -5 -29 -12 -29 -7 0
-19 -12 -27 -27 -21 -43 -22 -50 -3 -28 16 20 16 20 11 -2 -7 -31 1 -29 14 3
5 15 12 24 15 22 7 -8 -18 -58 -29 -58 -12 0 -2 -41 24 -97 10 -23 19 -46 19
-52 0 -5 5 -13 11 -16 20 -13 -4 83 -25 97 -8 5 -7 8 1 8 7 0 10 7 6 18 -3 9
-3 14 1 11 4 -4 20 -40 35 -80 16 -41 36 -91 45 -111 10 -23 12 -39 6 -43 -6
-3 -10 3 -10 15 0 32 -25 34 -70 4 -42 -28 -65 -24 -65 11 0 8 -4 15 -10 15
-5 0 -10 -12 -10 -27 1 -19 6 -27 15 -25 8 2 2 -10 -13 -26 -18 -19 -25 -32
-18 -36 6 -4 11 -2 11 4 0 11 65 53 88 56 9 2 6 -7 -9 -22 -12 -13 -19 -24
-15 -24 5 0 3 -7 -4 -15 -7 -9 -10 -18 -7 -21 3 -3 25 24 48 61 24 37 45 61
47 55 3 -7 0 -15 -5 -19 -14 -9 -14 -53 0 -44 7 4 6 0 -2 -10 -16 -20 -32 -13
-25 11 5 14 3 14 -10 -2 -9 -11 -12 -22 -8 -25 4 -3 -10 -22 -33 -41 -22 -19
-34 -27 -26 -17 8 9 11 20 8 23 -3 3 -19 -15 -36 -40 -22 -32 -31 -56 -31 -86
0 -23 -3 -39 -7 -37 -5 3 -9 -23 -11 -56 -2 -49 -7 -66 -27 -87 -14 -14 -25
-31 -25 -38 0 -7 -4 -12 -8 -12 -4 0 -8 -9 -9 -21 -2 -17 1 -18 13 -9 8 7 14
17 14 22 0 15 28 39 32 27 4 -11 138 133 138 149 0 15 32 74 37 68 2 -2 0 -13
-6 -24 -6 -11 -7 -23 -3 -27 4 -5 1 -5 -5 -1 -9 5 -13 0 -13 -12 0 -11 -7 -25
-15 -32 -8 -7 -12 -17 -8 -23 3 -5 1 -7 -4 -4 -6 4 -34 -20 -62 -53 -29 -33
-57 -59 -63 -57 -6 1 -13 -4 -16 -12 -3 -9 0 -11 8 -6 9 5 11 4 6 -4 -4 -6
-11 -9 -16 -6 -4 3 -13 -2 -20 -10 -15 -18 -41 -8 -33 13 4 9 15 30 27 46 18
26 18 29 2 23 -11 -4 -15 -3 -11 4 4 6 13 8 21 5 21 -8 27 11 7 23 -14 8 -15
11 -3 12 8 1 19 1 24 0 5 -1 4 4 -3 12 -9 11 -9 16 0 19 10 3 18 57 18 130 1
14 12 40 26 56 30 36 33 52 5 27 -20 -18 -50 -29 -50 -18 0 3 9 18 21 35 12
16 18 32 15 36 -4 3 -11 0 -15 -7 -7 -10 -13 -11 -30 -2 -18 10 -23 8 -39 -19
-19 -30 -19 -30 -29 -8 -10 22 -11 21 -28 -17 -9 -22 -19 -57 -22 -77 -3 -21
-8 -38 -12 -39 -3 0 -14 -2 -23 -4 -14 -2 -18 4 -18 26 0 17 4 28 9 25 5 -4 7
3 4 13 -3 11 3 36 13 56 16 35 16 38 0 47 -15 9 -15 12 4 39 12 16 18 34 14
41 -5 8 -2 9 9 5 16 -6 23 9 17 38 -1 6 2 7 6 2 9 -9 54 31 54 49 0 7 6 15 13
17 8 4 9 8 2 14 -6 4 -12 19 -13 33 -1 18 1 21 8 10 5 -8 6 -18 4 -22 -3 -4 0
-8 7 -8 6 0 9 8 6 20 -3 11 -2 18 3 15 4 -3 10 4 13 14 4 15 0 19 -14 16 -29
-6 -39 -15 -39 -35 0 -10 -5 -22 -12 -26 -8 -5 -9 0 -4 17 4 13 8 32 8 41 -1
12 7 16 26 14 15 -1 33 2 40 7 21 16 14 -33 -12 -88 -13 -27 -36 -64 -52 -82
-44 -48 -96 -123 -85 -123 5 0 24 20 42 45 18 25 36 45 41 45 4 0 8 5 8 11 0
6 11 24 25 41 28 33 30 32 13 -9 -6 -15 -13 -39 -15 -53 -3 -20 -1 -22 7 -10
9 12 10 10 5 -10 -9 -33 -26 -50 -18 -19 5 20 3 22 -8 12 -7 -7 -14 -18 -15
-25 -1 -7 -5 -21 -9 -30 -13 -32 28 -13 48 23 l19 34 -6 -30 -6 -30 17 23 c9
13 18 41 20 62 3 30 0 39 -14 43 -14 4 -12 5 5 6 23 1 23 -1 19 -59 -4 -57 3
-74 19 -48 9 14 8 174 -2 232 -4 27 -3 36 5 32 6 -4 11 -14 11 -23 0 -13 3
-13 18 -2 16 13 16 13 0 -7 -18 -21 -25 -64 -10 -64 4 0 8 10 9 21 1 12 6 26
12 32 7 7 8 3 4 -12 -3 -12 -1 -21 6 -21 10 0 33 -41 35 -64 2 -22 66 -26 66
-4 0 5 -4 6 -10 3 -6 -4 -7 1 -3 12 6 17 5 17 -14 1 -17 -16 -45 -27 -31 -12
4 3 -7 42 -23 86 -17 45 -28 87 -25 95 3 7 -1 13 -9 13 -21 0 -19 20 10 75 14
26 23 50 20 53 -3 4 -10 0 -15 -8 -6 -8 -10 -10 -10 -4 0 6 7 17 15 24 12 10
15 10 15 -1 1 -10 4 -8 11 4 5 9 12 17 15 17 3 0 2 -5 -2 -11z m-992 -374 c20
-21 26 -24 21 -11 -5 14 -3 17 7 11 9 -5 11 -4 6 4 -4 6 -11 9 -16 6 -5 -3
-11 -1 -14 3 -11 19 34 6 48 -13 12 -16 15 -17 16 -4 0 8 -5 20 -12 27 -6 6
-9 14 -6 17 8 8 59 -85 53 -96 -3 -4 3 -17 14 -28 11 -11 23 -32 27 -46 7 -27
11 -29 34 -15 12 8 11 13 -9 33 -33 36 -12 40 29 6 22 -18 28 -27 15 -23 -16
6 -17 4 -8 -6 7 -8 17 -9 27 -3 14 8 10 14 -24 42 -29 23 -39 38 -35 50 3 11
-3 25 -15 36 -24 22 -27 9 -3 -17 9 -10 12 -18 7 -18 -5 0 -18 14 -28 31 -10
17 -20 28 -23 25 -6 -6 29 -66 39 -66 4 0 8 -4 8 -10 0 -27 -28 -4 -47 41 -12
27 -18 47 -12 44 5 -4 9 -1 9 6 0 7 7 4 15 -7 8 -10 15 -14 15 -8 0 6 7 11 15
11 8 0 12 -4 9 -9 -9 -14 28 -49 44 -43 9 3 26 -4 39 -16 12 -13 26 -19 30
-16 3 4 12 -2 20 -13 15 -21 33 -27 33 -10 0 6 -7 10 -15 10 -8 0 -15 5 -15
11 0 5 -15 16 -34 24 -40 17 -51 31 -35 41 7 4 9 3 5 -4 -3 -6 7 -15 26 -22
18 -6 42 -18 54 -28 25 -21 50 -105 46 -151 -3 -26 -1 -31 10 -25 10 6 10 5
-1 -9 -11 -14 -11 -17 0 -18 10 0 11 -2 2 -6 -16 -6 -18 -99 -3 -108 6 -4 8
-11 4 -16 -3 -6 -10 -6 -17 -1 -7 5 -22 8 -34 7 -12 -1 -20 2 -17 7 4 5 13 7
21 4 12 -5 14 -1 10 14 -3 11 -1 20 4 20 5 0 9 34 8 75 -1 41 -5 75 -8 75 -4
0 -14 6 -22 13 -8 6 -12 11 -10 10 2 -2 10 2 18 9 11 8 12 7 7 -6 -3 -9 -1
-16 5 -16 12 0 14 14 5 47 -4 13 -11 20 -16 17 -6 -4 -13 -3 -17 2 -10 15 -62
46 -67 41 -3 -3 14 -19 38 -36 23 -17 37 -31 30 -31 -19 0 -27 4 -24 13 1 4
-2 7 -7 7 -5 0 -23 14 -41 30 -18 17 -24 27 -15 23 12 -4 16 -3 12 4 -4 6 -19
11 -34 11 -25 0 -24 -2 23 -43 27 -24 47 -45 44 -47 -3 -2 -17 -10 -32 -17
-25 -13 -26 -16 -13 -35 20 -28 19 -45 -1 -20 -15 19 -15 19 -10 -1 13 -53 17
-100 7 -85 -5 8 -7 18 -4 24 4 5 1 6 -7 1 -8 -5 -11 -3 -8 5 2 7 -6 24 -19 38
-12 13 -20 29 -16 35 4 6 1 7 -7 2 -10 -6 -12 -4 -7 7 3 10 -6 26 -23 43 -16
15 -32 41 -35 57 -4 16 -10 27 -13 24 -3 -4 -16 4 -29 16 -33 31 -28 8 7 -30
17 -18 30 -42 30 -52 0 -10 4 -21 9 -24 5 -3 26 -31 46 -62 37 -56 37 -57 31
-129 -4 -47 -3 -76 4 -80 6 -4 10 18 10 64 0 39 4 71 9 71 5 0 8 -15 6 -34 -1
-27 1 -33 14 -29 14 4 14 3 0 -9 -14 -12 -21 -58 -9 -58 4 0 7 -7 7 -15 0 -11
-4 -12 -14 -3 -11 9 -12 7 -7 -8 5 -18 4 -18 -10 1 -44 55 -47 57 -60 46 -10
-9 -15 -7 -19 9 -3 11 -10 20 -17 20 -6 0 -9 -4 -6 -8 3 -5 -1 -9 -9 -9 -10 0
-12 4 -5 12 10 12 4 25 -12 25 -5 0 -6 -4 -3 -10 3 -5 4 -10 1 -10 -2 0 -13
-3 -23 -7 -12 -4 -9 2 10 20 27 26 27 28 11 52 -9 14 -21 25 -26 25 -5 0 -7 4
-3 9 3 5 2 12 -3 14 -4 3 -12 -5 -18 -18 -10 -21 -9 -23 14 -19 18 4 23 1 19
-10 -3 -8 -1 -17 6 -20 7 -3 3 -4 -8 -3 -11 1 -20 -3 -20 -10 0 -17 -15 -29
-15 -12 0 8 5 20 12 27 7 7 10 12 8 13 -16 2 -38 8 -55 14 -18 6 -18 5 -2 -5
9 -6 17 -19 17 -29 0 -10 7 -24 15 -31 8 -7 15 -19 15 -26 0 -8 6 -14 14 -14
9 0 12 -7 9 -20 -3 -12 0 -20 6 -20 7 0 10 4 7 8 -3 5 1 9 9 9 11 0 12 -4 4
-13 -12 -14 4 -54 21 -54 6 0 9 -3 9 -7 -3 -21 3 -24 19 -12 15 12 16 12 5 -2
-7 -9 -9 -20 -5 -25 4 -5 -3 0 -16 11 -28 23 -104 137 -122 183 -7 17 -16 32
-21 32 -10 0 -4 -16 35 -90 31 -60 104 -156 116 -153 3 1 7 -5 7 -13 0 -11 -5
-10 -21 5 -16 15 -25 17 -39 9 -17 -9 -17 -11 -1 -22 13 -10 14 -15 4 -21 -8
-5 -11 -4 -7 2 4 6 -1 14 -10 17 -12 5 -13 10 -5 18 8 8 9 15 1 25 -9 10 -7
13 6 13 14 0 13 4 -8 20 -35 28 -49 25 -45 -7 2 -16 8 -27 16 -25 6 1 12 -2
12 -8 0 -5 -7 -10 -15 -10 -16 0 -67 94 -79 145 l-8 30 25 -23 c15 -15 27 -19
31 -13 10 15 -19 65 -47 84 -55 36 -146 128 -140 143 5 13 8 13 29 -1 19 -12
29 -13 45 -5 16 9 25 8 40 -6 10 -9 19 -14 19 -9 0 4 7 2 15 -5 8 -7 15 -8 15
-3 0 5 7 10 15 10 8 0 14 -7 13 -15 -2 -8 3 -17 11 -20 8 -3 11 0 7 6 -3 6 -1
14 5 18 8 4 9 3 5 -4 -4 -7 -1 -12 7 -12 18 0 89 -109 80 -123 -3 -5 -1 -7 5
-3 6 3 17 -3 25 -14 7 -11 17 -17 20 -14 3 4 -8 25 -26 48 -18 22 -39 54 -47
70 -8 16 -29 43 -46 60 -28 28 -63 98 -46 94 4 -1 18 4 30 11 13 7 26 10 29 7
3 -3 -6 -10 -21 -15 -37 -15 -33 -19 14 -17 42 2 51 -15 11 -21 -13 -2 -20 1
-16 7 3 5 2 10 -4 10 -5 0 -13 -4 -16 -10 -3 -5 -1 -10 5 -10 7 0 10 -7 6 -15
-8 -22 29 -39 45 -19 10 12 10 15 -1 12 -7 -2 -15 3 -17 10 -4 11 -1 12 16 3
17 -10 19 -16 11 -31 -16 -30 -13 -45 8 -29 15 13 16 12 4 -3 -8 -9 -9 -19 -4
-22 6 -3 13 -17 16 -32 4 -14 11 -31 16 -37 6 -7 19 -23 29 -37 16 -20 22 -23
32 -12 11 10 10 12 0 12 -11 0 -11 3 0 17 8 9 9 14 3 10 -7 -4 -15 0 -18 9 -5
12 -2 15 10 10 15 -6 15 -4 3 11 -9 11 -10 14 -1 9 16 -10 15 0 -4 29 -18 27
-50 24 -35 -4 7 -13 5 -17 -9 -17 -15 0 -19 13 -10 36 1 3 2 8 1 12 0 5 2 7 7
7 19 -3 21 3 6 26 -9 13 -25 27 -35 30 -16 5 -18 10 -9 20 9 11 7 18 -9 31
-11 10 -18 21 -15 26 3 4 0 8 -5 8 -6 0 -10 3 -10 8 4 21 -3 24 -16 6 -13 -16
-14 -16 -9 -1 8 24 -1 21 -30 -7 l-24 -25 -7 27 c-5 21 -1 31 19 49 14 12 22
24 17 27 -4 3 -16 -3 -26 -14 -18 -20 -35 -18 -35 3 0 9 2 9 8 0 6 -9 12 -8
24 6 15 18 14 19 -15 25 -24 5 -28 9 -18 15 17 11 44 -3 83 -44z m511 -71 c-6
-16 -23 -19 -23 -3 0 5 -5 7 -11 4 -7 -5 -4 -13 8 -25 10 -9 20 -16 22 -14 2
2 10 -1 17 -6 6 -6 16 -9 20 -8 5 2 9 -1 9 -7 0 -5 -4 -9 -10 -8 -18 4 -47
-60 -52 -117 -5 -49 4 -123 23 -189 5 -16 3 -22 -3 -18 -6 4 -14 27 -17 52 -4
25 -12 45 -17 45 -6 0 -7 -5 -4 -10 4 -6 3 -10 -2 -9 -4 1 -16 1 -26 0 -16 -1
-17 -3 -3 -16 8 -8 20 -15 27 -15 7 0 9 -3 6 -7 -4 -3 -2 -12 5 -20 9 -11 8
-13 -3 -11 -8 2 -13 -2 -12 -8 1 -6 -11 -10 -27 -10 -16 0 -27 3 -24 7 2 5 11
6 19 2 11 -4 13 -1 9 11 -3 9 -10 13 -15 10 -5 -2 -18 0 -30 6 -16 9 -24 8
-38 -4 -10 -9 -21 -16 -26 -16 -4 0 3 8 16 19 26 20 62 20 100 1 l24 -13 -24
26 c-13 15 -27 24 -31 22 -4 -3 -7 3 -6 13 0 9 -5 16 -11 15 -7 -2 -13 2 -13
7 0 6 5 10 11 10 5 0 8 4 5 9 -3 5 2 15 11 22 15 12 16 12 8 -1 -18 -28 -15
-41 8 -35 17 5 19 4 7 -4 -13 -9 -13 -11 2 -11 24 0 31 16 34 85 1 34 9 78 18
98 8 21 14 37 13 38 -14 6 -49 4 -53 -3 -3 -5 0 -7 7 -6 6 2 14 -3 16 -10 3
-8 -1 -10 -12 -6 -10 4 -15 2 -13 -6 2 -7 -4 -14 -13 -15 -15 -3 -15 0 -1 28
11 22 12 32 4 35 -7 2 -12 8 -12 13 0 5 10 3 23 -6 13 -8 33 -13 46 -10 29 5
35 11 22 20 -6 3 -11 2 -11 -2 0 -5 -9 -9 -19 -10 -20 -2 -59 33 -48 43 3 3
10 -4 17 -15 6 -12 16 -19 21 -15 6 4 1 16 -13 31 -14 15 -18 23 -8 21 8 -2
14 2 15 7 0 6 4 16 9 24 8 12 11 11 22 -3 7 -10 10 -24 7 -32z m116 -66 c1
-31 5 -58 11 -60 11 -4 -9 -78 -21 -78 -4 0 -3 13 2 30 14 40 8 52 -16 34 -17
-13 -18 -16 -5 -24 8 -5 10 -10 5 -10 -6 0 -21 7 -33 16 -21 15 -22 14 -22
-15 0 -17 5 -31 11 -31 6 0 9 7 5 15 -6 17 -4 18 18 9 18 -7 22 -25 5 -21 -6
1 -14 -4 -17 -12 -3 -9 0 -12 10 -9 8 4 15 0 15 -7 0 -10 -5 -11 -19 -4 -19
10 -23 3 -10 -19 12 -18 40 -5 45 21 3 12 3 -5 1 -38 l-3 -60 16 73 c8 40 17
71 20 69 6 -7 -21 -147 -29 -147 -13 0 -25 33 -20 54 5 19 4 19 -11 7 -13 -10
-14 -17 -6 -27 6 -7 8 -18 5 -23 -8 -12 2 -18 35 -24 22 -4 24 -2 25 36 0 22
5 42 12 45 7 2 12 10 12 18 0 8 5 14 10 14 13 0 13 -17 0 -25 -7 -4 -7 -12 0
-25 8 -15 7 -17 -11 -13 -17 5 -19 2 -17 -20 2 -15 7 -29 10 -33 4 -3 4 -12 1
-20 -3 -8 1 -14 11 -14 9 0 16 -5 16 -11 0 -8 6 -7 18 2 15 13 16 12 3 -3 -7
-10 -17 -15 -22 -12 -13 8 -11 -10 3 -24 9 -9 9 -12 -1 -12 -7 0 -36 24 -65
54 -48 49 -54 60 -69 132 -17 81 -25 160 -17 167 3 3 13 -4 23 -13 14 -13 15
-20 6 -26 -8 -5 -10 -3 -4 6 5 9 4 11 -4 6 -9 -6 -9 -11 -1 -22 10 -11 16 -11
36 3 20 13 24 23 24 69 0 30 -4 54 -10 54 -5 0 -9 -6 -7 -12 1 -7 -5 -11 -13
-9 -8 3 -25 5 -36 5 -14 1 -20 6 -16 15 4 10 1 12 -8 6 -9 -5 -11 -4 -6 4 6 9
11 9 21 1 8 -7 20 -8 26 -4 8 4 9 3 5 -4 -4 -7 -4 -12 -1 -12 11 0 35 28 36
42 2 37 18 -35 18 -84z m225 -11 c4 4 0 -6 -8 -22 -11 -22 -12 -31 -4 -36 7
-4 15 -6 19 -3 4 2 4 -10 -2 -28 -5 -18 -9 -49 -9 -69 0 -22 -6 -39 -14 -42
-10 -4 -12 0 -9 14 4 14 1 18 -10 13 -9 -3 -13 -12 -10 -20 3 -8 0 -14 -7 -14
-6 0 -8 5 -5 10 3 6 1 10 -4 10 -18 0 -12 -17 11 -32 17 -11 19 -16 8 -23 -8
-5 -11 -4 -7 2 4 6 0 14 -9 17 -25 10 -27 7 -13 -11 13 -16 12 -17 -3 -4 -12
9 -18 10 -18 2 0 -6 10 -16 23 -21 12 -5 18 -9 12 -10 -5 0 -4 -4 3 -9 11 -6
10 -10 -4 -15 -10 -4 -15 -4 -11 0 9 10 -12 34 -30 34 -10 0 -12 -6 -8 -22 7
-22 6 -22 -7 -4 -10 13 -17 15 -22 8 -4 -7 -13 -12 -19 -12 -7 0 -4 6 5 14 10
7 15 16 11 19 -5 6 10 11 28 9 3 -1 15 17 27 38 l20 39 -21 -1 c-12 -1 -28 -6
-36 -12 -12 -9 -13 -8 -7 3 6 9 5 12 -5 9 -8 -3 -13 -11 -11 -17 1 -7 -2 -10
-7 -7 -5 3 -7 15 -4 26 3 11 9 17 14 14 5 -3 12 10 16 28 7 32 7 32 13 8 4
-14 2 -32 -4 -40 -9 -12 -6 -12 14 1 14 9 26 27 27 40 l3 24 -10 -22 c-5 -13
-12 -23 -14 -23 -7 0 4 59 16 85 6 15 7 13 3 -8 -4 -19 -2 -26 5 -22 5 3 10
11 10 16 0 5 7 26 15 46 12 28 18 33 28 24 8 -6 17 -8 21 -4z m605 -255 c-43
-74 -54 -122 -29 -130 8 -3 12 -1 8 3 -7 7 63 65 78 65 3 0 -17 -21 -46 -47
-38 -34 -61 -67 -86 -122 -20 -42 -40 -87 -47 -101 -22 -48 -57 -88 -86 -98
-16 -6 -31 -8 -34 -6 -8 8 48 191 64 208 7 8 -10 -57 -26 -97 -6 -13 -3 -16 9
-11 11 4 22 -1 31 -12 14 -18 15 -18 21 4 3 12 11 22 16 22 5 0 7 13 5 29 -4
21 1 35 15 47 19 18 19 18 -4 37 -13 10 -18 16 -13 14 6 -3 17 -2 25 3 11 7
11 11 1 24 -11 13 -11 16 -1 16 9 0 7 7 -5 20 -15 16 -21 18 -34 8 -12 -10
-12 -8 2 8 25 30 10 36 -19 7 -19 -19 -29 -22 -37 -14 -8 8 -15 7 -26 -2 -10
-7 -8 -3 3 11 15 17 22 19 33 10 12 -9 19 -6 39 18 14 16 23 24 20 17 -4 -6
-2 -14 4 -18 6 -4 8 -10 5 -15 -6 -10 21 -33 44 -37 14 -2 17 4 13 27 -2 17
-10 30 -18 30 -8 0 -14 4 -14 8 0 5 7 9 15 9 8 0 15 -5 15 -11 0 -6 5 -4 10 4
13 20 12 33 -2 24 -7 -4 -8 -3 -4 5 4 6 12 9 17 6 5 -3 6 1 3 10 -6 14 -9 14
-28 -2 l-21 -18 19 22 c10 13 22 21 25 18 9 -5 36 12 36 22 1 15 26 53 35 53
4 0 -9 -31 -31 -68z m-576 -438 l2 -109 28 3 c16 2 34 -2 41 -7 9 -7 17 -2 29
19 10 16 18 32 17 35 0 3 2 4 4 3 3 -2 17 8 32 22 16 14 9 3 -14 -24 -23 -27
-42 -54 -42 -60 0 -6 14 5 30 24 16 19 33 35 38 35 5 0 40 32 76 70 55 57 64
64 49 35 -26 -51 -45 -72 -53 -60 -4 6 -19 -6 -35 -30 -15 -22 -35 -39 -43
-38 -8 2 -17 -3 -19 -10 -3 -8 1 -10 12 -6 16 6 16 5 1 -23 -8 -17 -22 -33
-31 -37 -8 -3 -15 -9 -14 -13 3 -20 -3 -22 -25 -7 -15 9 -22 21 -19 30 3 8 0
14 -6 14 -6 0 -11 -5 -11 -11 0 -5 -4 -8 -10 -4 -5 3 -6 13 -3 22 4 11 3 14
-6 9 -7 -5 -10 -14 -7 -22 3 -8 0 -14 -5 -14 -7 0 -9 -11 -7 -25 3 -14 1 -28
-4 -31 -4 -3 -6 -9 -3 -14 3 -5 1 -11 -5 -15 -5 -3 -10 -18 -10 -33 0 -15 -4
-34 -10 -42 -5 -9 -5 -19 1 -27 8 -9 1 -20 -23 -42 -39 -35 -45 -37 -50 -13
-5 22 30 82 48 82 7 0 16 10 19 23 3 12 9 41 14 64 5 23 6 111 4 195 -3 84 -3
150 1 147 3 -3 7 -55 9 -115z m536 -791 c15 -54 15 -56 -25 -146 -20 -45 -40
-93 -46 -107 -8 -20 -11 -22 -20 -10 -8 12 -9 12 -4 -3 9 -29 -13 -60 -71
-100 -31 -21 -57 -36 -60 -34 -6 6 79 86 98 92 11 4 18 23 23 63 12 92 13 97
24 95 5 -1 8 7 5 18 -5 18 -8 16 -29 -13 -13 -17 -24 -36 -24 -40 0 -4 -4 -8
-9 -8 -11 0 -1 53 12 61 6 4 1 21 -12 43 -13 20 -18 36 -11 36 6 0 14 -10 19
-22 4 -12 17 -22 29 -23 25 -2 29 10 6 19 -8 3 -12 10 -9 16 4 6 11 8 16 4 5
-3 8 0 7 7 -2 6 2 13 8 16 8 3 11 -13 8 -52 -2 -32 0 -54 5 -51 5 3 7 -3 4
-14 -3 -11 -10 -17 -16 -13 -6 3 -7 1 -3 -5 12 -21 23 -13 39 26 11 29 13 49
6 86 -5 26 -11 52 -15 57 -6 11 13 39 27 39 4 0 13 -17 18 -37z m-29 -946 c53
-47 106 -77 138 -77 28 0 54 -44 52 -88 -4 -87 -3 -92 31 -92 l32 0 -7 -92
c-17 -232 -22 -255 -82 -363 -31 -55 -85 -144 -121 -197 -56 -84 -69 -98 -92
-98 -15 0 -47 -13 -72 -28 -43 -28 -46 -28 -139 -21 -156 13 -162 15 -188 59
-16 29 -32 42 -62 51 -22 7 -40 13 -40 13 11 49 77 210 103 251 102 163 215
456 189 488 -8 9 1 33 34 87 40 68 92 202 86 224 -2 4 0 17 4 28 5 17 12 10
45 -41 22 -33 62 -80 89 -104z m474 -124 c9 -116 8 -126 -22 -162 -26 -31 -30
-33 -51 -20 -20 12 -24 12 -37 -5 -8 -11 -14 -36 -15 -55 0 -34 -1 -35 -10
-11 -7 15 -8 45 -3 75 4 28 7 91 6 141 l-1 91 47 10 c83 18 78 21 86 -64z
m-821 -12 c15 -22 27 -44 27 -50 0 -6 -16 -43 -35 -81 -19 -38 -35 -75 -35
-82 0 -7 -14 -42 -31 -78 l-31 -65 -18 58 c-10 31 -25 68 -33 81 -15 22 -14
26 10 62 34 51 44 56 65 37 23 -20 24 -6 1 19 -15 17 -15 22 12 78 16 33 31
60 34 60 3 0 18 -18 34 -39z m923 -72 c8 -15 14 -38 14 -51 0 -25 -30 -80 -62
-115 -18 -20 -23 -20 -42 -7 -29 18 -55 1 -72 -47 -9 -25 -13 -28 -13 -13 -2
36 21 87 62 139 l40 50 -6 77 -5 78 35 -42 c19 -23 41 -54 49 -69z m-2110 26
c28 -61 30 -54 -28 -123 -31 -37 -35 -51 -13 -48 8 1 29 24 45 50 l31 48 40
-57 c40 -54 42 -65 23 -109 -5 -15 -4 -17 6 -11 9 5 11 4 6 -4 -4 -6 -12 -9
-17 -5 -12 7 -63 -102 -55 -121 3 -8 3 -15 1 -15 -3 0 -23 37 -46 82 -31 62
-39 88 -35 111 5 27 4 28 -11 16 -10 -8 -14 -9 -10 -2 4 6 3 14 -3 18 -5 3
-10 15 -10 26 0 10 -5 19 -11 19 -5 0 -7 -5 -3 -12 4 -6 3 -8 -3 -5 -16 10
-25 87 -12 103 6 7 8 17 5 22 -3 5 9 22 27 38 18 16 24 19 13 7 -11 -13 -15
-23 -9 -23 14 0 44 35 36 43 -3 4 -3 7 0 7 4 0 18 -25 33 -55z m1870 -47 c-27
-67 -29 -89 -13 -157 21 -87 21 -96 -4 -216 -23 -113 -48 -160 -152 -293 -92
-117 -154 -179 -201 -204 -41 -21 -58 -21 -176 1 -39 7 -41 9 -13 10 17 0 53
-4 80 -10 59 -14 118 6 132 44 6 14 31 49 57 78 87 98 201 297 231 404 15 52
31 335 18 323 -4 -4 -8 -53 -10 -110 -4 -186 -33 -275 -147 -450 -51 -79 -79
-109 -37 -40 120 199 130 221 145 320 7 53 14 136 14 184 l0 86 33 20 c38 24
51 27 43 10z m-843 -211 c15 -41 27 -79 27 -86 0 -7 -26 -52 -57 -99 l-57 -87
-12 85 c-6 47 -15 101 -19 120 -6 32 -2 41 36 88 23 29 45 52 49 52 3 0 18
-33 33 -73z m-831 -40 c32 -33 34 -48 13 -81 -9 -14 -18 -61 -23 -117 l-7 -93
-51 65 c-86 109 -86 114 -28 231 13 26 24 51 23 55 -4 25 4 24 24 -2 12 -16
34 -43 49 -58z m513 38 c167 -26 150 -15 169 -103 8 -42 18 -106 22 -142 l5
-65 -43 -49 c-48 -56 -161 -133 -234 -160 -27 -10 -57 -26 -67 -34 -11 -10
-21 -12 -25 -6 -4 5 -47 29 -96 52 -50 24 -120 66 -158 93 l-68 51 1 61 c0 34
6 103 12 152 l12 90 40 13 c79 26 280 70 305 66 14 -2 70 -11 125 -19z m-805
-68 c13 -34 30 -69 37 -78 7 -8 13 -18 13 -22 0 -3 20 -36 45 -73 58 -86 59
-113 2 -82 -21 11 -38 29 -84 93 -66 89 -73 104 -77 168 -5 62 -4 64 18 60 16
-3 28 -20 46 -66z m2055 -72 c50 -23 90 -69 134 -152 16 -31 15 -35 -19 -71
-16 -18 -35 -42 -40 -52 -6 -11 -24 -27 -40 -35 -31 -16 -147 -55 -165 -55 -5
0 15 25 45 55 30 30 50 55 44 55 -5 0 -30 -20 -54 -45 -32 -32 -50 -44 -65
-40 -11 3 -14 2 -7 -1 10 -5 10 -9 1 -20 -6 -8 -16 -14 -22 -14 -6 0 -28 -17
-49 -37 -42 -41 -49 -33 -17 24 25 46 49 73 49 55 0 -7 -4 -12 -10 -12 -5 0
-10 -7 -10 -15 0 -11 6 -12 23 -6 12 5 22 14 22 22 0 7 11 16 25 19 18 4 25
13 27 33 2 27 -10 36 -22 17 -4 -6 -10 -8 -15 -5 -4 3 -13 -2 -20 -10 -7 -8
-16 -12 -21 -10 -4 3 -18 -8 -30 -25 -13 -16 -27 -30 -32 -30 -5 0 10 21 33
48 23 26 47 47 53 47 7 0 12 9 12 20 0 11 12 40 27 65 25 42 49 108 62 173 8
33 15 33 81 2z m-935 -185 c0 -5 -16 -53 -35 -106 -19 -53 -35 -104 -35 -114
0 -36 59 -63 215 -96 l60 -13 -60 5 c-71 7 -196 46 -237 76 -27 19 -29 24 -23
62 8 49 85 196 103 196 6 0 12 -4 12 -10z m-153 -95 c-14 -47 -121 -163 -239
-261 l-78 -65 0 39 c0 32 8 47 41 82 23 24 50 45 60 45 10 1 28 14 39 28 12
15 28 27 35 27 8 0 17 5 20 10 15 24 -29 7 -67 -27 -26 -22 -33 -26 -19 -10
14 15 21 27 16 27 -5 0 -35 -28 -66 -62 -47 -51 -57 -59 -56 -40 1 13 10 31
21 40 11 9 16 11 12 5 -11 -20 -1 -15 20 9 15 19 16 20 2 9 -15 -11 -18 -11
-18 0 0 7 -11 3 -27 -12 l-28 -24 23 26 c12 14 28 26 35 27 27 2 46 9 61 21 8
7 20 10 26 6 5 -3 10 -2 10 4 0 6 13 17 29 26 16 8 57 37 92 65 34 27 63 49
65 47 1 -1 -3 -20 -9 -42z"/>
<path d="M5152 1937 c-10 -12 -2 -40 12 -38 3 1 5 -2 4 -6 -1 -5 -9 -7 -18 -5
-8 1 -3 -5 13 -13 43 -25 31 -49 -13 -25 -11 6 -17 18 -15 30 2 13 -2 20 -11
20 -8 0 -14 -4 -14 -10 0 -5 -4 -10 -10 -10 -5 0 -9 4 -7 9 1 5 -2 9 -8 10
-14 1 -13 -31 2 -50 10 -12 10 -19 -2 -36 -9 -12 -23 -22 -33 -22 -47 -2 -50
-4 -39 -22 8 -12 15 -15 23 -8 8 6 14 5 17 -6 5 -11 1 -14 -15 -11 -12 1 -24
8 -26 14 -5 16 -38 -2 -53 -29 -9 -17 -8 -20 3 -13 21 14 66 11 61 -3 -3 -7
-9 -11 -13 -8 -5 3 -11 1 -14 -4 -15 -24 14 -17 40 10 15 16 34 27 40 25 7 -3
15 -2 19 2 14 15 54 8 58 -10 6 -22 27 -24 27 -2 0 8 -4 13 -9 9 -5 -3 -13 4
-16 16 -6 17 -9 18 -16 8 -6 -11 -9 -10 -15 4 -5 14 -9 15 -20 6 -8 -6 -14 -8
-14 -4 0 4 -7 2 -15 -5 -10 -9 -15 -9 -15 -1 0 6 5 11 11 11 5 0 8 4 4 9 -3 6
3 15 14 21 16 8 23 6 35 -12 9 -12 16 -18 16 -13 0 5 9 -1 20 -13 24 -25 31
-27 48 -10 14 14 16 32 2 23 -6 -3 -7 1 -3 10 4 11 8 13 13 5 5 -8 10 -7 18 3
10 11 9 21 -3 43 -8 16 -19 30 -25 30 -23 3 -24 5 -11 13 11 7 9 14 -11 34
-14 14 -23 28 -20 31 3 3 3 6 0 6 -3 0 -10 -6 -16 -13z"/>
<path d="M2845 5100 c-8 -13 11 -30 33 -30 8 0 12 -6 10 -12 -6 -16 -34 -17
-31 -2 2 15 -35 36 -42 24 -3 -6 0 -10 8 -10 8 0 17 -6 20 -14 5 -12 1 -13
-22 -5 -25 9 -33 6 -62 -22 l-34 -32 32 22 c17 11 37 21 45 21 8 -1 7 -4 -4
-11 -10 -5 -18 -15 -18 -21 0 -5 -11 -19 -25 -30 -14 -11 -22 -24 -19 -29 3
-6 12 -5 22 3 15 12 16 11 4 -4 -8 -10 -20 -14 -29 -11 -12 5 -14 3 -8 -8 7
-12 6 -12 -7 -1 -14 11 -16 10 -11 -8 7 -27 21 -34 37 -21 7 6 27 13 45 15 25
3 29 1 21 -9 -8 -9 -8 -15 0 -20 6 -3 7 -11 4 -17 -4 -7 -2 -8 5 -4 6 4 10 15
9 24 -2 11 3 16 12 14 11 -3 9 2 -5 16 -11 10 -25 17 -31 15 -18 -7 -29 18
-13 28 12 7 11 9 -1 9 -10 0 -7 7 10 21 16 14 19 19 8 15 -31 -9 -20 4 14 19
33 13 48 12 48 -6 0 -6 -5 -7 -11 -4 -5 4 -19 -1 -29 -10 -17 -15 -17 -18 -3
-35 9 -10 23 -16 31 -13 13 5 12 8 -2 18 -15 12 -15 13 0 19 10 4 22 2 28 -4
8 -8 5 -9 -9 -4 -18 7 -18 6 -7 -9 13 -15 16 -15 43 5 32 24 35 30 17 27 -28
-3 -53 2 -43 9 19 13 14 49 -10 72 -16 15 -25 18 -30 10z"/>
<path d="M2917 4975 c-21 -20 -37 -32 -37 -28 0 4 -4 2 -9 -5 -6 -10 -16 -7
-42 14 -19 16 -31 24 -27 19 4 -4 2 -15 -5 -23 -10 -13 -9 -15 6 -9 14 5 35
-6 75 -40 32 -26 61 -50 65 -53 4 -4 0 -13 -10 -21 -10 -7 -15 -9 -11 -5 4 5
3 15 -3 23 -13 15 -55 18 -64 4 -3 -6 -13 -9 -23 -9 -9 0 -25 -3 -35 -7 -12
-5 -17 -3 -15 5 2 8 -8 19 -20 26 -17 8 -20 13 -10 17 8 4 9 6 1 6 -6 1 -15
-4 -19 -10 -4 -7 -14 0 -25 18 -10 15 -19 22 -19 15 0 -7 -5 -10 -12 -6 -8 5
-9 0 -5 -17 l6 -24 -20 25 c-11 14 -19 21 -17 15 24 -62 31 -75 39 -75 4 0 6
7 3 15 -12 31 12 13 34 -26 13 -22 26 -38 29 -35 4 3 -1 14 -9 23 -21 24 -51
84 -45 89 3 3 15 -12 28 -33 13 -21 26 -40 29 -43 3 -3 10 -16 16 -29 9 -21
11 -22 17 -7 5 12 3 15 -6 10 -8 -5 -7 -2 2 9 15 19 26 23 15 6 -4 -7 -1 -10
7 -7 8 3 14 10 14 16 0 5 4 14 9 19 5 4 6 3 3 -3 -4 -7 0 -15 9 -18 23 -9 34
-7 34 4 0 5 -8 7 -17 4 -14 -5 -15 -4 -4 4 8 6 21 8 29 4 9 -3 13 -1 9 5 -3 5
0 10 8 10 10 0 12 -4 5 -12 -7 -9 -4 -20 10 -36 18 -21 19 -22 14 -4 -5 20 -5
20 10 1 8 -10 13 -23 10 -27 -3 -5 2 -9 12 -9 13 0 14 3 5 14 -6 7 -8 22 -4
31 5 13 3 16 -7 10 -8 -5 -11 -3 -9 4 10 28 24 13 32 -34 4 -27 13 -55 19 -62
14 -17 3 -17 -14 0 -23 22 -71 57 -78 57 -4 0 -7 -13 -8 -30 0 -16 3 -30 8
-30 5 0 6 8 3 18 -6 14 -4 15 9 5 8 -7 17 -10 20 -7 3 3 46 -35 95 -83 88 -85
112 -101 120 -76 3 8 -3 11 -16 8 -11 -2 -23 0 -26 5 -3 5 4 7 15 5 25 -5 26
10 3 24 -10 6 -13 11 -7 11 5 0 15 -5 22 -12 9 -9 12 -9 12 0 0 21 -37 34 -52
18 -11 -12 -18 -9 -44 18 -16 17 -34 40 -38 51 -12 30 -24 115 -16 110 4 -2
10 -25 13 -50 4 -25 11 -55 17 -65 10 -19 11 -19 50 1 22 12 40 23 40 25 0 8
-41 -3 -52 -14 -7 -7 -15 -12 -19 -12 -10 0 -32 87 -26 103 3 9 -7 20 -29 31
-19 9 -32 21 -29 26 4 6 3 9 -2 8 -4 -1 -22 5 -39 14 -35 19 -63 48 -45 48 6
0 11 -4 11 -9 0 -8 12 -14 75 -39 6 -2 3 1 -5 7 -8 6 -10 11 -5 11 6 0 4 4 -3
8 -9 6 -5 12 13 22 27 15 30 41 5 47 -12 4 -12 3 -1 -5 8 -6 9 -12 3 -16 -5
-3 -12 1 -16 9 -3 8 -1 17 4 20 12 8 13 25 2 25 -5 0 -25 -16 -45 -35z"/>
<path d="M2984 4924 c-4 -11 -9 -23 -12 -28 -3 -5 1 -6 9 -1 11 6 11 5 2 -5
-6 -7 -9 -19 -6 -26 4 -12 8 -12 21 -2 9 7 13 8 9 2 -4 -6 2 -19 12 -28 11
-10 17 -25 14 -37 -3 -11 0 -19 6 -19 7 0 9 -5 6 -11 -4 -5 -4 -22 0 -36 l6
-26 23 22 c20 18 25 19 41 7 19 -13 18 -15 -18 -36 -40 -24 -43 -30 -26 -47
18 -18 41 -5 29 17 -7 13 -6 19 5 24 8 3 17 1 20 -5 4 -5 11 -6 17 -3 7 4 8 2
4 -4 -4 -6 -14 -9 -24 -6 -14 5 -13 3 3 -10 11 -9 25 -14 32 -12 7 3 15 1 18
-5 4 -5 11 -7 16 -3 6 4 6 11 -2 20 -8 10 -8 14 0 14 17 0 13 21 -6 37 -10 8
-12 11 -4 7 10 -5 12 -3 7 5 -5 7 -15 10 -23 6 -13 -4 -13 -3 -4 9 10 11 6 18
-16 34 -15 10 -34 17 -40 15 -7 -3 -13 3 -13 13 0 17 -1 17 -13 -1 -17 -23
-32 -5 -23 29 4 15 0 28 -9 36 -8 7 -15 18 -15 25 0 6 -9 20 -20 30 -19 17
-20 17 -26 -1z"/>
<path d="M2925 4717 c-12 -14 -8 -47 6 -47 6 0 7 -5 4 -10 -4 -6 -11 -8 -16
-5 -5 4 -9 0 -9 -8 0 -15 -27 -32 -43 -28 -5 1 -6 -3 -3 -8 3 -5 -1 -12 -10
-15 -24 -9 -31 -7 -14 4 24 15 -2 11 -30 -5 -18 -10 -20 -14 -8 -15 17 0 34
-34 30 -57 -2 -8 3 -10 13 -7 11 5 13 10 5 19 -8 10 -6 15 10 20 11 3 18 10
15 15 -3 5 0 12 6 16 7 4 9 3 5 -4 -3 -6 -2 -13 4 -17 9 -6 15 8 11 29 -1 5 4
6 12 3 24 -9 40 8 22 23 -14 11 -14 14 2 25 14 11 15 15 4 29 -7 8 -11 21 -9
28 5 13 49 -74 73 -143 12 -34 12 -39 0 -39 -8 0 -12 6 -9 14 3 8 -5 24 -18
36 -13 13 -17 19 -10 15 12 -6 12 -3 1 16 -7 13 -12 25 -11 27 7 9 0 22 -8 17
-7 -4 -7 -12 0 -25 7 -13 7 -21 0 -25 -6 -4 -8 -10 -5 -15 3 -4 -4 -6 -15 -3
-12 3 -20 0 -20 -8 0 -7 3 -9 7 -6 3 4 18 -3 32 -15 14 -13 20 -16 13 -7 -9
12 -9 16 2 16 8 0 13 -11 12 -26 -1 -21 3 -25 19 -23 37 6 38 19 11 88 -15 36
-25 69 -22 71 7 8 40 -60 37 -76 -2 -12 0 -12 11 -3 12 9 15 9 15 -3 0 -8 -5
-11 -10 -8 -6 4 -8 -3 -3 -18 4 -13 9 -33 11 -43 3 -11 10 -24 16 -30 9 -8 10
-6 5 8 -6 16 -4 17 10 5 13 -11 14 -14 2 -23 -16 -12 -9 -56 14 -84 10 -13 10
-14 0 -8 -10 6 -12 1 -9 -21 4 -30 28 -38 39 -13 5 12 7 11 7 -4 1 -13 6 -16
17 -12 13 5 14 4 6 -7 -7 -8 -11 -16 -9 -18 1 -2 -4 2 -10 10 -16 18 -16 11
-3 -24 8 -20 7 -26 -2 -23 -12 4 -14 8 -17 44 0 8 -6 12 -11 9 -6 -4 -7 -12
-3 -18 4 -7 8 -14 8 -17 4 -30 18 -47 38 -46 13 1 21 7 19 16 -2 10 0 11 11 2
12 -10 15 -8 15 13 0 14 -4 25 -8 25 -3 0 -7 7 -7 15 0 20 13 10 31 -25 8 -17
11 -28 6 -25 -5 3 -11 -4 -15 -15 -3 -11 -12 -20 -18 -20 -7 0 -4 -7 6 -14 12
-9 14 -16 8 -21 -8 -4 -8 -13 0 -28 10 -21 10 -21 -5 -3 -16 20 -16 19 -16 -1
0 -24 24 -37 38 -20 15 18 15 29 0 38 -10 7 -10 9 0 9 8 0 10 5 5 13 -17 27
-12 45 13 51 l25 7 -23 20 c-16 14 -19 22 -10 25 18 8 15 24 -5 24 -19 0 -9
13 12 16 8 1 15 -4 15 -11 0 -7 7 -18 16 -25 12 -11 18 -10 32 3 11 12 12 17
4 17 -7 0 -11 4 -8 9 3 5 -1 14 -8 20 -11 9 -14 9 -12 -1 1 -7 5 -18 9 -25 4
-6 3 -14 -2 -17 -5 -4 -15 11 -22 31 -6 21 -14 43 -18 48 -3 6 -7 19 -8 30 -4
23 -31 47 -44 39 -15 -9 -10 -24 5 -18 9 3 18 -6 25 -28 8 -22 8 -34 1 -36 -5
-2 -7 -8 -4 -14 4 -6 0 -14 -7 -19 -17 -11 -39 -12 -23 -1 19 13 25 44 12 60
-10 12 -10 14 0 8 6 -4 12 -3 12 3 0 20 -22 22 -27 3 -4 -17 -9 -19 -28 -12
-15 6 -27 4 -36 -3 -11 -10 -11 -9 0 5 7 10 11 24 8 31 -3 8 1 14 9 14 7 0 11
-4 8 -9 -9 -13 6 -28 22 -21 11 4 12 8 3 19 -19 23 -16 58 6 77 16 14 17 16 3
11 -21 -7 -24 11 -4 19 13 5 44 -19 45 -35 1 -5 4 -8 8 -7 4 0 17 -21 30 -47
19 -38 20 -50 10 -63 -11 -14 -10 -14 6 -2 15 12 20 12 30 1 9 -10 9 -11 0 -6
-7 4 -13 2 -13 -4 0 -7 6 -10 14 -7 17 7 36 -11 30 -28 -7 -18 12 -28 37 -20
19 6 15 12 -35 62 -30 30 -67 76 -82 101 -30 51 -102 129 -91 99 4 -10 2 -27
-3 -38 -9 -16 -14 -17 -32 -8 -15 8 -18 8 -14 0 4 -6 5 -11 2 -11 -2 0 -18 23
-35 50 -17 28 -38 50 -46 50 -9 0 -14 4 -11 9 5 8 -25 27 -32 19 -1 -2 -11 12
-22 30 -22 36 -21 36 -35 19z"/>
<path d="M2604 4270 c2 -40 10 -67 30 -98 15 -24 25 -46 22 -49 -3 -3 -8 2
-12 11 -3 9 -10 13 -15 10 -5 -3 -6 2 -3 10 3 9 1 16 -6 16 -6 0 -8 -4 -5 -10
3 -5 0 -10 -7 -10 -7 -1 0 -8 15 -16 22 -12 26 -18 17 -29 -12 -15 3 -31 20
-20 6 3 10 1 10 -4 0 -14 -16 -14 -41 -1 -12 7 -19 7 -19 1 0 -12 35 -32 43
-25 3 3 4 -2 2 -13 -2 -10 -4 -25 -5 -33 0 -12 -4 -11 -15 4 -15 19 -15 19
-14 -5 0 -13 4 -32 8 -42 6 -17 8 -17 20 -3 7 9 17 13 22 10 5 -3 9 -1 9 5 0
5 -6 11 -12 14 -17 6 -5 18 20 20 11 0 19 4 16 8 -2 4 0 9 6 11 12 4 -38 64
-51 61 -12 -4 -12 14 0 21 10 6 91 -94 91 -112 0 -7 -5 -12 -11 -12 -6 0 -8
-7 -5 -16 3 -8 2 -12 -4 -9 -6 3 -10 2 -10 -4 0 -5 4 -11 10 -13 6 -2 6 -8 0
-18 -8 -12 -10 -12 -10 5 0 17 -2 18 -11 5 -8 -12 -9 -11 -5 6 5 14 2 21 -9
21 -8 0 -15 -5 -15 -11 0 -6 -5 -4 -10 4 -6 9 -10 10 -10 3 0 -18 41 -83 52
-83 6 0 6 6 -1 14 -10 11 -9 14 2 12 8 -1 21 -7 29 -14 8 -6 18 -9 22 -5 10
10 -5 -29 -16 -44 -6 -7 -7 -16 -4 -22 3 -5 0 -12 -6 -14 -9 -4 -10 -6 -1 -6
6 -1 19 9 27 21 9 12 16 18 17 13 0 -6 2 -18 4 -28 3 -14 -1 -17 -13 -13 -13
4 -12 2 3 -9 17 -14 18 -17 5 -25 -12 -8 -11 -10 6 -10 30 0 35 9 18 35 -10
16 -12 25 -5 30 6 3 11 3 11 -2 0 -4 8 4 17 17 10 14 17 29 15 33 -1 5 2 6 7
2 13 -7 3 -35 -13 -35 -7 0 -6 -4 2 -9 8 -4 14 -12 14 -17 0 -5 4 -8 9 -6 6 1
5 -6 -1 -17 -5 -11 -7 -27 -3 -37 4 -12 3 -15 -5 -10 -7 4 -12 15 -12 23 0 14
-4 13 -20 -5 -13 -13 -26 -19 -37 -15 -12 5 -14 3 -8 -8 7 -12 6 -12 -7 -1
-12 9 -18 10 -23 2 -5 -8 -11 -8 -21 1 -21 17 -44 4 -39 -22 6 -29 23 -40 58
-35 18 3 27 0 27 -9 0 -21 -68 -24 -86 -4 -9 10 -13 23 -8 30 4 8 3 10 -4 5
-7 -4 -12 -2 -12 3 0 6 5 11 12 11 8 0 9 3 2 10 -13 13 -46 2 -38 -11 3 -6 -8
-7 -28 -4 -26 5 -31 4 -20 -6 21 -22 13 -30 -25 -24 -39 6 -37 -9 2 -18 19 -4
19 -5 -1 -6 -27 -1 -55 -31 -30 -31 11 0 15 -5 10 -12 -5 -10 -4 -10 6 -1 10
9 16 8 28 -4 14 -14 17 -14 23 3 3 11 1 25 -5 33 -9 12 -8 13 3 6 11 -6 13 -4
8 7 -8 21 10 37 35 30 15 -4 17 -7 6 -14 -9 -6 -8 -8 6 -6 12 2 24 -5 30 -17
6 -11 20 -22 31 -23 34 -6 30 -12 -8 -12 -20 0 -39 4 -42 10 -8 12 -42 -19
-61 -55 -13 -26 -13 -27 6 -22 31 8 24 -20 -7 -31 -16 -6 -21 -11 -13 -11 9
-1 26 6 38 15 21 15 48 11 37 -6 -3 -4 2 -11 11 -14 8 -3 12 -2 9 3 -6 10 18
20 62 26 24 3 22 1 -12 -15 -53 -26 -23 -25 34 0 23 11 47 17 52 14 15 -9 10
-42 -7 -52 -10 -6 -12 -12 -6 -16 5 -3 15 1 22 9 14 17 40 20 40 5 0 -5 -6 -7
-14 -4 -8 3 -17 -3 -20 -14 -13 -39 -66 -102 -87 -102 -19 0 -20 1 -3 17 10
10 27 23 38 28 13 7 21 20 21 35 0 20 -6 26 -28 28 -15 2 -27 6 -27 10 0 4
-14 7 -30 7 -21 0 -29 -4 -25 -13 3 -8 8 -25 11 -38 7 -29 30 -31 59 -4 17 16
22 17 22 5 0 -8 -6 -15 -13 -15 -7 0 -26 -16 -41 -35 -20 -25 -33 -33 -48 -29
-16 4 -17 3 -5 -5 13 -9 13 -11 -2 -11 -9 0 -19 4 -22 9 -3 5 -16 7 -29 4 -12
-3 -19 -2 -15 2 4 5 3 14 -3 21 -7 8 -7 14 1 19 5 3 10 14 10 23 0 13 -4 11
-16 -6 -14 -20 -14 -28 -3 -54 l13 -31 74 6 c66 5 78 9 107 37 l32 31 24 -29
c14 -15 31 -47 38 -70 10 -29 25 -48 48 -62 44 -26 55 -25 83 5 46 49 151 44
243 -12 51 -31 59 -56 31 -98 -12 -18 -14 -37 -10 -67 4 -24 8 -55 9 -70 1
-14 5 -29 9 -33 10 -10 48 14 48 30 0 18 12 19 28 3 9 -9 12 -8 12 4 0 29 -30
29 -57 0 -24 -26 -25 -26 -18 -4 3 13 2 28 -3 35 -6 7 -12 27 -14 46 -3 29 0
34 21 38 19 2 21 0 13 -10 -8 -10 -7 -20 3 -40 8 -15 9 -27 4 -27 -5 0 -12 8
-15 18 -3 9 -10 26 -15 37 -6 15 -7 12 -2 -10 12 -60 19 -66 57 -50 32 13 35
13 38 -3 3 -13 8 -9 22 16 l17 33 -44 45 c-24 24 -42 44 -39 44 12 0 81 -47
116 -79 21 -20 36 -29 33 -20 -4 13 1 15 29 12 19 -2 34 -2 34 1 0 2 -37 25
-82 51 -46 26 -112 65 -148 86 -36 21 -105 58 -155 83 -49 25 -84 45 -77 46 7
0 22 -5 32 -10 13 -7 21 -7 26 2 4 6 3 8 -4 4 -6 -3 -13 -2 -17 4 -3 5 -1 10
6 10 7 0 -6 17 -28 38 -22 20 -54 61 -71 90 -28 45 -29 52 -14 52 27 0 68 49
83 97 9 32 9 52 1 85 -7 24 -16 72 -22 108 -20 126 -31 158 -57 175 -13 9 -22
19 -19 22 3 3 1 14 -5 25 -6 11 -8 22 -5 25 3 3 11 -6 17 -21 7 -14 16 -26 21
-26 15 0 8 27 -11 44 -11 10 -17 24 -14 31 8 23 -7 38 -23 24 -10 -8 -13 -23
-10 -43 l6 -31 -16 35 c-9 19 -19 30 -21 23 -2 -7 0 -21 6 -32 14 -26 14 -31
-4 -31 -8 0 -15 -6 -15 -12 -1 -7 -7 2 -15 20 -13 30 -35 44 -35 22 0 -5 5
-10 11 -10 6 0 9 -7 5 -15 -3 -8 -2 -15 2 -15 4 0 13 -19 19 -43 10 -36 16
-43 39 -45 23 -2 25 0 14 13 -7 9 -19 14 -27 11 -8 -4 -13 2 -13 16 0 16 3 18
14 9 11 -9 13 -6 11 14 -4 31 29 55 39 29 4 -11 2 -15 -8 -11 -17 7 -30 -19
-14 -29 7 -4 8 -3 4 4 -12 19 7 13 35 -11 30 -25 44 -57 26 -57 -8 0 -7 -4 3
-11 13 -9 13 -10 0 -6 -8 2 -15 13 -15 25 0 11 -4 24 -9 29 -6 5 -6 2 0 -7 6
-12 2 -11 -19 3 -39 25 -47 20 -12 -9 17 -13 22 -22 13 -18 -29 10 -20 -2 21
-29 35 -23 39 -30 45 -84 3 -32 11 -81 17 -109 14 -62 8 -92 -27 -133 -21 -25
-33 -31 -67 -31 l-41 0 36 -37 c19 -21 47 -58 61 -82 13 -24 38 -52 53 -62 25
-16 26 -19 8 -19 -11 0 -26 6 -34 13 -11 9 -11 8 0 -7 13 -17 13 -19 0 -14 -8
2 -16 17 -17 32 -2 25 -56 109 -87 135 -11 9 -13 7 -12 -11 1 -15 7 -23 19
-22 9 1 17 -3 17 -8 0 -5 -10 -8 -22 -6 -14 2 -22 -2 -21 -9 4 -18 -7 -16 -24
5 -13 15 -14 15 -10 0 8 -24 -22 -16 -44 11 -11 13 -16 27 -13 32 3 6 0 17 -7
25 -10 12 -9 13 5 8 9 -3 16 -12 16 -19 0 -7 7 -18 15 -25 29 -24 17 25 -12
51 -26 24 -80 39 -68 19 7 -11 -23 -24 -57 -25 -30 -1 -37 15 -13 35 10 8 40
10 94 7 43 -3 84 -1 90 4 8 6 8 5 0 -3 -5 -7 -15 -13 -21 -13 -6 0 -13 -5 -15
-11 -5 -14 34 -11 48 3 7 7 9 19 6 27 -5 13 -15 15 -47 10 -29 -5 -47 -2 -66
11 -21 13 -24 19 -13 26 8 4 24 6 36 2 15 -3 23 -1 23 7 0 9 4 9 13 2 7 -6 18
-7 25 -3 10 6 7 12 -11 24 -19 12 -23 22 -19 43 4 23 2 26 -14 21 -18 -7 -18
-6 -2 6 10 8 14 18 10 23 -4 4 1 2 11 -6 10 -7 26 -15 35 -16 10 -1 32 -5 50
-9 21 -5 32 -4 32 4 0 6 8 11 17 11 14 0 14 3 -4 23 -18 18 -19 24 -8 35 8 6
19 12 25 12 5 0 10 4 10 9 0 15 -42 41 -65 41 -15 -1 -12 -5 15 -19 l35 -19
-35 -10 c-27 -7 -39 -6 -53 6 -17 15 -19 35 -4 32 4 0 15 6 23 15 10 9 25 13
38 10 20 -6 20 -5 2 6 -11 7 -32 12 -47 11 -15 0 -35 8 -44 18 -10 11 -23 17
-29 13 -7 -5 -7 -2 1 8 9 11 7 22 -7 51 -10 20 -15 40 -12 43 3 3 -4 4 -17 2
-12 -2 -26 -9 -30 -16 -6 -9 -11 -8 -21 4 -12 14 -12 16 1 13 8 -1 16 2 17 7
1 6 -4 10 -10 10 -7 0 -12 9 -10 20 2 20 2 20 -12 1 -9 -10 -13 -23 -10 -27 3
-5 -2 -19 -11 -31 -9 -13 -15 -16 -13 -8 1 8 -18 42 -43 75 -63 83 -104 156
-101 180 2 12 -2 32 -7 45 -8 20 -9 14 -7 -30z"/>
<path d="M2740 4232 c0 -6 21 -28 46 -49 56 -46 82 -90 63 -107 -6 -6 -9 -6
-6 -1 3 6 2 17 -4 25 -8 13 -9 13 -9 0 0 -9 -6 -7 -16 9 l-16 22 -23 -21 c-13
-12 -28 -19 -34 -16 -22 14 -17 -11 8 -41 20 -24 27 -28 27 -15 1 9 5 26 9 37
9 19 8 19 -9 2 -10 -10 -21 -15 -24 -12 -5 5 27 34 39 35 4 0 21 -16 37 -35
17 -19 34 -31 37 -26 3 5 -1 11 -7 14 -10 3 -10 8 -2 16 9 9 18 -8 39 -68 16
-47 34 -81 42 -81 7 0 13 -4 13 -10 0 -5 5 -10 11 -10 5 0 7 5 3 12 -4 7 18
-2 49 -20 31 -18 57 -28 57 -23 0 13 -76 57 -111 65 -20 4 -29 15 -38 48 -8
24 -24 64 -37 90 -29 58 -30 67 -4 43 11 -10 17 -22 14 -26 -3 -5 1 -6 9 -3 9
3 22 -4 31 -17 8 -13 19 -20 22 -16 4 4 1 13 -6 22 -7 8 -9 15 -5 15 4 0 2 6
-5 14 -6 8 -17 13 -24 10 -7 -3 -21 4 -31 16 -10 11 -24 20 -30 20 -7 0 -29
18 -49 40 -20 22 -36 37 -36 34 0 -4 -7 -1 -15 6 -10 8 -15 9 -15 2z"/>
<path d="M3360 4159 c-23 -20 -25 -20 -37 -3 -7 10 -13 13 -13 8 0 -6 5 -15
12 -22 8 -8 5 -14 -14 -21 -52 -20 -39 -65 15 -54 22 5 28 3 23 -6 -5 -7 -14
-10 -20 -8 -7 3 -19 1 -27 -5 -12 -8 -11 -9 2 -5 13 4 34 -15 37 -33 0 -3 19
-25 42 -49 22 -25 38 -51 35 -59 -2 -7 0 -10 5 -7 6 4 7 -2 4 -12 -5 -14 -4
-15 4 -4 6 8 8 21 5 29 -5 11 -1 11 20 -3 31 -20 33 -28 13 -44 -10 -8 -16 -9
-21 -1 -3 6 -10 8 -15 5 -11 -7 -29 26 -23 42 6 17 -14 25 -37 13 -26 -14 -28
-65 -2 -73 9 -2 26 -8 36 -13 19 -7 19 -7 0 18 -10 14 -25 23 -31 21 -18 -7
-16 22 1 36 10 8 16 9 21 1 3 -5 1 -10 -4 -10 -22 0 14 -42 48 -56 27 -11 36
-12 42 -2 4 7 5 16 3 20 -8 13 10 9 34 -8 24 -17 27 -13 12 16 -10 18 -57 45
-90 52 -8 2 -27 20 -42 40 -29 39 -35 54 -18 43 6 -4 5 4 -1 19 -7 14 -16 23
-22 19 -5 -3 -4 -9 4 -14 7 -4 11 -11 8 -14 -4 -3 -11 0 -17 7 -7 9 -7 18 3
31 13 18 15 16 35 -20 20 -36 21 -36 15 -8 -8 36 -34 68 -51 61 -7 -3 -15 2
-18 10 -6 17 -1 18 25 4 14 -8 19 -7 19 2 1 7 12 -15 27 -49 14 -35 29 -63 34
-63 10 0 -28 96 -54 133 -15 22 -16 31 -7 42 17 21 10 18 -20 -6z"/>
<path d="M4216 3953 c-4 -29 -12 -55 -17 -58 -4 -3 -5 -13 -2 -23 4 -13 2 -13
-11 3 -9 11 -15 16 -14 10 1 -5 -6 -25 -16 -43 -21 -41 -14 -53 13 -21 22 26
27 20 10 -12 -5 -11 -7 -29 -3 -41 6 -21 6 -21 26 3 17 21 18 22 9 2 -12 -23
-5 -56 10 -47 5 3 9 -4 9 -15 0 -11 -23 -49 -51 -84 l-51 -64 -46 13 c-25 8
-47 16 -50 19 -2 2 -1 20 2 40 7 34 8 35 29 20 24 -17 57 -20 57 -5 0 5 -3 9
-7 8 -10 -3 -73 30 -73 38 0 18 24 44 40 44 16 0 20 7 20 30 0 17 -4 30 -10
30 -5 0 -10 -8 -10 -19 0 -10 -11 -26 -24 -34 -19 -13 -27 -31 -36 -84 -7 -37
-12 -72 -12 -78 1 -14 136 -49 140 -35 2 6 24 37 48 69 32 43 44 68 44 93 0
19 -3 38 -7 41 -3 4 -8 22 -10 39 -2 18 -7 34 -12 36 -5 2 -2 25 6 52 8 27 13
66 11 87 -3 37 -4 37 -12 -14z"/>
<path d="M2473 3984 c4 -4 2 -13 -5 -21 -6 -8 -7 -13 -2 -12 23 4 26 -2 8 -17
-10 -8 -13 -12 -5 -8 7 3 17 0 22 -7 5 -8 9 -9 9 -3 0 6 11 12 25 12 13 0 22
-4 20 -9 -3 -4 -1 -10 4 -14 13 -8 2 -35 -14 -35 -7 0 -18 -7 -25 -15 -10 -12
-10 -18 1 -32 12 -15 12 -16 -1 -8 -8 4 -5 -3 8 -17 23 -25 30 -44 12 -33 -5
3 -10 -1 -10 -9 0 -11 9 -13 32 -11 31 4 51 22 42 37 -3 4 1 8 9 8 9 0 13 9
11 26 -2 19 1 24 13 20 8 -3 17 -6 20 -6 3 0 0 -7 -7 -15 -15 -18 -11 -24 17
-27 12 -2 21 2 20 7 -1 6 -8 9 -14 9 -7 -1 -10 2 -7 7 10 16 36 9 41 -10 3
-11 12 -22 22 -24 9 -3 2 -5 -15 -6 -16 0 -39 -8 -50 -16 -17 -13 -14 -14 36
-8 30 3 57 7 59 9 2 2 -6 15 -18 30 -23 30 -28 48 -8 39 6 -4 0 4 -15 17 -16
13 -28 33 -28 45 0 12 -4 25 -10 28 -5 3 -10 -1 -10 -9 0 -12 -5 -13 -32 -4
-18 6 -40 16 -48 22 -23 18 -72 38 -65 26 9 -15 -11 -12 -24 4 -9 11 -9 15 1
18 7 3 5 7 -7 12 -11 4 -16 4 -12 0z"/>
<path d="M3199 3633 c-6 -16 -13 -57 -16 -93 -6 -83 17 -130 68 -142 19 -5 44
-14 56 -20 18 -9 25 -7 45 17 l24 27 13 -76 c13 -74 32 -109 46 -86 10 16 23
12 21 -6 0 -9 4 -18 9 -21 7 -2 9 13 7 38 -3 31 -1 40 8 34 7 -4 9 -18 6 -34
-5 -26 -5 -26 6 -3 11 21 7 28 -35 69 l-47 45 6 -33 c10 -59 12 -63 29 -49 8
7 15 8 15 4 0 -5 -9 -15 -19 -21 -18 -11 -20 -8 -30 38 -6 27 -11 63 -11 79 0
36 -27 41 -54 11 -16 -17 -21 -18 -64 -5 -66 20 -82 43 -82 119 0 84 12 115
45 115 15 0 24 4 20 10 -3 6 -17 10 -31 10 -17 0 -28 -8 -35 -27z"/>
<path d="M5395 3515 c-33 -30 -55 -55 -49 -55 6 0 19 9 29 20 10 12 25 18 32
16 7 -3 29 4 48 15 19 12 35 17 35 12 0 -9 -55 -36 -77 -37 -7 -1 -17 -6 -24
-13 -8 -8 1 -10 37 -7 27 3 54 7 61 9 7 2 15 0 18 -5 4 -6 -7 -10 -24 -10 -17
0 -31 -4 -31 -10 0 -5 8 -7 18 -3 14 5 13 3 -3 -10 -19 -16 -19 -16 12 -17 26
0 34 -5 37 -22 2 -13 10 -59 18 -102 8 -50 18 -81 27 -84 10 -3 12 0 7 13 -3
10 -16 75 -27 144 -29 181 -35 201 -62 201 -12 -1 -49 -25 -82 -55z"/>
<path d="M5645 2508 c-6 -12 -39 -39 -74 -60 -35 -21 -58 -32 -51 -23 7 8 27
24 46 36 19 11 34 25 34 30 0 12 -44 -17 -114 -76 l-49 -40 6 -126 c5 -122 5
-128 -19 -162 -25 -37 -19 -55 13 -38 22 12 105 51 110 51 2 0 3 -6 3 -14 0
-33 20 -22 54 30 35 53 41 75 16 59 -6 -4 -16 -19 -21 -33 -8 -21 -12 -23 -19
-12 -8 12 -10 10 -10 -9 0 -20 -2 -22 -16 -10 -12 10 -20 10 -35 1 -16 -10
-19 -9 -19 5 -1 13 -5 10 -16 -9 -8 -16 -21 -28 -30 -28 -13 0 -13 3 1 29 12
24 14 51 8 134 -7 120 7 184 17 77 l7 -65 1 68 c1 37 5 67 10 67 4 0 5 -32 4
-71 -3 -64 -2 -70 15 -67 14 3 19 16 25 67 4 35 10 68 13 75 3 6 3 -9 0 -33
-6 -46 11 -101 31 -101 6 0 23 -9 38 -21 38 -30 32 -16 -14 33 -41 44 -46 65
-33 128 4 21 16 38 34 49 16 9 34 29 40 44 14 32 8 46 -6 15z"/>
<path d="M3026 1461 c-27 -11 -11 -18 70 -31 38 -6 80 -16 94 -21 14 -6 52
-13 85 -16 83 -7 82 -13 -3 -13 -39 0 -74 -5 -77 -11 -4 -6 -5 -12 -4 -13 2
-2 55 -6 118 -10 l114 -7 -27 31 c-24 30 -30 43 -27 63 1 5 -3 6 -7 3 -5 -3
-17 3 -27 14 -16 18 -31 20 -154 19 -75 0 -145 -4 -155 -8z"/>
</g>
</svg>
