<?xml version="1.0" standalone="no"?>
<!DOCTYPE svg PUBLIC "-//W3C//DTD SVG 20010904//EN"
 "http://www.w3.org/TR/2001/REC-SVG-20010904/DTD/svg10.dtd">
<svg version="1.0" xmlns="http://www.w3.org/2000/svg"
 width="850.000000pt" height="850.000000pt" viewBox="0 0 850.000000 850.000000"
 preserveAspectRatio="xMidYMid meet">
<metadata>
Created by potrace 1.16, written by Peter Selinger 2001-2019
</metadata>
<g transform="translate(0.000000,850.000000) scale(0.100000,-0.100000)"
fill="#000000" stroke="none">
<path d="M3150 8440 c-41 -33 -77 -55 -81 -49 -3 6 -11 3 -19 -7 -12 -14 -11
-29 4 -102 23 -115 38 -162 52 -162 6 0 30 14 53 31 68 48 241 154 317 192
142 71 359 133 534 150 19 2 -149 4 -375 5 l-410 2 -75 -60z"/>
<path d="M4315 8493 c86 -10 229 -38 302 -59 156 -45 375 -161 518 -275 l73
-58 12 47 c6 26 14 88 17 138 6 89 5 92 -18 104 -13 7 -54 35 -90 61 l-66 49
-389 -1 c-214 -1 -375 -4 -359 -6z"/>
<path d="M3716 6388 c3 -62 9 -127 14 -144 6 -18 8 -106 5 -221 -5 -185 -5
-191 19 -244 13 -30 44 -81 70 -113 25 -33 46 -64 46 -70 -1 -12 -62 51 -97
99 -12 17 -23 25 -23 18 0 -7 24 -40 53 -74 28 -33 58 -72 65 -85 7 -13 19
-24 27 -24 8 0 21 -12 29 -27 8 -16 15 -22 16 -15 0 21 26 13 39 -12 17 -31 6
-53 -17 -34 -13 11 -14 11 -11 -1 9 -25 27 -24 53 2 21 21 27 23 37 11 20 -24
43 -15 69 26 28 46 40 50 40 15 0 -14 5 -25 10 -25 6 0 10 5 10 11 0 8 5 7 16
-2 8 -7 13 -21 11 -31 -3 -11 6 -29 24 -47 29 -30 37 -51 19 -51 -5 0 -17 11
-26 25 -9 14 -24 25 -33 25 -9 0 -23 6 -31 13 -12 10 -12 9 -1 -5 7 -10 19
-18 27 -18 7 0 18 -8 23 -19 6 -10 18 -21 26 -25 21 -8 84 19 91 39 10 26 21
17 48 -40 l27 -55 -36 -67 c-20 -38 -48 -81 -63 -98 -15 -17 -8 -13 16 10 28
26 42 34 42 23 0 -8 -7 -21 -15 -28 -40 -34 -55 -66 -45 -101 8 -26 6 -47 -6
-85 -13 -43 -24 -57 -63 -82 -52 -34 -111 -92 -93 -92 6 0 9 -6 6 -13 -2 -7
11 -53 30 -103 32 -84 43 -154 30 -197 -5 -14 -9 -16 -20 -6 -9 7 -14 8 -14 1
0 -6 5 -14 10 -17 6 -3 10 -21 11 -38 0 -26 2 -28 8 -12 14 34 35 -52 24 -95
l-10 -35 -7 47 c-4 26 -12 51 -18 54 -8 5 -9 -6 -3 -37 4 -24 7 -60 6 -79 -3
-104 -10 -170 -20 -209 -11 -39 -7 -120 5 -108 5 5 15 123 14 181 0 51 18 118
30 111 6 -4 10 -64 10 -136 0 -106 -3 -131 -15 -135 -19 -8 -20 -34 -1 -34 8
0 26 4 40 10 42 16 30 2 -16 -19 -85 -39 -172 -70 -180 -65 -12 8 -68 -38 -68
-57 0 -15 36 -105 72 -181 7 -16 19 -28 26 -28 20 0 -25 -39 -53 -46 -14 -3
-30 -14 -35 -23 -5 -10 -28 -23 -52 -30 -44 -13 -153 -74 -198 -112 l-25 -20
40 17 c99 41 138 54 143 49 21 -21 -243 -209 -358 -255 -19 -7 -54 -27 -78
-43 -24 -16 -46 -26 -49 -23 -18 18 83 123 179 186 20 14 35 26 33 28 -9 10
-154 -71 -194 -108 -24 -22 -49 -40 -55 -40 -6 0 -51 -41 -100 -90 -70 -70
-92 -87 -103 -79 -10 9 -13 7 -13 -9 0 -12 -13 -30 -30 -42 -47 -34 -60 -69
-60 -162 0 -126 14 -192 53 -251 19 -29 49 -90 67 -137 45 -119 61 -147 130
-235 46 -56 54 -72 33 -58 l-28 18 20 -26 c11 -15 25 -25 30 -22 6 2 37 -22
68 -54 32 -32 53 -59 47 -61 -5 -2 -8 -8 -5 -12 3 -5 12 -7 19 -4 21 8 136
-228 136 -279 0 -12 -118 -1 -185 18 -27 7 -95 21 -150 31 -55 9 -145 25 -200
36 -119 24 -218 39 -262 39 -23 0 -39 8 -53 26 -13 17 -20 21 -20 11 0 -9 7
-21 15 -28 12 -10 11 -15 -10 -38 -30 -33 -31 -37 -4 -39 25 -2 39 -14 23 -20
-13 -4 -6 -53 7 -53 5 0 9 23 9 50 0 55 9 61 58 36 25 -13 57 -18 177 -31 93
-10 240 -38 252 -47 7 -5 17 -7 23 -3 17 11 272 -28 323 -49 23 -9 27 -17 27
-50 0 -25 -6 -44 -17 -53 -16 -13 -16 -13 7 -7 29 8 45 24 45 43 0 8 5 16 12
18 12 4 11 -26 -1 -45 -5 -9 18 -32 50 -50 18 -11 18 -11 -3 -12 -16 0 -31
-13 -49 -41 -14 -22 -23 -43 -21 -46 3 -2 80 -7 173 -10 l167 -6 -6 44 c-7 49
-32 137 -53 187 -8 18 -14 39 -14 48 0 8 -11 41 -25 73 -26 62 -58 256 -70
415 -3 49 -13 117 -22 150 -15 59 -15 60 8 79 22 17 23 17 33 0 6 -10 14 -99
17 -198 7 -175 18 -253 58 -395 10 -36 28 -103 40 -150 13 -47 30 -105 38
-128 8 -24 15 -61 15 -83 -1 -32 3 -39 18 -39 16 0 19 5 14 33 -3 17 -13 53
-22 79 -9 26 -14 50 -11 52 7 7 167 -32 199 -49 46 -24 56 -52 31 -86 l-22
-29 30 0 c31 0 66 34 54 53 -3 6 -1 7 5 3 6 -4 17 2 24 14 15 23 38 27 38 5 0
-8 -6 -15 -13 -15 -16 0 -61 -49 -53 -57 3 -4 17 6 30 20 31 33 38 34 34 5 -3
-21 1 -23 51 -26 43 -3 58 1 75 17 12 11 38 27 59 36 35 14 38 18 32 45 -8 37
3 73 20 67 7 -3 24 0 37 7 l25 13 12 -74 c11 -65 15 -74 31 -70 14 4 20 -2 25
-25 5 -20 12 -28 21 -24 8 3 14 1 14 -4 0 -6 11 -10 25 -10 14 0 25 5 25 11 0
5 5 7 12 3 7 -5 8 -3 4 5 -10 16 2 81 14 81 6 0 9 -6 7 -12 -1 -7 4 -12 11
-11 15 4 16 -21 2 -48 -7 -12 -7 -19 -1 -19 6 0 15 18 21 41 10 36 9 43 -9 58
-12 11 -17 22 -11 30 5 10 16 -2 33 -40 20 -40 23 -56 15 -66 -8 -10 -8 -17 0
-25 9 -9 12 -7 12 7 1 17 2 18 10 5 7 -13 35 -16 152 -17 141 -2 244 -9 283
-20 11 -3 17 -2 13 2 -4 5 -25 11 -45 15 l-38 8 37 1 38 1 -6 68 c-4 37 -6 77
-5 90 0 14 -5 22 -17 22 -13 1 -11 4 8 15 24 13 21 14 -45 16 -38 1 -83 5
-100 8 -25 6 -19 9 40 16 39 4 87 14 109 21 21 8 51 14 67 14 21 0 29 5 29 18
0 33 -50 186 -68 212 -44 60 -45 67 -8 89 37 23 76 28 77 9 0 -7 2 -34 4 -61
2 -28 0 -45 -6 -42 -5 4 -9 21 -9 40 0 19 -4 37 -10 40 -18 11 -10 -57 19
-168 16 -60 27 -116 24 -127 -6 -22 3 -28 64 -39 47 -9 89 1 78 19 -3 4 31 8
74 9 88 1 121 8 99 22 -7 5 -31 9 -53 10 -22 1 -53 5 -70 10 -26 7 -24 8 17 6
25 -1 44 1 41 6 -2 4 9 10 26 13 64 13 34 54 -40 54 -18 0 -28 4 -24 10 3 6
20 10 36 10 26 0 29 3 24 20 -5 17 -1 21 24 26 18 4 34 10 37 15 2 4 11 6 18
3 8 -3 17 0 21 6 4 7 -13 10 -57 9 -35 -1 -67 -4 -71 -6 -5 -3 -47 -7 -95 -8
-86 -4 -87 -4 -64 15 27 23 27 24 -3 54 l-24 25 19 44 c11 25 37 59 58 76 l37
30 -34 -9 c-18 -5 -48 -21 -66 -35 -21 -16 -36 -21 -40 -15 -8 13 27 91 49
109 11 10 13 17 6 26 -7 8 -4 17 10 30 15 14 17 21 9 32 -9 10 -8 13 2 13 11
0 11 2 2 8 -8 5 -1 14 22 26 19 11 35 23 35 28 0 4 8 8 18 9 11 0 12 2 4 6 -7
3 -21 -2 -30 -10 -32 -27 -76 -36 -103 -20 -13 8 -16 12 -6 9 12 -4 21 2 30
21 13 30 57 78 71 78 5 0 11 6 14 13 2 8 -7 12 -28 12 -20 0 -29 4 -24 11 3 6
-6 3 -21 -7 -15 -10 -23 -20 -16 -22 6 -2 9 -7 6 -12 -3 -4 4 -6 15 -3 11 3
20 0 20 -6 0 -10 -13 -15 -25 -8 -2 1 -32 -25 -66 -58 -34 -33 -58 -54 -54
-46 4 8 2 17 -6 22 -11 6 -9 12 6 31 l20 23 -23 -19 c-12 -11 -21 -25 -18 -32
3 -7 -17 -23 -45 -37 -39 -21 -49 -23 -49 -11 0 20 35 87 54 103 8 7 20 29 27
49 7 20 21 49 32 63 10 15 17 35 14 45 -4 17 -5 17 -6 -2 0 -11 -10 -29 -21
-39 -11 -10 -20 -23 -20 -30 0 -7 -20 -42 -44 -79 l-43 -66 -11 27 c-6 16 -28
71 -49 123 -35 89 -37 103 -40 215 -3 133 -9 185 -23 185 -11 0 -2 -227 12
-295 5 -27 12 -61 13 -75 2 -13 9 -26 14 -28 6 -2 9 -8 5 -13 -3 -5 8 -33 25
-63 36 -63 41 -88 11 -61 -11 10 -20 22 -20 27 0 5 -14 39 -32 76 -18 37 -35
87 -38 112 -5 44 -6 43 -25 -50 -13 -64 -19 -135 -19 -215 0 -115 1 -123 31
-181 20 -39 54 -82 92 -116 34 -30 58 -58 54 -61 -3 -4 -18 -7 -33 -7 -22 0
-35 13 -72 68 -66 96 -98 160 -98 196 0 18 -5 37 -11 43 -12 12 3 172 20 215
20 51 31 151 31 271 0 135 -6 150 -45 107 -11 -12 -28 -20 -39 -18 -18 3 -21
9 -18 47 2 24 12 57 23 75 10 17 19 46 19 64 0 18 9 51 21 73 16 32 20 56 18
117 -1 43 1 104 5 137 7 49 4 75 -13 135 -11 40 -19 75 -17 77 3 3 11 -16 46
-111 14 -39 22 -28 10 15 -6 19 -13 54 -16 79 -3 25 -17 66 -31 92 l-26 47 29
25 c16 14 38 28 49 31 26 8 121 145 100 145 -8 0 -26 -25 -41 -55 -17 -34 -39
-62 -58 -73 -61 -36 -66 -31 -17 18 28 28 69 82 92 120 23 39 46 70 51 70 15
0 68 40 68 51 0 5 -11 2 -25 -7 -14 -9 -25 -14 -25 -11 0 3 13 36 29 74 16 37
26 72 22 76 -5 5 -38 -5 -75 -22 -72 -33 -73 -32 -51 34 3 11 -1 8 -10 -7 -40
-69 -41 2 -2 117 14 42 20 82 18 136 l-1 76 37 16 c36 14 37 15 10 16 l-27 1
6 98 c4 53 10 106 15 117 4 11 5 -12 2 -51 -6 -80 2 -144 19 -144 7 0 9 20 4
63 -6 60 10 192 30 242 7 18 6 18 -9 6 -9 -7 -17 -19 -17 -27 0 -7 -5 -16 -11
-20 -8 -4 -9 7 -6 37 3 24 1 84 -4 132 -6 49 -9 91 -6 93 2 3 10 -22 18 -56 7
-33 16 -60 20 -60 4 0 10 -15 12 -32 4 -32 4 -32 5 5 3 58 -38 241 -55 251
-12 6 -14 22 -8 85 7 83 -6 151 -33 174 -13 10 -14 9 -4 -9 8 -16 8 -24 0 -32
-16 -16 -28 -15 -28 1 0 6 -9 23 -19 36 -10 14 -16 31 -13 40 3 8 1 12 -4 9
-5 -3 -20 12 -33 33 -14 21 -33 41 -42 44 -14 5 -16 11 -10 28 10 27 37 24 62
-6 10 -12 18 -18 19 -14 1 22 -49 73 -119 122 -42 30 -88 67 -103 83 -30 33
-118 85 -159 95 -47 12 -209 117 -209 136 0 5 10 11 22 14 12 4 20 9 17 12 -3
3 -25 -2 -49 -10 -52 -18 -87 -19 -45 -1 l30 13 -37 16 -37 16 37 37 c44 44
33 53 -35 30 -59 -20 -66 -20 -28 2 l30 17 -63 5 c-34 3 -66 10 -70 16 -9 13
-109 74 -123 74 -5 0 -7 5 -3 12 5 8 0 9 -17 4 -13 -4 -37 -10 -54 -11 l-30
-4 29 7 c16 4 31 13 34 21 3 10 0 11 -13 4 -20 -12 -81 -1 -126 22 -15 8 -40
15 -54 15 -31 0 -93 -30 -137 -68 -80 -67 -92 -64 -31 9 l37 44 -37 -34 -37
-35 -2 55 c-1 29 -1 74 1 99 2 42 1 44 -13 25 -8 -11 -18 -35 -22 -52 -9 -48
-20 -32 -28 39 -7 60 -50 205 -66 221 -4 5 -6 -42 -4 -105z m1184 -2316 c0 -4
-16 -46 -36 -92 -55 -132 -104 -279 -104 -314 0 -18 -7 -54 -16 -80 -24 -71
-5 -79 41 -16 21 28 39 49 41 47 3 -2 -14 -35 -36 -73 -22 -38 -40 -64 -40
-58 0 6 -16 32 -35 57 l-36 47 25 83 c22 77 72 191 149 344 29 56 47 78 47 55z
m191 -633 c14 -53 21 -113 23 -210 2 -74 6 -144 10 -155 4 -12 -3 -30 -18 -49
l-24 -30 -7 68 c-4 37 -5 87 -1 110 4 30 3 38 -4 27 -7 -11 -10 0 -12 40 -5
138 -2 288 5 281 5 -5 17 -42 28 -82z m-1654 -289 c-25 -28 -62 -75 -82 -105
-24 -37 -56 -68 -95 -93 -40 -25 -72 -56 -99 -97 l-41 -60 0 -114 c0 -126 -12
-139 -29 -31 -15 90 -14 164 3 205 15 34 92 114 111 115 6 1 26 14 45 30 19
17 37 30 40 30 4 0 45 38 91 85 93 93 127 114 56 35z m678 -466 c-34 -17 -61
-23 -83 -20 -19 3 -30 1 -27 -5 4 -5 22 -9 41 -9 19 0 34 -2 34 -5 0 -10 -54
-57 -69 -60 -9 -1 -14 -4 -11 -6 6 -5 -32 -49 -43 -49 -4 0 -27 -9 -50 -20
l-42 -20 -49 56 c-28 31 -66 64 -86 72 l-35 15 35 9 c19 5 64 13 100 18 36 6
112 19 170 29 58 10 119 19 135 19 28 0 26 -1 -20 -24z m-131 -198 c34 -9 44
-15 32 -19 -27 -11 -10 -24 24 -19 34 5 34 4 20 -34 -12 -29 -3 -147 10 -139
15 9 19 -23 5 -41 -13 -20 -15 -25 -15 -46 0 -10 -3 -9 -9 1 -6 9 -10 -1 -12
-33 -2 -25 -3 -46 -1 -46 2 0 17 7 33 16 33 17 49 13 31 -9 -9 -10 -10 -86 -3
-151 1 -6 14 3 30 18 l30 29 -6 -57 c-4 -38 -2 -56 5 -56 6 0 9 7 6 15 -4 10
0 15 14 15 16 0 21 -8 23 -43 l4 -43 -42 10 c-31 7 -43 14 -43 27 0 10 -5 21
-11 24 -5 4 -14 18 -19 31 -8 20 -14 23 -35 18 -24 -6 -26 -4 -23 22 3 27 0
29 -32 32 -84 6 -77 -8 -82 179 -4 144 -7 176 -26 221 -12 29 -22 55 -22 57 0
5 52 34 60 34 3 0 27 -6 54 -13z m-496 -448 c70 -96 171 -263 188 -310 16 -49
46 -70 67 -49 18 18 28 12 17 -10 -7 -11 -18 -43 -26 -70 -17 -55 -41 -62 -37
-11 2 19 -3 32 -12 36 -8 3 -15 10 -15 16 0 6 -16 50 -34 99 -38 96 -123 229
-195 304 -45 46 -45 47 -18 47 20 0 35 -12 65 -52z m589 -184 c65 -15 137 -30
161 -34 40 -6 69 -20 44 -20 -7 0 -12 -5 -12 -10 0 -7 7 -7 21 0 33 18 93 3
118 -30 l21 -29 -20 -11 c-11 -6 -45 -10 -75 -9 -30 1 -58 -1 -62 -4 -10 -11
29 -36 55 -37 27 0 30 -29 5 -67 -17 -25 -17 -27 1 -37 10 -6 31 -21 45 -33
l26 -22 -49 -1 c-28 0 -104 12 -170 26 -67 14 -131 27 -143 30 -17 3 -23 11
-23 29 0 14 -11 53 -25 86 -14 33 -28 77 -30 97 -2 20 -7 52 -11 70 -3 17 -4
32 -1 32 3 0 59 -12 124 -26z"/>
<path d="M2719 6463 c-1 -5 -1 -12 0 -16 1 -4 -13 -13 -30 -19 -23 -8 -29 -15
-26 -29 3 -12 -2 -23 -14 -29 -21 -12 -25 -53 -6 -67 11 -8 35 -12 107 -16 16
-1 25 3 25 13 0 10 -10 15 -30 15 -28 1 -30 3 -33 43 l-3 42 35 0 c34 0 36 2
36 35 0 32 -2 35 -30 35 -16 0 -31 -3 -31 -7z"/>
<path d="M2841 5852 c1 -217 1 -217 99 -217 99 0 100 1 100 218 l0 167 -40 0
-40 0 -2 -162 c-3 -137 -5 -163 -18 -163 -13 0 -15 26 -18 163 l-2 162 -40 0
-40 0 1 -168z"/>
<path d="M3060 5825 l0 -195 40 0 40 0 0 75 c0 60 3 75 15 75 12 0 15 -15 15
-75 l0 -75 40 0 40 0 0 79 c0 54 -4 84 -13 93 -12 11 -12 16 0 26 8 8 13 37
13 82 0 97 -14 110 -115 110 l-75 0 0 -195z"/>
<path d="M2735 5999 c-27 -5 -65 -11 -82 -14 -27 -5 -33 -11 -33 -30 0 -20 5
-25 26 -25 16 0 24 -5 21 -12 -2 -7 -12 -13 -23 -13 -12 0 -19 -7 -19 -20 0
-15 8 -21 28 -23 28 -3 28 -4 11 -23 -19 -22 -8 -25 19 -5 12 10 17 27 17 64
0 49 13 73 30 56 5 -5 10 -41 11 -81 l2 -71 38 -4 39 -4 0 89 c0 82 -10 129
-28 126 -4 -1 -29 -5 -57 -10z"/>
<path d="M2746 5538 c-15 -102 -16 -121 -4 -135 10 -12 9 -18 -7 -30 -19 -14
-18 -14 10 -11 17 1 29 -2 28 -7 -1 -6 -4 -24 -7 -40 -3 -17 -3 -24 0 -17 11
23 24 12 24 -22 0 -18 3 -48 6 -65 6 -29 9 -31 49 -31 l42 0 21 178 c29 227
29 214 -10 210 l-33 -3 -11 -90 -10 -90 -8 70 c-12 115 -12 115 -51 115 -31 0
-35 -3 -39 -32z"/>
<path d="M2950 5376 l0 -196 35 0 35 0 1 93 1 92 21 -92 20 -93 39 0 38 0 0
196 0 195 -32 -3 -33 -3 1 -83 c1 -45 -1 -80 -3 -78 -3 3 -13 40 -22 83 l-17
78 -42 3 -42 3 0 -195z"/>
<path d="M2870 5112 c-55 -9 -60 -24 -60 -167 l0 -133 38 -3 c34 -4 37 -2 39
23 2 26 -6 33 -31 29 -9 -2 -26 18 -26 30 0 10 40 3 52 -9 7 -7 18 -12 25 -12
8 0 13 -23 15 -72 l3 -73 38 -3 37 -3 0 84 c0 64 -4 88 -16 98 -14 11 -14 13
0 21 23 13 23 150 0 172 -8 9 -21 17 -27 17 -48 5 -65 5 -87 1z"/>
<path d="M3050 5100 c-18 -18 -20 -33 -20 -184 0 -159 1 -165 22 -180 13 -10
43 -16 73 -16 30 0 60 6 73 16 21 15 22 21 22 184 0 163 -1 169 -22 184 -34
24 -123 21 -148 -4z"/>
<path d="M5838 1550 c-3 -22 -8 -25 -38 -23 -19 1 -57 2 -83 3 -28 0 -46 4
-42 10 4 6 -6 7 -27 2 -18 -4 -60 -7 -94 -7 l-61 0 -12 -80 c-7 -44 -15 -95
-18 -113 -5 -31 -4 -33 18 -30 15 2 23 9 22 18 -2 12 6 15 37 12 26 -3 40 0
40 7 0 7 6 11 13 10 6 -1 36 -1 66 0 42 1 52 4 48 15 -4 10 2 17 16 22 35 10
49 25 37 39 -7 9 3 19 39 39 52 28 69 54 53 83 -9 15 -11 14 -14 -7z"/>
</g>
</svg>
