<?xml version="1.0" standalone="no"?>
<!DOCTYPE svg PUBLIC "-//W3C//DTD SVG 20010904//EN"
 "http://www.w3.org/TR/2001/REC-SVG-20010904/DTD/svg10.dtd">
<svg version="1.0" xmlns="http://www.w3.org/2000/svg"
 width="802.000000pt" height="1200.000000pt" viewBox="0 0 802.000000 1200.000000"
 preserveAspectRatio="xMidYMid meet">
<metadata>
Created by potrace 1.16, written by Peter Selinger 2001-2019
</metadata>
<g transform="translate(0.000000,1200.000000) scale(0.100000,-0.100000)"
fill="#000000" stroke="none">
<path d="M2984 10335 c-8 -20 62 -248 95 -309 46 -86 51 -93 65 -105 8 -7 -1
24 -21 68 -19 45 -35 91 -37 103 -1 13 -8 33 -14 45 -7 12 -15 44 -18 70 -2
26 -7 63 -9 81 -6 53 -47 85 -61 47z"/>
<path d="M4035 9700 c4 -6 -1 -10 -11 -10 -9 0 -27 -11 -40 -25 -13 -14 -26
-25 -29 -25 -3 0 -5 11 -5 25 0 24 -3 25 -54 25 -39 0 -55 -4 -60 -15 -4 -11
1 -15 18 -15 12 0 31 -9 41 -20 15 -16 16 -24 6 -47 -6 -16 -24 -37 -40 -47
-43 -30 -29 -47 35 -45 53 2 54 3 54 32 l0 29 37 -32 c33 -29 41 -32 86 -27
35 3 56 11 75 30 l26 27 27 -26 c48 -46 131 -45 175 3 45 49 23 125 -46 153
-40 17 -102 0 -136 -37 -20 -22 -25 -23 -30 -9 -3 8 -21 25 -40 37 -35 22 -99
35 -89 19z"/>
<path d="M6303 8794 c-7 -3 -9 -12 -6 -21 4 -11 2 -14 -5 -9 -7 4 -12 3 -12
-2 0 -6 7 -13 16 -16 12 -4 13 -10 6 -19 -5 -6 -10 -65 -10 -129 0 -64 -2
-121 -5 -125 -2 -4 -3 -21 0 -38 2 -16 4 -136 4 -265 0 -129 0 -262 0 -295 0
-33 1 -81 3 -107 3 -36 0 -48 -10 -48 -8 0 -14 -4 -14 -10 0 -5 6 -7 14 -4 12
4 13 -6 10 -53 -5 -79 0 -638 6 -638 1 0 2 -17 4 -37 2 -23 -2 -38 -8 -38 -6
0 -5 -4 3 -9 9 -6 15 -32 17 -78 1 -37 6 -150 10 -250 6 -150 5 -185 -7 -200
-9 -11 -10 -14 -1 -9 6 4 12 6 12 4 9 -61 10 -138 1 -138 -6 0 -11 -7 -11 -15
0 -8 5 -15 10 -15 12 0 12 -174 -1 -207 -5 -15 -5 -23 2 -23 6 0 6 -6 0 -19
-6 -10 -9 -20 -6 -22 8 -9 12 -175 4 -196 -5 -13 -5 -23 0 -23 13 0 20 -224 7
-232 -8 -5 -7 -8 2 -8 14 0 16 -46 2 -55 -5 -3 -10 -16 -9 -28 0 -21 1 -21 9
-2 8 19 9 19 9 -2 1 -13 -3 -23 -8 -23 -5 0 -11 -7 -14 -14 -4 -10 -1 -13 9
-9 10 4 14 -2 14 -20 0 -14 -4 -29 -10 -32 -5 -3 -10 -16 -9 -28 1 -20 2 -20
9 3 l8 25 1 -27 c1 -14 -5 -29 -11 -31 -8 -3 -6 -6 5 -6 15 -1 17 9 17 69 0
49 4 70 13 70 8 0 7 4 -3 10 -10 7 -12 12 -4 18 7 5 8 34 2 92 -9 101 -11 531
-1 555 5 15 8 14 19 -6 11 -20 13 -21 14 -6 0 26 20 43 66 59 22 7 41 17 41
22 2 12 64 48 71 42 3 -3 11 3 19 14 8 12 20 17 30 13 11 -4 14 -3 9 5 -5 8 1
12 18 12 35 0 57 10 49 23 -4 6 0 8 10 4 11 -4 20 1 27 13 5 10 23 21 39 25
16 3 35 12 41 20 6 7 22 16 36 19 16 4 24 12 21 20 -7 18 36 40 62 33 28 -7
27 1 -1 14 -20 8 -20 9 7 5 17 -3 37 -1 45 5 12 7 12 9 -3 9 -10 0 -20 6 -23
14 -5 12 -11 13 -32 3 -15 -6 -29 -15 -33 -19 -3 -4 -30 -21 -60 -37 -29 -15
-88 -46 -129 -68 -263 -141 -324 -172 -328 -168 -9 9 -10 325 -2 355 5 17 5
30 1 30 -16 0 -16 176 0 186 5 3 5 12 0 22 -5 9 -8 28 -7 42 1 14 -1 37 -5 52
-4 15 -4 30 1 33 10 6 9 75 -1 75 -4 0 -6 21 -5 48 2 26 0 71 -4 99 -4 31 -3
54 3 56 6 2 4 13 -4 25 -12 19 -12 24 -1 31 11 7 11 9 -2 14 -19 8 -21 27 -3
27 7 0 13 9 14 20 1 11 -3 20 -8 20 -6 0 -7 5 -4 10 4 6 2 17 -4 24 -8 10 -8
22 -1 40 13 35 13 56 0 36 -8 -13 -10 -13 -10 2 0 9 4 19 8 22 5 3 7 36 4 73
-2 37 -4 79 -3 93 5 106 5 150 -1 150 -11 0 -10 52 2 70 5 9 5 19 -2 27 -8 10
-8 21 1 39 6 14 8 31 4 37 -6 10 -13 175 -14 346 0 25 -4 52 -9 60 -4 9 -4 36
0 61 5 25 5 49 2 55 -9 15 -11 204 -3 252 5 27 4 46 -5 58 -8 10 -11 30 -7 46
3 16 4 29 2 28 -2 0 -9 -3 -16 -5z"/>
<path d="M5174 8706 c-41 -18 -88 -77 -121 -153 -29 -66 -43 -72 -84 -37 -23
20 -63 17 -84 -6 -11 -12 -25 -18 -36 -15 -11 4 -27 -3 -40 -16 -19 -19 -21
-29 -16 -90 l6 -69 -65 0 -64 0 2 -857 3 -858 293 -3 294 -2 25 -30 c14 -17
33 -41 43 -53 l19 -22 53 53 54 52 172 1 172 0 0 860 0 859 -69 0 -68 0 1 78
c1 101 -13 101 -74 2 l-46 -75 -83 -3 c-83 -3 -84 -3 -77 20 4 13 12 58 18
100 12 81 2 134 -25 126 -6 -2 -48 -58 -92 -124 l-80 -119 -78 -2 c-72 -1 -76
0 -67 17 6 11 15 22 20 25 6 4 10 23 9 43 -3 52 22 94 114 190 l81 85 -23 18
c-27 22 -45 23 -87 5z m82 -17 c4 -7 -19 -37 -56 -72 -34 -33 -78 -85 -97
-115 -30 -47 -37 -52 -49 -40 -13 12 -12 20 1 58 23 64 74 140 109 161 35 21
81 25 92 8z m134 -189 c0 -105 -45 -242 -143 -432 -42 -83 -61 -133 -65 -168
-3 -33 -1 -50 7 -50 6 0 12 15 12 33 1 17 3 24 6 15 6 -22 17 -23 33 -3 7 8
17 15 22 15 5 0 -3 -11 -18 -24 l-28 -24 32 -7 c41 -9 46 -18 27 -54 -23 -46
-18 -50 15 -11 35 43 46 35 55 -40 3 -30 16 -76 29 -102 l23 -48 -23 0 c-12 0
-30 -3 -39 -7 -14 -5 -16 -2 -10 16 9 28 8 114 0 142 -6 18 -8 19 -23 5 -10
-8 -30 -40 -46 -70 -28 -53 -46 -70 -46 -44 0 9 -3 9 -12 -1 -11 -10 -9 -15 5
-25 11 -9 17 -24 15 -43 -2 -26 -5 -29 -39 -29 -36 -1 -37 -1 -28 24 17 43 13
155 -5 190 -18 35 -26 38 -44 20 -17 -17 -14 3 4 27 15 20 15 20 34 -5 16 -21
20 -22 20 -7 0 10 -9 30 -19 45 -21 29 -41 138 -41 221 0 74 29 140 108 244
39 51 84 116 101 144 68 116 81 125 81 53z m-430 5 c11 -13 4 -24 -40 -71 -51
-54 -52 -55 -34 -76 11 -11 18 -22 17 -24 -11 -16 1 -21 15 -6 10 9 27 22 38
29 16 9 12 10 -23 6 -32 -4 -43 -2 -43 8 0 19 91 109 111 109 16 0 79 -62 79
-78 0 -4 -18 -33 -40 -66 -22 -32 -40 -62 -40 -66 0 -4 -18 -7 -40 -8 -23 -1
-54 -9 -70 -17 -29 -15 -31 -15 -41 7 -12 27 3 78 23 78 9 0 9 3 0 12 -26 26
-7 128 30 161 25 21 42 22 58 2z m670 -218 c-38 -152 -102 -253 -199 -311 -78
-48 -88 -46 -18 4 91 66 178 201 201 314 17 82 9 96 -20 37 -14 -27 -76 -105
-139 -173 -63 -67 -125 -144 -137 -170 -22 -44 -44 -65 -56 -53 -15 14 47 105
145 212 117 127 176 202 214 272 l24 44 3 -47 c2 -26 -6 -84 -18 -129z m-35
-19 c-22 -70 -93 -183 -147 -234 -47 -45 -127 -99 -135 -90 -10 10 42 82 112
156 90 94 161 182 170 210 4 12 9 19 12 16 3 -3 -2 -29 -12 -58z m-760 34 c6
-1 4 -6 -3 -11 -12 -7 -11 -13 1 -37 9 -17 13 -42 10 -58 -4 -21 -1 -33 12
-42 16 -12 18 -33 19 -196 1 -138 6 -206 20 -275 19 -90 19 -93 1 -113 -10
-11 -28 -20 -39 -20 -12 0 -16 -4 -11 -8 6 -4 9 -14 9 -22 -1 -8 -2 -21 -3
-27 0 -7 -13 -14 -28 -14 l-28 -2 28 -4 c22 -3 27 -10 27 -31 1 -26 1 -26 15
-8 17 23 20 40 5 31 -13 -8 -13 -3 2 32 6 15 11 31 10 36 -1 4 5 7 14 7 8 0
12 5 9 10 -7 12 54 40 87 40 29 0 128 -46 128 -59 0 -10 -55 -22 -109 -23 -39
-1 -41 -18 -2 -18 32 0 47 -18 75 -93 19 -52 47 -77 85 -77 29 0 112 83 148
148 l23 41 -43 9 c-49 10 -70 5 -63 -14 4 -9 -2 -14 -15 -14 -35 0 -16 23 47
57 76 41 125 50 168 29 18 -9 39 -22 46 -31 16 -20 26 -90 11 -81 -7 5 -11 -2
-11 -19 0 -15 -5 -25 -12 -23 -7 1 -35 -13 -63 -30 -42 -28 -129 -62 -156 -62
-5 0 -25 -11 -45 -25 -44 -30 -68 -31 -94 -5 -11 11 -20 16 -20 10 0 -16 49
-43 70 -37 23 6 26 -11 7 -37 -10 -14 -21 -17 -45 -11 -26 5 -33 13 -38 41 -3
18 -4 41 0 49 7 19 -3 47 -15 40 -10 -7 -105 40 -134 65 -19 17 -55 24 -55 10
0 -9 23 -30 33 -30 4 0 5 5 1 11 -4 7 7 1 25 -12 17 -12 31 -25 31 -28 0 -3 5
-34 10 -68 10 -60 9 -63 -21 -108 -47 -70 -48 -111 -5 -239 20 -60 61 -156 91
-214 30 -59 55 -110 55 -114 0 -4 -92 -8 -205 -8 l-205 0 0 838 c0 461 2 841
4 843 4 4 120 4 141 1z m345 -5 c0 -4 -7 -10 -15 -13 -8 -4 -15 -11 -15 -16 0
-5 -9 -22 -19 -37 -36 -50 -54 -136 -46 -220 4 -42 11 -94 16 -116 7 -32 4
-50 -13 -92 -12 -29 -25 -53 -29 -53 -12 0 -27 83 -45 247 -16 152 -16 164 -1
181 19 20 22 49 8 71 -6 9 -4 23 6 38 15 22 22 24 85 21 37 -2 68 -7 68 -11z
m340 4 c0 -3 -72 -84 -178 -199 -23 -26 -55 -67 -70 -92 -28 -47 -62 -86 -62
-72 0 5 29 69 63 143 35 74 73 155 83 181 l19 48 72 -3 c40 -1 73 -4 73 -6z
m262 -501 c0 -599 2 -541 -17 -534 -8 4 -15 1 -15 -5 0 -6 10 -11 23 -11 16 0
18 -3 8 -9 -8 -5 -11 -16 -7 -29 8 -25 -10 -38 -29 -22 -20 17 -19 7 4 -31 11
-18 22 -26 25 -20 4 6 2 11 -3 11 -6 0 -11 5 -11 10 0 6 7 10 15 10 16 0 20
-18 7 -36 -4 -5 -24 -23 -45 -39 -37 -27 -39 -28 -55 -10 -15 17 -15 18 0 6
30 -22 27 3 -4 31 l-30 28 4 -25 c3 -13 1 -22 -3 -19 -11 6 -12 45 -2 69 5 15
7 15 18 -4 l11 -21 23 26 c17 19 19 25 7 21 -12 -5 -16 0 -15 21 0 24 1 25 9
7 8 -19 9 -19 9 3 1 20 -4 22 -61 24 -35 0 -70 1 -78 0 -40 -3 -186 21 -200
33 -8 7 -27 17 -42 20 -38 10 -35 21 10 36 20 7 53 22 72 34 19 12 41 20 47
18 7 -3 16 2 19 11 3 9 12 16 20 16 8 0 14 7 14 16 0 12 6 15 21 11 l21 -6
-21 20 c-22 21 -29 45 -9 33 7 -5 9 -2 5 9 -4 12 1 17 21 20 25 4 25 4 -5 6
-20 0 -38 10 -50 25 -10 13 -29 26 -41 30 -41 13 -75 82 -93 186 -5 32 -16 60
-26 68 -17 13 -17 14 1 28 11 8 16 14 11 14 -16 0 31 42 69 62 56 29 131 102
164 162 24 42 59 130 78 194 3 9 21 12 65 10 l61 -3 0 -505z"/>
<path d="M5345 8450 c-4 -12 -43 -76 -88 -143 -44 -67 -89 -144 -100 -172 -26
-66 -30 -217 -6 -240 14 -15 16 -13 16 13 0 16 30 89 68 163 80 158 114 251
122 337 6 61 0 81 -12 42z m-10 -101 c-8 -35 -49 -131 -89 -214 -40 -82 -78
-161 -84 -175 -9 -21 -11 -16 -11 37 -1 80 31 167 97 265 27 40 59 92 72 115
13 24 25 41 27 39 2 -2 -3 -32 -12 -67z"/>
<path d="M2227 8323 c-4 -3 -7 -68 -7 -143 l0 -136 -27 -16 c-16 -8 -58 -25
-95 -38 -40 -12 -68 -27 -68 -35 0 -19 40 -45 69 -45 38 0 15 -15 -71 -45 -42
-15 -79 -33 -82 -40 -9 -25 34 -64 86 -80 29 -8 82 -15 120 -15 l68 0 2 -562
3 -563 190 -2 c105 -1 204 -2 221 -2 28 -1 35 -8 60 -56 16 -30 31 -55 34 -55
3 0 13 15 24 33 l18 32 16 -33 c9 -18 20 -31 26 -29 5 2 21 27 35 55 l26 52
205 1 c113 1 217 0 231 -1 14 0 31 5 37 13 9 10 11 235 9 863 l-2 849 -561 3
c-308 1 -564 -1 -567 -5z m1107 -856 l-1 -842 -49 -3 -50 -3 -32 72 c-19 44
-28 77 -23 83 11 15 41 181 41 231 0 105 -186 293 -308 311 -81 12 -109 70
-42 86 117 29 142 40 184 82 39 38 44 47 41 81 -4 42 -47 95 -77 95 -21 0 -47
42 -29 48 13 4 15 32 3 32 -5 0 -14 11 -20 24 -10 22 -8 27 24 45 19 11 37 27
40 36 4 8 12 15 19 15 43 0 59 113 25 180 -11 22 -16 40 -11 40 12 0 41 28 41
40 0 4 -18 6 -40 3 -22 -3 -61 0 -87 8 -78 22 -153 16 -220 -17 -70 -34 -97
-32 -131 8 -33 39 -79 58 -139 58 -52 0 -112 -26 -200 -85 l-53 -36 0 126 0
125 548 0 547 0 -1 -843z m-754 678 c40 -20 66 -53 52 -67 -9 -9 -16 -7 -31 6
-11 10 -41 21 -65 23 -66 8 -146 -25 -273 -113 -59 -41 -117 -74 -129 -74 -27
0 -84 20 -84 29 0 4 32 17 71 30 45 14 105 46 163 85 50 35 102 69 116 76 54
29 127 31 180 5z m401 -31 c38 -9 76 -13 84 -10 8 3 15 1 15 -4 0 -9 -14 -14
-32 -11 -11 1 -11 0 12 -44 20 -39 25 -99 13 -144 -6 -23 -7 -23 -13 -6 -6 17
-9 14 -25 -18 -16 -34 -57 -67 -85 -67 -18 0 -11 70 10 98 11 15 22 43 25 62
5 32 5 33 -6 10 -38 -87 -54 -99 -64 -48 -15 76 -45 90 -149 68 -45 -10 -89
-21 -98 -25 -25 -10 -22 3 8 47 41 59 131 107 202 108 18 0 65 -7 103 -16z
m-404 -29 c29 -12 33 -18 24 -29 -8 -9 -24 -12 -50 -9 -45 6 -79 -10 -224
-105 -57 -38 -141 -83 -187 -102 l-85 -34 45 -14 c103 -30 220 8 346 113 49
41 93 75 99 75 18 0 -100 -111 -165 -155 -81 -56 -168 -80 -260 -72 -134 11
-195 61 -107 86 67 21 173 77 261 140 84 61 124 84 185 106 48 18 75 18 118 0z
m-7 -65 c0 -6 -10 -14 -22 -19 -13 -5 -57 -39 -98 -75 -103 -91 -161 -118
-263 -124 -58 -3 -78 -2 -73 7 4 6 13 11 19 11 23 0 139 60 210 109 40 27 92
61 117 75 45 26 110 35 110 16z m314 -52 c21 -29 9 -39 -14 -11 -15 20 -20 21
-30 8 -7 -8 -21 -15 -32 -15 -16 0 -17 -3 -8 -21 7 -11 9 -27 6 -35 -4 -10 2
-14 18 -14 14 0 31 -3 40 -6 11 -4 16 0 16 14 0 12 5 24 10 27 6 4 10 -5 10
-20 0 -20 4 -26 15 -21 11 4 15 -1 15 -19 0 -14 -6 -25 -13 -25 -8 0 -22 -9
-32 -20 -22 -24 -13 -26 21 -4 22 15 24 15 18 0 -4 -11 0 -16 12 -17 14 0 15
-2 4 -6 -45 -17 -80 -77 -82 -142 -1 -28 -3 -29 -37 -24 -50 8 -57 16 -64 75
-8 66 -50 151 -81 166 -21 9 -29 7 -52 -11 -26 -20 -54 -31 -54 -21 0 3 9 23
21 45 14 28 25 39 35 35 9 -3 27 -6 40 -6 17 0 32 -12 52 -40 15 -21 30 -39
34 -40 15 0 -7 43 -35 71 -25 25 -36 30 -61 25 -25 -5 -27 -4 -13 5 31 18 76
-1 136 -57 l59 -54 43 25 c50 28 45 33 -8 9 l-34 -17 -42 40 c-55 53 -102 77
-138 69 -52 -10 -30 11 29 27 120 35 175 36 196 5z m-345 -151 c-22 -42 -37
-57 -58 -62 -34 -7 -93 -65 -73 -72 8 -3 11 -15 6 -37 -5 -28 0 -39 33 -75 21
-24 68 -61 105 -83 70 -41 128 -98 128 -123 0 -10 -11 -15 -32 -15 -100 -1
-162 -46 -193 -141 -26 -78 -47 -438 -32 -535 l9 -52 -96 -1 -96 -2 2 556 3
557 47 16 c61 22 160 94 211 155 l41 47 13 -38 c12 -37 11 -42 -18 -95z m154
-157 c71 -44 136 -80 143 -80 8 0 14 -4 14 -9 0 -5 -21 -9 -46 -9 -40 -1 -44
1 -34 14 7 8 10 17 7 21 -10 10 -97 21 -91 11 3 -4 18 -8 35 -8 22 0 29 -5 29
-20 0 -22 33 -60 53 -60 7 0 28 13 47 30 28 23 31 29 16 30 -50 1 81 70 133
70 21 0 73 -39 54 -40 -9 0 -6 -11 7 -32 21 -35 26 -53 11 -43 -5 3 -12 -3
-15 -13 -11 -35 -51 -60 -136 -87 -118 -36 -117 -35 -99 -81 13 -35 18 -39 81
-54 73 -18 113 -44 203 -135 67 -66 95 -116 95 -167 0 -35 0 -35 -44 -34 -44
1 -44 1 -51 44 -5 35 -13 47 -46 69 -34 22 -39 31 -39 63 0 38 -16 59 -74 96
-27 17 -29 17 -41 1 -8 -11 -19 -15 -31 -11 -11 3 -6 -3 10 -14 28 -19 31 -20
42 -4 18 25 27 9 11 -20 -11 -23 -15 -24 -31 -12 -22 16 -36 10 -36 -14 0 -14
2 -15 10 -2 7 12 11 12 28 -3 19 -17 20 -17 30 12 15 43 34 41 21 -1 -6 -18
-13 -39 -15 -47 -3 -11 -10 -8 -29 9 l-25 23 0 -25 c0 -39 -9 -40 -58 -6 l-46
31 -37 -43 c-21 -24 -41 -41 -45 -38 -6 7 63 98 75 98 3 0 25 -11 49 -25 23
-13 42 -21 42 -17 0 10 -59 43 -94 53 -26 8 -33 4 -67 -32 -20 -22 -40 -36
-43 -31 -8 14 70 82 95 82 11 0 34 -7 51 -16 25 -13 32 -14 39 -2 14 21 11 25
-23 39 -46 19 -103 17 -125 -4 -24 -21 -31 -21 -36 1 -2 10 -3 8 -2 -5 1 -12
-8 -34 -21 -50 l-22 -28 4 30 5 30 -14 -25 c-18 -31 -44 -146 -60 -270 l-13
-95 -54 0 c-55 0 -55 0 -53 30 2 17 7 93 12 170 6 77 16 159 25 181 38 110 66
134 159 143 60 6 62 7 65 37 2 25 -5 38 -41 71 -24 22 -65 53 -93 68 -91 52
-114 73 -114 106 0 18 -4 28 -10 24 -16 -10 -12 18 6 44 16 23 16 23 -7 16
-22 -7 -23 -7 -9 10 23 27 71 46 105 40 16 -3 87 -41 158 -85z m14 -665 c49
-47 65 -69 70 -98 3 -20 3 -37 0 -37 -4 0 -24 9 -46 20 -21 12 -54 23 -73 26
-36 6 -33 9 -72 -79 -9 -21 -16 -50 -17 -65 0 -15 -3 -21 -6 -14 -7 18 15 201
34 287 16 69 16 70 31 45 9 -14 44 -52 79 -85z m299 -93 c-7 -64 -21 -76 -73
-58 -23 8 -62 18 -86 21 -37 6 -46 11 -49 30 -4 20 0 24 27 29 17 4 51 19 76
34 l44 28 33 -19 c30 -18 32 -22 28 -65z m-303 -28 c50 -17 56 -24 32 -44 -13
-11 -21 -8 -47 16 l-32 29 27 -37 27 -37 -20 -34 -21 -35 26 -26 c14 -14 25
-30 25 -36 0 -21 18 -9 30 20 7 17 16 30 20 30 4 0 13 -13 20 -30 7 -16 16
-30 21 -30 5 0 15 14 24 30 16 32 14 31 150 34 50 2 24 -19 -32 -25 -53 -5
-54 -6 -15 -7 62 -3 49 -26 -19 -33 -53 -6 -53 -6 -11 -7 54 -2 53 -25 -2 -32
-35 -5 -41 -10 -66 -60 l-27 -54 -21 39 -20 40 -18 -38 c-10 -20 -20 -37 -24
-37 -3 0 -18 24 -32 54 -25 50 -30 55 -64 58 -54 4 -55 26 -2 31 38 3 36 4
-15 5 -55 2 -57 1 -47 -18 9 -16 8 -20 -5 -20 -13 0 -16 7 -12 33 3 25 0 37
-14 45 -26 17 -24 34 4 32 42 -4 47 0 47 31 0 17 4 28 10 24 6 -4 10 10 10 34
0 23 5 41 10 41 6 0 10 7 10 15 0 19 15 19 73 -1z"/>
<path d="M3628 8322 l-188 -2 0 -855 c0 -677 3 -855 13 -856 6 0 98 -2 203 -4
l191 -4 -2 32 c-2 18 -6 45 -10 60 -6 23 -2 34 21 58 27 28 22 41 -6 17 -8 -7
-4 -1 9 15 27 30 33 33 30 15 -3 -24 1 -38 11 -38 6 0 10 6 10 14 0 8 9 30 19
48 42 71 32 218 -21 325 -39 79 -138 184 -230 246 -47 32 -105 75 -129 96
l-43 38 27 32 c15 18 27 42 27 53 0 16 15 8 78 -44 42 -36 105 -83 138 -106
66 -44 134 -126 134 -160 0 -21 32 -47 43 -36 3 3 17 -2 31 -11 l25 -17 -19
-36 c-24 -44 -25 -56 -5 -76 14 -14 21 -13 66 4 27 11 69 19 92 18 l42 -1 -50
-7 c-46 -6 -47 -7 -12 -8 20 -1 37 -7 37 -13 0 -6 -7 -9 -15 -5 -11 4 -15 -1
-15 -19 0 -16 -6 -25 -15 -25 -9 0 -15 9 -15 24 0 13 -7 27 -16 30 -21 8 -26
8 -20 -3 3 -5 -2 -8 -11 -7 -10 0 -18 -3 -18 -9 -2 -20 -17 -56 -22 -52 -2 3
1 16 8 29 11 21 11 22 -4 9 -10 -8 -17 -28 -17 -48 0 -43 45 -89 96 -99 46 -8
123 0 137 16 9 10 7 10 -13 4 -14 -5 -53 -9 -87 -9 -55 1 -66 4 -93 30 -16 16
-30 36 -29 44 0 14 1 14 6 1 8 -20 44 -60 56 -60 5 0 7 7 4 15 -7 17 9 30 18
15 4 -6 15 -8 26 -5 12 4 21 1 25 -9 8 -21 21 -20 28 2 7 20 56 24 56 4 0 -7
6 -15 13 -18 18 -6 4 -115 -24 -189 -19 -50 -57 -84 -80 -70 -5 4 -9 -1 -9 -9
0 -9 3 -16 8 -16 4 0 6 -20 4 -45 l-4 -45 218 2 219 3 0 857 0 858 -380 2
c-209 2 -464 2 -567 0z m915 -21 c16 -1 17 -29 17 -441 0 -287 -3 -440 -10
-440 -7 0 -10 150 -10 429 l0 430 -149 3 c-82 2 -232 1 -333 -2 -158 -5 -139
-6 145 -8 l327 -2 0 -424 0 -424 -80 1 c-80 2 -80 2 -80 29 0 37 -16 74 -34
81 -11 4 -31 -6 -55 -28 -21 -19 -46 -35 -54 -35 -9 0 -34 -17 -56 -38 -27
-25 -45 -36 -53 -30 -7 4 -27 8 -45 8 -46 0 -50 18 -6 26 49 9 110 39 148 73
17 15 51 33 78 39 98 25 176 95 184 165 5 38 3 46 -13 49 -31 7 -99 -21 -142
-58 -37 -32 -45 -34 -109 -34 -39 0 -72 3 -76 6 -3 3 -1 17 4 31 5 14 7 33 4
43 -6 20 -46 40 -78 40 -18 0 -27 12 -44 59 -13 32 -23 74 -23 93 0 20 -7 41
-15 48 -8 7 -15 9 -16 4 0 -5 -9 11 -20 36 -29 65 -132 225 -137 212 -2 -6 6
-44 17 -85 12 -40 21 -76 21 -80 0 -4 -15 -7 -33 -7 -29 0 -36 5 -55 46 -24
48 -80 124 -92 124 -4 0 8 -62 26 -137 19 -75 34 -155 34 -178 0 -54 -17 -112
-35 -119 -26 -10 -75 -98 -75 -133 0 -42 33 -77 86 -93 62 -17 98 -41 154
-102 56 -63 58 -76 3 -28 -19 17 -45 30 -60 30 -37 0 -145 84 -252 196 l-91
95 0 264 c0 186 3 264 11 267 9 3 986 2 1072 -1z m-733 -536 c57 -58 98 -77
136 -65 16 5 41 12 55 14 15 3 30 16 37 31 8 16 20 25 35 25 38 0 56 -21 50
-57 -6 -36 -26 -43 -42 -15 -9 15 -10 15 -11 1 0 -9 6 -21 13 -27 16 -14 133
-33 154 -25 12 5 14 1 8 -18 -6 -19 2 -14 46 25 58 52 117 86 149 86 33 0 25
-44 -16 -90 -36 -39 -139 -98 -151 -86 -8 8 40 59 84 88 18 13 33 27 33 31 0
19 -66 -33 -139 -108 -87 -91 -138 -115 -240 -115 -117 0 -166 31 -176 109 -3
25 -9 65 -14 89 -8 43 -4 51 17 30 8 -8 12 -9 12 -1 0 16 -81 83 -100 83 -32
0 -30 -14 2 -24 28 -9 35 -18 45 -56 11 -43 17 -130 9 -130 -18 0 -158 73
-163 86 -17 45 58 164 104 164 10 0 39 -20 63 -45z m-267 -298 c34 -28 86 -67
115 -86 28 -18 52 -35 52 -36 0 -2 -7 -34 -16 -71 -8 -38 -16 -115 -16 -174 0
-86 4 -119 25 -184 27 -84 27 -107 -3 -99 -15 4 -20 -2 -26 -32 -6 -36 -1
-116 10 -145 6 -15 -21 -16 -201 -11 l-23 1 0 445 c0 299 3 445 10 445 6 0 39
-24 73 -53z m303 -271 c25 -33 43 -65 40 -73 -3 -8 -2 -12 3 -9 23 15 51 -181
34 -244 -12 -44 -40 -52 -49 -15 -6 23 2 64 23 114 8 19 -32 6 -82 -27 -22
-15 -44 -25 -48 -24 -5 1 -6 -1 -4 -5 3 -5 -1 -16 -8 -26 -11 -15 -14 -10 -30
45 -29 103 -18 275 21 336 15 23 16 23 36 5 11 -10 40 -45 64 -77z m590 -85
c-3 -4 7 -8 22 -9 14 -1 30 -8 34 -15 6 -9 10 -9 17 1 7 11 9 10 14 -3 4 -9 3
-13 -3 -10 -18 11 -11 -7 9 -24 18 -16 20 -35 23 -224 l3 -207 -189 0 -189 0
36 35 c30 30 35 40 31 67 -3 19 4 68 16 113 12 45 21 110 21 150 0 39 5 76 12
84 10 12 9 14 -5 9 -9 -4 -19 -1 -22 7 -5 13 21 13 87 0 9 -2 15 1 11 6 -3 5
4 9 14 9 11 0 25 7 32 15 12 14 35 11 26 -4z"/>
<path d="M7859 6911 c-51 -50 -91 -81 -100 -76 -5 4 -21 -1 -36 -9 -16 -8 -77
-38 -138 -66 -143 -66 -300 -145 -452 -227 -96 -51 -123 -70 -123 -86 0 -16
-3 -18 -12 -9 -14 14 -28 16 -28 3 0 -5 13 -16 28 -24 28 -13 28 -13 24 15 -4
29 -2 31 48 32 14 1 24 6 23 11 -1 6 7 11 18 11 10 0 19 -4 19 -9 0 -4 5 -5
10 -2 6 4 8 15 5 25 -5 14 -1 17 22 14 20 -3 23 -2 10 4 -14 6 -8 10 28 20 25
6 45 16 45 22 0 5 7 10 15 10 8 0 23 4 33 10 9 5 41 19 70 31 28 12 52 25 52
30 0 5 3 8 8 7 11 -2 46 14 54 26 4 6 19 11 33 12 14 0 31 6 38 13 9 10 7 11
-13 8 -14 -2 -19 -2 -12 0 6 3 12 9 12 15 0 6 12 7 32 3 26 -6 30 -5 25 9 -4
9 -2 16 3 16 6 0 10 -7 10 -15 0 -13 2 -13 14 -3 8 8 10 15 4 19 -15 10 5 19
30 14 15 -2 19 0 15 11 -6 17 1 18 29 3 17 -9 19 -8 14 9 -6 17 -3 19 13 15
13 -3 32 4 52 21 21 18 38 25 51 20 14 -4 18 -2 14 5 -4 6 4 16 18 23 14 6 26
19 26 29 0 25 -12 29 -31 10z"/>
<path d="M3970 6743 c0 -18 -5 -35 -10 -38 -17 -10 -41 16 -35 36 9 26 -19 15
-39 -15 -27 -42 -30 -90 -7 -135 25 -48 39 -53 33 -11 -4 29 10 41 23 19 5 -6
12 -4 20 8 13 17 15 15 26 -16 l12 -33 14 33 c13 32 15 33 28 16 8 -12 15 -14
20 -8 13 22 27 10 23 -19 -5 -36 1 -37 23 -7 37 51 32 116 -13 165 -24 24 -48
31 -28 7 10 -12 10 -18 0 -30 -22 -27 -40 -18 -40 21 0 29 -3 34 -13 25 -10
-8 -17 -7 -25 1 -9 9 -12 5 -12 -19z"/>
<path d="M2230 6341 c0 -13 897 -13 905 -1 4 7 -157 10 -449 10 -268 0 -456
-4 -456 -9z"/>
<path d="M4890 6340 c0 -6 170 -9 455 -10 302 0 455 3 455 10 0 7 -154 10
-455 10 -285 0 -455 -4 -455 -10z"/>
<path d="M3552 6188 c-17 -17 -15 -93 3 -108 19 -16 52 -4 61 22 6 20 6 20 18
-3 26 -54 76 -26 76 42 0 59 -53 82 -75 32 l-9 -21 -11 21 c-12 25 -45 33 -63
15z"/>
<path d="M6350 4955 c10 -12 10 -21 1 -41 -6 -14 -9 -29 -7 -33 3 -4 7 -31 11
-60 3 -30 6 -56 7 -60 1 -3 -2 -14 -7 -25 -5 -11 -3 -26 3 -37 15 -23 16 -66
2 -74 -14 -9 -13 -78 2 -93 8 -8 8 -15 -1 -25 -7 -10 -8 -23 -3 -38 10 -28 9
-70 -2 -87 -4 -7 -3 -19 3 -25 10 -13 12 -39 10 -140 -1 -32 1 -60 5 -64 11
-11 7 -73 -5 -73 -8 0 -10 -14 -6 -40 3 -22 1 -40 -4 -40 -5 0 -9 -4 -9 -10 0
-5 6 -9 13 -7 8 1 12 -13 12 -45 0 -25 3 -50 7 -54 4 -4 0 -13 -10 -20 -14
-11 -15 -15 -3 -23 16 -10 5 -34 -12 -25 -7 3 -3 -2 8 -11 24 -19 22 -62 -3
-82 -12 -9 -13 -12 -3 -11 7 2 16 -3 18 -9 3 -7 0 -13 -5 -13 -7 0 -8 -10 -3
-27 4 -16 6 -34 3 -42 -3 -8 0 -11 6 -7 6 3 13 2 17 -4 3 -5 1 -10 -4 -10 -6
0 -11 -7 -11 -15 0 -8 -5 -15 -12 -15 -6 0 -4 -8 6 -19 17 -19 17 -19 -5 -14
-18 5 -21 3 -16 -11 4 -10 7 -20 7 -22 0 -2 7 -4 15 -4 8 0 15 -4 15 -10 0 -5
-4 -10 -10 -10 -18 0 -11 -30 8 -31 15 0 15 -1 -1 -8 -15 -5 -19 -19 -21 -59
-1 -29 1 -52 4 -52 3 0 11 -13 17 -30 9 -23 8 -32 -3 -41 -8 -7 -12 -14 -9
-17 3 -3 0 -12 -7 -19 -9 -11 -9 -16 1 -23 9 -5 10 -13 5 -21 -5 -8 -9 -25
-10 -39 0 -14 -4 -35 -8 -48 -6 -17 -3 -27 8 -35 14 -10 14 -17 4 -45 -11 -28
-10 -34 2 -42 10 -7 11 -10 3 -10 -7 0 -13 -7 -13 -15 0 -7 -8 -19 -17 -24
-17 -10 -17 -10 -1 -11 10 0 16 -7 16 -17 -1 -10 2 -40 6 -68 4 -33 4 -45 -3
-36 -7 10 -8 2 -4 -27 4 -28 2 -42 -6 -42 -6 0 -11 -5 -11 -11 0 -6 7 -9 15
-5 8 3 15 2 15 -3 0 -5 -9 -11 -20 -14 -11 -3 -20 -10 -20 -17 0 -7 8 -9 21
-5 19 6 20 5 9 -15 -7 -12 -9 -31 -6 -43 3 -12 0 -27 -6 -34 -7 -9 -7 -13 1
-13 6 0 11 -9 11 -21 0 -13 5 -18 13 -14 6 3 2 -2 -10 -11 -25 -18 -31 -36
-10 -32 7 2 11 -6 9 -19 -2 -12 2 -24 8 -28 15 -9 12 -28 -4 -22 -8 3 -17 -1
-21 -10 -6 -17 10 -33 33 -33 6 0 12 -5 12 -10 0 -6 -3 -9 -7 -9 -27 4 -63 -3
-63 -12 0 -7 9 -9 24 -5 20 5 24 2 28 -24 3 -16 1 -35 -3 -42 -4 -7 -9 0 -11
18 -2 16 -4 3 -5 -29 0 -34 3 -53 8 -46 4 7 5 17 3 21 -3 4 -1 8 3 8 5 0 14
-10 22 -21 11 -19 11 -21 -3 -16 -8 3 -18 2 -21 -4 -4 -5 -11 -7 -16 -4 -15
10 -33 -6 -18 -16 12 -8 12 -10 0 -18 -8 -5 -19 -8 -25 -6 -6 2 -22 -10 -35
-26 -18 -24 -21 -33 -12 -42 9 -9 11 -8 6 5 -5 13 -2 15 16 11 15 -4 20 -3 15
5 -4 7 -2 20 4 29 11 17 11 17 6 1 -3 -12 0 -18 10 -18 8 0 12 5 9 10 -11 17
5 11 30 -13 20 -19 23 -28 18 -64 -3 -23 -14 -51 -25 -62 -19 -21 -19 -21 2
-21 11 0 20 -7 20 -15 0 -9 -9 -15 -25 -15 -14 0 -25 -6 -25 -12 0 -9 -4 -8
-10 2 -5 8 -10 11 -10 6 0 -5 -7 -3 -16 5 -10 8 -13 21 -9 38 4 17 3 21 -3 12
-7 -9 -17 -11 -33 -5 -13 4 -28 8 -34 9 -5 0 -9 12 -8 25 3 23 2 24 -11 7 -7
-9 -18 -17 -25 -17 -6 0 -11 -7 -11 -15 0 -8 7 -15 16 -15 9 0 13 5 9 13 -4 6
-1 5 7 -4 14 -17 44 -32 68 -33 22 -1 18 -29 -4 -32 -31 -4 -42 -22 -25 -40
14 -14 18 -13 33 10 17 26 50 35 61 16 3 -5 -1 -10 -9 -10 -9 0 -16 -5 -16
-12 0 -6 3 -8 7 -5 3 4 12 2 20 -4 10 -9 13 -5 13 20 0 34 7 38 35 17 19 -14
19 -15 2 -33 -9 -11 -17 -25 -17 -31 0 -6 -6 -9 -14 -6 -10 4 -13 -4 -11 -33
2 -33 -1 -39 -19 -42 -43 -6 -364 -8 -457 -2 -53 3 -118 2 -145 -2 -33 -6 -55
-4 -71 4 -18 10 -26 10 -35 1 -7 -7 -17 -12 -23 -12 -5 0 -3 5 5 10 11 7 -6
10 -55 11 -193 5 -318 12 -475 30 -47 5 -132 14 -190 20 -58 6 -112 13 -120
16 -8 4 -19 5 -25 4 -13 -4 -49 -7 -175 -15 -69 -5 -100 -4 -91 2 10 7 -1 11
-38 13 -28 2 -51 2 -51 -1 0 -3 -35 -2 -77 2 -43 3 -159 7 -258 8 -202 2 -236
6 -420 45 -115 25 -148 28 -280 26 -133 -2 -148 -1 -135 13 8 8 31 19 50 25
32 10 31 10 -22 7 -36 -2 -59 1 -62 8 -3 7 -9 5 -16 -6 -13 -21 -170 -71 -194
-62 -10 4 -16 1 -16 -7 0 -7 -6 -5 -14 7 -14 19 -14 19 -13 -1 2 -17 -8 -22
-58 -33 -33 -7 -113 -19 -178 -27 -65 -8 -121 -17 -125 -19 -4 -2 -138 -1
-297 3 -287 8 -369 6 -360 -9 2 -4 -7 -5 -21 -2 -15 3 -29 0 -33 -5 -5 -8
-218 -50 -266 -52 -53 -3 -125 -14 -125 -19 0 -9 81 -7 150 4 30 4 59 7 63 6
5 -1 25 2 45 7 83 22 130 31 187 36 33 3 77 10 98 16 27 7 42 7 51 0 8 -6 24
-7 42 -3 16 5 94 6 174 4 260 -6 445 -4 521 7 41 5 101 8 134 5 43 -4 56 -3
45 5 -8 5 -12 12 -10 14 10 9 217 34 268 33 49 -1 67 6 40 17 -7 3 7 6 32 6
35 1 42 -2 30 -10 -12 -8 -9 -9 10 -4 14 3 41 10 60 15 53 14 100 12 100 -4 0
-8 22 -18 63 -25 34 -7 105 -21 157 -31 52 -10 118 -21 145 -25 70 -10 95 -14
133 -21 18 -3 38 -2 45 4 18 15 418 13 410 -2 -4 -6 1 -5 10 3 14 11 36 12
105 6 48 -4 114 -9 147 -10 66 -2 226 -15 264 -21 124 -19 115 -18 436 -30
140 -6 202 -11 170 -15 l-50 -6 63 -1 c39 -1 62 2 62 9 0 7 17 8 53 3 28 -4
64 -6 80 -5 16 1 27 -4 27 -11 0 -10 2 -10 8 -1 5 9 29 10 85 4 42 -4 83 -3
90 1 16 10 57 10 57 -1 0 -4 28 -8 63 -9 34 0 115 -6 180 -13 85 -9 121 -9
129 -1 7 7 10 85 9 237 0 124 2 224 7 222 4 -3 7 131 7 298 0 167 -3 301 -7
298 -5 -2 -8 14 -8 36 0 23 3 41 8 41 6 0 5 119 -3 420 -2 62 0 83 5 60 l7
-35 2 32 c0 17 -3 35 -9 38 -6 4 -10 57 -10 126 0 77 4 118 10 114 6 -3 7 1 4
9 -3 9 -10 13 -15 10 -5 -3 -9 1 -9 10 0 8 6 17 13 19 9 4 9 7 0 14 -8 6 -13
41 -14 103 -3 275 -10 495 -19 580 -6 63 -6 96 0 98 6 2 10 11 10 20 0 15 -2
15 -10 2 -7 -10 -10 30 -10 122 0 81 4 139 10 143 6 3 10 12 10 18 0 8 -4 7
-9 -2 -6 -9 -10 10 -13 58 -1 40 1 76 7 82 5 6 5 9 -3 9 -7 0 -12 14 -12 34 0
22 -6 36 -16 40 -14 5 -15 4 -4 -9z"/>
</g>
</svg>
